<svg version="1.1" id="Layer_1" xmlns="http://www.w3.org/2000/svg" x="0" y="0" viewBox="0 0 18 15" xml:space="preserve"><path fill="currentColor" d="M17.5.3c-.7.4-1.5.7-2.3.9C14.5.4 13.5 0 12.5 0c-2.1 0-3.7 1.7-3.7 3.8 0 .3 0 .6.1.9-3-.2-5.8-1.6-7.6-4-1 1.7-.5 3.9 1.1 5.1-.6 0-1.2-.2-1.7-.5 0 1.8 1.2 3.3 3 3.7-.3.1-.7.2-1 .2-.2 0-.5 0-.7-.1.5 1.5 1.9 2.6 3.4 2.6-1.3 1.1-2.9 1.6-4.6 1.6-.3 0-.6 0-.9-.1C1.7 14.4 3.6 15 5.7 15c6.8 0 10.5-5.8 10.5-10.8v-.5c.7-.5 1.4-1.2 1.8-2-.7.3-1.4.5-2.1.6.7-.4 1.3-1.2 1.6-2z"/></svg>