<svg version="1.1" id="Layer_1" xmlns="http://www.w3.org/2000/svg" x="0" y="0" viewBox="0 0 23.1 18.7" xml:space="preserve"><path fill="currentColor" d="M20.2 5.8c1.6 0 2.9 1.3 2.9 2.9 0 1.1-.6 2.1-1.5 2.6v.3c0 4-4.5 7.2-10.1 7.2S1.4 15.5 1.4 11.5v-.4C.6 10.6 0 9.7 0 8.6 0 7 1.3 5.7 2.9 5.7c.6 0 1.2.2 1.7.5C6.5 5 8.8 4.3 11 4.2L12.7.3c.1-.2.5-.3.8-.3l4.1 1c.6-1 2-1.3 3-.6s1.3 2 .6 3c-.6 1-2 1.3-3 .6-.6-.4-.9-.9-1-1.6l-3.5-.8-1.2 2.8c2.1.1 4.2.8 5.9 2 .6-.4 1.2-.6 1.8-.6zm-.8-2.9c.4 0 .7-.3.7-.7 0-.4-.3-.7-.7-.7s-.7.3-.7.7c0 .4.3.7.7.7zM7.9 9.4c-.8 0-1.4.6-1.4 1.4s.6 1.4 1.4 1.4c.8 0 1.4-.6 1.4-1.4 0-.8-.6-1.4-1.4-1.4zm1.1 5c-.3-.2-.8-.1-1 .2-.2.3-.1.7.2 1 2 1.4 4.7 1.4 6.6 0 .3-.2.4-.7.2-1-.2-.3-.7-.4-1-.2a4.2 4.2 0 0 1-5 0zm6.1-5c-.8 0-1.4.6-1.4 1.4s.6 1.4 1.4 1.4c.8 0 1.4-.6 1.4-1.4 0-.8-.6-1.4-1.4-1.4zm0 1.4zm-7.2 0z"/></svg>