<?xml version="1.0" encoding="UTF-8"?>
<svg viewBox="0 0 497 242" version="1.1" xmlns="http://www.w3.org/2000/svg" xmlns:xlink="http://www.w3.org/1999/xlink">
    <!-- Generator: Sketch 62 (91390) - https://sketch.com -->
    <title>Logo/Color/Light</title>
    <desc>Created with Sketch.</desc>
    <defs>
        <polygon id="path-1" points="0.000376989934 0.637931034 101.368103 0.637931034 101.368103 117.910594 0.000376989934 117.910594"></polygon>
    </defs>
    <g id="Logo/Color/Light" stroke="none" stroke-width="1" fill="none" fill-rule="evenodd">
        <g id="Group-12" transform="translate(0.000000, -8.000000)">

            <path d="M5.08362069,60.3043103 L96.3594828,107.106034 C99.4112069,109.04569 101.290517,112.381897 101.368103,115.993966 L101.368103,172.847414 C101.368103,176.373276 99.1094828,178.028448 96.3594828,176.623276 L5.08362069,129.812931 C2.02327586,127.890517 0.126724138,124.55431 0.0405172414,120.933621 L0.0405172414,64.0715517 C0.0405172414,60.5887931 2.33362069,58.8905172 5.08362069,60.3043103" id="Fill-8" fill="#3CB4E5"></path>
            <path d="M5.08362069,125.410345 L68.5663793,92.8586207 L5.08362069,60.3068966 C4.01465517,59.6 2.62672414,59.6 1.55775862,60.3068966 C0.635344828,61.9965517 0.118103448,63.8758621 0.0405172414,65.8068966 L0.0405172414,120.927586 C0.075,122.143103 0.325,123.332759 0.781896552,124.462069 C1.61810345,125.893103 3.45431034,126.375862 4.88534483,125.539655 C4.94568966,125.496552 5.01465517,125.453448 5.08362069,125.410345" id="Fill-10" fill="#00A0DF"></path>
        </g>
    </g>
    
</svg>