<?xml version="1.0" encoding="utf-8"?><svg xmlns="http://www.w3.org/2000/svg" xmlns:xlink="http://www.w3.org/1999/xlink" id="Layer_1" data-name="Layer 1" viewBox="0 0 500 500"><defs><radialGradient id="radial-gradient" cx="195.51" cy="294.3" r="17.94" gradientUnits="userSpaceOnUse"><stop offset=".21" stop-color="#fff"/><stop offset=".49" stop-color="#a8eff3" stop-opacity=".66"/><stop offset="1" stop-color="#00d0dc" stop-opacity="0"/></radialGradient><radialGradient id="radial-gradient-2" cx="193.54" cy="216.99" r="31.82" xlink:href="#radial-gradient"/><radialGradient id="radial-gradient-3" cx="210.72" cy="369.58" r="17.94" xlink:href="#radial-gradient"/><radialGradient id="radial-gradient-4" cx="376.29" cy="169.16" r="17.94" xlink:href="#radial-gradient"/><radialGradient id="radial-gradient-5" cx="130.57" cy="255.13" r="17.94" xlink:href="#radial-gradient"/><radialGradient id="radial-gradient-6" cx="317.27" cy="395.3" r="17.94" xlink:href="#radial-gradient"/><radialGradient id="radial-gradient-7" cx="329.2" cy="257.55" r="17.94" xlink:href="#radial-gradient"/><radialGradient id="radial-gradient-8" cx="282.44" cy="184.33" r="17.94" xlink:href="#radial-gradient"/><radialGradient id="radial-gradient-9" cx="210.72" cy="113.4" r="17.94" xlink:href="#radial-gradient"/><radialGradient id="radial-gradient-10" cx="364.08" cy="344.71" r="17.94" xlink:href="#radial-gradient"/><radialGradient id="radial-gradient-11" cx="148.51" cy="155.9" r="17.94" xlink:href="#radial-gradient"/><style>.cls-1{fill:#fff}.cls-3,.cls-30{fill:#425cc7}.cls-4{fill:#005cb9}.cls-6{fill:#00a0df}.cls-7{fill:#3cb4e5}.cls-9{fill:#046fa5}.cls-11{fill:#d7eff9}.cls-12{fill:#b7e0ed}.cls-13{fill:#91bd4c}.cls-14{fill:#7ac2d3}.cls-15{fill:#60b7c6}.cls-17{fill:#3fd4ff}.cls-30{opacity:.35}</style><mask id="mask" width="28" height="32.39" x="198.62" y="302.64" maskUnits="userSpaceOnUse"><g id="mask-2"><path id="path-1" d="M198.62 302.64h28v32.39h-28v-32.39z" class="cls-1"/></g></mask></defs><path d="M461.54 263.68l-.12 24.16c.09-17.28-20.3-34.59-61.13-47.75-81.14-26.15-212.73-26.15-293.34 0-40 13-60.09 30-60.18 47.09L46.9 263c.1-17 20.1-34.09 60.17-47.08 80.61-26.15 212.2-26.15 293.34 0 40.83 13.16 61.22 30.47 61.13 47.76z" class="cls-3" opacity=".53"/><circle cx="257.9" cy="267.16" r="156.57" class="cls-4"/><ellipse cx="252.13" cy="257.55" fill="#1d85db" rx="148.19" ry="144.15"/><ellipse cx="240.97" cy="247.45" class="cls-6" rx="128.34" ry="124.84"/><ellipse cx="221.8" cy="219.24" class="cls-7" rx="104.07" ry="86.7" transform="rotate(-21.19 221.736 219.2)"/><ellipse cx="210.72" cy="190.66" fill="#4cc7ed" rx="59.89" ry="49.89" transform="rotate(-23.98 210.68 190.652)"/><path d="M379.26 168.24q1.09 1.34 2.16 2.7-1.06-1.37-2.16-2.7zM382 171.64q.92 1.2 1.82 2.41-.94-1.22-1.82-2.41zM362.53 150.69q1.25 1.12 2.47 2.27-1.22-1.15-2.47-2.27zM386.78 178.24q.76 1.1 1.51 2.22-.75-1.12-1.51-2.22zM368.25 156.08A157.45 157.45 0 01379 167.89a157.49 157.49 0 00-10.75-11.81zM365.43 153.36q1.33 1.26 2.63 2.55-1.3-1.3-2.63-2.55zM384.43 174.94q.83 1.13 1.64 2.28-.81-1.15-1.64-2.28zM398.78 198.76c.41.84.81 1.7 1.21 2.55-.4-.86-.8-1.71-1.21-2.55zM397 195.23c.41.79.8 1.58 1.2 2.37-.39-.79-.79-1.6-1.2-2.37zM400.46 202.33c.44 1 .86 1.93 1.28 2.9-.42-.97-.84-1.94-1.28-2.9zM395.14 191.75q.62 1.13 1.23 2.28-.61-1.15-1.23-2.28zM391.15 184.91q.67 1.09 1.33 2.19-.66-1.1-1.33-2.19zM393.19 188.3q.65 1.1 1.27 2.22-.63-1.11-1.27-2.22zM389 181.56q.71 1.09 1.41 2.19-.69-1.11-1.41-2.19zM359.56 148.09q1.23 1 2.43 2.12-1.2-1.08-2.43-2.12zM339.92 133.77q1.6 1 3.17 2-1.57-1.01-3.17-2zM343.48 136q1.45 1 2.88 1.93-1.42-.93-2.88-1.93zM346.89 138.33q1.36.94 2.7 1.91-1.34-.97-2.7-1.91zM350.19 140.68q1.29.95 2.57 1.92-1.27-.98-2.57-1.92zM356.52 145.55q1.23 1 2.44 2-1.21-1-2.44-2zM353.4 143.08q1.25 1 2.48 2-1.23-1.08-2.48-2z" class="cls-9"/><path fill="#3090c9" d="M161.31 149.6c-.62.48-1.26.94-1.88 1.43a9.52 9.52 0 001.85-1.33z"/><path d="M304.61 173a2.27 2.27 0 011 2.52 11.38 11.38 0 003.42.32 6.43 6.43 0 00-.17 5 4.29 4.29 0 01.35 1.09c.12 1.23-1.16 2.54-.47 3.57a1.65 1.65 0 002 .35 9.43 9.43 0 001.79-1.38c1.38-1.11 3.9-1.83 4.22-3.81s-.7-3.12-2.37-3.74c-1.32-.5-1.9-2-2.62-3.22a18.57 18.57 0 00-3-3.54c-1-1-2.33-2.14-3.75-1.81a3.65 3.65 0 00.72-1.56 1.25 1.25 0 00-.79-1.38c-.78-.2-1.42.65-1.59 1.44a5.17 5.17 0 01-.64 2.28c-.28.34-.72.59-.84 1a1.29 1.29 0 00.38 1.13 15.31 15.31 0 002.36 1.74z" class="cls-11"/><path d="M277.14 138.5a8.55 8.55 0 002.34-1.88 1.83 1.83 0 00.57-1.77c-.34-.83-1.52-.82-2.37-.54s-1.82.69-2.58.22c-.4-.25-.64-.71-1-1-1-.67-2.33.2-3.54.26a8.47 8.47 0 01-1.51-.16 9.56 9.56 0 00-4.51.66 95.94 95.94 0 0113.88 5.26 5.3 5.3 0 00-1.28-1.05z" class="cls-12"/><path d="M253.28 137.73a2.41 2.41 0 011.84 1.62l-3.84-.21a2.39 2.39 0 00-2.06.55 1.54 1.54 0 00.08 1.82 3.49 3.49 0 001.61 1.07 10.08 10.08 0 004.66.61l-1 8v.42a42.65 42.65 0 019.77 12.39 90.41 90.41 0 007-7.95 5.16 5.16 0 013.17-2.41 15.42 15.42 0 004.89-2.64 1.94 1.94 0 00.63-.71 2.08 2.08 0 00-.23-1.61 3.81 3.81 0 00-1.92-2.33l.62-1.73h1.1a5.77 5.77 0 00-1.22-5.1 95.94 95.94 0 00-13.88-5.26c-2.76 1-5.45 2.71-8.38 3a15.25 15.25 0 00-2.84.47z" class="cls-11"/><path d="M254.58 151.64a1.44 1.44 0 00.4 1.25c.26.21.63.27.84.53.39.5-.14 1.17-.54 1.67a5.88 5.88 0 00-1 4.55 14.06 14.06 0 001.69 4.47c.8 1.49 2 3.12 3.64 3.18 1.36.05 2.5-.94 3.47-1.89.45-.44.86-.92 1.3-1.37a42.65 42.65 0 00-9.8-12.39zM244.66 153.2c-.86-.8 0-2.38-.57-3.38a3.1 3.1 0 00-.73-.71 13 13 0 01-2.92-4.09c-.49.91-1.31 2-2.3 1.68a1.49 1.49 0 00.72-1.32 4.23 4.23 0 00-3.29 1.1c-.55-.27.26-1.06.17-1.67a.76.76 0 00-.83-.55 2.05 2.05 0 00-1 .46 19.24 19.24 0 00-2.46 2.1 1.75 1.75 0 00-.69 1.47 1.82 1.82 0 00.86 1 8.52 8.52 0 002.48 1.33 2.89 2.89 0 002.67-.46c.46 0 .69.58.6 1s-.32.92-.16 1.36.39.51.54.79c.63 1.2-1.93 3.44-2.87 4-.53.3-5.74.38-5.73.91 0 .94 1.24 1.22 2.15 1.43a6.4 6.4 0 013.59 2.31 14.14 14.14 0 001.16 1.53 1.93 1.93 0 001.73.62 1.07 1.07 0 00.74-1.47c.88.06 1.46 1.2 2.33 1.09s1-1 .95-1.75a8 8 0 01-.32-2.18 3.17 3.17 0 011.71-2 7.91 7.91 0 002.24-1.57 1.81 1.81 0 000-2.47c-.23-.25-.54-.35-.77-.56z" class="cls-1"/><path d="M165 146.19a4.65 4.65 0 00-3.67 3.42q2.32-1.79 4.73-3.48a7.12 7.12 0 00-1.06.06z" class="cls-13"/><path d="M152.83 152.14c-.3.27.23.67.63.72a29.3 29.3 0 013 .67c1-.84 2-1.68 3-2.49a10 10 0 01-6.63 1.1z" class="cls-14"/><path d="M158 154.24a.82.82 0 00.47.09h3.06l1.09-.82a1.85 1.85 0 010-.22 1 1 0 01.91-1 1.74 1.74 0 01.73.08 123.41 123.41 0 0125.3-13.6c-5 .17-10 .87-14.27 3.4-2.52 1.5-4.86 3.64-7.77 3.89h-1.45q-2.41 1.69-4.73 3.48v.1a9.52 9.52 0 01-1.85 1.33c-1 .81-2 1.66-3 2.49a14.17 14.17 0 001.48.3.28.28 0 00.03.48z" class="cls-12"/><path d="M166.26 153.23c.75.1 1.6-.26 2.23.16a2 2 0 01.53.61c.52.79.87 1.62 1.35 2.44a15.75 15.75 0 01-6.61 6.42c-.43.22-.92.47-1 .94s.32 1.13.21 1.7a1.77 1.77 0 01-.64.91c-2.16 2-4.54 4-6.7 6-.06-.49-.71-.7-1.17-.51a2.54 2.54 0 00-1 1c-4.28 6.52-7.86 13.24-14 18a32.4 32.4 0 00-9.57 13.39 96.74 96.74 0 00-4.53 16c-1.15 5.19-2.31 10.47-2 15.78.05.74.41 1.72 1.15 1.6l4.72-21.67c.15-.67.91-1.51 1.31-.95a.86.86 0 01.11.51c0 3-1.57 5.84-2.28 8.8a32.1 32.1 0 00-.28 9.93q.67 8.63 1.45 17.25a14.46 14.46 0 00.63 3.58 12.78 12.78 0 002.29 3.68 52 52 0 0010.34 9.62c3 2.08 6.18 3.89 8.54 6.63a15.72 15.72 0 013.6 12.43 2.68 2.68 0 000 1c.28 1.18 1.9 1.28 3.1 1.11-.87.73 0 2.32 1.08 2.44a3.49 3.49 0 002.85-1.57 46.23 46.23 0 01-4.97-14.93c-.39-2.6-.77-5.6-3-7a12.32 12.32 0 01-1.76-1c-1-.92-1.12-2.52-.86-3.89a11 11 0 012.35-5 12.32 12.32 0 001.82-2.35 2.41 2.41 0 00-.27-2.77c-1.14-1.05-3-.1-4 1.09s-1.9 2.72-3.43 3c-1.91.31-3.39-1.56-4.41-3.2l-2.68-4.41a3.27 3.27 0 01.27-4.42 112.49 112.49 0 0115.08-19.05c1.61.65 1.48 3.32 3.05 4.05 1.86.87 3.83-1.83 5.8-1.29a3.57 3.57 0 012 2.15 23.84 23.84 0 012.19 11.8c1.09 0 1.88-.19 3-.21a19.77 19.77 0 012-8.15A43.61 43.61 0 01156 215c-11.2-25.18 4.22-56.49 34.45-69.93 1.54-.69 3.1-1.3 4.65-1.87a1.91 1.91 0 01-.07-.71 7.9 7.9 0 01.36-1.29 3.52 3.52 0 00-.24-2.46h-5.61a123.41 123.41 0 00-25.3 13.6 4.12 4.12 0 01.67.29 4.26 4.26 0 001.35.6z" class="cls-11"/><path d="M162.67 153.77a.79.79 0 000-.26l-1.09.82h.06c.36 0 .99-.12 1.03-.56z" class="cls-13"/><path d="M179.3 228.34c2.4-2 5.23-3.36 7.64-5.31s4.48-4.73 4.41-7.83c0-.79.09-1.91.88-1.93l.33 3.83a24.91 24.91 0 0113-9.66c1.29-.4 2.79-.86 3.29-2.11a2.17 2.17 0 01-.86-1.48l7.11-3.85c1.2-.65 3.1-1.08 3.59.2-.79 1.19-2.72 2.11-2.11 3.4.53 1.14 2.25.62 3.31-.05l6.45-4.11a7.26 7.26 0 002.46-2.16 2.48 2.48 0 00-.2-3c-1.3-.06-2.19 1.81-3.46 1.53a2.26 2.26 0 01-1-.62l-2.4-2.2c1.86-.08 3.55-1 5.28-1.72 3.32-1.34 7-1.83 10-3.77s5.09-6.17 3.07-9.13c-1-1.42-2.8-2.58-2.55-4.27a4.07 4.07 0 011.5-2.2 3.91 3.91 0 001.47-2.22c.11-.9-.78-1.92-1.62-1.56-.42.18-.66.62-.93 1a4.22 4.22 0 01-5.73.8 5.87 5.87 0 00-.49-7.11 3.11 3.11 0 00-1.13-.83 3.42 3.42 0 00-2.9.51c-4.17 2.49-5.58 8.4-10 10.36-3.14 1.38-6.93-.41-9.92-2.09-1.37-.77-2.8-2.4-1.93-3.72a3.16 3.16 0 011-.84l11.6-7.68c1.3-.86 2.77-1.76 4.31-1.49-.35.58-.92 1-1.33 1.53a1.59 1.59 0 00-.2 1.87 2 2 0 001.73.48l4-.15a5.46 5.46 0 013.24-6.71 4 4 0 001.47-.65c.4-.37.51-1.12 0-1.4a1.28 1.28 0 00-.85-.08l-3.85.53c-.75-1.45.17-3.27 1.46-4.27s2.9-1.52 4.24-2.44c-.93-.9-2.45-.59-3.69-.22-1.63.48-3.46 1.14-4.08 2.72-.17.43-.23.9-.39 1.33-.55 1.47-2.08 2.29-3.5 3-.31-.41 0-1 .39-1.34s.88-.63 1-1.13c.27-1.06-1.23-1.61-2.33-1.65.56 1.05-.55 2.21-1.58 2.8-.87.49-2 .87-2.79.23a6.4 6.4 0 01-.78-1.05 2.41 2.41 0 00-3.69.11c-.38.55-1 1.39-1.48.93.76-.27.41-1.52-.32-1.87s-1.62-.27-2.31-.69a8 8 0 01-1.46-1.58c-2.26-2.39-6.58-.65-9.34-2.43a3 3 0 01-1.25-1.59c-1.56.57-3.11 1.18-4.65 1.87C160.22 158.51 144.8 189.82 156 215a43.61 43.61 0 0018.14 19.93 19.77 19.77 0 015.16-6.59z" class="cls-1"/><path d="M219.72 411.3c4.41 3.32 10.34 5.92 15.33 3.55a25.1 25.1 0 01-13.83-13.68 4.7 4.7 0 004.47-1.76 150.42 150.42 0 01-22.07-5.62c4.72 6.45 9.74 12.71 16.1 17.51z" class="cls-15"/><path d="M180.52 358.73a6.6 6.6 0 001.94-.18q-2.45-1.22-4.84-2.55c.58 1.43 1.38 2.55 2.9 2.73zM224.6 392.93c3.41.29 7.74.06 9-3.11a12.09 12.09 0 00.46-3.81c.34-5.21 3.78-9.38 6.94-13.71a131 131 0 01-49.52-9.64l.92.93a4 4 0 011.28 2 4.71 4.71 0 01-.35 2c-2.31 7.66 2.6 15.44 7.26 21.94q1.51 2.1 3 4.2a150.42 150.42 0 0022.07 5.62 4.2 4.2 0 00.59-1 4.69 4.69 0 00-1.65-5.42z" class="cls-14"/><path d="M241 372.29c2.13-2.91 4.13-5.9 5-9.31 1.21-4.92-.15-10.14.63-15.14s3.7-10.25 1.71-15c-2.87-6.78-13.88-7.34-16.05-14.37a26.59 26.59 0 00-6.37 3.41c-1-3.45-3-6.87-4-10.32a28 28 0 00-1.34-3.76c-19.59 1.91-38.49-1.18-54.56-8.54a18.84 18.84 0 01-1.54 5.27c-.83 1.79-1.95 3.49-2.28 5.44-.49 2.82.74 5.62 1.24 8.44 1 5.78-1 12 1.18 17.46 2.48 6.15 9.73 9.54 11.69 15.87.41 1.32.73 2.89 1.28 4.21q2.39 1.32 4.84 2.55l.52-.08c3.25-.38 6.08 1.82 8.47 4.18a131 131 0 0049.58 9.69z" class="cls-12"/><path d="M215.86 302.58l-5.7-4.26a5.18 5.18 0 01-.44 3.67c-.73 1-2.67 1.14-3-.06-.47-1.51-1.76-3.28-2.23-4.79-.81-2.59-1.73-5.34-3.88-7-2.5-1.94-6-1.88-8.91-3.1-3.14-1.32-6.17-4.21-9.42-3.17 1.1 1.3.42 3.51-1.07 4.32a4.66 4.66 0 01-4.8-.57c-1.16-.83-2-2.61-1-3.62.62-.61 1.71-.67 2.13-1.42a1.58 1.58 0 00-.77-2 4.58 4.58 0 00-2.32-.37h-2.21a.88.88 0 00-1.07.91c-.49 3.1-.62 5.63-1.11 8.73l-4.79.57a19.11 19.11 0 01.83 8.85c16.06 7.37 35 10.45 54.56 8.54a10.63 10.63 0 00-1.17-2 17.49 17.49 0 00-3.63-3.23z" class="cls-11"/><path d="M362 150.21l.54.48zM346.37 138l.52.36zM365 153l.43.4zM352.76 142.6l.64.49zM339.76 133.67l.16.1zM343.09 135.78l.39.26zM359 147.57l.61.51zM349.59 140.24l.6.44zM368.06 155.9l.19.18zM355.88 145l.64.51zM392.48 187.1l.71 1.2zM398.2 197.6l.57 1.16zM388.28 180.45l.73 1.1zM390.42 183.74l.73 1.17zM394.46 190.53l.68 1.22zM400 201.31l.48 1zM401.74 205.23l.32.72zM396.36 194l.64 1.21zM386.07 177.22l.7 1zM381.42 170.94l.54.7zM379 167.89l.27.34zM383.78 174l.65.89z" class="cls-13"/><path d="M351.86 364.17c-1.06 3.21-2.12 6.41-3.25 9.6a4.76 4.76 0 00-.4 2.18 1.62 1.62 0 001.42 1.48c.81 0 1.37-.77 1.89-1.4a8.52 8.52 0 014.15-2.75 2.32 2.32 0 001.06-.49 2.6 2.6 0 00.49-1.21c.54-2 2.33-3.48 4-4.82a75.49 75.49 0 0020.13-24.95c4.63-9.46 7.13-20.15 13.82-28.28 1.55-1.88 2.1-4.86 3.11-7.08a24.25 24.25 0 002.09-8.16c.18-2.38 0-4.78 0-7.17-.1-9.05 1.92-18 3.92-26.81.51-2.23-.29-4.61-.17-6.89a14.88 14.88 0 01-3.77 2.8c-.84 41.18-19.35 78.14-48.49 103.95zM400.33 254.25a193.14 193.14 0 002.17-27.45c0-3.16-2.39-6.22-4.78-8.29l-.63 2.56a3.87 3.87 0 01-2-1.5 140.44 140.44 0 015.18 34.43c.02.08.04.16.06.25zM317.41 126.76a1.41 1.41 0 00-.12.77c.09.37.45.58.77.78s.32.24.49.36c36 17.57 63.55 49 75.41 87a1.22 1.22 0 00.78.48c.5 0 .82-.5 1.15-.88a3.51 3.51 0 014-.64 8.37 8.37 0 013.18 2.83c.69.92 1.5 2 2.65 2a49.12 49.12 0 01-.66-6q-1.39-3.8-3-7.51l-.32-.72c-.42-1-.84-1.94-1.28-2.9l-.48-1c-.4-.85-.79-1.7-1.21-2.55l-.57-1.16c-.39-.79-.79-1.59-1.2-2.37l-.64-1.21q-.6-1.14-1.23-2.28l-.68-1.22q-.63-1.12-1.27-2.22l-.71-1.2q-.66-1.1-1.33-2.19l-.73-1.17q-.69-1.1-1.41-2.19l-.73-1.1q-.74-1.12-1.51-2.22l-.7-1q-.81-1.15-1.64-2.28l-.65-.89q-.9-1.21-1.82-2.41l-.54-.7q-1.06-1.36-2.16-2.7l-.27-.34a157.45 157.45 0 00-10.74-11.81l-.19-.18q-1.3-1.29-2.63-2.55L365 153q-1.22-1.15-2.47-2.27l-.54-.48q-1.2-1.07-2.43-2.12l-.61-.51q-1.21-1-2.44-2l-.64-.51q-1.23-1-2.48-2l-.64-.49q-1.27-1-2.57-1.92l-.6-.44q-1.34-1-2.7-1.91l-.52-.36q-1.43-1-2.88-1.93l-.39-.26q-1.57-1-3.17-2l-.16-.1a156.09 156.09 0 00-21.62-11.07 13.53 13.53 0 01-.73 4.13z" class="cls-15"/><path d="M318.54 128.66a8.84 8.84 0 012.86 3.44c-.85-.26-1.66-.39-2.5-.65-.53.14-.58.95-.2 1.35a2.88 2.88 0 001.48.64 9.71 9.71 0 014.39 2.45l-2.42 1.27a4.58 4.58 0 011.95 5.4l-2.36-.5c-.37.57.09 1.34.67 1.68a14.66 14.66 0 011.82.89c.94.75 1 2.13 1 3.33a17.87 17.87 0 01-4.73-2.5.5.5 0 01-.22-.27.51.51 0 01.19-.41l1.06-1.13a27 27 0 00-4-2.46 1.38 1.38 0 00-.87-.21 1.67 1.67 0 00-.74.5 10.13 10.13 0 01-4.17 1.87A126 126 0 01360.48 202a13 13 0 001 1.14c1.37 1.45 3.14 2.67 3.78 4.56a2.33 2.33 0 001.27-2 10.2 10.2 0 005.72-3.41 33.9 33.9 0 012.45 6.64c.43 1.93.65 4.09-.39 5.78a8.72 8.72 0 01-3 2.6 57.12 57.12 0 01-5.06 2.85 121.67 121.67 0 01-9.89 82.18c.67 1.13 1.29 2.29 1.85 3.48 4 8.43.13 18.15.38 27.47a50.58 50.58 0 01-.4 10 48.09 48.09 0 01-1.34 5.34c-1.54 5.24-3.2 10.44-4.92 15.63 29.14-25.81 47.65-62.77 48.42-103.94-.2.11-.4.22-.6.32a.78.78 0 01-.68.08.81.81 0 01-.32-.57c-1.76-7.41-5.33-14.27-9.45-20.67s-8.83-12.4-13.15-18.67a1.46 1.46 0 01-.37-1.11c.09-.39.73-.59.89-.22a6.76 6.76 0 00.93 2.2 2.29 2.29 0 002 1c0-.5.18-1.13.68-1.19s.73.36.94.72q4.7 8 10.17 15.43c3.71 5.08 7.8 10.25 8.91 16.43a140.44 140.44 0 00-5.17-34.43l-.81-1c-1.69-2.11-4.19-3.71-5.06-6.27.89-.46 1.89.34 2.57 1.08l2.1 2.27c-11.84-38.1-39.43-69.49-75.39-87.06z" class="cls-14"/><path d="M360.75 222.85c-.31.54-.41 1.26-1 1.57a1.92 1.92 0 01-1.38 0l-7.67-1.89a7.65 7.65 0 01-3-1.2c-2.23-1.75-1.85-5.19-2.87-7.85a3.88 3.88 0 00-2-2.34c-1.24-.48-2.63 0-3.85.6a162.83 162.83 0 00-16.21 8.78c-2.66 16.89-10.75 33.36-23.13 47.43a16.62 16.62 0 00.11 4.35c.52 3.12 2.1 6 3.66 8.72a70.14 70.14 0 007 10.87 70.14 70.14 0 009.22 8.63 9.57 9.57 0 003.43 2.1c3.38.92 6.5-1.92 9.81-3s7-.5 10.49-.76c2.68-.2 5.29-.93 7.95-1.29a2.78 2.78 0 011.33 0 2.83 2.83 0 011.2 1.08 42.17 42.17 0 012.37 3.59 121.67 121.67 0 009.89-82.18 22.81 22.81 0 01-2.6 1.09c-.99.38-2.19.73-2.75 1.7z" class="cls-12"/><path d="M307.33 147.94a2.48 2.48 0 012 1.83 7.65 7.65 0 01.13 2.84q-.23 3.08-.26 6.18a8.69 8.69 0 00.57 3.83c1 2 3.24 3 5.34 3.88.69.28 1.71.42 2-.27.14-.37 0-.81.15-1.16.35-.62 1.3-.17 1.81.34a35.25 35.25 0 015.12 6.55 3.27 3.27 0 00.74-3.57 11.45 11.45 0 00-2.1-3.24c-2.83-3.56-5.1-8.05-4.27-12.53a2.43 2.43 0 012 1.44 14.18 14.18 0 001.24 2.3c1.72 2.07 5.57 1.51 6.87 3.87a5.53 5.53 0 01.44 2.82v2.23a14.17 14.17 0 01-.78 5.23 4.82 4.82 0 01-4 3.13 2.62 2.62 0 01-2.31-1.07c-.39-.6-.52-1.47-1.19-1.72s-1.56.63-1.55 1.47a8.16 8.16 0 00.76 2.39 5.08 5.08 0 01-.81 4.69 13.56 13.56 0 00-.81 1.17c.14.35.31.7.45 1.06a74.15 74.15 0 014.59 34.15 3.91 3.91 0 002.43-1.89c.68-1.47-.09-3.15-.35-4.75-.58-3.5 1.31-6.88 3.12-9.93.75-1.25 1.61-2.6 3-3 1.61-.49 3.27.44 4.7 1.33 3.63 2.27 7.38 4.65 9.68 8.25a1.57 1.57 0 01.34 1.08c-.1.56-.74.86-1 1.37a1.75 1.75 0 00.83 2.09c.68.46 1.51.65 2.19 1.11a11.9 11.9 0 00.4-9.29.75.75 0 00.5-1 1.87 1.87 0 00-.86-.9c-2-1.24-4.42-1.64-6.58-2.61s-4.22-2.88-4.12-5.24a1.05 1.05 0 01.2-.66 1 1 0 01.67-.28c2-.24 3.7 1.52 5.12 3a38.14 38.14 0 0015.33 9.78 8 8 0 00-2.66-4c-.53-.43-1.18-.89-1.22-1.58a2.08 2.08 0 011-1.55 1.66 1.66 0 011-.46c.75 0 1.12.89 1.36 1.6a13.17 13.17 0 002 3.73 126 126 0 00-48.68-58.61c-.39.12-.79.24-1.17.38-1.88.65-3.74 2.25-3.36 4.19z" class="cls-12"/><path d="M313.78 187.14c-.42 1.79 1 3.45 2.32 4.7s2.85 2.72 2.74 4.56a4.59 4.59 0 01-2.49 3.41c-1.26.75-2.69 1.18-3.95 1.93a4.82 4.82 0 00-1.85 1.8 6.24 6.24 0 00-.24 4 52.08 52.08 0 001.48 6.27c.6 2 1.74 4.26 3.8 4.39 1.38.08 2.57-.88 3.86-1.38a32.94 32.94 0 013.55-.84c.15 0 .3-.1.45-.15a74.15 74.15 0 00-4.59-34.15c-.14-.36-.3-.7-.45-1.06a20.58 20.58 0 01-2.58 3.76 6.41 6.41 0 00-2.05 2.76zM314.29 227.92c-.44 1.36-.42 2.91-1.29 4-.51.67-1.29 1.11-1.74 1.83a5.57 5.57 0 00-.57 2.54 23.25 23.25 0 01-3.54 10.56c-1 1.57-3.48 2-4.2 3.71a10.38 10.38 0 00-.52 3.29c-.35 4.75-2.3 9.4-2.75 14.07 12.38-14.07 20.47-30.54 23.13-47.43l-2.64 1.58c-2.4 1.5-5 3.17-5.88 5.85z" class="cls-11"/><path fill="none" d="M209.83 216.17c-33.22 36.1-60 74.14-75.36 107.12a176.1 176.1 0 00-9.89 25.82L127 353l-2.38-3.92c-5.49 19.3-4.35 33.39 3.59 40.69 11.15 10.26 34.5 6.07 65.76-11.8 31.58-18.05 67.27-47.88 100.5-84s60-74.14 75.36-107.11c15.21-32.63 17.45-56.26 6.3-66.51-4-3.68-9.56-5.5-16.49-5.5-9.54 0-21.67 3.46-35.88 10.25l3.54 1.61-3.54-1.61q-6.42 3.07-13.39 7c-31.63 18.14-67.32 47.96-100.54 84.07z"/><path d="M377.44 118.92c-10.31-9.49-30-7.6-56.09 5.15l2.36 1.08c14.21-6.8 26.34-10.25 35.88-10.25 6.93 0 12.5 1.82 16.49 5.5 11.15 10.26 8.91 33.88-6.3 66.51-15.37 33-42.13 71-75.36 107.11l.74.68-.74-.68c-33.22 36.1-68.92 65.93-100.5 84-31.26 17.87-54.61 22.06-65.76 11.8-7.94-7.31-9.08-21.4-3.59-40.69l-1.39-2.29c-6.27 21-5.12 36.41 3.62 44.45 4.34 4 10.35 6 17.79 6 12.85 0 30-5.9 50.31-17.51 31.76-18.15 67.62-48.11 101-84.36s60.24-74.47 75.7-107.62c15.61-33.54 17.69-57.98 5.84-68.88z" class="cls-17"/><path d="M259.74 438h-.76c-14.88 0-29.71-18.24-41.82-51.5-12.45-34.18-20.43-80-22.47-129s2.1-95.35 11.67-130.45c9.47-34.74 23-54.22 38.15-54.85h.76c13.14 0 26.23 14.22 37.46 40.45l2.33.37c-11.91-28.3-26.14-43.42-40.63-42.8-16.08.67-30.29 20.67-40 56.32-9.62 35.29-13.78 81.83-11.74 131.06s10.07 95.26 22.59 129.63C227.71 421.32 243.2 440 259 440h.83c9-.37 17.39-6.79 24.75-18.61l-2.59.43c-6.73 10.27-14.27 15.84-22.25 16.18z" class="cls-17"/><path d="M412.59 290.61l-.44 2.68c9.34 12.68 12.48 23.77 8.88 32.38-5.84 14-28.81 19.93-64.68 16.76-36.24-3.2-81.12-15.38-126.4-34.3s-85.48-42.29-113.22-65.82C89.28 219 77.38 198.5 83.22 184.52c4.82-11.53 21.27-17.59 47-17.59 2.37 0 4.83.06 7.35.16l1.6-1.93c-31.71-1.52-52.11 5-57.79 18.59-6.2 14.85 5.9 36.19 34.08 60.09C143.34 267.5 183.74 291 229.2 310s90.56 31.23 127 34.45q9.42.83 17.66.83c26.71 0 43.89-6.5 49-18.81 4.03-9.62.39-21.91-10.27-35.86z" class="cls-17"/><path d="M429.18 184.27c-5.82-14.23-27.64-20.86-61.67-18.84-1.6.09-3.23.21-4.88.34-36.46 2.94-81.65 14.82-127.25 33.46l.38.93-.38-.93c-45.6 18.64-86.18 41.82-114.26 65.26-28.36 23.68-40.63 44.93-34.54 59.82 4.05 9.91 15.87 16.13 34.18 18.31l-1.14-2.12c-16.73-2.2-27.5-7.94-31.18-16.94-5.73-14 6.33-34.46 34-57.53 27.92-23.32 68.31-46.38 113.73-64.95s90.4-30.4 126.66-33.32c35.89-2.9 58.81 3.24 64.54 17.26 4.47 10.93-1.88 25.75-18 42.68l.56 2.27c17.29-17.97 24.07-33.84 19.25-45.7z" class="cls-17"/><path d="M375.19 371.2l-1.83 2c.9 15.73-2.52 26.73-10.23 32-12.52 8.52-35 1-63.34-21.26-28.61-22.46-59.57-57.17-87.18-97.73-7-10.31-13.6-20.68-19.69-31v3.91c5.63 9.39 11.65 18.83 18 28.21 27.72 40.73 58.83 75.59 87.6 98.18q7.43 5.84 14.34 10.33c22.38 14.58 40.32 18.52 51.36 11 8.63-5.84 12.29-18.14 10.97-35.64z" class="cls-17"/><circle cx="195.51" cy="294.3" r="17.94" fill="url(#radial-gradient)"/><circle cx="193.54" cy="216.99" r="31.82" fill="url(#radial-gradient-2)"/><circle cx="210.72" cy="369.58" r="17.94" fill="url(#radial-gradient-3)"/><circle cx="376.29" cy="169.16" r="17.94" fill="url(#radial-gradient-4)"/><circle cx="130.57" cy="255.13" r="17.94" fill="url(#radial-gradient-5)"/><circle cx="317.27" cy="395.3" r="17.94" fill="url(#radial-gradient-6)"/><path d="M363.87 342.52c-8.93-35.47-28.12-78.08-54-120s-55.49-78.08-83.25-101.89c-28-24.06-51-32.64-64.71-24.17-11.92 7.38-15.4 26.84-10.15 55.41l1.67-2c-2.72-15.51-2.78-28.13-.21-37.32 1.87-6.68 5.12-11.55 9.74-14.4 12.88-8 35 .55 62.36 24 27.61 23.68 57 59.7 82.86 101.43l.85-.53-.85.53c25.82 41.72 44.93 84.13 53.8 119.41l2.15.38c-.13-.27-.19-.56-.26-.85z" class="cls-17"/><circle cx="329.2" cy="257.55" r="17.94" fill="url(#radial-gradient-7)"/><circle cx="282.44" cy="184.33" r="17.94" fill="url(#radial-gradient-8)"/><circle cx="210.72" cy="113.4" r="17.94" fill="url(#radial-gradient-9)"/><circle cx="364.08" cy="344.71" r="17.94" fill="url(#radial-gradient-10)"/><circle cx="148.51" cy="155.9" r="17.94" fill="url(#radial-gradient-11)"/><path id="Fill-1" d="M288.43 330.2a11.54 11.54 0 014-.62h4.12a11.41 11.41 0 014 .62 6.39 6.39 0 012.78 1.89 8.07 8.07 0 011.58 3.24 21.25 21.25 0 010 9.2 8 8 0 01-1.6 3.23q-2.14 2.48-6.71 2.48h-4.12a11.85 11.85 0 01-4-.6 6.5 6.5 0 01-2.8-1.86 7.93 7.93 0 01-1.57-3.21 18 18 0 01-.51-4.59q0-5.41 2.12-7.89a6.48 6.48 0 012.78-1.89zm17.87-1.31q-3.37-3.61-9.79-3.6h-4.12a16.26 16.26 0 00-5.68.9 10.53 10.53 0 00-4.11 2.7q-3.39 3.6-3.38 11.09t3.38 11a10.51 10.51 0 004.11 2.67 16.49 16.49 0 005.68.9h4.12a16.49 16.49 0 005.68-.9 10.51 10.51 0 004.11-2.65 11.21 11.21 0 002.53-4.5 22 22 0 00.86-6.5 22.34 22.34 0 00-.85-6.54 11.49 11.49 0 00-2.53-4.54zm-38.54 25.65h4.31v-29.27h-4.31zm-7.26-25v-4.3h-12.05a14.48 14.48 0 00-5 .75 10.06 10.06 0 00-1.84.9 7.56 7.56 0 00-2.54 2.59 8 8 0 00-.74 1.67 13.29 13.29 0 00-.58 4.06v19.29h4.3v-12h18.23v-4h-18.2v-3.36a7.35 7.35 0 01.09-1.11 6.8 6.8 0 01.23-1 4.33 4.33 0 011.14-1.8 4.69 4.69 0 01.94-.7 6.23 6.23 0 011.18-.51 10 10 0 013.15-.45z" class="cls-1"/><path id="Fill-3" d="M214.51 345.51v22.2c0 1.18-.74 1.74-1.65 1.25l-12.56-6.89a3.78 3.78 0 01-1.66-3.05v-21.7a4.15 4.15 0 00.58.39z" class="cls-3"/><g id="Group-7" mask="url(#mask)"><path id="Fill-5" d="M200 334.9l25.24-12.9a3 3 0 001.38-2.45v-15.74c0-1-.62-1.42-1.38-1L202 314.7c-2.4 1.29-3.51 1.89-3.37 4.61v14.56c0 .93.63 1.42 1.39 1" class="cls-4"/></g><path id="Fill-8" d="M200 316.92l25.21 12.93a3 3 0 011.38 2.46V348c0 1-.62 1.43-1.38 1L200 336.12a3 3 0 01-1.39-2.45V318c0-1 .63-1.43 1.39-1" class="cls-7"/><path id="Fill-10" d="M200 334.9l17.54-9-17.54-9a.88.88 0 00-1 0 3.46 3.46 0 00-.42 1.52v15.23a2.81 2.81 0 00.2 1 .83.83 0 001.13.3h.05" class="cls-6"/><path d="M176.66 325.6c-25.81-3.38-49-8.35-68.88-14.76S72.44 297 61.9 288.62c-10.18-8-15.37-16.55-15.47-25.28V263l-.12 24.16v.34c.1 8.72 5.29 17.23 15.47 25.28 10.54 8.33 26 15.81 45.88 22.22s43.07 11.38 68.88 14.76c4.47.59 9 1.1 13.56 1.58v-24.17c-4.51-.47-9-.98-13.44-1.57zM447 288.62c-10.37 8.33-25.65 15.81-45.41 22.22S358.77 322.22 333 325.6q-9.31 1.22-18.87 2.14v24.14q9.5-.92 18.75-2.13c25.73-3.38 48.82-8.34 68.59-14.76s35-13.89 45.41-22.22c9.89-7.94 14.91-16.33 15-24.94l.12-24.16c0 8.62-5.07 17.01-15 24.95z" class="cls-30"/></svg>