<?xml version="1.0" encoding="utf-8"?><svg xmlns="http://www.w3.org/2000/svg" xmlns:xlink="http://www.w3.org/1999/xlink" viewBox="0 0 673.79 701.92"><defs><linearGradient id="linear-gradient" x1="454.92" x2="621.91" y1="437.07" y2="437.07" gradientUnits="userSpaceOnUse"><stop offset="0" stop-color="#3cb4e5"/><stop offset="1" stop-color="#425cc7"/></linearGradient><linearGradient id="linear-gradient-2" x1="34.23" x2="201.22" y1="638.13" y2="638.13" xlink:href="#linear-gradient"/><linearGradient id="linear-gradient-4" x1="621.88" x2="621.91" y1="413.6" y2="413.6" xlink:href="#linear-gradient"/><linearGradient id="linear-gradient-5" x1="39.89" x2="515.73" y1="511.15" y2="447.01" gradientUnits="userSpaceOnUse"><stop offset="0" stop-color="#a1b7ff"/><stop offset=".9" stop-color="#46b4e8"/><stop offset="1" stop-color="#3cb4e5"/></linearGradient><linearGradient id="linear-gradient-6" x1="323.12" x2="548.88" y1="430.17" y2="439.22" xlink:href="#linear-gradient-5"/><linearGradient id="linear-gradient-8" x1="201.18" x2="201.22" y1="614.66" y2="614.66" xlink:href="#linear-gradient"/><linearGradient id="linear-gradient-9" x1="-380.81" x2="95.04" y1="712.21" y2="648.08" xlink:href="#linear-gradient-5"/><linearGradient id="linear-gradient-10" x1="-97.58" x2="128.19" y1="631.23" y2="640.28" xlink:href="#linear-gradient-5"/><clipPath id="clip-path"><path d="M621.91 409.25v8c0 12.3-8.12 24.58-24.27 34-32.49 18.89-85.35 18.9-118 0-16.46-9.51-24.68-22-24.65-34.44v-8c0 12.45 8.18 24.93 24.64 34.43 32.71 18.89 85.56 18.87 118.05 0 16.11-9.41 24.2-21.7 24.23-33.99z" class="cls-1"/></clipPath><clipPath id="clip-path-2"><path d="M512.37 59.45l.04-14.58 69.03 39.86-.04 14.58-69.03-39.86z" class="cls-2"/></clipPath><clipPath id="clip-path-3"><path d="M201.22 610.31v8c0 12.3-8.12 24.58-24.27 34-32.49 18.88-85.34 18.89-118 0-16.46-9.5-24.68-22-24.64-34.44v-8c0 12.46 8.18 24.93 24.64 34.43 32.71 18.89 85.56 18.88 118.06 0 16.08-9.41 24.17-21.69 24.21-33.99z" class="cls-3"/></clipPath><clipPath id="clip-path-4"><path d="M80.49 251.02l.04-14.57 67.48 38.95-.04 14.58-67.48-38.96z" class="cls-2"/></clipPath><style>.cls-1{fill:url(#linear-gradient)}.cls-2{fill:none}.cls-3{fill:url(#linear-gradient-2)}.cls-5{fill:#425cc7}.cls-31,.cls-6{fill:#4d5fab}.cls-54,.cls-6{opacity:.61}.cls-7{fill:#e8a89a}.cls-8{fill:#40b4e2}.cls-9{opacity:.2}.cls-10{isolation:isolate}.cls-15{fill:#d7eff9}.cls-16,.cls-28{fill:#fff}.cls-16{opacity:.42}.cls-18{fill:#025c99}.cls-20{fill:#005cb9}.cls-21{fill:#1d85db}.cls-22{fill:#95e4fc}.cls-24{fill:#d38f84}.cls-25{fill:#fccabe}.cls-26{fill:#b7e0ed}.cls-27{fill:#4cc7ed}.cls-29{fill:#95e6f9}.cls-37{fill:#7ac2d3}.cls-40{fill:#e9f6ff}.cls-41{fill:#a1cbe2}.cls-42{fill:#79b2cc}.cls-43{fill:#8ac2d6}.cls-44{fill:#4fc3f7}.cls-53{fill:#0fa200}</style></defs><g id="Layer_2" data-name="Layer 2"><g id="Layer_1-2" data-name="Layer 1"><path d="M230.84 366.84c-19.14-11.25-19.1-29.26.12-40.23s50.31-10.72 69.45.54 19.12 29.28-.09 40.24-50.32 10.72-69.48-.55z" class="cls-5" opacity=".25"/><path d="M648.48 477.43l-24.91-7.38-14-4.14a6.53 6.53 0 00-4.77.44 3.15 3.15 0 00-.72.56L599.4 472l-16 17.28c-1.73 1.88 1.32 4 4.82 3.38l17.81-3.24c15.26 52.36-10.49 108.18-77.37 148.52-109.36 66-287.88 66-398 0a224 224 0 01-39.93-30.06c-5.8 3.48-11.64 7-17.39 10.46a248.6 248.6 0 0040.42 29.8c57.86 34.68 134.65 53.78 216.21 53.78s158.16-19.1 215.65-53.78 89-80.78 88.73-129.83a114.67 114.67 0 00-5.12-33.13l18.52-3.38a5 5 0 001.67-.58c1.93-1.06 1.69-3.02-.94-3.79zM544.3 388.48c-57.86-34.68-134.65-53.78-216.22-53.78s-158.15 19.1-215.64 53.78-89 80.79-88.74 129.84a113.42 113.42 0 002.67 23.81l-23.45 4.28a5.19 5.19 0 00-1.71.59c-1.86 1.07-1.62 3 1 3.84l29.37 8.69 10.08 3a6.58 6.58 0 004.81-.44 3.12 3.12 0 00.74-.58l7-7.6 13.94-15.08c1.76-1.9-1.35-4.07-4.9-3.42l-13.5 2.46C40 488.28 66.54 436.63 129.46 398.68c109.35-66 287.87-66 397.94 0q4.14 2.49 8.08 5.06l16-10.83q-3.54-2.26-7.18-4.43z" class="cls-6"/><path d="M513.27 217l-2.45 6.87-.24 11.28a53.85 53.85 0 006.58 1.6c1.46.08 5.2-8.3 5.2-8.3l-1.17-9.37z" class="cls-7"/><path d="M482.24 210.64a47.1 47.1 0 015.83 4.22c2.07 1.92 4.23 4 4.23 4l19.9 5.38 1.07 9-2.69 1.94-17.65-8.41-5.42.5z" class="cls-7"/><path d="M527.52 180.09c0-.11-4.9-.35-7.52 5.18s-6.22 27.28-7.07 29.66l-.84 2.38 8.76 6.3z" class="cls-8"/><g class="cls-9"><path d="M613.83 383.1c32.71 18.89 32.86 49.5.37 68.39s-85.35 18.89-118.06 0-32.88-49.51-.38-68.39 85.36-18.88 118.07 0z" class="cls-5"/></g><g class="cls-10"><g class="cls-10"><path d="M621.91 409.25v8c0 12.3-8.12 24.58-24.27 34-32.49 18.89-85.35 18.9-118 0-16.46-9.51-24.68-22-24.65-34.44v-8c0 12.45 8.18 24.93 24.64 34.43 32.71 18.89 85.56 18.87 118.05 0 16.11-9.41 24.2-21.7 24.23-33.99z" class="cls-1"/><g class="cls-10" clip-path="url(#clip-path)"><path fill="url(#linear-gradient-4)" d="M621.91 409.25v8.73-8-.73"/><path fill="url(#linear-gradient-5)" d="M621.35 414.77a29.07 29.07 0 01-1.35 4.7 34.45 34.45 0 01-2.22 4.75 39 39 0 01-3.36 5 49.39 49.39 0 01-5.18 5.57 64.69 64.69 0 01-10.58 7.83l-1 .6a94.15 94.15 0 01-18.3 8.05 121 121 0 01-15.81 3.93c-3.5.64-7.06 1.13-10.65 1.49-3.07.3-6.16.51-9.26.61v8c3.1-.11 6.19-.31 9.26-.62 3.59-.36 7.15-.85 10.65-1.48a121.37 121.37 0 0015.81-3.94 94.42 94.42 0 0018.3-8.05l1-.6a64.54 64.54 0 0010.58-7.83 47.74 47.74 0 005.18-5.57 40.4 40.4 0 003.36-5 33.91 33.91 0 002.22-4.75 29.81 29.81 0 001.35-4.7 28.82 28.82 0 00.55-4.79v-8a28.82 28.82 0 01-.55 4.8z"/><path fill="url(#linear-gradient-6)" d="M535.07 457.33q-4.12-.09-8.22-.44c-2.72-.22-5.43-.52-8.11-.9s-5.55-.88-8.28-1.44c-2.95-.61-5.86-1.32-8.7-2.13-3.48-1-6.87-2.14-10.13-3.43a89.73 89.73 0 01-12-5.77c-16.46-9.5-24.68-22-24.64-34.43v8c0 12.46 8.19 24.93 24.65 34.44a91.62 91.62 0 0012 5.77c3.26 1.29 6.65 2.43 10.13 3.42 2.84.81 5.75 1.52 8.7 2.13q4.08.86 8.27 1.44c2.69.38 5.39.68 8.12.91s5.47.37 8.22.44 5.7.06 8.55 0v-8c-2.85.05-5.71.06-8.56-.01z"/></g></g><path d="M597.28 374.83c-32.71-18.88-85.58-18.88-118.07 0s-32.33 49.51.38 68.39 85.56 18.87 118.05 0 32.36-49.51-.36-68.39z" class="cls-15"/></g><path d="M597.64 441.14c-32.49 18.88-85.34 18.9-118 0-16-9.21-24.15-21.22-24.6-33.3-.46 12.77 7.73 25.63 24.6 35.37 32.71 18.89 85.56 18.87 118.05 0 16.65-9.67 24.7-22.42 24.23-35.09-.48 11.98-8.54 23.88-24.28 33.02z" class="cls-16"/><path fill="#425cc7" d="M570.74 389.18l-4.26-2.47a37.76 37.76 0 00-37.72 0l-24.12 13.93a11.06 11.06 0 000 19.15l4.26 2.46a37.71 37.71 0 0037.72 0l24.12-13.92a11.06 11.06 0 000-19.15z" opacity=".25"/><path d="M556 378.44s-2.44 4.59-2.44 8.71-1.14 7.38-3.9 8.68-8.55 1.3-8.55 1.3l-.39-6 1.14-1.8 8-23.72s3-1.12 4.67 1.12 4.55 15.74 4.55 15.74l-1.17 1.53z" class="cls-18"/><path d="M546.42 363.64l5.31 3.12s-.77 27.73-7.53 24.4a6.52 6.52 0 01-2.38-1.8s1.79-3.77 1.14-6.37a66 66 0 01-1.14-7z" class="cls-7"/><path fill="#f9c2b2" d="M530.75 412a7 7 0 01-5.87 2.37 5.23 5.23 0 01-3.43-2.18c3.62-7.19 8.67-16 9.15-17.19.81-1.95.81-9.79.81-9.79l9.27-3.57v9.5l.39.6q-3.47 7.33-6.91 14.66a20.75 20.75 0 01-3.41 5.6z"/><path d="M521.45 412.21a5.23 5.23 0 003.43 2.18 7 7 0 005.87-2.37 20.75 20.75 0 003.41-5.6l6.91-14.66a25.92 25.92 0 013 6.51c.82 3.25-3.09 16.42-3.09 16.42l-1.78.16v-7.15s-1.63 7.15-4.88 10.57-14.63 4.55-16.42 3.4c-.7-.46 1.1-4.59 3.55-9.46z" class="cls-18"/><path d="M542.79 323.48l1.86-25.66q.84-11.61 1.69-23.22a8.83 8.83 0 00-.56-4.79c-1.44-2.68-4.37-.81-7.39-1.16-7.87-.92-15.89-5.24-22.57-10.35.59-2.7 1-4.35 1-4.35l40.56 5.24s3.82 14.81 2.12 21.43-11.67 45.88-11.67 45.88 3.13 25.11 1.67 31-7.55 27.76-7.55 27.76-1.68.59-3.69 1.15q.93-12.64 1.84-25.3z" class="cls-20"/><path d="M508.64 315.24c-.16-5 4.46-44.64 7.18-56.94 6.68 5.11 14.7 9.43 22.57 10.35 3 .35 6-1.52 7.39 1.16a8.83 8.83 0 01.56 4.79q-.86 11.61-1.69 23.22l-1.86 25.66-2.73 37.6q-.91 12.65-1.84 25.3c-2.59.73-5.75 1.43-6.75.77l-1.76-1.15s-.49-28.78 0-29.51-20.87-35.19-21.07-41.25z" class="cls-21"/><path d="M517.51 220.42c.17-3.25-2.27-12.52-2.27-15.77s5-12.68 5.61-15.36c.13-.55.31-1.19.52-1.84 10.43 2 24.67 5.65 31.32 10.68-2 1.57-1.89 3.82-2.14 6.35s-1.66 4.83-2.1 7.32-1.72 5-4 6.13c-2.68 1.25-5.83.16-8.58-.93L522 211.52c7.51 4.22 15.15 9.66 18.66 17.52a24 24 0 011.71 12.49 19.28 19.28 0 01-3 8.73c-4.17 6.07-12.43 7.88-19.74 6.31-2.63-1.62-4.4-2.82-4.4-2.82s2.12-30.08 2.28-33.33z" class="cls-22"/><path d="M539.38 250.26a19.28 19.28 0 003-8.73 24 24 0 00-1.7-12.53c-3.51-7.86-11.15-13.3-18.66-17.52l13.83 5.52c2.45 1 4.13.72 6.46-.64a11.17 11.17 0 003.49-2.87 13.71 13.71 0 001.93-4.78c.16-.6 3.2-11.88 5-10.58-6.65-5-20.89-8.68-31.32-10.68.8-2.53 2.06-5.46 3.21-6a12 12 0 014.08-.53l17.58 2.54 14.07 10.71s1.91 3.29 1.91 6 .32 11.87-4.55 21.13-6.51 16-6.51 17.16 6.18 20.72 6.18 20.72-11.21 5.94-17.88 6.18c-4.55.17-14.16-5.3-19.82-8.8 7.32 1.58 15.53-.23 19.7-6.3z" class="cls-8"/><path fill="#718ce2" d="M552.92 162.89a10 10 0 01-7.82 2.66 12.5 12.5 0 01-7.53-3.61 31.45 31.45 0 01-4.28-5.81 22.51 22.51 0 00-4.53-5.59 10 10 0 00-2.57-1.5 11.81 11.81 0 014.62-3.73c4.14-1.58 19.14-1.7 22.06 2.93a26.5 26.5 0 013.56 10.65c-1.33 1.16-2.24 2.75-3.51 4z"/><path d="M526.19 149a10 10 0 012.57 1.5 22.51 22.51 0 014.53 5.59 31.45 31.45 0 004.28 5.81 12.5 12.5 0 007.53 3.61 10 10 0 007.82-2.66c1.27-1.25 2.18-2.84 3.51-4a22.79 22.79 0 01.1 5.93c-.71 5.08 2.8 9.39 3.66 14.15s1.46 8.6 1.22 11.25a9.68 9.68 0 01-1.1 4s-11-8.32-12.52-9.51l-1.55-1.2-7.85-3-13.66-15.19a9.79 9.79 0 01-2.34-7.44 17.46 17.46 0 013.8-8.84z" class="cls-5"/><path d="M529.71 195.49l-4.49.64s.16-8.37 1-8.68 5.67-1.11 5.67-1.11a9.93 9.93 0 00-1.94 3.88 15.4 15.4 0 00-.24 5.27z" class="cls-8"/><path d="M526.45 176.92s.33 3.5-1.13 5.33-3.66 4.11-4 7.28 0 11.3 0 11.3 4-11 6.51-12a15 15 0 004.79-3.49l1.22-5.68z" class="cls-5"/><path d="M534.92 189.86a2.29 2.29 0 01-2.22.11 2.17 2.17 0 01-.72-1.85 7 7 0 00-.12-1.78l.1-.12c.06-.18-.49-3.72-.49-3.72l13.44-8.21a40.53 40.53 0 00.48 6.67c-3.81 2.45-6.3 6.98-10.47 8.9z" class="cls-24"/><path d="M531.86 186.34a7 7 0 01.12 1.78 2.17 2.17 0 00.72 1.85 2.29 2.29 0 002.22-.11c4.17-1.92 6.66-6.45 10.47-8.9a8.3 8.3 0 00.41 1.54 13.26 13.26 0 001.89 3.42v.29c.17 1.39.42 7.19-7.44 8.59-8.95 1.6-10.68-.4-10.59.69.13 1.7-.45-4 .67-6.61a8.24 8.24 0 011.53-2.54zM537.13 175.25a10.7 10.7 0 00.1-6.53 26.37 26.37 0 007.49-.1s.94-3.79 2.36-4.76 2.68 3.12 1.84 5.77-3.91 3-3.91 3a13.57 13.57 0 01-.53 3.85c-.62 2.23-13.52 7.7-15.28 6.65a2 2 0 01-.54-.6 12.63 12.63 0 003.33-1.44 12 12 0 005.14-5.84z" class="cls-7"/><path d="M524.61 163.89c-.32-1.53-.68-6.8-.68-6.8a4.69 4.69 0 012.38.2c.67.45 5.24 8.6 8.36 10.55a7.24 7.24 0 002.56.88 10.7 10.7 0 01-.1 6.53 12 12 0 01-5.14 5.81 12.63 12.63 0 01-3.33 1.44c-1.74-2.61-4-12.2-4.09-13.15s.37-3.93.04-5.46z" class="cls-25"/><path d="M529.71 356.49s.48-24.14 0-28-1.55-7-1.87-10.19-.32-35.72-.32-35.72l-8.64-9.93s3 11.12 3.48 15.92-1.17 23.09-1.17 23.09l-2.31 25.27z" class="cls-20"/><path d="M546.24 183.5s.29 4.76-3 6.72-13.56 5.27-13.56 5.27l6.4 8.23s13.5-8 14.15-10.11 0-7.05 0-7.05z" class="cls-8"/><g class="cls-10"><path d="M492.83 232.27l-2 1.74c.14-.12.14-.4 0-.8l2-1.74c.17.4.17.68 0 .8z" class="cls-26"/><path d="M470.7 206.77l2-1.74c.11-.1.33-.08.62.07l-2 1.74c-.32-.15-.51-.17-.62-.07zM471.32 206.84l2.03-1.74 9.13 4.81-2.03 1.74-9.13-4.81z" class="cls-15"/><path d="M482.24 213.65l2.03-1.74 8.52 19.56-2.03 1.75-8.52-19.57z" class="cls-26"/><path d="M480.45 211.65l2-1.74a4.72 4.72 0 011.79 2l-2 1.74a4.72 4.72 0 00-1.79-2z" class="cls-15"/><path d="M480.45 211.65a4.72 4.72 0 011.79 2l8.52 19.56c.32.74.06 1.07-.61.72l-9.15-4.81a4.7 4.7 0 01-1.76-2l-8.53-19.56c-.33-.76-.06-1.09.58-.75z" class="cls-18"/></g><ellipse cx="476.9" cy="212.8" class="cls-26" rx=".66" ry="1.32" transform="rotate(-38.43 476.965 212.797)"/><path d="M477.5 219.61s2.31 0 1.23-1.23-4.64-3.11-4.64-3.11l-1.23-2.83-1.54 1.71s-2 1.38-1.65 2.38 2.76 1.47 2.76 1.47l5.13 1.73z" class="cls-25"/><path d="M477.56 219.73l-5.13-1.73s1.31 6.37 3.08 7.37 4.3 2.07 4.3.76-1.98-5.78-2.25-6.4z" class="cls-7"/><path d="M556.06 241.22a19.07 19.07 0 01-7.45-2.15l-.11.91-23.28-3.23s-7-7.12-7.52-6.72a12.69 12.69 0 01-3.23.69s-6.63-.05-7.2.75 4.09 1.74 4.09 1.74 2.19 7.77 3.57 8.75 8.59 1.79 8.59 1.79 27.45 9.52 31 9.83c2.32.2 4.48-7.13 5.68-12.19-1.39-.01-2.77-.04-4.14-.17z" class="cls-25"/><path d="M560.19 241.39c.63-2.62 1-4.64 1-4.64H548.9l-.29 2.32a19.07 19.07 0 007.45 2.15c1.37.13 2.75.16 4.13.17z" class="cls-7"/><path d="M556.89 195.8c12.45 1.48 7.87 10.18 6.45 19.55-1.15 7.61.46 21 .46 21s-2.26 2.12-6.91 2.37a32.1 32.1 0 01-9.1-1s.05-22.51 1.4-28.19 3.02-14.29 7.7-13.73z" class="cls-22"/><g class="cls-10"><path d="M552.47 109.17l10.4-6.04-8.38 11.72-10.4 6.04 8.38-11.72zM499.08 6.77l10.4-6c2-1.14 4.69-1 7.7.76l-10.39 6c-3.01-1.74-5.74-1.9-7.71-.76zM602 122l-10.4 6c1.94-1.13 3.15-3.53 3.16-7l10.4-6c.01 3.5-1.16 5.91-3.16 7z" class="cls-27"/><path d="M594.92 70.88l10.4-6.04-.14 50.25-10.4 6.04.14-50.25zM506.79 7.53l10.39-6.04 77.34 44.65-10.4 6.04-77.33-44.65z" class="cls-27"/><path d="M584.12 52.18l10.4-6c6 3.45 10.82 11.82 10.8 18.7l-10.4 6c.02-6.88-4.82-15.25-10.8-18.7z" class="cls-27"/><path d="M584.12 52.18c6 3.45 10.82 11.83 10.8 18.7l-.14 50.25c0 6.87-4.89 9.65-10.87 6.19l-31.44-18.15-8.38 11.72-7.75-21-29.77-17.22c-6-3.45-10.81-11.82-10.79-18.7l.14-50.25c0-6.87 4.88-9.65 10.87-6.19z" class="cls-28"/></g><path d="M584.12 52.18c6 3.45 10.82 11.83 10.8 18.7l-.14 50.25c0 6.87-4.89 9.65-10.87 6.19l-31.44-18.15-8.38 11.72-7.75-21-29.77-17.22c-6-3.45-10.81-11.82-10.79-18.7l.14-50.25c0-6.87 4.88-9.65 10.87-6.19z" class="cls-28"/><path d="M584.12 52.18c6 3.45 10.82 11.83 10.8 18.7l-.14 50.25c0 6.87-4.89 9.65-10.87 6.19l-31.44-18.15-8.38 11.72-7.75-21-29.77-17.22c-6-3.45-10.81-11.82-10.79-18.7l.14-50.25c0-6.87 4.88-9.65 10.87-6.19z" class="cls-28"/><path d="M583.66 53L506.32 8.33c-2.6-1.51-5-1.78-6.76-.77s-2.71 3.19-2.72 6.16L496.7 64c0 6.58 4.62 14.61 10.33 17.91l30.06 17.35 7.26 19.71 7.86-11 32.16 18.57c2.61 1.5 5 1.77 6.77.76s2.71-3.19 2.72-6.16l.14-50.26c0-6.57-4.62-14.6-10.34-17.88z" class="cls-29"/><g clip-path="url(#clip-path-2)"><path d="M515.29 49.87l-1.55-.9v8.7c0 .64-.28.81-.8.51a3.15 3.15 0 01-.55-.38v1.41a5 5 0 00.82.59c.68.39 1.19.48 1.54.25s.54-.74.54-1.55v-8.63m-.8-3.48c-.28-.16-.5-.2-.65-.1a.59.59 0 00-.23.55 1.72 1.72 0 00.22.8 1.84 1.84 0 00.66.64c.28.16.49.2.64.1a.56.56 0 00.24-.53 1.58 1.58 0 00-.24-.82 1.64 1.64 0 00-.64-.64M519.35 58.87a2.36 2.36 0 01-.8-.77 1.81 1.81 0 01-.29-1c0-.42.15-.65.44-.71a2 2 0 011.29.4l.83.48v1.49a.75.75 0 01-.61.34 1.55 1.55 0 01-.86-.24m.37-6.6a3.78 3.78 0 00-1.45-.51 1.21 1.21 0 00-1.41 1.31l1.55.89c0-.31.12-.5.35-.57a1 1 0 01.86.19 2.33 2.33 0 011.21 2.05v.53l-1-.55a3.52 3.52 0 00-2.34-.68c-.55.14-.83.63-.83 1.47a3.8 3.8 0 00.65 2.07 4.74 4.74 0 001.7 1.66 1.69 1.69 0 001.81.16 5.26 5.26 0 00.17.84l1.59.91v-.12a5.76 5.76 0 01-.26-1.86v-3.56a4.37 4.37 0 00-.74-2.4 5.59 5.59 0 00-1.92-1.82M527.5 56.77a1.7 1.7 0 00-2-.1v-.94l-1.5-.84v7.93l1.55.89v-5.64c.31-.47.78-.53 1.4-.17a2.33 2.33 0 01.93.91 2.71 2.71 0 01.28 1.27v5.14l1.55.89v-5.23a4.43 4.43 0 00-2.19-4.11M532.59 63.08a1.6 1.6 0 01.5-1.13.88.88 0 011 .08 2.57 2.57 0 011 1 3.78 3.78 0 01.41 1.6v.13l-2.95-1.71m1.54-2.48a2.57 2.57 0 00-1.61-.41 1.53 1.53 0 00-1.12.81 3.92 3.92 0 00-.4 1.9v.22a6.62 6.62 0 00.9 3.36 6.55 6.55 0 002.39 2.45 3.29 3.29 0 001.55.5 1.41 1.41 0 001.2-.4l-.84-1.4a1.39 1.39 0 01-1.74 0 3.45 3.45 0 01-1.25-1.29 4.25 4.25 0 01-.57-1.88l4.51 2.6v-.72a7.09 7.09 0 00-.76-3.37 5.53 5.53 0 00-2.18-2.29M543 72.77a1.77 1.77 0 01-.75-1 3.83 3.83 0 01-.14-1.6 3.5 3.5 0 01.57-1.94.84.84 0 011.15-.1 2.72 2.72 0 01.62.5l-.3 3.44a1.24 1.24 0 01-.5.68.64.64 0 01-.65 0m.62-9a4.43 4.43 0 00-2.8-.73 2.64 2.64 0 00-1.94 1.37 6.67 6.67 0 00-.8 3.16 12.28 12.28 0 00.52 4 10.18 10.18 0 001.74 3.29 9.86 9.86 0 002.78 2.4 6.4 6.4 0 001.33.58 2.4 2.4 0 001 .14l-.24-1.15a3.06 3.06 0 01-1-.17 6.7 6.7 0 01-1.13-.5 7.76 7.76 0 01-2.23-2 8.3 8.3 0 01-1.35-2.73 10.27 10.27 0 01-.36-3.26 6.07 6.07 0 01.64-2.73 2.15 2.15 0 011.53-1.2 3.45 3.45 0 012.22.57 7.58 7.58 0 013.16 3.21 9.55 9.55 0 01.9 4.68 3.28 3.28 0 01-.47 1.81.73.73 0 01-1.07.18 1.77 1.77 0 01-.72-1.87l.34-3.93a7.41 7.41 0 00-1-1.2 5 5 0 00-1-.7 1.58 1.58 0 00-2.36.65 4.76 4.76 0 00-.51 1.87 5.42 5.42 0 00.36 2.56 3.41 3.41 0 001.41 1.69 1.63 1.63 0 00.91.25 1.06 1.06 0 00.75-.41 3.27 3.27 0 001.55 2c.8.46 1.45.48 1.92 0a3.55 3.55 0 00.79-2.44 11.28 11.28 0 00-.48-3.81 10 10 0 00-1.71-3.3 9.27 9.27 0 00-2.73-2.38M552.55 71.23a2.44 2.44 0 00-1.92-.42 1.18 1.18 0 00-.76 1.28 4 4 0 001.13 2.55 11.59 11.59 0 001.32 1.24 7 7 0 011.13 1.1 1.38 1.38 0 01.33.91c0 .29-.1.46-.31.52a1.32 1.32 0 01-.93-.27 3.12 3.12 0 01-1-.92 2.37 2.37 0 01-.41-1.22l-1.51-.87a3.72 3.72 0 00.37 1.54 6 6 0 001 1.57 6.09 6.09 0 001.51 1.22 2.79 2.79 0 002 .51c.52-.15.78-.57.78-1.29a3 3 0 00-.25-1.23 4.69 4.69 0 00-.77-1.21 11.85 11.85 0 00-1.42-1.38 8.45 8.45 0 01-1.22-1.15 1.34 1.34 0 01-.29-.81c0-.31.11-.49.32-.55a1.22 1.22 0 01.83.21 2.42 2.42 0 01.88.86 2 2 0 01.33 1l1.55.89a4 4 0 00-.76-2.26 5.82 5.82 0 00-2-1.86M564.21 78c-.91-.52-1.61-.52-2.12 0a4.12 4.12 0 00-1.89-2.31c-.85-.49-1.5-.54-2-.18v-.85l-1.47-.84v7.93l1.55.89V76.9q.39-.64 1.32-.12a2.36 2.36 0 011.24 2.12v5.22l1.55.9v-5.48a.85.85 0 01.47-.59 1 1 0 01.87.18 2.42 2.42 0 01.95.89 2.63 2.63 0 01.28 1.28v5.15l1.56.9v-5.21a5.2 5.2 0 00-.56-2.47 4.36 4.36 0 00-1.7-1.71M569.72 81.29l-1.55-.89v7.93l1.55.89v-7.93m-.72-3.45c-.28-.16-.5-.2-.65-.11a.61.61 0 00-.23.56 1.69 1.69 0 00.22.79 1.67 1.67 0 00.65.64.67.67 0 00.65.12.58.58 0 00.24-.54 1.61 1.61 0 00-.23-.81 1.63 1.63 0 00-.65-.65M573.35 81.46l-1.55-.89v1.92l-1.14-.66v1.32l1.13.66v4.49a3.53 3.53 0 001.78 3.3 4.48 4.48 0 001 .42v-1.38a2.42 2.42 0 01-.55-.24 1.5 1.5 0 01-.56-.52 1.64 1.64 0 01-.15-.75v-4.42l1.22.7v-1.32l-1.22-.7v-1.93M577.28 82.33l-1.55-.9v11.26l1.55.89v-5.66c.31-.46.77-.51 1.39-.15a2.39 2.39 0 01.91.87 2.53 2.53 0 01.31 1.34v5.11l1.55.89V90.8a4.47 4.47 0 00-2.22-4.18 1.65 1.65 0 00-1.93-.1v-4.19" class="cls-31"/></g><g class="cls-9"><path d="M193.13 584.17c32.71 18.88 32.86 49.49.37 68.38s-85.35 18.89-118.06 0-32.87-49.51-.38-68.39 85.37-18.88 118.07.01z" class="cls-5"/></g><g class="cls-10"><g class="cls-10"><path d="M201.22 610.31v8c0 12.3-8.12 24.58-24.27 34-32.49 18.88-85.34 18.89-118 0-16.46-9.5-24.68-22-24.64-34.44v-8c0 12.46 8.18 24.93 24.64 34.43 32.71 18.89 85.56 18.88 118.06 0 16.08-9.41 24.17-21.69 24.21-33.99z" class="cls-3"/><g class="cls-10" clip-path="url(#clip-path-3)"><path fill="url(#linear-gradient-8)" d="M201.22 610.31v8.74-8-.73"/><path fill="url(#linear-gradient-9)" d="M200.66 615.83a30.92 30.92 0 01-1.35 4.7 32.89 32.89 0 01-2.23 4.75 38.28 38.28 0 01-3.36 5 48.55 48.55 0 01-5.18 5.57 65 65 0 01-10.54 7.82l-1 .6a94.24 94.24 0 01-18.31 8.05 122.44 122.44 0 01-15.8 3.94q-5.26.94-10.66 1.48c-3.06.3-6.16.51-9.26.62v8c3.1-.11 6.19-.31 9.26-.62 3.59-.35 7.15-.85 10.65-1.48a119.39 119.39 0 0015.81-3.94 94.12 94.12 0 0018.3-8c.35-.2.69-.4 1-.61a64.12 64.12 0 0010.58-7.83 47.74 47.74 0 005.18-5.57 38.28 38.28 0 003.36-5 34.34 34.34 0 002.22-4.74 29.37 29.37 0 001.35-4.7 28.94 28.94 0 00.55-4.79v-8a28.8 28.8 0 01-.57 4.75z"/><path fill="url(#linear-gradient-10)" d="M114.37 658.4c-2.74-.07-5.49-.22-8.22-.44s-5.43-.53-8.11-.91-5.55-.88-8.27-1.44q-4.44-.92-8.71-2.13c-3.48-1-6.86-2.14-10.13-3.42a91 91 0 01-12-5.78c-16.46-9.5-24.68-22-24.64-34.43v8c0 12.46 8.18 24.94 24.64 34.44a91 91 0 0012 5.77c3.26 1.29 6.65 2.43 10.13 3.42 2.84.81 5.75 1.52 8.7 2.13q4.1.85 8.28 1.44c2.68.38 5.39.69 8.11.91s5.47.37 8.22.44 5.71.06 8.55 0v-8c-2.84.05-5.7.07-8.55 0z"/></g></g><path d="M176.58 575.89C143.88 557 91 557 58.51 575.89s-32.32 49.51.38 68.39 85.56 18.88 118.06 0 32.34-49.51-.37-68.39z" class="cls-15"/></g><path d="M177 643.32c-32.49 18.88-85.35 18.89-118 0-16-9.21-24.15-21.22-24.6-33.3-.46 12.76 7.73 25.63 24.6 35.37 32.7 18.88 85.56 18.87 118.05 0 16.64-9.67 24.7-22.42 24.23-35.1-.46 11.99-8.51 23.88-24.28 33.03z" class="cls-16"/><path fill="#425cc7" d="M129.08 587.53l25.09 3.67c11.28 1.66 20.68 10.43 21.82 21.77.81 8-2.25 16-10 20.5a61.06 61.06 0 01-61 0l-30.88-17.81c-15.6-9-15.6-23.75 0-32.75 22.89-13.21 32.09-8.59 54.97 4.62z" opacity=".2"/><path d="M78.55 376.32s-3.34-.32-5.68 9.12-6.58 39.37-4.66 42.56 20.43 10.54 20.43 10.54l2.51-23z" class="cls-37"/><path d="M71.84 591.11v16.2a8.14 8.14 0 007.52 5.54c6 .25 7.91-5 10-9.4s10.25-8.29 10.25-14.45-1.17-8.1-3.56-9.64-9.35 2.47-9.35 2.47zM125.46 611.55s-1.38 9.26.18 11.19 4.26 3.09 9.85 2.32a18.31 18.31 0 009.26-4.25s17.36-.77 21-6.56.38-10.8 0-10.8-20.51-.37-22.41-.86l-1.9-.49z" class="cls-18"/><path d="M81.77 603.45s6.23-3.86 7.23-5.79l1-1.92s3.66-26.62 6.94-40.9 8.12-28.72 10.82-38.66 5-27.89 5-27.89l-14.69-12.54-18.71 95.49 1.93 31.25z" class="cls-20"/><path d="M146.68 504.81c-1.35-17.63-5-47-5-47l-55-4.3a59.09 59.09 0 010 11.14c5.86 6.31 18 10.39 26 11.1 8.91.79 14.91-1.37 20.67 5.49 4.57 5.44 5.13 13.1 5.32 20.2.51 19.09-.2 38.19-.91 57.27l-1.47 39.7a124.89 124.89 0 01-1.67 18.64 13.49 13.49 0 008.26-6.57s5.12-88.05 3.8-105.67z" class="cls-20"/><path d="M137.81 558.71c.71-19.08 1.42-38.18.91-57.27-.19-7.1-.75-14.76-5.32-20.2-5.76-6.86-11.76-4.7-20.67-5.49-8-.71-20.17-4.79-26-11.1v.11c-.58 6.56-3.09 56.71-3.09 56.71s-3.5 10.63-5.64 17.75S70.8 591 70.8 591l1.81 5.9c1.8 5.91 9.16 6.56 9.16 6.56s.87 1.93.1-2.31 3.28-27 3.86-34.15 12.73-57.67 12.34-62.88 0-28.36 0-28.36l3.47 4.05c3.47 4.05 12.51 11.58 12.51 11.58l7.36 42a236.8 236.8 0 00-2.12 33.18c.37 15.62 3.28 46.68 3.28 46.68a13.28 13.28 0 0010.85 4 6.8 6.8 0 001.25-.27 124.89 124.89 0 001.67-18.64z" class="cls-21"/><path d="M134.11 465.1c6.7-2.58 9.9-9.34 7.23-15.48-1-2.25-1.85-4.37-2.32-5.77-1.49-4.43-1.68-44.47-3.57-46.88a6.1 6.1 0 00-.47-.52 17.74 17.74 0 00-12.44-2 14.64 14.64 0 00-10.6 8.63c-1.61 4.22-.76 8.87.1 13.32l7.76 40.11a10.5 10.5 0 01-.61 6.41 16.34 16.34 0 01-5.42 6.49c.35 0 .68.08 1 .1 5.31.37 12.94-1.95 19.34-4.41z" class="cls-37"/><path d="M119.19 462.92a10.5 10.5 0 00.61-6.41L112 416.4c-.86-4.45-1.71-9.1-.1-13.32a14.64 14.64 0 0110.6-8.63 17.74 17.74 0 0112.44 2c-3.13-3.18-16.3-13.05-16.3-13.05s-16.8-7.12-22.43-9-18.88-1.16-22 6.73 10.43 44.16 10.49 47.41-1.87 19.84-1.21 23.56 19.09 15.87 30.25 17.28a16.34 16.34 0 005.45-6.46z" class="cls-15"/><path d="M95.88 370.21l-.7 5.64s10.21 1.22 15 2.84l4.75 1.63s2.23-5.56 3-6.29 4.63-1.12 4.63-1.12l-13.54-8.43z" class="cls-24"/><path d="M126.41 344.24a21.7 21.7 0 011.1 6.27c-.15 2.43-.73 6.44-.16 7.19s1.67 2.45 1.4 3.3-1.91 1.64-1.91 1.64-.74 9.27-1.42 10.46-10.2-.57-11-1.48l-.82-.92s-2.86 0-3.48-1.73-.26-5.54-.26-5.54z" class="cls-25"/><path fill="#4c5267" d="M102.06 359.76L120 346.28c1.6-1.2 3.26-2.49 4-4.35a6.17 6.17 0 00-1.15-5.9 4.07 4.07 0 00-.63-.31c-2.26-.72-18.28-2.55-23.22 1.68a41.79 41.79 0 00-7.52 8.29s-3.87 6.92-3.2 11.58a9.32 9.32 0 00.57 4.34 7.17 7.17 0 004.5 2c3.21.16 6.11-1.89 8.71-3.85z"/><path fill="#373942" d="M122.8 336a6.17 6.17 0 011.15 5.9c-.72 1.86-2.38 3.15-4 4.35l-17.91 13.48c-2.6 2-5.5 4-8.76 3.86a7.17 7.17 0 01-4.5-2 10.25 10.25 0 002 3.27c3.27 3.66 5.63 9.12 9.91 9.56a20.1 20.1 0 006-.54 4.75 4.75 0 003.7-5.17c-.18-1.73-.12-3.47.77-4 1.9-1 3.09-2.28 4.33-.57s1.67 3 2.09 2.93 3.33-8.47 4-10.38a43.68 43.68 0 001-6.59s5.67-4.5 5.39-6.87c-.33-2.08-2.97-5.97-5.17-7.23z"/><path d="M94.9 372.68l20 7.64 1.45 3s-17.3-.8-20.86-3.07-3.33-5.25-3.33-5.25z" class="cls-37"/><path d="M170.65 447s5.95-2.85 6.67-3.17a56.71 56.71 0 004.68-4.09s.65-1.8.92-3 .55-3.65.55-3.65a8 8 0 001.6-1.38 14.66 14.66 0 001.17-1.5 2.93 2.93 0 00.26-2.29c-.6-1.25-5.48-.82-5.48-.82l-1.42-.33s-2.9-.52-3.56.23-3.8 2.79-4.49 3.8a64 64 0 00-2.72 6.13l-2.43 1.8c.88.79 4 3.59 4.34 4.67a8.79 8.79 0 01-.09 3.6z" class="cls-25"/><path d="M185.65 431.37a7.5 7.5 0 00.59-1.12 14.66 14.66 0 01-1.17 1.5 8 8 0 01-1.6 1.38s-.29 2.5-.55 3.65-.92 3-.92 3a56.71 56.71 0 01-4.68 4.09c-.72.32-6.67 3.17-6.67 3.17a8.79 8.79 0 00.09-3.56c-.37-1.08-3.46-3.88-4.34-4.67l-1.49 1.1s4.42 3.77 5 5.2a4.5 4.5 0 01-.23 3.2l8.16-4.2s4.95-3.9 5.15-4.89 2.66-7.85 2.66-7.85zM179.27 430.06A2.2 2.2 0 01178 430a1.37 1.37 0 01-.87-.9 2.29 2.29 0 01.35-1.61c-.18.37 5.52.62 5.75.7a14.11 14.11 0 01-3.96 1.87z" class="cls-24"/><path d="M139.26 409.13l-8.64 5c-.86.49-1 1.24-.21 1.67l32.34 18.67a3.19 3.19 0 002.89-.12l8.65-5zM174.29 429.35l12.53-7.24c.86-.49 1-1.24.21-1.67l-32.34-18.67a3.22 3.22 0 00-2.89.12l-12.54 7.24z" class="cls-40"/><path d="M183.23 421.91l-1.61-.93a.45.45 0 00-.39 0l-1.55.9c-.12.06-.13.16 0 .22l1.62.94a.45.45 0 00.39 0l1.55-.9c.08-.07.09-.14-.01-.23zM179.47 421.77l1.55-.9c.11-.07.12-.17 0-.22l-1.61-.94a.45.45 0 00-.39 0l-1.55.89c-.11.07-.13.17 0 .23l1.62.93a.45.45 0 00.38.01zM177.28 420.5l1.55-.89c.11-.07.12-.17 0-.23l-1.61-.93a.45.45 0 00-.39 0l-1.55.9c-.11.07-.13.17 0 .22l1.62.94a.45.45 0 00.38-.01zM176.67 418.12l-1.62-.94a.45.45 0 00-.39 0l-1.55.9c-.11.06-.13.16 0 .22l1.62.93a.45.45 0 00.39 0l1.55-.9c.08-.05.09-.15 0-.21zM174.48 416.85l-1.62-.93a.42.42 0 00-.39 0l-1.55.89c-.11.07-.13.17 0 .22l1.62.94a.42.42 0 00.39 0l1.55-.89c.08-.08.09-.17 0-.23zM172.29 415.59l-1.62-.93a.45.45 0 00-.39 0l-1.55.9c-.11.06-.13.16 0 .22l1.62.93a.45.45 0 00.39 0l1.55-.9c.08-.06.09-.16 0-.22zM170.1 414.33l-1.62-.94a.42.42 0 00-.39 0l-1.55.89c-.11.07-.13.17 0 .23l1.62.93a.42.42 0 00.39 0l1.55-.89c.08-.07.1-.17 0-.22zM167.91 413.06l-1.62-.93a.45.45 0 00-.39 0l-1.55.9c-.11.07-.12.16 0 .22l1.62.94a.45.45 0 00.39 0l1.55-.89c.09-.08.09-.18 0-.24zM165.72 411.8l-1.62-.94a.45.45 0 00-.39 0l-1.55.89c-.11.07-.12.17 0 .23l1.62.93a.45.45 0 00.39 0l1.55-.9c.08-.01.1-.15 0-.21zM163.53 410.53l-1.62-.93a.42.42 0 00-.39 0l-1.55.89c-.11.07-.12.17 0 .22l1.62.94a.42.42 0 00.39 0l1.55-.89c.08-.07.1-.17 0-.23zM161.34 409.27l-1.62-.93a.45.45 0 00-.39 0l-1.55.9c-.11.06-.12.16 0 .22l1.61.93a.45.45 0 00.39 0l1.55-.9c.09-.06.11-.16.01-.22zM159.15 408l-1.62-.94a.42.42 0 00-.39 0l-1.55.89c-.11.07-.12.17 0 .23l1.61.93a.42.42 0 00.39 0l1.55-.89c.09-.06.11-.16.01-.22zM157 406.74l-1.62-.93a.45.45 0 00-.39 0l-1.55.9c-.11.06-.12.16 0 .22l1.61.94a.45.45 0 00.39 0l1.55-.9c.06-.07.07-.17.01-.23zM150.2 405.11l2.6 1.5a.45.45 0 00.39 0l1.55-.9c.12-.07.13-.17 0-.22l-2.58-1.49a.4.4 0 00-.38 0l-1.56.89c-.11.11-.12.16-.02.22zM148 406.36l1.62.94a.45.45 0 00.39 0l1.55-.89c.11-.07.12-.17 0-.23l-1.61-.93a.45.45 0 00-.39 0l-1.55.9c-.08.06-.09.15-.01.21zM151.79 406.51l-1.55.89c-.12.07-.13.17 0 .23l1.62.93a.42.42 0 00.39 0l1.55-.89c.11-.07.12-.17 0-.22l-1.62-.94a.43.43 0 00-.39 0zM156 408.69l-1.62-.93a.42.42 0 00-.38 0l-1.55.9c-.12.06-.13.16 0 .22l1.62.93a.42.42 0 00.38 0l1.56-.9c.06-.06.07-.16-.01-.22zM158.17 410l-1.62-.93a.4.4 0 00-.38 0l-1.55.89c-.12.07-.13.17 0 .22l1.62.94a.4.4 0 00.38 0l1.55-.89c.09-.12.1-.23 0-.23zM160.36 411.22l-1.62-.94a.43.43 0 00-.38 0l-1.55.9c-.12.06-.13.16 0 .22l1.62.93a.42.42 0 00.38 0l1.55-.9c.09-.05.1-.15 0-.21zM162.55 412.48l-1.62-.93a.42.42 0 00-.38 0l-1.55.9c-.12.07-.13.17 0 .22l1.62.94a.43.43 0 00.38 0l1.55-.89c.09-.08.1-.18 0-.24zM164.74 413.75l-1.62-.94a.43.43 0 00-.38 0l-1.55.89c-.12.07-.13.17 0 .23l1.62.93a.42.42 0 00.38 0l1.55-.9c.09-.06.1-.16 0-.21zM166.93 415l-1.62-.93a.42.42 0 00-.38 0l-1.55.9c-.12.06-.13.16 0 .22l1.62.94a.43.43 0 00.38 0l1.55-.9c.07-.06.07-.16 0-.23zM169.12 416.28l-1.62-.94a.4.4 0 00-.38 0l-1.55.89c-.12.07-.13.17 0 .23l1.62.93a.4.4 0 00.38 0l1.55-.89c.09-.07.1-.17 0-.22zM171.31 417.54l-1.62-.93a.42.42 0 00-.38 0l-1.55.9c-.12.06-.13.16 0 .22l1.62.93a.42.42 0 00.38 0l1.55-.9c.09-.06.1-.16 0-.22zM169.92 419l1.62.94a.4.4 0 00.38 0l1.55-.89c.12-.07.13-.17 0-.23l-1.62-.93a.4.4 0 00-.38 0l-1.55.89c-.09.07-.1.22 0 .22zM174.11 421.19l1.55-.9c.12-.06.13-.16 0-.22l-1.62-.94a.43.43 0 00-.38 0l-1.56.9c-.11.06-.12.16 0 .22l1.62.93a.42.42 0 00.39.01zM176.3 422.45l1.55-.89c.12-.07.13-.17 0-.23l-1.62-.93a.45.45 0 00-.39 0l-1.55.9c-.11.07-.12.16 0 .22l1.61.94a.45.45 0 00.4-.01zM181.06 423.17l-2.61-1.51a.45.45 0 00-.39 0l-1.55.89c-.11.07-.12.17 0 .23l2.6 1.5a.45.45 0 00.39 0l1.55-.9c.09-.06.11-.16.01-.21zM145.85 407.62l3.19 1.85a.45.45 0 00.39 0l1.55-.9c.11-.06.13-.16 0-.22l-3.2-1.85a.45.45 0 00-.39 0l-1.55.9c-.08.06-.09.16.01.22zM178.86 424.41l-3.19-1.84a.45.45 0 00-.39 0l-1.55.9c-.12.06-.13.16 0 .22l3.2 1.85a.45.45 0 00.39 0l1.55-.89c.13-.08.13-.18-.01-.24zM149.62 409.79l1.61.94a.42.42 0 00.39 0l1.55-.89c.11-.07.13-.17 0-.22l-1.62-.94a.42.42 0 00-.39 0l-1.55.89c-.08.07-.09.17.01.22zM151.8 411.06l1.62.93a.45.45 0 00.39 0l1.55-.9c.11-.06.13-.16 0-.22l-1.62-.93a.45.45 0 00-.39 0l-1.55.9c-.08.06-.09.16 0 .22zM154 412.32l1.62.94a.45.45 0 00.39 0l1.55-.89c.11-.07.13-.17 0-.23l-1.62-.93a.42.42 0 00-.39 0l-1.55.89c-.09.07-.1.17 0 .22zM156.18 413.59l1.62.93a.45.45 0 00.39 0l1.55-.9c.11-.07.13-.17 0-.22l-1.62-.94a.45.45 0 00-.39 0l-1.55.89c-.08.08-.09.18 0 .24zM158.37 414.85l1.62.94a.45.45 0 00.39 0l1.55-.9c.11-.06.13-.16 0-.22l-1.62-.93a.45.45 0 00-.39 0l-1.55.9c-.08.05-.1.15 0 .21zM160.56 416.12l1.62.93a.42.42 0 00.39 0l1.55-.89c.11-.07.12-.17 0-.22l-1.62-.94a.42.42 0 00-.39 0l-1.55.89c-.08.11-.1.17 0 .23zM162.75 417.38l1.62.93a.45.45 0 00.39 0l1.55-.9c.11-.06.12-.16 0-.22l-1.62-.93a.45.45 0 00-.39 0l-1.55.9c-.08.06-.1.16 0 .22zM164.94 418.64l1.62.94a.42.42 0 00.39 0l1.55-.89c.11-.07.12-.17 0-.23l-1.62-.93a.42.42 0 00-.39 0l-1.55.89c-.08.07-.1.17 0 .22zM167.13 419.91l1.62.93a.45.45 0 00.39 0l1.55-.9c.11-.06.12-.16 0-.22l-1.61-.94a.45.45 0 00-.39 0l-1.55.9c-.09.07-.14.17-.01.23zM169.32 421.17l1.62.94a.45.45 0 00.39 0l1.55-.89c.11-.07.12-.17 0-.23l-1.61-.93a.45.45 0 00-.39 0l-1.55.9c-.09.04-.11.16-.01.21zM173.52 423.36l1.55-.9c.11-.07.12-.17 0-.22l-1.61-.94a.45.45 0 00-.39 0l-1.55.89c-.12.07-.13.17 0 .23l1.62.93a.45.45 0 00.38.01zM143.67 408.87l4.29 2.48a.4.4 0 00.38 0l1.55-.89c.12-.07.13-.17 0-.23l-4.29-2.47a.4.4 0 00-.38 0l-1.55.89c-.09.07-.1.17 0 .22zM148.53 411.68l1.61.93a.45.45 0 00.39 0l1.55-.9c.12-.06.13-.16 0-.22l-1.62-.94a.45.45 0 00-.39 0l-1.55.9c-.08.07-.09.17.01.23zM150.72 412.94l1.61.94a.45.45 0 00.39 0l1.55-.89c.12-.07.13-.17 0-.23l-1.62-.93a.45.45 0 00-.39 0l-1.55.9c-.08.06-.09.16.01.21zM152.91 414.21l1.61.93a.45.45 0 00.39 0l1.55-.9c.11-.07.13-.17 0-.22l-1.62-.94a.45.45 0 00-.39 0l-1.55.89c-.08.08-.09.18.01.24zM155.1 415.47l1.61.94a.45.45 0 00.39 0l1.55-.9c.11-.06.13-.16 0-.22l-1.62-.93a.45.45 0 00-.39 0l-1.55.9c-.09.05-.09.15.01.21zM157.28 416.74l1.62.93a.42.42 0 00.39 0l1.55-.89c.11-.07.13-.17 0-.22l-1.62-.94a.42.42 0 00-.39 0l-1.55.89c-.08.07-.09.17 0 .23zM159.47 418l1.62.93a.45.45 0 00.39 0L163 418c.11-.06.13-.16 0-.22l-1.62-.93a.45.45 0 00-.39 0l-1.55.9c-.05.09-.06.19.03.25zM161.66 419.26l1.62.94a.42.42 0 00.39 0l1.55-.89c.11-.07.13-.17 0-.23l-1.62-.93a.42.42 0 00-.39 0l-1.55.89c-.08.07-.09.17 0 .22zM163.85 420.53l1.62.93a.45.45 0 00.39 0l1.55-.9c.11-.06.13-.16 0-.22l-1.62-.94a.45.45 0 00-.39 0l-1.55.9c-.08.07-.1.17 0 .23zM166 421.79l1.62.94a.45.45 0 00.39 0l1.55-.89c.11-.07.12-.17 0-.23l-1.62-.93a.45.45 0 00-.39 0l-1.55.9c0 .06-.06.16 0 .21zM168.23 423.06l1.62.93a.42.42 0 00.39 0l1.55-.89c.11-.07.12-.17 0-.22l-1.62-.94a.45.45 0 00-.39 0l-1.55.89c-.08.07-.1.17 0 .23zM176.69 425.67l-4.3-2.48a.45.45 0 00-.39 0l-1.55.9c-.11.06-.13.16 0 .22l4.3 2.48a.45.45 0 00.39 0l1.55-.9c.08-.06.1-.16 0-.22zM165.26 421.58l-10.38-6a.43.43 0 00-.38 0l-1.55.89c-.12.07-.13.17 0 .23l10.38 6a.4.4 0 00.38 0l1.55-.89c.09-.07.1-.17 0-.23zM151.64 413.72l-1.61-.93a.42.42 0 00-.39 0l-1.55.89c-.11.07-.13.17 0 .22l1.62.94a.45.45 0 00.39 0l1.55-.89c.08-.07.09-.17-.01-.23zM154.31 415.26l-2.09-1.21a.45.45 0 00-.39 0l-1.55.89c-.11.07-.13.17 0 .23l2.1 1.21a.43.43 0 00.38 0l1.55-.89c.09-.07.1-.17 0-.23zM170.12 424.39l-1.62-.94a.45.45 0 00-.39 0l-1.55.9c-.11.06-.12.16 0 .22l1.62.93a.45.45 0 00.39 0l1.55-.9c.08-.05.1-.15 0-.21zM167.93 423.12l-2.1-1.21a.43.43 0 00-.38 0l-1.55.9c-.12.06-.13.16 0 .22l2.09 1.21a.42.42 0 00.39 0l1.55-.89c.07-.07.07-.17 0-.23zM145.08 409.93l-1.62-.93a.45.45 0 00-.39 0l-1.55.9c-.11.06-.13.16 0 .22l1.62.94a.45.45 0 00.39 0l1.55-.9c.08-.07.09-.16 0-.23zM147.27 411.2l-1.62-.94a.42.42 0 00-.39 0l-1.55.89c-.11.07-.13.17 0 .23l1.62.93a.42.42 0 00.39 0l1.55-.89c.08-.07.09-.17 0-.22zM149.46 412.46l-1.62-.93a.45.45 0 00-.39 0l-1.55.9c-.11.06-.13.16 0 .22l1.62.93a.45.45 0 00.39 0l1.55-.9c.08-.06.09-.16 0-.22zM174.51 426.93l-3.82-2.21a.45.45 0 00-.39 0l-1.55.9c-.11.07-.12.17 0 .22l3.83 2.21a.4.4 0 00.38 0l1.55-.89c.09-.08.1-.16 0-.23zM184.63 421.11l-1.62-.94a.4.4 0 00-.38 0l-.77.44c-.12.07-.13.17 0 .22l1.62.94a.4.4 0 00.38 0l.77-.44c.09-.07.1-.17 0-.22zM179.64 419.59l1.62.94a.43.43 0 00.38 0l.77-.45c.12-.06.13-.16 0-.22l-1.62-.93a.42.42 0 00-.38 0l-.77.45c-.09.05-.1.15 0 .21zM177.45 418.33l1.62.93a.4.4 0 00.38 0l.77-.44c.12-.07.13-.17 0-.22l-1.62-.94a.43.43 0 00-.38 0l-.77.44c-.09.07-.1.17 0 .23zM175.26 417.06l1.62.94a.43.43 0 00.38 0l.77-.44c.12-.07.13-.17 0-.23l-1.62-.93a.42.42 0 00-.38 0l-.77.45c-.09.06-.1.15 0 .21zM173.07 415.8l1.62.93a.42.42 0 00.38 0l.77-.45c.12-.06.13-.16 0-.22l-1.62-.94a.43.43 0 00-.38 0l-.77.45c-.07.07-.07.17 0 .23zM170.88 414.53l1.62.94a.4.4 0 00.38 0l.77-.44c.12-.07.13-.17 0-.23l-1.62-.93a.4.4 0 00-.38 0l-.77.44c-.09.07-.1.17 0 .22zM168.69 413.27l1.62.93a.42.42 0 00.38 0l.77-.45c.12-.06.13-.16 0-.22l-1.62-.93a.42.42 0 00-.38 0l-.77.45c-.09.06-.1.16 0 .22zM166.5 412l1.62.93a.4.4 0 00.38 0l.78-.44c.11-.07.12-.17 0-.22l-1.62-.94a.4.4 0 00-.38 0l-.77.44c-.1.08-.11.23-.01.23zM164.31 410.74l1.62.94a.43.43 0 00.38 0l.78-.45c.11-.06.12-.16 0-.22l-1.61-.93a.45.45 0 00-.39 0l-.77.45c-.1.05-.11.15-.01.21zM162.12 409.48l1.62.93a.45.45 0 00.39 0l.77-.45c.11-.07.12-.17 0-.22l-1.61-.94a.45.45 0 00-.39 0l-.77.44c-.13.08-.13.18-.01.24zM159.93 408.21l1.62.94a.45.45 0 00.39 0l.77-.44c.11-.07.12-.17 0-.23l-1.61-.93a.42.42 0 00-.39 0l-.71.45c-.16.06-.17.16-.07.21zM157.74 407l1.62.93a.45.45 0 00.39 0l.77-.45c.11-.06.12-.16 0-.22l-1.61-.93a.45.45 0 00-.39 0l-.77.45c-.09.01-.11.11-.01.22zM155.55 405.68l1.62.94a.42.42 0 00.39 0l.77-.44c.11-.07.12-.17 0-.22l-1.61-.94a.42.42 0 00-.39 0l-.77.44c-.09.07-.11.17-.01.22zM152.37 403.85l2.61 1.51a.49.49 0 00.39 0l.77-.45c.11-.06.12-.16 0-.22l-2.61-1.5a.45.45 0 00-.39 0l-.77.45c-.08.05-.1.15 0 .21z" class="cls-41"/><path d="M156.81 403.43l27.35 15.79.37-.22-27.34-15.79-.38.22z" class="cls-42"/><path d="M161.22 422.92l-10.82-6.25a1.08 1.08 0 00-1 0l-4.4 2.58-.19.11-.1.06-.35.2-2 1.13c-.27.16-.27.41 0 .56l5.31 3.07.19.11 5.32 3.07a1.08 1.08 0 001 0l2.42-1.4.19-.1 4.46-2.58c.24-.16.24-.41-.03-.56z" class="cls-41"/><path d="M165.64 434.34l21.18-12.23a1.23 1.23 0 00.71-.87v1.36a1.25 1.25 0 01-.71.87l-21.18 12.23zM144.2 423.46l5.27 3a.16.16 0 010 .3l-5.78-3.34a.57.57 0 01.51.04zM142.37 421l2-1.13.35-.2.1-.06.19-.11 4.47-2.58a1.08 1.08 0 011 0l10.82 6.25a.56.56 0 01.16.14c.09-.13 0-.3-.16-.41l-10.82-6.25a1.08 1.08 0 00-1 0l-4.48 2.6-.19.11-.1.06-.35.2-2 1.13c-.2.12-.25.28-.16.42a.39.39 0 01.17-.17z" class="cls-42"/><g class="cls-10"><path d="M158.51 369.22l1-.39a.71.71 0 01.59.08l-1 .39a.69.69 0 00-.59-.08z" class="cls-43"/><path d="M188.6 420.22l-1 .38a.76.76 0 00.4-.6l1-.38a.75.75 0 01-.4.6z" class="cls-42"/><path d="M191.51 390.12l1.03-.39-3.99 27.44-1.03.39 3.99-27.44z" class="cls-44"/><path d="M191.69 388.12l1-.39a1.68 1.68 0 01.73 1.58l-1 .39a1.66 1.66 0 00-.73-1.58z" class="cls-43"/><path d="M158.78 371.22l1.03-.38 32.73 18.89-1.03.39-32.73-18.9z" class="cls-44"/><path d="M191.69 388.12a1.66 1.66 0 01.72 1.58L188 420c-.09.6-.55.86-1 .58l-32.6-18.82a1.67 1.67 0 01-.71-1.58l4.39-30.26c.08-.59.54-.85 1-.57zm-4.17 29.44l4-27.44-32.73-18.9-4 27.44 32.73 18.9" class="cls-40"/><path fill="#3cb4e5" d="M191.51 390.12l-3.99 27.44-32.73-18.9 3.99-27.44 32.73 18.9z"/><path d="M159.09 369.3l1.03-.39 32.59 18.82-1.02.39-32.6-18.82z" class="cls-41"/><path d="M192.41 389.7l1.03-.39-4.4 30.26-1.02.38 4.39-30.25z" class="cls-42"/></g><path d="M162.75 434.46v1.35a3.22 3.22 0 002.89-.12v-1.37a3.19 3.19 0 01-2.89.14z" class="cls-43"/><path d="M130.41 415.79a.87.87 0 01-.5-.68v1.33a.85.85 0 00.5.72l32.31 18.65v-1.35z" class="cls-41"/><path fill="#f7f8f9" d="M130.62 414.12l8.64-5 12.54-7.24a3.44 3.44 0 012.41-.31 4.09 4.09 0 00-.52.23l-12.54 7.24-8.64 5c-.86.49-.95 1.24-.21 1.67l32.34 18.67a2.29 2.29 0 00.48.19 3.09 3.09 0 01-2.37-.11l-32.34-18.67c-.74-.43-.65-1.18.21-1.67z"/><path d="M153.68 400.13l4.39-30.26c.08-.59.54-.85 1-.57l32.6 18.82a1.66 1.66 0 01.72 1.58v.35L160 371.34c-.48-.28-.94 0-1 .57l-4.34 29.91-.19-.11a1.67 1.67 0 01-.79-1.58z" class="cls-40"/><path d="M159.59 375.94l-3.2 22.02 30.25 17.46 3.2-22.02-30.25-17.46z" class="cls-28"/><path d="M190.22 390.82l-30.25-17.46-.38 2.58 30.25 17.46.38-2.58z" class="cls-5"/><path d="M171.18 431.5s1.91-4.36 2.63-5.93.08-3.4 1.26-3.75 1.36 1.86 1.3 3.32a14.16 14.16 0 00.76 3.95c.19.82 1.71 1 1.71 1l-3 5.19h-3.53z" class="cls-25"/><path d="M124.36 394.72c10.77-1.5 11.23 6.27 11.39 9.42s3.13 32.86 3.13 32.86l26.82 1.48s3.11 2.83 4.8 4.19 1 7.52 1 7.52-30.66 4.46-36.77 4.75-12-3.12-12.84-5.86-7.83-32-7.56-36.56c.67-11.52 3.67-16.91 10.03-17.8z" class="cls-15"/><g class="cls-10"><path d="M122.25 303.07l10.4-6.04-8.39 11.72-10.39 6.04 8.38-11.72zM68.86 200.67l10.39-6c2-1.14 4.7-1 7.71.75l-10.4 6.05c-3.01-1.78-5.73-1.94-7.7-.8zM171.79 315.93L161.4 322c1.94-1.13 3.15-3.54 3.16-7l10.44-6c-.06 3.4-1.26 5.8-3.21 6.93z" class="cls-27"/><path d="M164.7 264.78l10.4-6.04-.15 50.25-10.39 6.04.14-50.25zM76.56 201.43l10.4-6.05 77.34 44.65-10.4 6.05-77.34-44.65z" class="cls-27"/><path d="M153.9 246.08l10.4-6.08c6 3.46 10.82 11.83 10.8 18.71l-10.4 6c.02-6.8-4.82-15.18-10.8-18.63z" class="cls-27"/><path d="M153.9 246.08c6 3.45 10.82 11.83 10.8 18.7l-.14 50.22c0 6.87-4.89 9.65-10.87 6.19l-31.44-18.15-8.38 11.72-7.75-21-29.77-17.19c-6-3.45-10.82-11.83-10.8-18.7l.15-50.25c0-6.87 4.88-9.65 10.86-6.19z" class="cls-28"/></g><path d="M153.9 246.08c6 3.45 10.82 11.83 10.8 18.7l-.14 50.22c0 6.87-4.89 9.65-10.87 6.19l-31.44-18.15-8.38 11.72-7.75-21-29.77-17.19c-6-3.45-10.82-11.83-10.8-18.7l.15-50.25c0-6.87 4.88-9.65 10.86-6.19z" class="cls-28"/><path d="M153.9 246.08c6 3.45 10.82 11.83 10.8 18.7l-.14 50.22c0 6.87-4.89 9.65-10.87 6.19l-31.44-18.15-8.38 11.72-7.75-21-29.77-17.19c-6-3.45-10.82-11.83-10.8-18.7l.15-50.25c0-6.87 4.88-9.65 10.86-6.19z" class="cls-28"/><path d="M153.44 246.87L76.1 202.22c-2.6-1.5-5-1.77-6.76-.76s-2.71 3.19-2.72 6.16l-.14 50.25c0 6.57 4.61 14.61 10.33 17.9l30.06 17.36 7.26 19.71 7.86-11 32.16 18.57c2.61 1.5 5 1.77 6.77.76s2.7-3.19 2.71-6.16l.15-50.25c.02-6.55-4.62-14.58-10.34-17.89z" class="cls-29"/><g clip-path="url(#clip-path-4)"><path d="M83.48 248.12a3.13 3.13 0 01-1.42-1.86V243c.27-.52.74-.59 1.41-.2a2.74 2.74 0 011.15 1.31 5.28 5.28 0 01.39 2.16v.22a2.42 2.42 0 01-.41 1.65c-.27.27-.64.26-1.13 0m-1.4-10.78l-1.55-.89v11.26l1.41.81.08-.82a4.65 4.65 0 001.88 2.1c.84.48 1.5.5 2 0a3.41 3.41 0 00.73-2.52v-.11a7.64 7.64 0 00-.71-3.42 4.91 4.91 0 00-2-2.22c-.76-.44-1.36-.49-1.81-.13v-4.1M90.78 252.37a3.12 3.12 0 01-1.22-1.4 5 5 0 01-.43-2.18 2.58 2.58 0 01.45-1.81c.3-.29.7-.28 1.21 0A3 3 0 0192 248.4a5 5 0 01.45 2.16 2.68 2.68 0 01-.44 1.81q-.44.45-1.23 0m0-6.81a2.79 2.79 0 00-1.67-.47 1.44 1.44 0 00-1.13.79 3.73 3.73 0 00-.41 1.87v.08a7.17 7.17 0 00.87 3.49 6.12 6.12 0 002.33 2.47 2.85 2.85 0 001.69.47 1.44 1.44 0 001.12-.79 3.68 3.68 0 00.4-1.87v-.42a7.22 7.22 0 00-.94-3.28 6.06 6.06 0 00-2.26-2.34M98.27 256.66a3.16 3.16 0 01-1.42-1.86v-3.26c.27-.52.74-.59 1.42-.2a2.78 2.78 0 011.14 1.31 5.26 5.26 0 01.39 2.15v.2a2.41 2.41 0 01-.42 1.65c-.26.27-.63.26-1.12 0m-1.4-10.78l-1.55-.9v11.26l1.4.82.08-.82a4.73 4.73 0 001.89 2.1c.84.48 1.49.49 2 0a3.43 3.43 0 00.73-2.53v-.1a7.89 7.89 0 00-.71-3.42 4.91 4.91 0 00-2-2.22c-.76-.44-1.36-.49-1.81-.14v-4.09M107.43 262.19a1.72 1.72 0 01-.75-1 3.62 3.62 0 01-.15-1.6 3.46 3.46 0 01.57-1.93.83.83 0 011.16-.09 2.81 2.81 0 01.62.49l-.3 3.45a1.18 1.18 0 01-.5.66.61.61 0 01-.65 0m.62-9a4.43 4.43 0 00-2.8-.72 2.65 2.65 0 00-1.94 1.37 6.69 6.69 0 00-.8 3.15 11.85 11.85 0 00.52 4 10.12 10.12 0 001.73 3.28 9.81 9.81 0 002.78 2.39 6.16 6.16 0 001.33.59 2.37 2.37 0 001 .13l-.23-1.14a2.9 2.9 0 01-1-.18 5.33 5.33 0 01-1.12-.5 7.37 7.37 0 01-2.23-2 8 8 0 01-1.35-2.73 9.9 9.9 0 01-.36-3.25 6.12 6.12 0 01.63-2.74 2.18 2.18 0 011.54-1.19 3.45 3.45 0 012.22.56 7.54 7.54 0 013 3.21 9.34 9.34 0 01.9 4.66 3.26 3.26 0 01-.46 1.81.73.73 0 01-1.07.19 1.75 1.75 0 01-.72-1.87l.34-3.93a7.37 7.37 0 00-1-1.2 4.89 4.89 0 00-.94-.7 1.72 1.72 0 00-1.32-.24 1.67 1.67 0 00-1 .9 4.66 4.66 0 00-.51 1.85 5.42 5.42 0 00.36 2.57 3.32 3.32 0 001.41 1.69 1.57 1.57 0 00.9.24 1.11 1.11 0 00.76-.39 3.29 3.29 0 001.54 2c.81.46 1.45.48 1.92 0a3.46 3.46 0 00.8-2.44 11.31 11.31 0 00-.49-3.81 10 10 0 00-1.7-3.29 9.59 9.59 0 00-2.73-2.39M123.02 264.31l-1.51-.87-1.11 4.84-1.42-6.3-1.17-.68-1.43 4.6-1.1-6.06-1.51-.87 1.87 9.02 1.27.74 1.47-4.61 1.46 6.3 1.28.74 1.9-6.85M126.46 273a2.24 2.24 0 01-.8-.76 1.87 1.87 0 01-.29-1c0-.41.15-.66.44-.72a2.06 2.06 0 011.29.4l.84.48v1.5a.74.74 0 01-.61.34 1.58 1.58 0 01-.86-.25m.37-6.58a3.55 3.55 0 00-1.45-.52 1.31 1.31 0 00-1 .3 1.33 1.33 0 00-.38 1l1.55.89c0-.31.11-.51.34-.58a1.12 1.12 0 01.87.2 2.33 2.33 0 01.9.89 2.29 2.29 0 01.3 1.17v.51l-1-.55a3.45 3.45 0 00-2.35-.67c-.54.13-.82.63-.82 1.47a3.91 3.91 0 00.65 2.07 4.82 4.82 0 001.7 1.66 1.71 1.71 0 001.81.16 4.38 4.38 0 00.18.84l1.58.92V276a6.05 6.05 0 01-.26-1.86v-3.57a4.42 4.42 0 00-.73-2.4 5.51 5.51 0 00-1.93-1.81M132.78 266.61l-1.55-.89-.03 11.26 1.55.89.03-11.26M136.12 268.54l-1.55-.9-.04 11.26 1.56.9.03-11.26M139.11 276.83a1.61 1.61 0 01.51-1.14.9.9 0 011 .08 2.66 2.66 0 011 1 3.69 3.69 0 01.41 1.59v.13l-2.95-1.7m1.54-2.48a2.46 2.46 0 00-1.61-.41 1.51 1.51 0 00-1.12.81 3.77 3.77 0 00-.4 1.89v.22a6.53 6.53 0 00.91 3.36 6.31 6.31 0 002.38 2.45 3.11 3.11 0 001.55.5 1.39 1.39 0 001.11-.46l-.83-1.4a1.37 1.37 0 01-1.74 0 3.41 3.41 0 01-1.25-1.3 4.22 4.22 0 01-.57-1.88l4.51 2.6V280a7.2 7.2 0 00-.76-3.36 5.48 5.48 0 00-2.18-2.29M146.75 276.08l-1.55-.9v1.93l-1.13-.65v1.32l1.14.65v4.49a3.48 3.48 0 001.78 3.3 3.79 3.79 0 001 .42v-1.37a3.19 3.19 0 01-.54-.24 1.44 1.44 0 01-.56-.53 1.67 1.67 0 01-.15-.75v-4.42l1.22.7v-1.32l-1.21-.7v-1.93" class="cls-31"/></g><path d="M548.94 588.83l-96 55.44c-4.52 2.61-4.54 6.84 0 9.45l48.21 28c4.5 2.61 11.8 2.61 16.32 0l96-55.44c4.53-2.62 4.55-6.85.06-9.46l-48.21-28c-4.49-2.61-11.8-2.61-16.32 0" class="cls-15"/><path d="M509.22 685.7a18.58 18.58 0 01-9.17-2.23l-48.2-28c-2.81-1.63-4.36-3.92-4.35-6.44s1.57-4.83 4.4-6.47l96-55.44c5.15-3 13.2-3 18.32 0l48.21 28c2.81 1.63 4.36 3.92 4.35 6.45s-1.57 4.83-4.41 6.47l-96 55.44a18.6 18.6 0 01-9.15 2.22zm40.72-95.14L453.9 646c-1.52.89-2.4 2-2.4 3s.86 2.1 2.36 3l48.2 28c3.87 2.25 10.43 2.25 14.32 0l96-55.44c1.53-.89 2.41-2 2.41-3s-.86-2.11-2.36-3l-48.21-28c-3.86-2.24-10.42-2.24-14.31 0z" class="cls-6"/><path d="M504.62 641.66l-3.09-1.8 1.7-1a3.42 3.42 0 011.68-.48 3 3 0 011.58.42c.47.27.69.57.66.91s-.33.66-.87 1l-1.66 1m-2.73-3.5l-3.27 1.79 9.23 5.37 1.62-.94-3.55-2.06 1.79-1 5.42 1 1.73-1h-.09l-5.93-1a1.45 1.45 0 00.29-1.29 2.15 2.15 0 00-1.09-1.16 5.31 5.31 0 00-3-.7 7.18 7.18 0 00-3.2 1M513.1 637.66a1.6 1.6 0 01-.72-1c0-.32.15-.6.58-.85a2.52 2.52 0 011.4-.35 3.63 3.63 0 011.58.44l.12.06-3 1.71m-1.37-2.58a2.53 2.53 0 00-1.16 1.19 1.47 1.47 0 00.14 1.37 3.83 3.83 0 001.43 1.3l.19.11a6.64 6.64 0 003.37.9 6.38 6.38 0 003.32-.84 3.2 3.2 0 001.21-1.1 1.41 1.41 0 00.15-1.19h-1.63q.19.88-.87 1.5a3.47 3.47 0 01-1.75.44 4.27 4.27 0 01-1.92-.45l4.5-2.6-.62-.36a7.06 7.06 0 00-3.29-1 5.53 5.53 0 00-3.07.74M524.59 634.46a2.81 2.81 0 01-1.76.32 5.15 5.15 0 01-2.06-.72q-1.23-.7-1.38-1.29c-.11-.39.08-.73.57-1a3.11 3.11 0 012.09-.35l3.12 1.81c.23.48 0 .89-.58 1.24m-6.26-3.19c-.84.48-1.2 1.05-1.06 1.7s.74 1.29 1.81 1.91a7.78 7.78 0 003.4 1.11 5 5 0 002.95-.58c.72-.42 1.07-.9 1-1.43l3.22 1.87 1.55-.9-9.49-5.51-1.38.79.59.45a4.63 4.63 0 00-2.63.59M529.1 625.2l-1.55.89 4.92 2.86q.42.7-.72 1.35a2.26 2.26 0 01-2.4-.13l-4.42-2.57-1.54.89 4.44 2.59a5.33 5.33 0 002.46.76 4.3 4.3 0 002.35-.6c.84-.48 1.22-1 1.15-1.58l.71.36 1.46-.84-6.86-4M534.78 625.14a1.6 1.6 0 01-.72-1c0-.32.15-.6.58-.85a2.63 2.63 0 011.4-.35 3.71 3.71 0 011.59.44l.11.06-3 1.71m-1.37-2.58a2.53 2.53 0 00-1.16 1.19 1.52 1.52 0 00.14 1.38 3.81 3.81 0 001.43 1.29l.19.11a6.55 6.55 0 003.38.9 6.37 6.37 0 003.31-.84 3.13 3.13 0 001.21-1.1 1.4 1.4 0 00.15-1.19h-1.62c.12.59-.17 1.09-.88 1.5a3.45 3.45 0 01-1.75.44 4.3 4.3 0 01-1.92-.45l4.51-2.6-.63-.36a7.06 7.06 0 00-3.29-1 5.55 5.55 0 00-3.07.74M540.14 618.67a2.43 2.43 0 00-1.32 1.46 1.17 1.17 0 00.73 1.29 3.92 3.92 0 002.78.27 11 11 0 001.74-.52 7.07 7.07 0 011.51-.43 1.45 1.45 0 011 .17c.25.14.35.32.29.53s-.29.44-.69.67a3.14 3.14 0 01-1.32.42 2.31 2.31 0 01-1.25-.25l-1.51.87a3.77 3.77 0 001.52.45 5.66 5.66 0 001.87-.11 6.17 6.17 0 001.82-.69 2.77 2.77 0 001.44-1.5c.14-.52-.11-1-.72-1.32a3.11 3.11 0 00-1.19-.4 5 5 0 00-1.43.06 11.38 11.38 0 00-1.91.55 8 8 0 01-1.61.47 1.32 1.32 0 01-.85-.15c-.26-.15-.36-.33-.31-.54a1.12 1.12 0 01.61-.62 2.41 2.41 0 011.17-.34 2 2 0 011.06.24l1.55-.9a4 4 0 00-2.33-.47 5.83 5.83 0 00-2.61.79M544.7 614.26l-1.55.89 1.67 1-1.14.66 1.15.66 1.13-.66 3.88 2.26a3.51 3.51 0 003.75.11 4.19 4.19 0 00.87-.67l-1.19-.7a2.47 2.47 0 01-.48.35 1.32 1.32 0 01-.73.22 1.61 1.61 0 01-.72-.24l-3.83-2.22 1.22-.7-1.15-.67-1.21.7-1.67-1M552 608.5c-.77.44-1.15.9-1.17 1.39s.37 1 1.13 1.39l.62.37-1 .6 1.14.67 1.05-.61 5.71 3.32 1.55-.89-5.71-3.32 1.4-.81-1.14-.67-1.4.81-.61-.35c-.76-.44-.77-.87 0-1.3a6.46 6.46 0 01.65-.32l-1.17-.72a6.06 6.06 0 00-1 .44M565.33 611a3 3 0 01-1.83.35 5.09 5.09 0 01-2.1-.71c-.79-.46-1.23-.89-1.34-1.29s.11-.75.61-1a3.11 3.11 0 011.83-.35 5.07 5.07 0 012.1.7c.78.45 1.23.88 1.34 1.29s-.09.75-.61 1.06m-5.89-3.41a2.86 2.86 0 00-1.25 1.21 1.47 1.47 0 00.12 1.37 3.69 3.69 0 001.42 1.29h.07a7.15 7.15 0 003.45 1 6.18 6.18 0 003.31-.79 2.84 2.84 0 001.25-1.23 1.42 1.42 0 00-.12-1.36 3.81 3.81 0 00-1.41-1.29l-.37-.2a7.09 7.09 0 00-3.31-.83 6.06 6.06 0 00-3.16.79M567 603.15c-.66.38-.88.85-.66 1.42l-.81-.43-1.48.86 6.86 4 1.55-.89-4.69-2.73c-.29-.46-.08-.89.63-1.3a5.34 5.34 0 01.68-.33l-1.44-.85a2.44 2.44 0 00-.64.27M518.11 646.8l-.2.11-2.29 2.86 1.29.75 1.5-1.76 7.41 4.31 1.55-.9-9.26-5.37M531.18 648.5l-2.89-1.68 1.93-1.11a2.8 2.8 0 012.95 0c.45.25.64.54.62.85s-.31.61-.82.9l-1.79 1m-4.07-2.37l-2.59-1.5 1.57-.91a3.66 3.66 0 011.53-.52 2.35 2.35 0 011.38.34c.42.24.59.51.53.81s-.34.58-.83.87l-1.59.91M524.8 643l-3.18 1.84 9.22 5.36 3.39-2c1-.6 1.61-1.19 1.7-1.79s-.29-1.14-1.15-1.64a4 4 0 00-1.76-.54 4.72 4.72 0 00-1.93.22 1.12 1.12 0 00.22-1 1.63 1.63 0 00-.79-.85 4.54 4.54 0 00-2.7-.62 7.22 7.22 0 00-3 1M536.4 636.28l-7.37 4.25 1.29.75 2.88-1.66 7.92 4.61 1.6-.92-7.93-4.61 2.9-1.67-1.29-.75M540.83 633.57a3.15 3.15 0 00-1.47 1.48 1.73 1.73 0 00.2 1.66 5 5 0 001.83 1.6l.86.5a9.25 9.25 0 002.72 1 8.16 8.16 0 002.78.11 6.62 6.62 0 002.48-.83c1.06-.61 1.63-1.26 1.71-1.94s-.31-1.35-1.2-2l-1.6.93c.57.43.84.82.8 1.17s-.37.71-1 1.07a3.78 3.78 0 01-2.36.46 7.33 7.33 0 01-2.83-1l-.82-.47c-1-.58-1.53-1.13-1.66-1.64s.15-1 .85-1.38a3.93 3.93 0 011.81-.54 4.68 4.68 0 012 .5l1.61-.93a7.46 7.46 0 00-3.44-.73 7 7 0 00-3.29 1M483.3 662.56l13.7 8a5.19 5.19 0 003 .51l12.32-2.07a1.39 1.39 0 00.51-.16c.37-.22.3-.57-.26-.89l-14-8.15-14.67 2.7-.6.06" class="cls-31"/><path fill="#215eac" d="M478.59 639.85a.69.69 0 00-.24.24L471.11 653c-.82 1.45-1.06 1.74-.28 2.31-.22-.2-.23-.39-.05-.54l.08-.06a1.36 1.36 0 01.43-.14l16.77-3.11 2.43-4.31c.19-.5-.06-1-.69-1.4l-9.92-5.75a1.36 1.36 0 00-1.29-.12"/><path d="M488.06 651.45l-5.45 9.69a.59.59 0 01-.24.23 1.14 1.14 0 01-.81.1h-.13a4.22 4.22 0 002 .18l24.18-4.51a1.27 1.27 0 00.39-.14c.32-.18.26-.48-.2-.75l-9.93-5.76a4.24 4.24 0 00-2.44-.4l-7.4 1.4" class="cls-8"/><path fill="#16a0db" d="M470.86 654.7l-.08.06c-.18.15-.17.34.05.54s.6.37 1.05.63l9.15 5.32.4.18h.13a1.14 1.14 0 00.81-.1.59.59 0 00.24-.23l5.45-9.69-16.77 3.11a1.36 1.36 0 00-.43.14"/><g class="cls-10"><path fill="#ee8233" d="M205.6 347l.17-15.66c-.08 7.33 4.69 14.7 14.32 20.36l-.17 15.66c-9.63-5.7-14.4-13.07-14.32-20.36z"/><path fill="#d07a33" d="M304 332.35l-.16 15.65c-.08 7.23-4.89 14.42-14.44 19.87-19.22 11-50.31 10.71-69.48-.55l.17-15.66c19.17 11.27 50.26 11.51 69.48.55 9.54-5.44 14.36-12.62 14.43-19.86z"/><path fill="#f89f33" d="M220.09 351.67c-19.14-11.26-19.1-29.27.12-40.23s50.31-10.72 69.45.53 19.12 29.29-.09 40.25-50.31 10.72-69.48-.55z"/></g><path d="M623.32 259.62c-.64-.38-1.11-.34-1.4.11v3.59a3.18 3.18 0 001.41 1.76c.5.29.9.29 1.18 0a2.88 2.88 0 00.44-1.87 5.32 5.32 0 00-.42-2.17 2.83 2.83 0 00-1.2-1.4m7.51 4.33c-.64-.37-1.11-.33-1.39.11v3.6a3.13 3.13 0 001.41 1.76c.49.29.89.28 1.18 0a3 3 0 00.43-1.88 5.27 5.27 0 00-.41-2.16 2.87 2.87 0 00-1.21-1.41M663.89 283c-.51-.3-.91-.29-1.19 0a3 3 0 00-.42 1.87 5.37 5.37 0 00.41 2.16 2.87 2.87 0 001.17 1.38c.65.37 1.12.31 1.42-.18v-3.46a3.14 3.14 0 00-1.4-1.78m-21.08-12.16q-.76-.45-1.23 0a2.65 2.65 0 00-.46 1.85 5.16 5.16 0 00.44 2.21 3.07 3.07 0 001.25 1.44c.54.31 1 .31 1.25 0a2.74 2.74 0 00.45-1.85 5.26 5.26 0 00-.45-2.21 3.18 3.18 0 00-1.25-1.44m14 8.06a1 1 0 00-1.06-.09 1.69 1.69 0 00-.51 1.17l3 1.74v-.13a3.88 3.88 0 00-.41-1.63 2.69 2.69 0 00-1-1.06m-41.35-25.67l-1.47 3.72 2.74 1.59-1.36-5.31m-19.59-5l4.85-2.15a.75.75 0 01.65.09 2 2 0 01.72.8l.12.22c.35.66.32 1.36-.09 1.53l-5.73 2.54a.68.68 0 01-.65-.09 2 2 0 01-.75-.84l-3-5.82c-.34-.68-.29-1.35.13-1.52h.13a.74.74 0 01.63.1 2 2 0 01.75.84l2.21 4.34m1.33-8.91c-3.91-2.26-7.11-.44-7.12 4.05a15.62 15.62 0 007.07 12.25c3.92 2.26 7.11.45 7.12-4.05a15.59 15.59 0 00-7.07-12.25M653 275.37l-2.47 6.69-1.38-.79-2.44-9.52 1.64.94 1.5 6.67 1.5-4.93 1.65.94m-31.08-17.11c.47-.38 1.1-.34 1.9.12a5.05 5.05 0 012 2.27 7.81 7.81 0 01.72 3.49v.12a3.42 3.42 0 01-.75 2.56c-.5.46-1.16.45-2 0a4.84 4.84 0 01-1.85-2v3.84l-1.58-.91v-11.21l1.46.84.06.86m7.51 4.34c.47-.38 1.1-.34 1.9.12a5.06 5.06 0 012 2.27 7.81 7.81 0 01.72 3.49v.11a3.44 3.44 0 01-.75 2.57c-.49.46-1.16.45-2 0a5 5 0 01-1.86-1.95V273l-1.58-.91v-11.22l1.46.84.06.87m7.54 4.43c.38-.48.91-.53 1.59-.14a2.36 2.36 0 01.56.43v1.7a5.5 5.5 0 00-.64-.43c-.73-.41-1.22-.38-1.47.11v5.54l-1.59-.91v-8.1l1.51.87v.93m5.88 10.75a6.19 6.19 0 01-2.39-2.52 7.23 7.23 0 01-.88-3.56v-.09a3.79 3.79 0 01.41-1.91 1.47 1.47 0 011.16-.8 2.85 2.85 0 011.71.47 6.21 6.21 0 012.31 2.4 7.2 7.2 0 011 3.35v.43a3.91 3.91 0 01-.41 1.9 1.44 1.44 0 01-1.15.8 2.79 2.79 0 01-1.72-.47m14.13 8.16a6.59 6.59 0 01-2.44-2.5 6.73 6.73 0 01-.92-3.44v-.23a4 4 0 01.4-1.93 1.56 1.56 0 011.16-.82 2.52 2.52 0 011.64.41 5.69 5.69 0 012.22 2.34 7.39 7.39 0 01.78 3.44v.81l-4.6-2.66a4.26 4.26 0 00.58 1.92 3.51 3.51 0 001.29 1.33 1.4 1.4 0 001.77 0l.85 1.43a1.39 1.39 0 01-1.13.47 3.2 3.2 0 01-1.59-.51m-45.87-26.63l3.62-8.83 1.48.85 3.56 13-1.72-1-.77-3-3.67-2.12-.78 2.1-1.72-1m54.24 23.94v-4.14l1.58.91v11.5l-1.43-.83-.07-.88c-.48.39-1.11.36-1.9-.1a5.07 5.07 0 01-2-2.3 8 8 0 01-.76-3.56 3.46 3.46 0 01.76-2.58c.51-.46 1.18-.44 2 .05a4.7 4.7 0 011.81 1.93m-68.21-25.19c-5.08-2.93-9.2-10.08-9.18-15.92s4.16-8.21 9.25-5.27 9.21 10.08 9.19 15.92-4.17 8.21-9.26 5.27m69.81 5.19l-80.52-46.49c-3.82-2.2-6.93-.43-6.94 4l-.09 30.57a15.19 15.19 0 006.9 11.93l80.51 46.49c3.82 2.2 6.93.43 6.94-3.95l.09-30.57a15.21 15.21 0 00-6.89-11.94" class="cls-15"/><path d="M614 256.94l1.38-3.72 1.36 5.31-2.74-1.59m2.13-5.61l-1.48-.85-3.62 8.83 1.72 1 .78-2.1 3.67 2.12.77 3 1.72 1-3.56-13M623.32 265.08a3.18 3.18 0 01-1.41-1.76v-3.59c.29-.45.76-.49 1.4-.11a2.83 2.83 0 011.2 1.4 5.32 5.32 0 01.42 2.17 2.88 2.88 0 01-.44 1.87c-.28.31-.68.31-1.18 0m.45-6.7c-.8-.46-1.43-.5-1.9-.12l-.06-.86-1.46-.84v11.21l1.58.91v-3.84a4.84 4.84 0 001.85 2c.84.48 1.5.49 2 0a3.42 3.42 0 00.75-2.56v-.12a7.81 7.81 0 00-.72-3.49 5.05 5.05 0 00-2-2.27M630.84 269.42a3.13 3.13 0 01-1.41-1.76v-3.6c.28-.44.75-.48 1.39-.11a2.87 2.87 0 011.21 1.41 5.27 5.27 0 01.41 2.16 3 3 0 01-.43 1.88c-.29.3-.69.31-1.18 0m.44-6.7c-.8-.46-1.43-.5-1.9-.12l-.06-.87-1.46-.84v11.22l1.58.91v-3.84a5 5 0 001.86 1.95c.83.48 1.5.49 2 0a3.44 3.44 0 00.75-2.57v-.11a7.81 7.81 0 00-.72-3.49 5.06 5.06 0 00-2-2.27M638.51 266.89c-.68-.39-1.21-.34-1.59.14v-.93l-1.51-.87v8.1l1.59.91v-5.54c.25-.49.74-.52 1.47-.11a5.5 5.5 0 01.64.43v-1.7a2.36 2.36 0 00-.56-.43M642.8 276.33a3.07 3.07 0 01-1.25-1.44 5.16 5.16 0 01-.44-2.21 2.65 2.65 0 01.46-1.85q.46-.45 1.23 0a3.18 3.18 0 011.25 1.44 5.26 5.26 0 01.45 2.21 2.74 2.74 0 01-.45 1.85c-.3.31-.71.31-1.25 0m0-7a2.85 2.85 0 00-1.71-.47 1.47 1.47 0 00-1.16.8 3.79 3.79 0 00-.41 1.91v.09a7.23 7.23 0 00.88 3.56 6.19 6.19 0 002.39 2.52 2.79 2.79 0 001.72.47 1.44 1.44 0 001.15-.8 3.91 3.91 0 00.41-1.9v-.43a7.2 7.2 0 00-1-3.35 6.21 6.21 0 00-2.31-2.4M652.95 275.37l-1.65-.94-1.5 4.93-1.5-6.67-1.64-.94 2.44 9.52 1.38.79 2.47-6.69M655.19 280a1.69 1.69 0 01.51-1.17 1 1 0 011.06.09 2.69 2.69 0 011 1.06 3.88 3.88 0 01.41 1.63v.13l-3-1.74m1.58-2.54a2.52 2.52 0 00-1.64-.41 1.56 1.56 0 00-1.16.82 4 4 0 00-.4 1.93v.2a6.73 6.73 0 00.92 3.44 6.59 6.59 0 002.44 2.5 3.2 3.2 0 001.59.51 1.39 1.39 0 001.13-.47l-.85-1.43a1.4 1.4 0 01-1.77 0 3.51 3.51 0 01-1.29-1.33 4.26 4.26 0 01-.58-1.92l4.6 2.66v-.74a7.39 7.39 0 00-.78-3.44 5.69 5.69 0 00-2.22-2.34M663.86 288.46a2.87 2.87 0 01-1.17-1.38 5.37 5.37 0 01-.41-2.16 3 3 0 01.42-1.87c.28-.3.68-.31 1.19 0a3.14 3.14 0 011.4 1.78v3.46c-.3.49-.77.55-1.42.18m3-8.44l-1.58-.91v4.14a4.7 4.7 0 00-1.81-1.93c-.85-.49-1.52-.51-2-.05a3.46 3.46 0 00-.76 2.58 8 8 0 00.76 3.56 5.07 5.07 0 002 2.3c.79.46 1.42.49 1.9.1l.07.88 1.43.83v-11.5M597.1 255.61a15.62 15.62 0 01-7.1-12.25c0-4.49 3.21-6.31 7.12-4.05a15.59 15.59 0 017.07 12.25c0 4.5-3.2 6.31-7.12 4.05m.06-18.74c-5.09-2.94-9.24-.57-9.25 5.27s4.1 13 9.18 15.92 9.24.57 9.26-5.27-4.11-13-9.19-15.92" class="cls-53"/><path d="M601.32 246.16a.75.75 0 00-.65-.09l-4.85 2.15-2.21-4.34a2 2 0 00-.75-.84.74.74 0 00-.63-.1h-.13c-.42.17-.47.84-.13 1.52l3 5.82a2 2 0 00.75.84.68.68 0 00.65.09l5.73-2.54c.41-.17.44-.87.09-1.53L602 247a2 2 0 00-.72-.8" class="cls-53"/><g class="cls-54"><path d="M634.4 206.85a6.5 6.5 0 00-3.44-1 2.87 2.87 0 00-2.35 1.23 5.42 5.42 0 00-.83 3.17l3.78 2.18a2.73 2.73 0 01.74-2.23c.5-.4 1.17-.35 2 .15a4.63 4.63 0 011.83 1.89 5.6 5.6 0 01.63 2.65 3.19 3.19 0 01-.61 1.9 7.59 7.59 0 01-1.88 1.69l-6.17 4v3l13 7.52v-3.49l-8.1-4.81 4.34-2.74a8.19 8.19 0 002.51-2.47 5.56 5.56 0 00.75-2.87 10.09 10.09 0 00-1.62-5.51 12.73 12.73 0 00-4.55-4.26" class="cls-31"/></g><g class="cls-54"><path d="M292.83 377a8.23 8.23 0 00-2.9 2.56 3.11 3.11 0 00-.47 2.72 4.38 4.38 0 002.13 2.3l4.34-2.5c-.73-.43-1-.93-.93-1.51a2.55 2.55 0 011.41-1.6 5.91 5.91 0 012.9-.83 5.27 5.27 0 012.83.73c.91.53 1.37 1.1 1.39 1.72s-.53 1.26-1.63 1.9l-2.31 1.33 3.37 2 2.29-1.32a6.41 6.41 0 016.86-.2c.9.52 1.33 1.11 1.28 1.77s-.58 1.27-1.62 1.87a6.64 6.64 0 01-3 .86 5.32 5.32 0 01-2.93-.63l-4.34 2.51a11.65 11.65 0 006.61 1.43 15.67 15.67 0 007.08-2.09q3.51-2 3.88-4.27t-2.51-3.92a10.16 10.16 0 00-4-1.28 12.6 12.6 0 00-4.72.45 3 3 0 00.47-2.51 3.61 3.61 0 00-1.82-2.12 11.58 11.58 0 00-6.52-1.51 15.76 15.76 0 00-7.08 2.18" class="cls-31"/></g><g class="cls-54"><path d="M469.91 591.74l-.55.31-6.81 8.29 4.09 2.38 4.19-4.57 19.41 11.28 5.07-2.93-25.4-14.76" class="cls-31"/></g><path d="M246.15 339.85c-3.05-1.77-5.23-4.77-6.29-6l12-3.33c1.73 2.13 8.35 8.45 1.34 10.39a9 9 0 01-7.06-1m16.28-6a19.91 19.91 0 01-5.11-4.88l10.89-3c1.52 1.74 7.16 7 .7 8.79a8.2 8.2 0 01-6.48-.88m18.32-15.33l-8.93 2.39c-.59-.65-1.19-1.33-1.72-2h.06l-3.64-4.31-5.82 1.63s2 2.27 1.89 2.25c1 1.25.14 2-.89 2.44l-10.24 2.85a1 1 0 01.25.35l-.31-.35-14.34 4a3.62 3.62 0 01-2.29-.25 2 2 0 01-.5-.41c-.14-.09-1.88-2.29-1.88-2.29l-7 1.19 3.43 4.06c.62.75 1.25 1.5 1.81 2.22l-9.06 2.5 2.62 3.12 9-2.49c.68.88 1.39 1.69 2 2.51l-8.94 2.48 2.61 3.13 9.06-2.5a25.9 25.9 0 005.53 4.48c3.67 2.12 8 2.94 13.85 1.69 7.26-1.56 8.76-4.29 7.5-7.61a15.29 15.29 0 0011.49.14c6.16-2.15 5.62-5.94 2.86-10.11l8.94-2.48-2.62-3.13-8.72 2.43-2.14-2.46 8.78-2.43-2.62-3.13" class="cls-28"/></g></g></svg>