<?xml version="1.0" encoding="utf-8"?><svg xmlns="http://www.w3.org/2000/svg" xmlns:xlink="http://www.w3.org/1999/xlink" viewBox="0 0 650.71 711.05"><defs><linearGradient id="linear-gradient" x1="454.92" x2="621.91" y1="437.07" y2="437.07" gradientUnits="userSpaceOnUse"><stop offset="0" stop-color="#3cb4e5"/><stop offset="1" stop-color="#425cc7"/></linearGradient><linearGradient id="linear-gradient-2" x1="34.23" x2="201.22" y1="638.13" y2="638.13" xlink:href="#linear-gradient"/><linearGradient id="linear-gradient-4" x1="621.88" x2="621.91" y1="413.6" y2="413.6" xlink:href="#linear-gradient"/><linearGradient id="linear-gradient-5" x1="39.89" x2="515.73" y1="511.15" y2="447.01" gradientUnits="userSpaceOnUse"><stop offset="0" stop-color="#a1b7ff"/><stop offset=".9" stop-color="#46b4e8"/><stop offset="1" stop-color="#3cb4e5"/></linearGradient><linearGradient id="linear-gradient-6" x1="323.12" x2="548.88" y1="430.17" y2="439.22" xlink:href="#linear-gradient-5"/><linearGradient id="linear-gradient-8" x1="201.18" x2="201.22" y1="614.66" y2="614.66" xlink:href="#linear-gradient"/><linearGradient id="linear-gradient-9" x1="-380.81" x2="95.04" y1="712.21" y2="648.08" xlink:href="#linear-gradient-5"/><linearGradient id="linear-gradient-10" x1="-97.58" x2="128.19" y1="631.23" y2="640.28" xlink:href="#linear-gradient-5"/><clipPath id="clip-path"><path d="M621.91 409.25v8c0 12.3-8.12 24.58-24.27 34-32.49 18.89-85.35 18.9-118 0-16.46-9.51-24.68-22-24.65-34.44v-8c0 12.45 8.18 24.93 24.64 34.43 32.71 18.89 85.56 18.87 118.05 0 16.11-9.41 24.2-21.7 24.23-33.99z" class="cls-1"/></clipPath><clipPath id="clip-path-2"><path d="M511.37 57.45l.04-14.57 69.03 39.85-.04 14.57-69.03-39.85z" class="cls-2"/></clipPath><clipPath id="clip-path-3"><path d="M201.22 610.31v8c0 12.3-8.12 24.58-24.27 34-32.49 18.88-85.34 18.89-118 0-16.46-9.5-24.68-22-24.64-34.44v-8c0 12.46 8.18 24.93 24.64 34.43 32.71 18.89 85.56 18.88 118.06 0 16.08-9.41 24.17-21.69 24.21-33.99z" class="cls-3"/></clipPath><clipPath id="clip-path-4"><path d="M122.33 411.86l.04-14.57 78.44 45.29-.04 14.57-78.44-45.29z" class="cls-2"/></clipPath><style>.cls-1{fill:url(#linear-gradient)}.cls-2{fill:none}.cls-3{fill:url(#linear-gradient-2)}.cls-30,.cls-4{fill:#4d5fab}.cls-4,.cls-54{opacity:.61}.cls-5{fill:#e8a89a}.cls-6{fill:#40b4e2}.cls-7{opacity:.2}.cls-8{fill:#425cc7}.cls-9{isolation:isolate}.cls-14{fill:#d7eff9}.cls-15,.cls-27{fill:#fff}.cls-15{opacity:.42}.cls-17{fill:#025c99}.cls-19{fill:#005cb9}.cls-21{fill:#95e4fc}.cls-24{fill:#fccabe}.cls-25{fill:#b7e0ed}.cls-26{fill:#4cc7ed}.cls-28{fill:#95e6f9}.cls-38{fill:#95b5bf}.cls-39{fill:#abcddb}.cls-40{fill:#7ca7b8}.cls-47{fill:#e9f6ff}.cls-48{fill:#a1cbe2}.cls-49{fill:#79b2cc}.cls-50{fill:#8ac2d6}.cls-51{fill:#4fc3f7}</style></defs><g id="Layer_2" data-name="Layer 2"><g id="Layer_1-2" data-name="Layer 1"><path d="M544.3 388.48c-57.86-34.68-134.65-53.78-216.22-53.78s-158.15 19.1-215.64 53.78-89 80.79-88.74 129.84a113.42 113.42 0 002.67 23.81l-23.45 4.28a5.19 5.19 0 00-1.71.59c-1.86 1.07-1.62 3 1 3.84l29.37 8.69 10.08 3a6.58 6.58 0 004.81-.44 3.12 3.12 0 00.74-.58l7-7.6 13.94-15.08c1.76-1.9-1.35-4.07-4.9-3.42l-13.5 2.46C40 488.28 66.54 436.63 129.46 398.68c109.35-66 287.87-66 397.94 0q4.14 2.49 8.08 5.06l16-10.83q-3.54-2.26-7.18-4.43zM648.48 477.43l-24.91-7.38-14-4.14a6.53 6.53 0 00-4.77.44 3.15 3.15 0 00-.72.56L599.4 472l-16 17.28c-1.73 1.88 1.32 4 4.82 3.38l17.81-3.24c15.26 52.36-10.49 108.18-77.37 148.52-109.36 66-287.88 66-398 0a224 224 0 01-39.93-30.06c-5.8 3.48-11.64 7-17.39 10.46a248.6 248.6 0 0040.42 29.8c57.86 34.68 134.65 53.78 216.21 53.78s158.16-19.1 215.65-53.78 89-80.78 88.73-129.83a114.67 114.67 0 00-5.12-33.13l18.52-3.38a5 5 0 001.67-.58c1.93-1.06 1.69-3.02-.94-3.79z" class="cls-4"/><path d="M513.27 217l-2.45 6.87-.24 11.28a53.85 53.85 0 006.58 1.6c1.46.08 5.2-8.3 5.2-8.3l-1.17-9.37z" class="cls-5"/><path d="M482.24 210.64a47.1 47.1 0 015.83 4.22c2.07 1.92 4.23 4 4.23 4l19.9 5.38 1.07 9-2.69 1.94-17.65-8.41-5.42.5z" class="cls-5"/><path d="M527.52 180.09c0-.11-4.9-.35-7.52 5.18s-6.22 27.28-7.07 29.66l-.84 2.38 8.76 6.3z" class="cls-6"/><g class="cls-7"><path d="M613.83 383.1c32.71 18.89 32.86 49.5.37 68.39s-85.35 18.89-118.06 0-32.88-49.51-.38-68.39 85.36-18.88 118.07 0z" class="cls-8"/></g><g class="cls-9"><g class="cls-9"><path d="M621.91 409.25v8c0 12.3-8.12 24.58-24.27 34-32.49 18.89-85.35 18.9-118 0-16.46-9.51-24.68-22-24.65-34.44v-8c0 12.45 8.18 24.93 24.64 34.43 32.71 18.89 85.56 18.87 118.05 0 16.11-9.41 24.2-21.7 24.23-33.99z" class="cls-1"/><g class="cls-9" clip-path="url(#clip-path)"><path fill="url(#linear-gradient-4)" d="M621.91 409.25v8.73-8-.73"/><path fill="url(#linear-gradient-5)" d="M621.35 414.77a29.07 29.07 0 01-1.35 4.7 34.45 34.45 0 01-2.22 4.75 39 39 0 01-3.36 5 49.39 49.39 0 01-5.18 5.57 64.69 64.69 0 01-10.58 7.83l-1 .6a94.15 94.15 0 01-18.3 8.05 121 121 0 01-15.81 3.93c-3.5.64-7.06 1.13-10.65 1.49-3.07.3-6.16.51-9.26.61v8c3.1-.11 6.19-.31 9.26-.62 3.59-.36 7.15-.85 10.65-1.48a121.37 121.37 0 0015.81-3.94 94.42 94.42 0 0018.3-8.05l1-.6a64.54 64.54 0 0010.58-7.83 47.74 47.74 0 005.18-5.57 40.4 40.4 0 003.36-5 33.91 33.91 0 002.22-4.75 29.81 29.81 0 001.35-4.7 28.82 28.82 0 00.55-4.79v-8a28.82 28.82 0 01-.55 4.8z"/><path fill="url(#linear-gradient-6)" d="M535.07 457.33q-4.12-.09-8.22-.44c-2.72-.22-5.43-.52-8.11-.9s-5.55-.88-8.28-1.44c-2.95-.61-5.86-1.32-8.7-2.13-3.48-1-6.87-2.14-10.13-3.43a89.73 89.73 0 01-12-5.77c-16.46-9.5-24.68-22-24.64-34.43v8c0 12.46 8.19 24.93 24.65 34.44a91.62 91.62 0 0012 5.77c3.26 1.29 6.65 2.43 10.13 3.42 2.84.81 5.75 1.52 8.7 2.13q4.08.86 8.27 1.44c2.69.38 5.39.68 8.12.91s5.47.37 8.22.44 5.7.06 8.55 0v-8c-2.85.05-5.71.06-8.56-.01z"/></g></g><path d="M597.28 374.83c-32.71-18.88-85.58-18.88-118.07 0s-32.33 49.51.38 68.39 85.56 18.87 118.05 0 32.36-49.51-.36-68.39z" class="cls-14"/></g><path d="M597.64 441.14c-32.49 18.88-85.34 18.9-118 0-16-9.21-24.15-21.22-24.6-33.3-.46 12.77 7.73 25.63 24.6 35.37 32.71 18.89 85.56 18.87 118.05 0 16.65-9.67 24.7-22.42 24.23-35.09-.48 11.98-8.54 23.88-24.28 33.02z" class="cls-15"/><path fill="#425cc7" d="M570.74 389.18l-4.26-2.47a37.76 37.76 0 00-37.72 0l-24.12 13.93a11.06 11.06 0 000 19.15l4.26 2.46a37.71 37.71 0 0037.72 0l24.12-13.92a11.06 11.06 0 000-19.15z" opacity=".25"/><path d="M556 378.44s-2.44 4.59-2.44 8.71-1.14 7.38-3.9 8.68-8.55 1.3-8.55 1.3l-.39-6 1.14-1.8 8-23.72s3-1.12 4.67 1.12 4.55 15.74 4.55 15.74l-1.17 1.53z" class="cls-17"/><path d="M546.42 363.64l5.31 3.12s-.77 27.73-7.53 24.4a6.52 6.52 0 01-2.38-1.8s1.79-3.77 1.14-6.37a66 66 0 01-1.14-7z" class="cls-5"/><path fill="#f9c2b2" d="M530.75 412a7 7 0 01-5.87 2.37 5.23 5.23 0 01-3.43-2.18c3.62-7.19 8.67-16 9.15-17.19.81-1.95.81-9.79.81-9.79l9.27-3.57v9.5l.39.6q-3.47 7.33-6.91 14.66a20.75 20.75 0 01-3.41 5.6z"/><path d="M521.45 412.21a5.23 5.23 0 003.43 2.18 7 7 0 005.87-2.37 20.75 20.75 0 003.41-5.6l6.91-14.66a25.92 25.92 0 013 6.51c.82 3.25-3.09 16.42-3.09 16.42l-1.78.16v-7.15s-1.63 7.15-4.88 10.57-14.63 4.55-16.42 3.4c-.7-.46 1.1-4.59 3.55-9.46z" class="cls-17"/><path d="M542.79 323.48l1.86-25.66q.84-11.61 1.69-23.22a8.83 8.83 0 00-.56-4.79c-1.44-2.68-4.37-.81-7.39-1.16-7.87-.92-15.89-5.24-22.57-10.35.59-2.7 1-4.35 1-4.35l40.56 5.24s3.82 14.81 2.12 21.43-11.67 45.88-11.67 45.88 3.13 25.11 1.67 31-7.55 27.76-7.55 27.76-1.68.59-3.69 1.15q.93-12.64 1.84-25.3z" class="cls-19"/><path fill="#1d85db" d="M508.64 315.24c-.16-5 4.46-44.64 7.18-56.94 6.68 5.11 14.7 9.43 22.57 10.35 3 .35 6-1.52 7.39 1.16a8.83 8.83 0 01.56 4.79q-.86 11.61-1.69 23.22l-1.86 25.66-2.73 37.6q-.91 12.65-1.84 25.3c-2.59.73-5.75 1.43-6.75.77l-1.76-1.15s-.49-28.78 0-29.51-20.87-35.19-21.07-41.25z"/><path d="M517.51 220.42c.17-3.25-2.27-12.52-2.27-15.77s5-12.68 5.61-15.36c.13-.55.31-1.19.52-1.84 10.43 2 24.67 5.65 31.32 10.68-2 1.57-1.89 3.82-2.14 6.35s-1.66 4.83-2.1 7.32-1.72 5-4 6.13c-2.68 1.25-5.83.16-8.58-.93L522 211.52c7.51 4.22 15.15 9.66 18.66 17.52a24 24 0 011.71 12.49 19.28 19.28 0 01-3 8.73c-4.17 6.07-12.43 7.88-19.74 6.31-2.63-1.62-4.4-2.82-4.4-2.82s2.12-30.08 2.28-33.33z" class="cls-21"/><path d="M539.38 250.26a19.28 19.28 0 003-8.73 24 24 0 00-1.7-12.53c-3.51-7.86-11.15-13.3-18.66-17.52l13.83 5.52c2.45 1 4.13.72 6.46-.64a11.17 11.17 0 003.49-2.87 13.71 13.71 0 001.93-4.78c.16-.6 3.2-11.88 5-10.58-6.65-5-20.89-8.68-31.32-10.68.8-2.53 2.06-5.46 3.21-6a12 12 0 014.08-.53l17.58 2.54 14.07 10.71s1.91 3.29 1.91 6 .32 11.87-4.55 21.13-6.51 16-6.51 17.16 6.18 20.72 6.18 20.72-11.21 5.94-17.88 6.18c-4.55.17-14.16-5.3-19.82-8.8 7.32 1.58 15.53-.23 19.7-6.3z" class="cls-6"/><path fill="#718ce2" d="M552.92 162.89a10 10 0 01-7.82 2.66 12.5 12.5 0 01-7.53-3.61 31.45 31.45 0 01-4.28-5.81 22.51 22.51 0 00-4.53-5.59 10 10 0 00-2.57-1.5 11.81 11.81 0 014.62-3.73c4.14-1.58 19.14-1.7 22.06 2.93a26.5 26.5 0 013.56 10.65c-1.33 1.16-2.24 2.75-3.51 4z"/><path d="M526.19 149a10 10 0 012.57 1.5 22.51 22.51 0 014.53 5.59 31.45 31.45 0 004.28 5.81 12.5 12.5 0 007.53 3.61 10 10 0 007.82-2.66c1.27-1.25 2.18-2.84 3.51-4a22.79 22.79 0 01.1 5.93c-.71 5.08 2.8 9.39 3.66 14.15s1.46 8.6 1.22 11.25a9.68 9.68 0 01-1.1 4s-11-8.32-12.52-9.51l-1.55-1.2-7.85-3-13.66-15.19a9.79 9.79 0 01-2.34-7.44 17.46 17.46 0 013.8-8.84z" class="cls-8"/><path d="M529.71 195.49l-4.49.64s.16-8.37 1-8.68 5.67-1.11 5.67-1.11a9.93 9.93 0 00-1.94 3.88 15.4 15.4 0 00-.24 5.27z" class="cls-6"/><path d="M526.45 176.92s.33 3.5-1.13 5.33-3.66 4.11-4 7.28 0 11.3 0 11.3 4-11 6.51-12a15 15 0 004.79-3.49l1.22-5.68z" class="cls-8"/><path fill="#d38f84" d="M534.92 189.86a2.29 2.29 0 01-2.22.11 2.17 2.17 0 01-.72-1.85 7 7 0 00-.12-1.78l.1-.12c.06-.18-.49-3.72-.49-3.72l13.44-8.21a40.53 40.53 0 00.48 6.67c-3.81 2.45-6.3 6.98-10.47 8.9z"/><path d="M531.86 186.34a7 7 0 01.12 1.78 2.17 2.17 0 00.72 1.85 2.29 2.29 0 002.22-.11c4.17-1.92 6.66-6.45 10.47-8.9a8.3 8.3 0 00.41 1.54 13.26 13.26 0 001.89 3.42v.29c.17 1.39.42 7.19-7.44 8.59-8.95 1.6-10.68-.4-10.59.69.13 1.7-.45-4 .67-6.61a8.24 8.24 0 011.53-2.54zM537.13 175.25a10.7 10.7 0 00.1-6.53 26.37 26.37 0 007.49-.1s.94-3.79 2.36-4.76 2.68 3.12 1.84 5.77-3.91 3-3.91 3a13.57 13.57 0 01-.53 3.85c-.62 2.23-13.52 7.7-15.28 6.65a2 2 0 01-.54-.6 12.63 12.63 0 003.33-1.44 12 12 0 005.14-5.84z" class="cls-5"/><path d="M524.61 163.89c-.32-1.53-.68-6.8-.68-6.8a4.69 4.69 0 012.38.2c.67.45 5.24 8.6 8.36 10.55a7.24 7.24 0 002.56.88 10.7 10.7 0 01-.1 6.53 12 12 0 01-5.14 5.81 12.63 12.63 0 01-3.33 1.44c-1.74-2.61-4-12.2-4.09-13.15s.37-3.93.04-5.46z" class="cls-24"/><path d="M529.71 356.49s.48-24.14 0-28-1.55-7-1.87-10.19-.32-35.72-.32-35.72l-8.64-9.93s3 11.12 3.48 15.92-1.17 23.09-1.17 23.09l-2.31 25.27z" class="cls-19"/><path d="M546.24 183.5s.29 4.76-3 6.72-13.56 5.27-13.56 5.27l6.4 8.23s13.5-8 14.15-10.11 0-7.05 0-7.05z" class="cls-6"/><g class="cls-9"><path d="M492.83 232.27l-2 1.74c.14-.12.14-.4 0-.8l2-1.74c.17.4.17.68 0 .8z" class="cls-25"/><path d="M470.7 206.77l2-1.74c.11-.1.33-.08.62.07l-2 1.74c-.32-.15-.51-.17-.62-.07zM471.32 206.84l2.03-1.74 9.13 4.81-2.03 1.74-9.13-4.81z" class="cls-14"/><path d="M482.24 213.65l2.03-1.74 8.52 19.56-2.03 1.75-8.52-19.57z" class="cls-25"/><path d="M480.45 211.65l2-1.74a4.72 4.72 0 011.79 2l-2 1.74a4.72 4.72 0 00-1.79-2z" class="cls-14"/><path d="M480.45 211.65a4.72 4.72 0 011.79 2l8.52 19.56c.32.74.06 1.07-.61.72l-9.15-4.81a4.7 4.7 0 01-1.76-2l-8.53-19.56c-.33-.76-.06-1.09.58-.75z" class="cls-17"/></g><ellipse cx="476.9" cy="212.8" class="cls-25" rx=".66" ry="1.32" transform="rotate(-38.43 476.965 212.797)"/><path d="M477.5 219.61s2.31 0 1.23-1.23-4.64-3.11-4.64-3.11l-1.23-2.83-1.54 1.71s-2 1.38-1.65 2.38 2.76 1.47 2.76 1.47l5.13 1.73z" class="cls-24"/><path d="M477.56 219.73l-5.13-1.73s1.31 6.37 3.08 7.37 4.3 2.07 4.3.76-1.98-5.78-2.25-6.4z" class="cls-5"/><path d="M556.06 241.22a19.07 19.07 0 01-7.45-2.15l-.11.91-23.28-3.23s-7-7.12-7.52-6.72a12.69 12.69 0 01-3.23.69s-6.63-.05-7.2.75 4.09 1.74 4.09 1.74 2.19 7.77 3.57 8.75 8.59 1.79 8.59 1.79 27.45 9.52 31 9.83c2.32.2 4.48-7.13 5.68-12.19-1.39-.01-2.77-.04-4.14-.17z" class="cls-24"/><path d="M560.19 241.39c.63-2.62 1-4.64 1-4.64H548.9l-.29 2.32a19.07 19.07 0 007.45 2.15c1.37.13 2.75.16 4.13.17z" class="cls-5"/><path d="M556.89 195.8c12.45 1.48 7.87 10.18 6.45 19.55-1.15 7.61.46 21 .46 21s-2.26 2.12-6.91 2.37a32.1 32.1 0 01-9.1-1s.05-22.51 1.4-28.19 3.02-14.29 7.7-13.73z" class="cls-21"/><g class="cls-9"><path d="M552.47 109.17l10.4-6.04-8.38 11.72-10.4 6.04 8.38-11.72zM499.08 6.77l10.4-6c2-1.14 4.69-1 7.7.76l-10.39 6c-3.01-1.74-5.74-1.9-7.71-.76zM602 122l-10.4 6c1.94-1.13 3.15-3.53 3.16-7l10.4-6c.01 3.5-1.16 5.91-3.16 7z" class="cls-26"/><path d="M594.92 70.88l10.4-6.04-.14 50.25-10.4 6.04.14-50.25zM506.79 7.53l10.39-6.04 77.34 44.65-10.4 6.04-77.33-44.65z" class="cls-26"/><path d="M584.12 52.18l10.4-6c6 3.45 10.82 11.82 10.8 18.7l-10.4 6c.02-6.88-4.82-15.25-10.8-18.7z" class="cls-26"/><path d="M584.12 52.18c6 3.45 10.82 11.83 10.8 18.7l-.14 50.25c0 6.87-4.89 9.65-10.87 6.19l-31.44-18.15-8.38 11.72-7.75-21-29.77-17.22c-6-3.45-10.81-11.82-10.79-18.7l.14-50.25c0-6.87 4.88-9.65 10.87-6.19z" class="cls-27"/></g><path d="M584.12 52.18c6 3.45 10.82 11.83 10.8 18.7l-.14 50.25c0 6.87-4.89 9.65-10.87 6.19l-31.44-18.15-8.38 11.72-7.75-21-29.77-17.22c-6-3.45-10.81-11.82-10.79-18.7l.14-50.25c0-6.87 4.88-9.65 10.87-6.19z" class="cls-27"/><path d="M584.12 52.18c6 3.45 10.82 11.83 10.8 18.7l-.14 50.25c0 6.87-4.89 9.65-10.87 6.19l-31.44-18.15-8.38 11.72-7.75-21-29.77-17.22c-6-3.45-10.81-11.82-10.79-18.7l.14-50.25c0-6.87 4.88-9.65 10.87-6.19z" class="cls-27"/><path d="M583.66 53L506.32 8.33c-2.6-1.51-5-1.78-6.76-.77s-2.71 3.19-2.72 6.16L496.7 64c0 6.58 4.62 14.61 10.33 17.91l30.06 17.35 7.26 19.71 7.86-11 32.16 18.57c2.61 1.5 5 1.77 6.77.76s2.71-3.19 2.72-6.16l.14-50.26c0-6.57-4.62-14.6-10.34-17.88z" class="cls-28"/><g clip-path="url(#clip-path-2)"><path d="M514.29 47.86l-1.55-.86v8.7c0 .64-.29.81-.8.51a2.73 2.73 0 01-.54-.38v1.4a4.52 4.52 0 00.82.6c.68.39 1.19.48 1.55.25s.52-.74.52-1.55v-8.64m-.8-3.47c-.28-.16-.5-.2-.65-.11a.61.61 0 00-.22.55 1.44 1.44 0 00.22.81 1.68 1.68 0 00.64.63.67.67 0 00.65.12.58.58 0 00.23-.55 1.55 1.55 0 00-.22-.81 1.74 1.74 0 00-.65-.64M518.34 56.86a2.27 2.27 0 01-.79-.75 1.84 1.84 0 01-.29-1c0-.41.14-.66.44-.72a2.06 2.06 0 011.29.4l.83.48v1.5a.74.74 0 01-.61.34 1.62 1.62 0 01-.87-.25m.37-6.59a3.69 3.69 0 00-1.44-.51 1.31 1.31 0 00-1 .3 1.33 1.33 0 00-.38 1l1.55.89c0-.31.11-.51.34-.58a1.13 1.13 0 01.86.2 2.36 2.36 0 01.91.89 2.29 2.29 0 01.3 1.17v.52l-1-.55a3.47 3.47 0 00-2.35-.68c-.54.14-.82.63-.82 1.47a3.91 3.91 0 00.65 2.07 4.74 4.74 0 001.7 1.66 1.69 1.69 0 001.81.16 5.26 5.26 0 00.17.84l1.59.92v-.13a6.05 6.05 0 01-.26-1.86v-3.56a4.5 4.5 0 00-.73-2.4 5.66 5.66 0 00-1.94-1.82M526.5 54.77a1.69 1.69 0 00-2-.1v-.94l-1.5-.84v7.93l1.54.89v-5.64c.31-.48.77-.53 1.4-.17a2.38 2.38 0 01.93.9 2.66 2.66 0 01.28 1.28v5.14l1.56.9v-5.24a4.43 4.43 0 00-2.19-4.11M531.59 61.09a1.53 1.53 0 01.51-1.09c.26-.2.6-.17 1 .08a2.61 2.61 0 011 1 3.6 3.6 0 01.41 1.6v.13l-2.95-1.7m1.55-2.49a2.55 2.55 0 00-1.61-.41 1.52 1.52 0 00-1.13.81 3.79 3.79 0 00-.4 1.89v.22a6.54 6.54 0 00.91 3.37 6.45 6.45 0 002.38 2.45 3.21 3.21 0 001.55.5A1.35 1.35 0 00536 67l-.83-1.39a1.39 1.39 0 01-1.73 0 3.5 3.5 0 01-1.26-1.3 4.26 4.26 0 01-.57-1.89l4.51 2.6v-.72a7.23 7.23 0 00-.76-3.36 5.57 5.57 0 00-2.17-2.29M542 70.77a1.77 1.77 0 01-.75-1 4 4 0 01-.15-1.61 3.53 3.53 0 01.58-1.93.84.84 0 011.15-.1 3 3 0 01.62.5l-.29 3.44a1.29 1.29 0 01-.51.68.64.64 0 01-.65 0m.62-9a4.41 4.41 0 00-2.8-.72 2.67 2.67 0 00-1.94 1.37 6.66 6.66 0 00-.79 3.15 11.79 11.79 0 00.52 4 9.88 9.88 0 001.73 3.29 9.67 9.67 0 002.78 2.39 6 6 0 001.33.59 2.37 2.37 0 001 .13l-.24-1.14a2.94 2.94 0 01-1-.18 5.25 5.25 0 01-1.11-.5 7.77 7.77 0 01-2.24-2 8.46 8.46 0 01-1.35-2.74 10.18 10.18 0 01-.36-3.25 6.32 6.32 0 01.64-2.74 2.16 2.16 0 011.54-1.19 3.42 3.42 0 012.21.56 7.63 7.63 0 013.15 3.23 9.36 9.36 0 01.89 4.66 3.16 3.16 0 01-.46 1.82.73.73 0 01-1.06.18 1.77 1.77 0 01-.73-1.87l.35-3.93a8 8 0 00-1-1.2 5.31 5.31 0 00-1-.7 1.71 1.71 0 00-1.32-.24 1.67 1.67 0 00-1 .89 4.6 4.6 0 00-.51 1.86 5.55 5.55 0 00.35 2.57 3.36 3.36 0 001.41 1.69 1.63 1.63 0 00.91.25 1.12 1.12 0 00.76-.4 3.23 3.23 0 001.54 2c.8.46 1.44.48 1.92 0a3.51 3.51 0 00.79-2.44 11.34 11.34 0 00-.48-3.81 10.12 10.12 0 00-1.71-3.29 9.46 9.46 0 00-2.73-2.39M551.55 69.23a2.41 2.41 0 00-1.92-.42 1.22 1.22 0 00-.76 1.29 3.92 3.92 0 001.13 2.53 10.78 10.78 0 001.32 1.25 8 8 0 011.16 1.12 1.56 1.56 0 01.34.92c0 .29-.11.46-.33.52a1.39 1.39 0 01-.93-.27 3.19 3.19 0 01-1-.92 2.4 2.4 0 01-.41-1.22l-1.5-.87a3.55 3.55 0 00.36 1.54 6 6 0 001 1.57 6.09 6.09 0 001.51 1.22 2.69 2.69 0 002 .5c.52-.14.78-.57.78-1.28a3.21 3.21 0 00-.24-1.23 5.53 5.53 0 00-.77-1.21 11.46 11.46 0 00-1.44-1.38 8 8 0 01-1.2-1.15 1.3 1.3 0 01-.3-.81c0-.31.1-.49.32-.55a1.21 1.21 0 01.84.22 2.5 2.5 0 01.87.84 2 2 0 01.33 1l1.55.89a4.11 4.11 0 00-.75-2.26 6 6 0 00-2-1.86M563.21 76c-.91-.52-1.62-.53-2.12 0a4.09 4.09 0 00-1.89-2.31c-.84-.49-1.51-.55-2-.18v-.85l-1.45-.84v7.93l1.55.89v-5.78c.27-.44.71-.47 1.33-.11a2.34 2.34 0 011.24 2.12v5.21l1.56.9v-5.44a.84.84 0 01.46-.59 1 1 0 01.87.17 2.51 2.51 0 01.95.9 2.63 2.63 0 01.28 1.28v5.16l1.55.89v-5.21a5.2 5.2 0 00-.56-2.47 4.3 4.3 0 00-1.7-1.71M568.72 79.29l-1.55-.89v7.93l1.55.89v-7.93m-.72-3.45c-.28-.16-.5-.2-.65-.11a.61.61 0 00-.23.55 1.69 1.69 0 00.22.8 1.74 1.74 0 00.65.64c.28.16.5.2.65.11a.58.58 0 00.23-.54 1.56 1.56 0 00-.23-.81 1.71 1.71 0 00-.64-.64M572.36 79.46l-1.56-.9v1.93l-1.14-.66v1.33l1.14.65v4.49a3.53 3.53 0 001.78 3.3 4.07 4.07 0 001 .42v-1.38a2.07 2.07 0 01-.53-.24 1.36 1.36 0 01-.56-.52 1.54 1.54 0 01-.16-.75v-4.42l1.21.7v-1.32l-1.21-.7v-1.93M576.29 80.33l-1.55-.9v11.26l1.55.89v-5.66c.31-.46.77-.51 1.4-.15a2.49 2.49 0 01.9.86 2.7 2.7 0 01.31 1.35v5.11l1.54.89V88.8a4.49 4.49 0 00-2.23-4.18 1.66 1.66 0 00-1.93-.1v-4.19" class="cls-30"/></g><g class="cls-7"><path d="M193.13 584.17c32.71 18.88 32.86 49.49.37 68.38s-85.35 18.89-118.06 0-32.87-49.51-.38-68.39 85.37-18.88 118.07.01z" class="cls-8"/></g><g class="cls-9"><g class="cls-9"><path d="M201.22 610.31v8c0 12.3-8.12 24.58-24.27 34-32.49 18.88-85.34 18.89-118 0-16.46-9.5-24.68-22-24.64-34.44v-8c0 12.46 8.18 24.93 24.64 34.43 32.71 18.89 85.56 18.88 118.06 0 16.08-9.41 24.17-21.69 24.21-33.99z" class="cls-3"/><g class="cls-9" clip-path="url(#clip-path-3)"><path fill="url(#linear-gradient-8)" d="M201.22 610.31v8.74-8-.73"/><path fill="url(#linear-gradient-9)" d="M200.66 615.83a30.92 30.92 0 01-1.35 4.7 32.89 32.89 0 01-2.23 4.75 38.28 38.28 0 01-3.36 5 48.55 48.55 0 01-5.18 5.57 65 65 0 01-10.54 7.82l-1 .6a94.24 94.24 0 01-18.31 8.05 122.44 122.44 0 01-15.8 3.94q-5.26.94-10.66 1.48c-3.06.3-6.16.51-9.26.62v8c3.1-.11 6.19-.31 9.26-.62 3.59-.35 7.15-.85 10.65-1.48a119.39 119.39 0 0015.81-3.94 94.12 94.12 0 0018.3-8c.35-.2.69-.4 1-.61a64.12 64.12 0 0010.58-7.83 47.74 47.74 0 005.18-5.57 38.28 38.28 0 003.36-5 34.34 34.34 0 002.22-4.74 29.37 29.37 0 001.35-4.7 28.94 28.94 0 00.55-4.79v-8a28.8 28.8 0 01-.57 4.75z"/><path fill="url(#linear-gradient-10)" d="M114.37 658.4c-2.74-.07-5.49-.22-8.22-.44s-5.43-.53-8.11-.91-5.55-.88-8.27-1.44q-4.44-.92-8.71-2.13c-3.48-1-6.86-2.14-10.13-3.42a91 91 0 01-12-5.78c-16.46-9.5-24.68-22-24.64-34.43v8c0 12.46 8.18 24.94 24.64 34.44a91 91 0 0012 5.77c3.26 1.29 6.65 2.43 10.13 3.42 2.84.81 5.75 1.52 8.7 2.13q4.1.85 8.28 1.44c2.68.38 5.39.69 8.11.91s5.47.37 8.22.44 5.71.06 8.55 0v-8c-2.84.05-5.7.07-8.55 0z"/></g></g><path d="M176.58 575.89C143.88 557 91 557 58.51 575.89s-32.32 49.51.38 68.39 85.56 18.88 118.06 0 32.34-49.51-.37-68.39z" class="cls-14"/></g><path d="M177 643.32c-32.49 18.88-85.35 18.89-118 0-16-9.21-24.15-21.22-24.6-33.3-.46 12.76 7.73 25.63 24.6 35.37 32.7 18.88 85.56 18.87 118.05 0 16.64-9.67 24.7-22.42 24.23-35.1-.46 11.99-8.51 23.88-24.28 33.03z" class="cls-15"/><g class="cls-9"><path d="M170.25 467.07l10.4-6.04-8.39 11.72-10.39 6.04 8.38-11.72zM116.86 364.67l10.39-6c2-1.14 4.7-1 7.71.75l-10.4 6.05c-3.01-1.78-5.73-1.94-7.7-.8zM219.79 479.93L209.4 486c1.94-1.13 3.15-3.54 3.16-7l10.44-6c-.06 3.4-1.26 5.8-3.21 6.93z" class="cls-26"/><path d="M212.7 428.78l10.4-6.04-.15 50.25-10.39 6.04.14-50.25zM124.56 365.43l10.4-6.05 77.34 44.65-10.4 6.05-77.34-44.65z" class="cls-26"/><path d="M201.9 410.08l10.4-6.08c6 3.46 10.82 11.83 10.8 18.71l-10.4 6c.02-6.8-4.82-15.18-10.8-18.63z" class="cls-26"/><path d="M201.9 410.08c6 3.45 10.82 11.83 10.8 18.7l-.14 50.22c0 6.87-4.89 9.65-10.87 6.19l-31.44-18.15-8.38 11.72-7.75-21-29.77-17.19c-6-3.45-10.82-11.83-10.8-18.7l.15-50.25c0-6.87 4.88-9.65 10.86-6.19z" class="cls-27"/></g><path d="M201.9 410.08c6 3.45 10.82 11.83 10.8 18.7l-.14 50.22c0 6.87-4.89 9.65-10.87 6.19l-31.44-18.15-8.38 11.72-7.75-21-29.77-17.19c-6-3.45-10.82-11.83-10.8-18.7l.15-50.25c0-6.87 4.88-9.65 10.86-6.19z" class="cls-27"/><path d="M201.9 410.08c6 3.45 10.82 11.83 10.8 18.7l-.14 50.22c0 6.87-4.89 9.65-10.87 6.19l-31.44-18.15-8.38 11.72-7.75-21-29.77-17.19c-6-3.45-10.82-11.83-10.8-18.7l.15-50.25c0-6.87 4.88-9.65 10.86-6.19z" class="cls-27"/><path d="M201.44 410.87l-77.34-44.65c-2.6-1.5-5-1.77-6.76-.76s-2.71 3.19-2.72 6.16l-.14 50.25c0 6.57 4.61 14.61 10.33 17.9l30.06 17.36 7.26 19.71 7.86-11 32.16 18.57c2.61 1.5 5 1.77 6.77.76s2.7-3.19 2.71-6.16l.15-50.25c.02-6.55-4.62-14.58-10.34-17.89z" class="cls-28"/><g clip-path="url(#clip-path-4)"><path d="M125.56 409.12a3 3 0 01-1.22-1.39 5.05 5.05 0 01-.44-2.18 2.58 2.58 0 01.45-1.81c.31-.29.71-.29 1.21 0a3 3 0 011.22 1.4 5.07 5.07 0 01.44 2.17 2.61 2.61 0 01-.44 1.8c-.29.3-.7.31-1.22 0m0-6.81a2.88 2.88 0 00-1.68-.46 1.44 1.44 0 00-1.13.78 3.77 3.77 0 00-.41 1.88v.08a7.31 7.31 0 00.87 3.49 6.14 6.14 0 002.34 2.47 2.8 2.8 0 001.68.46 1.41 1.41 0 001.13-.78 3.93 3.93 0 00.4-1.87v-.42a7 7 0 00-.93-3.28 6.09 6.09 0 00-2.26-2.35M133.16 406.7c-.67-.39-1.18-.34-1.56.14v-.91l-1.48-.86V413l1.56.9v-5.42c.25-.49.72-.53 1.43-.12a6.51 6.51 0 01.64.43v-1.67a2.48 2.48 0 00-.55-.42M137.48 416a2.81 2.81 0 01-1.15-1.35 5.16 5.16 0 01-.4-2.11 2.91 2.91 0 01.41-1.84c.27-.3.66-.3 1.16 0a3.11 3.11 0 011.38 1.75v3.38c-.3.48-.76.54-1.39.18m3-8.26l-1.56-.89v4.05a4.64 4.64 0 00-1.76-1.9c-.83-.48-1.5-.49-2 0a3.33 3.33 0 00-.75 2.52 7.92 7.92 0 00.74 3.48 5 5 0 002 2.25c.77.45 1.39.48 1.85.1l.08.87 1.4.81v-11.26M143.36 416a1.65 1.65 0 01.51-1.14.92.92 0 011 .08 2.66 2.66 0 011 1 3.69 3.69 0 01.41 1.59v.14l-3-1.71m1.55-2.49a2.51 2.51 0 00-1.61-.4 1.47 1.47 0 00-1.12.8 4 4 0 00-.4 1.9v.23a6.66 6.66 0 00.9 3.38 6.44 6.44 0 002.39 2.44 3.18 3.18 0 001.55.5 1.34 1.34 0 001.11-.46l-.83-1.4a1.39 1.39 0 01-1.74 0 3.58 3.58 0 01-1.26-1.3 4.2 4.2 0 01-.56-1.88l4.51 2.6v-.71a7.21 7.21 0 00-.76-3.37 5.56 5.56 0 00-2.18-2.3M152.13 417.65c-.66-.38-1.18-.33-1.56.14v-.91l-1.48-.86v7.93l1.55.9v-5.42c.25-.48.73-.52 1.44-.11a5.31 5.31 0 01.63.42v-1.67a2.48 2.48 0 00-.55-.42M156.23 420a2.37 2.37 0 00-1.91-.41 1.19 1.19 0 00-.76 1.28 3.94 3.94 0 001.15 2.54 13.57 13.57 0 001.32 1.24 7 7 0 011.13 1.09 1.44 1.44 0 01.34.92c0 .3-.11.46-.32.52a1.33 1.33 0 01-.93-.27 3 3 0 01-1-.92 2.39 2.39 0 01-.42-1.22l-1.5-.86a3.79 3.79 0 00.37 1.54 5.86 5.86 0 001 1.56 6.09 6.09 0 001.51 1.22 2.75 2.75 0 002 .51q.78-.22.78-1.29a3.08 3.08 0 00-.25-1.23A4.87 4.87 0 00158 425a12 12 0 00-1.43-1.38 8.21 8.21 0 01-1.21-1.15 1.36 1.36 0 01-.3-.81q0-.46.33-.54a1.11 1.11 0 01.83.2 2.47 2.47 0 01.88.85 2 2 0 01.33 1.05l1.55.9a4.05 4.05 0 00-.76-2.27 5.77 5.77 0 00-2-1.86M165.16 432.2a1.68 1.68 0 01-.75-.95 3.69 3.69 0 01-.15-1.61 3.49 3.49 0 01.57-1.93.83.83 0 011.15-.1 2.72 2.72 0 01.62.5l-.3 3.44a1.18 1.18 0 01-.5.67.62.62 0 01-.64 0m.61-9a4.5 4.5 0 00-2.8-.74 2.68 2.68 0 00-1.94 1.38 6.63 6.63 0 00-.8 3.15 12.31 12.31 0 00.52 4 10.39 10.39 0 001.74 3.29 9.83 9.83 0 002.78 2.39 6.45 6.45 0 001.33.59 2.23 2.23 0 001.05.13l-.24-1.14a3.36 3.36 0 01-1-.17 6 6 0 01-1.13-.51 7.58 7.58 0 01-2.23-1.95 8.46 8.46 0 01-1.35-2.74 10.21 10.21 0 01-.36-3.26 6.14 6.14 0 01.64-2.73 2.16 2.16 0 011.53-1.19 3.37 3.37 0 012.22.56 7.6 7.6 0 013.06 3.2 9.42 9.42 0 01.9 4.67 3.32 3.32 0 01-.47 1.82.73.73 0 01-1.07.18 1.77 1.77 0 01-.72-1.87l.34-3.93a7.41 7.41 0 00-1-1.2 4.58 4.58 0 00-.95-.7 1.77 1.77 0 00-1.32-.25 1.72 1.72 0 00-1 .9 4.88 4.88 0 00-.52 1.86 5.51 5.51 0 00.36 2.56 3.36 3.36 0 001.42 1.7 1.57 1.57 0 00.9.24 1 1 0 00.75-.4 3.22 3.22 0 001.55 2q1.22.7 1.92.06a3.51 3.51 0 00.79-2.45 11 11 0 00-.48-3.8 10 10 0 00-1.71-3.3 9.27 9.27 0 00-2.73-2.38M174.66 430.66a2.44 2.44 0 00-1.92-.42 1.2 1.2 0 00-.76 1.28 3.92 3.92 0 001.16 2.54 10.76 10.76 0 001.32 1.24 8 8 0 011.13 1.1 1.5 1.5 0 01.34.92c0 .3-.11.46-.32.52a1.43 1.43 0 01-.93-.27 3.12 3.12 0 01-1-.92 2.37 2.37 0 01-.41-1.22l-1.51-.87a3.88 3.88 0 00.37 1.54 6 6 0 001 1.57 6.32 6.32 0 001.51 1.22 2.73 2.73 0 002 .5q.78-.21.78-1.29a3.2 3.2 0 00-.24-1.22 4.93 4.93 0 00-.78-1.21 10.49 10.49 0 00-1.42-1.38 7.85 7.85 0 01-1.22-1.16 1.39 1.39 0 01-.29-.81c0-.3.11-.48.32-.54a1.12 1.12 0 01.83.21 2.39 2.39 0 01.88.85 1.88 1.88 0 01.33 1.05l1.55.89a4 4 0 00-.76-2.26 5.73 5.73 0 00-2-1.86M180.77 432.4l-1.55-.9v1.93l-1.14-.65v1.32l1.14.65v4.49a3.53 3.53 0 001.78 3.3 4.07 4.07 0 001 .42v-1.38a2.24 2.24 0 01-.53-.24 1.36 1.36 0 01-.56-.52 1.42 1.42 0 01-.15-.75v-4.42l1.21.7V435l-1.21-.7v-1.9M185.88 444a3 3 0 01-1.23-1.4 5 5 0 01-.43-2.18 2.6 2.6 0 01.45-1.81c.3-.29.7-.29 1.21 0a3 3 0 011.22 1.39 5.18 5.18 0 01.44 2.16 2.76 2.76 0 01-.44 1.81c-.3.3-.7.3-1.22 0m0-6.81a2.71 2.71 0 00-1.67-.46 1.44 1.44 0 00-1.14.78 3.73 3.73 0 00-.4 1.87v.09a7.09 7.09 0 00.87 3.49 6.15 6.15 0 002.33 2.46 2.85 2.85 0 001.69.47 1.46 1.46 0 001.13-.79 3.8 3.8 0 00.39-1.87v-.41a7.09 7.09 0 00-.93-3.29 6.16 6.16 0 00-2.27-2.34M193.47 441.52c-.65-.38-1.18-.34-1.55.14v-.91l-1.48-.86v7.94l1.55.89v-5.42c.24-.48.72-.52 1.43-.11a4.31 4.31 0 01.63.42v-1.67a2.27 2.27 0 00-.55-.42M196.31 446.54a1.58 1.58 0 01.5-1.14c.27-.2.61-.17 1 .08a2.61 2.61 0 011 1 3.74 3.74 0 01.41 1.6v.13l-2.95-1.7m1.55-2.49a2.52 2.52 0 00-1.61-.4 1.45 1.45 0 00-1.12.8 3.83 3.83 0 00-.41 1.9v.21a6.73 6.73 0 00.9 3.37 6.57 6.57 0 002.4 2.45 3.12 3.12 0 001.55.5 1.36 1.36 0 001.11-.46l-.84-1.4a1.39 1.39 0 01-1.74 0 3.56 3.56 0 01-1.25-1.3 4.39 4.39 0 01-.57-1.89l4.51 2.61v-.72a7.12 7.12 0 00-.76-3.37 5.57 5.57 0 00-2.17-2.29" class="cls-30"/></g><path d="M523.9 567.72l-117.77 68c-5.55 3.2-5.58 8.39-.07 11.59l99.59 58.88c5.52 3.21 14.48 3.21 20 0l117.77-68c5.55-3.2 5.58-8.39.06-11.6l-99.59-58.88c-5.5-3.2-14.46-3.2-20 0" class="cls-14"/><path d="M515.65 711.05a22.72 22.72 0 01-11.23-2.74l-99.59-58.88c-3.44-2-5.34-4.81-5.33-7.9s1.92-5.93 5.4-7.94l117.77-68c6.32-3.65 16.19-3.65 22.48 0l99.58 58.88c3.45 2 5.35 4.81 5.34 7.91s-1.92 5.93-5.41 7.94l-117.76 68a23 23 0 01-11.25 2.73zm9.47-141.2l-117.77 68c-1.87 1.08-2.94 2.43-3 3.7s1.06 2.58 2.89 3.65l99.59 58.88c4.75 2.76 12.79 2.76 17.56 0l117.77-68c1.88-1.08 3-2.43 3-3.7s-1.06-2.58-2.9-3.66l-99.59-58.88c-4.74-2.75-12.78-2.75-17.56 0z" class="cls-4"/><path d="M451.5 653.62l16.28 9.46a6.12 6.12 0 003.55.61l14.67-2.48a1.67 1.67 0 00.62-.2c.44-.25.35-.67-.32-1.06l-16.66-9.68-17.41 3.27-.71.08" class="cls-30"/><path fill="#215eac" d="M445.9 626.62a.78.78 0 00-.28.29L437 642.24c-1 1.72-1.26 2.07-.33 2.74-.26-.23-.28-.46-.07-.64l.11-.07a1.61 1.61 0 01.5-.17l19.93-3.7 2.89-5.12c.22-.59-.06-1.22-.82-1.66l-11.79-6.86a1.62 1.62 0 00-1.53-.14"/><path d="M457.15 640.4l-6.47 11.52a.78.78 0 01-.29.28 1.38 1.38 0 01-1 .11h-.16a5 5 0 002.37.21l28.73-5.35a1.66 1.66 0 00.52-.17c.38-.22.31-.57-.24-.89l-11.8-6.86a5 5 0 00-2.89-.46l-8.81 1.65" class="cls-6"/><path fill="#16a0db" d="M436.72 644.27l-.11.07c-.21.18-.19.41.07.64s.71.44 1.25.75l10.87 6.32.47.22h.16a1.38 1.38 0 001-.11.78.78 0 00.29-.28l6.47-11.52-19.93 3.7a1.61 1.61 0 00-.5.17"/><path d="M592.08 651.45L561.66 669l4.37 2 26.05-19.52m-18.84-45.88l45.1 26.2 5.06-3.8-50.16-22.41M466 620.22l-5 3.78 7.69 3.44 42.44 19-42.13-24.5 61.49-35.5-61.49 35.5-3-1.72M518.32 581l-26 19.51L522.7 583l-4.38-2" class="cls-38"/><path d="M553.93 666.62l-.94-.55 15.24-8.8.95.55-15.25 8.8m22.63-13.06l-.95-.55 15.24-8.8.95.55-15.24 8.8m20.24-11.69l-.95-.55 15.24-8.8.95.56-15.24 8.79m-28-2.2l-1.42-.82 8.86-5.12 1.42.83-8.86 5.11m11.56-6.67l-1.42-.82 6.16-3.56 1.42.82-6.16 3.56m-13.92 5.3l-1.42-.83 8.86-5.11 1.42.82-8.86 5.12m11.56-6.67l-1.42-.83 14.64-8.45 1.42.83-14.64 8.45m-13.92 5.29l-1.42-.82 8.86-5.12 1.42.83-8.86 5.11m11.56-6.67l-1.42-.82 6.16-3.56 1.42.82-6.16 3.56m-13.92 5.3l-1.42-.83 8.86-5.11 1.42.82-8.86 5.12m11.55-6.67l-1.42-.83 14.64-8.45 1.42.83-14.64 8.45M527 651l-5-2.89 9.74-5.63 5 2.89L527 651m10.41-6l-5-2.89 27.23-15.72 5 2.88L537.4 645m27.91-16.11l-5-2.89 7.75-4.47 5 2.88-7.75 4.48m8.41-4.86l-5-2.89 10.19-5.88 5 2.89-10.22 5.85m-52.41 23.68l-5-2.89 9.74-5.63 5 2.89-9.75 5.63m10.41-6l-5-2.89L554 623l5 2.88-27.24 15.73m27.91-16.11l-5-2.89 7.75-4.47 5 2.88-7.75 4.48m8.41-4.86l-5-2.89 10.18-5.88 5 2.89-10.26 5.91m-52.4 23.68l-5-2.89 9.74-5.63 5 2.89-9.74 5.63m10.41-6l-5-2.89 27.24-15.72 5 2.88L526 638.34m27.9-16.11l-5-2.89 7.75-4.47 5 2.88-7.75 4.48m8.42-4.86l-5-2.89 10.18-5.88 5 2.89-10.18 5.88m-52.41 23.68l-5-2.89 9.75-5.62 5 2.88-9.74 5.63m10.41-6l-5-2.89 27.24-15.72 5 2.88L520.34 635m27.9-16.11l-5-2.89 7.76-4.47 5 2.88-7.75 4.48m8.42-4.86l-5-2.89 10.19-5.88 5 2.89-10.18 5.88m-52.17 23.82l-3.79-2.2 56.92-32.86 3.78 2.2-56.91 32.86M528.37 612l-1.42-.83 5.48-3.16 1.42.83-5.48 3.16m7.14-4.13l-1.41-.82 3.8-2.2 1.42.82-3.81 2.2m-9.51 2.79l-1.42-.82 5.48-3.16 1.42.82-5.48 3.16m7.15-4.12l-1.42-.83 9-5.22 1.42.82-9.05 5.23m-9.51 2.75l-1.42-.83 5.48-3.16 1.41.83-5.47 3.16m7.14-4.13l-1.42-.82 9-5.22 1.42.82-9.05 5.22m-9.27 2.89l-1.42-.82 5.48-3.17 1.42.83-5.48 3.16m7.14-4.12l-1.42-.83 5.48-3.16 1.42.82-5.48 3.17m-11.4 2.47l-.71-.41 23.81-13.75.71.41-23.71 13.75m18.16-22.82l-4.95 2.86-61.46 35.5 42.12 24.47 44.71 26 5.86-3.39 30.42-17.56L622.24 634l-3.9-2.27-45.1-26.2-37.83-22" class="cls-27"/><path d="M528.55 579.59l-5.85 3.38-30.42 17.56-30.17 17.42 3.9 2.27 2.96 1.72 61.49-35.5 4.95-2.86-6.86-3.99" class="cls-6"/><path d="M525.57 604.07l-5.48 3.16 1.42.82 5.48-3.16-1.42-.82M532.71 599.94l-5.47 3.16 1.41.83 5.48-3.17-1.42-.82M527.7 605.3l-5.48 3.17 1.42.82 5.48-3.16-1.42-.83M538.41 599.12l-9.05 5.22 1.42.82 9.05-5.22-1.42-.82M530.06 606.68l-5.48 3.16 1.42.82 5.48-3.16-1.42-.82M540.78 600.49l-9.05 5.22 1.42.83 9.05-5.23-1.42-.82M532.43 608.05l-5.48 3.16 1.42.83 5.48-3.16-1.42-.83M537.9 604.89l-3.8 2.2 1.41.82 3.81-2.2-1.42-.82M540.35 592.24l-23.82 13.75.72.41 23.81-13.75-.71-.41" class="cls-39"/><path d="M557.62 602.83l-56.92 32.86 3.79 2.2 56.91-32.86-3.78-2.2" class="cls-6"/><path d="M511.36 638l-1.42-.82 3.1-1.8 1.42.83-3.1 1.79m3.35-5.49l-9.71 5.65 5 2.89 9.74-5.63-5-2.88M522.43 631.64l-1.42-.83 11.29-6.52 1.42.83-11.29 6.52m20.18-15.21l-27.24 15.72 5 2.89 27.24-15.73-5-2.88M548.79 616.42l-1.43-.82 3.1-1.79 1.42.82-3.09 1.79m2.24-4.85l-7.76 4.43 5 2.89 7.75-4.48-5-2.88M556.76 611.82l-1.42-.83 6-3.45 1.43.83-6 3.45m5.12-6.52l-10.19 5.88 5 2.89 10.18-5.88-5-2.89" class="cls-39"/><path d="M513.04 635.41l-3.1 1.8 1.42.82 3.1-1.79-1.42-.83M532.3 624.29l-11.29 6.52 1.42.83 11.3-6.52-1.43-.83M550.46 613.81l-3.09 1.79 1.41.82 3.1-1.79-1.42-.82M561.32 607.54l-5.98 3.45 1.42.83 5.98-3.45-1.42-.83" class="cls-40"/><path d="M517 641.33l-1.42-.82 3.1-1.79 1.42.82-3.1 1.79m3.34-5.5l-9.74 5.63 5 2.89 9.74-5.63-5-2.89M528.11 634.94l-1.42-.83 11.31-6.52 1.42.83-11.29 6.52m20.18-15.21l-27.24 15.72 5 2.89 27.24-15.73-5-2.88M554.46 619.72l-1.46-.82 3.1-1.79 1.42.82-3.1 1.79m2.24-4.85l-7.66 4.47 5 2.89 7.75-4.48-5-2.88M562.44 615.12l-1.42-.83 6-3.45 1.42.83-6 3.45m5.11-6.52l-10.18 5.88 5 2.89 10.18-5.88-5-2.89" class="cls-39"/><path d="M518.72 638.72l-3.1 1.79 1.42.82 3.1-1.79-1.42-.82M537.98 627.59l-11.29 6.52 1.42.83 11.29-6.52-1.42-.83M556.14 617.11l-3.1 1.79 1.42.82 3.1-1.79-1.42-.82M566.99 610.84l-5.97 3.45 1.42.83 5.97-3.45-1.42-.83" class="cls-40"/><path d="M522.71 644.63l-1.41-.82 3.1-1.79 1.41.82-3.1 1.79m3.35-5.5l-9.74 5.63 5 2.89L531 642l-5-2.89M533.79 638.24l-1.42-.83 11.29-6.52 1.42.83-11.29 6.52M554 623l-27.23 15.72 5 2.89 27.24-15.73L554 623M560.14 623l-1.42-.82 3.1-1.79 1.42.82-3.1 1.79m2.24-4.85l-7.75 4.47 5 2.89 7.75-4.48-5-2.88M568.11 618.42l-1.41-.83 6-3.45 1.42.83-6 3.45m5.12-6.52l-10.18 5.88 5 2.89 10.19-5.88-5-2.89" class="cls-39"/><path d="M524.4 642.01l-3.1 1.8 1.41.82 3.11-1.79-1.42-.83M543.66 630.89l-11.29 6.52 1.42.83 11.29-6.52-1.42-.83M561.82 620.41l-3.1 1.79 1.42.82 3.1-1.79-1.42-.82M572.67 614.14l-5.97 3.45 1.41.83 5.98-3.45-1.42-.83" class="cls-40"/><path d="M528.39 647.93l-1.39-.83 3.1-1.79 1.42.83-3.1 1.79m3.35-5.5l-9.77 5.63 5 2.89 9.75-5.63-5-2.89M539.47 641.54l-1.42-.83 11.29-6.52 1.42.83-11.29 6.52m20.17-15.21l-27.23 15.72 5 2.89 27.24-15.73-5-2.88M565.82 626.32l-1.42-.82 3.1-1.79 1.42.82-3.1 1.79m2.24-4.85l-7.75 4.47 5 2.89 7.75-4.48-5-2.88M573.79 621.72l-1.42-.83 6-3.45 1.42.83-6 3.45m5.12-6.52l-10.19 5.88 5 2.89 10.19-5.88-5-2.89" class="cls-39"/><path d="M530.07 645.31l-3.1 1.8 1.42.82 3.1-1.79-1.42-.83M549.34 634.19l-11.29 6.52 1.42.83 11.29-6.52-1.42-.83M567.5 623.71l-3.1 1.79 1.42.82 3.1-1.79-1.42-.82M578.35 617.44l-5.98 3.45 1.42.83 5.98-3.45-1.42-.83" class="cls-40"/><path d="M569.15 629.61l-8.86 5.11 1.42.83 8.86-5.12-1.42-.82M586.48 619.6l-14.64 8.45 1.42.83 14.64-8.45-1.42-.83M571.51 630.98l-8.86 5.12 1.42.82 8.86-5.11-1.42-.83M580.37 625.87l-6.16 3.56 1.42.82 6.16-3.56-1.42-.82M573.88 632.36l-8.86 5.11 1.42.83 8.86-5.12-1.42-.82M591.21 622.35l-14.64 8.45 1.42.83 14.64-8.46-1.42-.82M576.24 633.73l-8.86 5.12 1.42.82 8.86-5.11-1.42-.83M585.1 628.62l-6.16 3.56 1.42.82 6.16-3.56-1.42-.82M568.23 657.27l-15.24 8.8.94.55 15.24-8.8-.94-.55M590.85 644.21l-15.24 8.8.95.55 15.24-8.8-.95-.55M611.09 632.52l-15.24 8.8.95.56 15.24-8.8-.95-.56" class="cls-39"/><path d="M285.08 373.45L254.66 391l4.37 2 26.05-19.52m-18.84-45.88l45.1 26.2 5.06-3.8-50.16-22.41M159 342.22l-5 3.78 7.69 3.44 42.44 19-42.13-24.5 61.49-35.5-61.49 35.5-3-1.72M211.32 303l-26 19.51L215.7 305l-4.38-2" class="cls-38"/><path fill="#eaf5f9" d="M246.93 388.62l-.94-.55 15.24-8.8.95.55-15.25 8.8m22.63-13.06l-.95-.55 15.24-8.8.95.55-15.24 8.8m20.24-11.69l-.95-.55 15.24-8.8 1 .56-15.24 8.79m-28-2.2l-1.42-.82 8.86-5.12 1.42.83-8.86 5.11m11.51-6.67l-1.42-.82 6.16-3.56 1.42.82-6.16 3.56m-13.92 5.3l-1.42-.83 8.86-5.11 1.42.82-8.86 5.12m11.56-6.67l-1.42-.83 14.64-8.45 1.42.83-14.64 8.45m-13.92 5.29l-1.42-.82 8.86-5.12 1.42.83-8.86 5.11m11.56-6.67l-1.42-.82 6.16-3.56 1.42.82-6.16 3.56m-13.92 5.3l-1.42-.83 8.86-5.11 1.42.82-8.86 5.12m11.55-6.67l-1.42-.83 14.64-8.45 1.42.83-14.64 8.45M220 373l-5-2.89 9.74-5.63 5 2.89L220 373m10.41-6l-5-2.89 27.23-15.72 5 2.88L230.4 367m27.91-16.11l-5-2.89 7.75-4.47 5 2.88-7.75 4.48m8.41-4.86l-5-2.89 10.19-5.88 5 2.89-10.22 5.85m-52.41 23.68l-5-2.89 9.74-5.63 5 2.89-9.75 5.63m10.41-6l-5-2.89L247 345l5 2.88-27.24 15.73m27.91-16.11l-5-2.89 7.75-4.47 5 2.88-7.75 4.48m8.41-4.86l-5-2.89 10.18-5.88 5 2.89-10.26 5.91m-52.4 23.68l-5-2.89 9.74-5.63 5 2.89-9.74 5.63m10.41-6l-5-2.89 27.24-15.72 5 2.88L219 360.34m27.9-16.11l-5-2.89 7.75-4.47 5 2.88-7.75 4.48m8.42-4.86l-5-2.89 10.18-5.88 5 2.89-10.18 5.88m-52.41 23.68l-5-2.89 9.75-5.62 5 2.88-9.74 5.63m10.41-6l-5-2.89 27.24-15.72 5 2.88L213.34 357m27.9-16.11l-5-2.89 7.76-4.47 5 2.88-7.75 4.48m8.42-4.86l-5-2.89 10.19-5.88 5 2.89-10.18 5.88m-52.17 23.82l-3.79-2.2 56.92-32.86 3.78 2.2-56.91 32.86M221.37 334l-1.42-.83 5.48-3.16 1.42.83-5.48 3.16m7.14-4.13l-1.41-.82 3.8-2.2 1.42.82-3.81 2.2m-9.51 2.79l-1.42-.82 5.48-3.16 1.42.82-5.48 3.16m7.15-4.12l-1.42-.83 9.05-5.22 1.42.82-9 5.23m-9.51 2.75l-1.42-.83 5.48-3.16 1.41.83-5.47 3.16m7.14-4.13l-1.42-.82 9-5.22 1.42.82-9.05 5.22m-9.27 2.89l-1.42-.82 5.48-3.17 1.42.83-5.48 3.16m7.14-4.12l-1.42-.83 5.48-3.16 1.42.82-5.48 3.17m-11.4 2.47l-.71-.41 23.81-13.75.71.41-23.81 13.75m18.16-22.82l-4.95 2.86-61.46 35.5 42.12 24.47 44.71 26 5.86-3.39 30.42-17.56L315.24 356l-3.9-2.27-45.1-26.2-37.83-22"/><path d="M221.55 301.59l-5.85 3.38-30.42 17.56-30.17 17.42 3.9 2.27 2.96 1.72 61.49-35.5 4.95-2.86-6.86-3.99" class="cls-6"/><path d="M218.57 326.06l-5.48 3.17 1.42.82 5.48-3.16-1.42-.83M225.71 321.94l-5.47 3.16 1.41.83 5.48-3.17-1.42-.82M220.7 327.3l-5.48 3.16 1.42.83 5.48-3.16-1.42-.83M231.41 321.12l-9.05 5.22 1.42.82 9.05-5.22-1.42-.82M223.06 328.68l-5.48 3.16 1.42.82 5.48-3.16-1.42-.82M233.78 322.49l-9.05 5.22 1.42.83 9.05-5.23-1.42-.82M225.43 330.05l-5.48 3.16 1.42.83 5.48-3.16-1.42-.83M230.9 326.89l-3.81 2.2 1.42.82 3.81-2.2-1.42-.82M233.35 314.24l-23.82 13.75.72.41 23.81-13.75-.71-.41" class="cls-39"/><path d="M250.62 324.83l-56.92 32.86 3.79 2.2 56.91-32.86-3.78-2.2" class="cls-6"/><path d="M204.36 360l-1.42-.82 3.1-1.8 1.42.83-3.1 1.79m3.35-5.49l-9.71 5.65 5 2.89 9.74-5.63-5-2.88M215.43 353.64l-1.42-.83 11.29-6.52 1.42.83-11.29 6.52m20.18-15.21l-27.24 15.72 5 2.89 27.24-15.73-5-2.88M241.79 338.42l-1.43-.82 3.1-1.79 1.42.82-3.09 1.79m2.24-4.85l-7.76 4.43 5 2.89 7.75-4.48-5-2.88M249.76 333.82l-1.42-.83 6-3.45 1.43.83-6 3.45m5.12-6.52l-10.19 5.88 5 2.89 10.18-5.88-5-2.89" class="cls-39"/><path d="M206.04 357.42l-3.1 1.78 1.42.83 3.1-1.79-1.42-.82M225.31 346.29l-11.3 6.52 1.42.83 11.29-6.52-1.41-.83M243.46 335.81l-3.09 1.79 1.41.82 3.1-1.79-1.42-.82M254.31 329.54l-5.97 3.45 1.42.83 5.98-3.45-1.43-.83" class="cls-40"/><path d="M210 363.33l-1.42-.82 3.1-1.79 1.42.82-3.1 1.79m3.34-5.5l-9.74 5.63 5 2.89 9.74-5.63-5-2.89M221.11 356.94l-1.42-.83 11.31-6.52 1.42.83-11.29 6.52m20.18-15.21l-27.24 15.72 5 2.89 27.24-15.73-5-2.88M247.46 341.72l-1.46-.82 3.1-1.79 1.42.82-3.1 1.79m2.24-4.85l-7.66 4.47 5 2.89 7.75-4.48-5-2.88M255.44 337.12l-1.42-.83 6-3.45 1.42.83-6 3.45m5.11-6.52l-10.18 5.88 5 2.89 10.18-5.88-5-2.89" class="cls-39"/><path d="M211.72 360.71l-3.1 1.8 1.42.82 3.1-1.79-1.42-.83M230.98 349.59l-11.29 6.52 1.42.83 11.29-6.52-1.42-.83M249.14 339.11l-3.1 1.79 1.42.82 3.1-1.79-1.42-.82M259.99 332.84l-5.97 3.45 1.42.83 5.97-3.45-1.42-.83" class="cls-40"/><path d="M215.71 366.63l-1.41-.82 3.1-1.79 1.41.82-3.1 1.79m3.35-5.5l-9.74 5.63 5 2.89L224 364l-5-2.89M226.79 360.24l-1.42-.83 11.29-6.52 1.42.83-11.29 6.52M247 345l-27.23 15.72 5 2.89 27.24-15.73L247 345M253.14 345l-1.42-.82 3.1-1.79 1.42.82-3.1 1.79m2.24-4.85l-7.75 4.47 5 2.89 7.75-4.48-5-2.88M261.11 340.42l-1.41-.83 6-3.45 1.42.83-6 3.45m5.12-6.52l-10.18 5.88 5 2.89 10.19-5.88-5-2.89" class="cls-39"/><path d="M217.4 364.01l-3.1 1.8 1.41.82 3.1-1.79-1.41-.83M236.66 352.89l-11.29 6.52 1.42.83 11.29-6.52-1.42-.83M254.82 342.41l-3.1 1.79 1.42.82 3.1-1.79-1.42-.82M265.67 336.14l-5.98 3.45 1.42.83 5.98-3.45-1.42-.83" class="cls-40"/><path d="M221.39 369.93l-1.39-.83 3.1-1.79 1.42.83-3.1 1.79m3.35-5.5l-9.77 5.63 5 2.89 9.75-5.63-5-2.89M232.47 363.54l-1.42-.83 11.29-6.52 1.42.83-11.29 6.52m20.17-15.21l-27.23 15.72 5 2.89 27.24-15.73-5-2.88M258.82 348.32l-1.42-.82 3.1-1.79 1.42.82-3.1 1.79m2.24-4.85l-7.75 4.47 5 2.89 7.75-4.48-5-2.88M266.79 343.72l-1.42-.83 6-3.45 1.42.83-6 3.45m5.12-6.52l-10.19 5.88 5 2.89 10.19-5.88-5-2.89" class="cls-39"/><path d="M223.07 367.31l-3.1 1.8 1.42.82 3.1-1.79-1.42-.83M242.34 356.19l-11.29 6.52 1.42.83 11.29-6.52-1.42-.83M260.5 345.71l-3.1 1.79 1.42.82 3.1-1.79-1.42-.82M271.35 339.44l-5.98 3.45 1.42.83 5.98-3.45-1.42-.83" class="cls-40"/><path d="M262.15 351.61l-8.86 5.11 1.42.83 8.86-5.12-1.42-.82M279.48 341.6l-14.64 8.45 1.42.83 14.64-8.45-1.42-.83M264.51 352.98l-8.86 5.12 1.42.82 8.86-5.11-1.42-.83M273.37 347.87l-6.16 3.56 1.42.82 6.16-3.56-1.42-.82M266.88 354.36l-8.86 5.11 1.42.83 8.86-5.12-1.42-.82M284.21 344.35l-14.64 8.45 1.42.83 14.64-8.45-1.42-.83M269.24 355.73l-8.86 5.12 1.42.82 8.86-5.11-1.42-.83M278.1 350.62l-6.16 3.56 1.42.82 6.16-3.56-1.42-.82M261.23 379.27l-15.24 8.8.95.55 15.24-8.8-.95-.55M283.85 366.21l-15.24 8.8.95.55 15.24-8.8-.95-.55M304.09 354.52l-15.24 8.8.95.56 15.24-8.8-.95-.56" class="cls-39"/><path d="M256.84 364.84c-19.14-11.25-19.1-29.26.12-40.23s50.31-10.72 69.45.54 19.12 29.28-.09 40.24-50.32 10.72-69.48-.55z" class="cls-8" opacity=".25"/><g class="cls-9"><path fill="#ee8233" d="M229.6 343l.17-15.66c-.08 7.33 4.69 14.7 14.32 20.36l-.17 15.66c-9.63-5.7-14.4-13.07-14.32-20.36z"/><path fill="#d07a33" d="M328 328.35l-.16 15.65c-.08 7.23-4.89 14.42-14.44 19.87-19.22 11-50.31 10.71-69.48-.55l.17-15.66c19.17 11.27 50.26 11.51 69.48.55 9.54-5.44 14.36-12.62 14.43-19.86z"/><path fill="#f89f33" d="M244.09 347.67c-19.14-11.26-19.1-29.27.12-40.23s50.31-10.72 69.45.53 19.12 29.29-.09 40.25-50.31 10.72-69.48-.55z"/></g><path fill="#425cc7" d="M129.08 587.53l25.09 3.67c11.28 1.66 20.68 10.43 21.82 21.77.81 8-2.25 16-10 20.5a61.06 61.06 0 01-61 0l-30.88-17.81c-15.6-9-15.6-23.75 0-32.75 22.89-13.21 32.09-8.59 54.97 4.62z" opacity=".2"/><path d="M64.71 585.42l-22 12.7c-2.18 1.26-2.42 3.16-.53 4.25l82.33 47.54a8.19 8.19 0 007.37-.31l22-12.7zM153.88 636.9l31.92-18.43c2.18-1.26 2.42-3.16.53-4.25L104 566.68a8.19 8.19 0 00-7.37.31l-31.92 18.43z" class="cls-47"/><path d="M176.66 618l-4.12-2.38a1.13 1.13 0 00-1 0l-3.95 2.28c-.29.17-.32.42-.07.57l4.12 2.38a1.12 1.12 0 001 0l3.94-2.28c.3-.22.34-.47.08-.57zM167.07 617.58l4-2.28c.29-.17.32-.42.07-.57l-4.14-2.38a1.1 1.1 0 00-1 0l-4 2.27c-.29.17-.32.43-.07.57l4.12 2.38a1.07 1.07 0 001.02.01zM161.5 614.36l3.95-2.28c.29-.17.32-.42.07-.56l-4.12-2.38a1.09 1.09 0 00-1 0l-3.94 2.28c-.29.16-.33.42-.07.56l4.12 2.38a1.07 1.07 0 00.99 0zM159.94 608.3l-4.12-2.38a1.07 1.07 0 00-1 0l-4 2.28c-.29.17-.32.42-.07.57l4.12 2.37a1.07 1.07 0 001 0l4-2.28c.29-.16.32-.42.07-.56zM154.37 605.08l-4.12-2.38a1.09 1.09 0 00-1 0l-3.93 2.3c-.29.17-.32.42-.07.57l4.12 2.38a1.1 1.1 0 001-.05l4-2.27c.22-.15.25-.41 0-.55zM148.79 601.86l-4.12-2.38a1.1 1.1 0 00-1 0l-3.95 2.28c-.29.17-.32.42-.07.57l4.12 2.38a1.15 1.15 0 001 0l3.94-2.28c.29-.17.29-.43.08-.57zM143.22 598.64l-4.12-2.38a1.13 1.13 0 00-1 0l-4 2.28c-.29.17-.32.43-.07.57l4.12 2.38a1.1 1.1 0 001 0l4-2.28c.29-.21.32-.42.07-.57zM137.64 595.42l-4.12-2.37a1.07 1.07 0 00-1 0l-3.95 2.27c-.29.17-.32.43-.07.57l4.12 2.38a1.09 1.09 0 001 0l3.94-2.28c.3-.17.34-.42.08-.57zM132.07 592.21l-4.07-2.38a1.07 1.07 0 00-1 0l-4 2.28c-.29.16-.32.42-.07.56l4.12 2.38a1.07 1.07 0 001 0l3.95-2.28c.29-.17.32-.42.07-.56zM126.5 589l-4.12-2.38a1.09 1.09 0 00-1 0l-3.94 2.28c-.29.17-.33.42-.07.57l4.12 2.37a1.07 1.07 0 001 0l4-2.28c.23-.17.26-.43.01-.56zM120.92 585.77l-4.12-2.38a1.07 1.07 0 00-1 0l-3.95 2.28c-.29.17-.32.42-.07.57l4.12 2.38a1.13 1.13 0 001 0l3.95-2.28c.29-.17.32-.43.07-.57zM115.35 582.55l-4.12-2.38a1.1 1.1 0 00-1 0l-4 2.28c-.29.17-.32.42-.07.57l4.12 2.38a1.13 1.13 0 001 0l4-2.28c.29-.12.32-.42.07-.57zM109.77 579.33l-4.12-2.33a1.13 1.13 0 00-1 0l-4 2.28c-.29.17-.32.43-.07.57l4.12 2.38a1.12 1.12 0 001 0l3.94-2.28c.36-.22.36-.47.13-.62zM92.56 575.17L99.2 579a1.07 1.07 0 001 0l3.95-2.28c.29-.17.32-.42.07-.57l-6.64-3.83a1.1 1.1 0 00-1 0l-4 2.28c-.24.17-.27.4-.02.57zM87 578.37l4.12 2.38a1.1 1.1 0 001 0l3.95-2.27c.29-.17.32-.43.07-.57L92 575.48a1.07 1.07 0 00-1 0l-4 2.28c-.2.24-.23.46 0 .61zM96.61 578.74L92.67 581c-.3.17-.33.42-.08.56l4.12 2.44a1.09 1.09 0 001 0l3.94-2.28c.3-.16.33-.42.07-.56l-4.12-2.46a1.09 1.09 0 00-.99.04zM107.29 584.29l-4.12-2.37a1.07 1.07 0 00-1 0l-4 2.28c-.29.16-.32.42-.07.56l4.12 2.38a1.07 1.07 0 001 0l4-2.28c.29-.17.32-.42.07-.57zM112.86 587.51l-4.12-2.38a1.13 1.13 0 00-1 0l-4 2.28c-.29.17-.32.43-.07.57l4.12 2.38a1.09 1.09 0 001 0l3.94-2.28c.35-.17.39-.42.13-.57zM118.44 590.73l-4.12-2.38a1.13 1.13 0 00-1 0l-4 2.28c-.29.17-.32.42-.07.57l4.12 2.38a1.1 1.1 0 001 0l4-2.28c.29-.17.32-.42.07-.57zM124 594l-4.12-2.38a1.1 1.1 0 00-1 0l-4 2.28c-.29.17-.32.42-.07.57l4.12 2.38a1.13 1.13 0 001 0l4-2.28c.3-.22.33-.48.07-.57zM129.59 597.17l-4.12-2.38a1.09 1.09 0 00-1 0l-3.94 2.28c-.29.17-.33.42-.07.57l4.12 2.37a1.07 1.07 0 001 0l4-2.27c.23-.17.26-.43.01-.57zM135.16 600.39L131 598a1.07 1.07 0 00-1 0l-4 2.28c-.29.17-.32.42-.07.56l4.12 2.38a1.07 1.07 0 001 0l4-2.28c.33-.15.36-.41.11-.55zM140.73 603.6l-4.11-2.37a1.09 1.09 0 00-1 0l-3.94 2.28c-.3.16-.33.42-.08.56l4.12 2.38a1.09 1.09 0 001 0l3.94-2.28c.34-.17.34-.42.07-.57zM146.31 606.82l-4.12-2.38a1.13 1.13 0 00-1 0l-4 2.28c-.29.17-.32.43-.07.57l4.12 2.38a1.07 1.07 0 001 0l4-2.28c.29-.17.32-.39.07-.57zM142.76 610.55l4.12 2.38a1.12 1.12 0 001 0l3.94-2.28c.29-.17.33-.42.07-.57l-4.12-2.38a1.13 1.13 0 00-1 0l-3.94 2.3c-.29.15-.32.4-.07.55zM153.44 616.11l3.95-2.28c.29-.17.32-.43.07-.57l-4.12-2.38a1.1 1.1 0 00-1 0l-4 2.28c-.29.17-.32.42-.07.57l4.12 2.38a1.13 1.13 0 001.05 0zM159 619.32l4-2.28c.29-.16.32-.42.07-.56l-4.12-2.38a1.07 1.07 0 00-1 0l-4 2.28c-.29.17-.32.42-.07.57l4.12 2.37a1.07 1.07 0 001 0zM171.12 621.15l-6.63-3.83a1.09 1.09 0 00-1 0l-3.94 2.28c-.29.16-.33.42-.07.56l6.63 3.84a1.15 1.15 0 001 0l3.94-2.28c.3-.17.33-.42.07-.57zM81.48 581.56l8.14 4.71a1.15 1.15 0 001 0l3.93-2.27c.3-.17.33-.43.07-.57l-8.14-4.7a1.07 1.07 0 00-1 0l-4 2.28c-.22.16-.25.41 0 .55zM165.54 624.32l-8.14-4.7a1.09 1.09 0 00-1 0l-3.94 2.28c-.29.17-.33.42-.07.57l8.14 4.7a1.1 1.1 0 001 0l3.95-2.28c.28-.17.31-.42.06-.57zM91.08 587.11l4.12 2.37a1.07 1.07 0 001 0l3.95-2.28c.29-.16.32-.42.07-.56l-4.12-2.38a1.07 1.07 0 00-1 0l-3.95 2.28c-.29.17-.32.46-.07.57zM96.65 590.32l4.12 2.38a1.09 1.09 0 001 0l3.94-2.28c.29-.16.33-.42.07-.56l-4.12-2.38a1.07 1.07 0 00-1 0l-4 2.28c-.23.16-.26.42-.01.56zM102.23 593.54l4.12 2.38a1.07 1.07 0 001 0l4-2.28c.29-.17.32-.42.07-.57l-4.12-2.37a1.07 1.07 0 00-1 0l-4 2.28c-.3.16-.3.42-.07.56zM107.8 596.76l4.12 2.38a1.1 1.1 0 001 0l3.95-2.28c.29-.17.32-.42.07-.57l-4.12-2.38a1.13 1.13 0 00-1 0l-3.95 2.28c-.29.17-.32.43-.07.57zM113.38 600l4.12 2.38a1.13 1.13 0 001 0l4-2.28c.29-.17.32-.42.07-.57l-4.12-2.38a1.12 1.12 0 00-1 0l-3.94 2.28c-.35.15-.39.4-.13.57zM119 603.2l4.12 2.38a1.13 1.13 0 001 0l4-2.28c.29-.17.32-.43.07-.57l-4.19-2.42a1.1 1.1 0 00-1 0l-4 2.28c-.27.21-.3.46 0 .61zM124.52 606.42l4.12 2.37a1.09 1.09 0 001 0l3.94-2.28c.3-.16.33-.42.07-.56l-4.12-2.38a1.07 1.07 0 00-1 0l-3.95 2.28c-.28.15-.31.42-.06.57zM130.1 609.63l4.12 2.38a1.07 1.07 0 001 0l4-2.28c.29-.16.32-.42.07-.56l-4.12-2.38a1.07 1.07 0 00-1 0l-4 2.28c-.29.16-.32.42-.07.56zM135.67 612.85l4.12 2.38a1.09 1.09 0 001 0l3.94-2.28c.29-.17.33-.42.07-.57l-4.13-2.38a1.07 1.07 0 00-1 0l-3.95 2.28c-.27.17-.3.43-.05.57zM141.25 616.07l4.12 2.38a1.1 1.1 0 001 0l4-2.28c.29-.17.32-.42.07-.57l-4.12-2.38a1.13 1.13 0 00-1 0l-4 2.28c-.32.17-.32.43-.07.57zM151.92 621.63l4-2.28c.29-.17.32-.42.07-.57l-4.12-2.38a1.1 1.1 0 00-1 0l-4 2.28c-.29.17-.32.42-.07.57l4.12 2.38a1.13 1.13 0 001 0zM75.94 584.76l10.91 6.3a1.07 1.07 0 001 0l4-2.28c.29-.17.32-.42.07-.56l-10.91-6.3a1.07 1.07 0 00-1 0L76 584.2c-.28.16-.31.42-.06.56zM88.31 591.9l4.12 2.38a1.07 1.07 0 001 0l4-2.28c.29-.17.32-.42.07-.57L93.31 589a1.12 1.12 0 00-1 0l-3.94 2.27c-.28.23-.32.49-.06.63zM93.88 595.12L98 597.5a1.1 1.1 0 001 0l4-2.28c.29-.17.32-.42.07-.57l-4.12-2.38a1.13 1.13 0 00-1 0l-4 2.28c-.29.17-.32.45-.07.57zM99.46 598.34l4.11 2.38a1.15 1.15 0 001 0l3.94-2.28c.3-.17.33-.42.08-.57l-4.12-2.38a1.12 1.12 0 00-1 0l-3.94 2.28c-.3.17-.33.42-.07.57zM105 601.56l4.12 2.38a1.1 1.1 0 001-.05l4-2.27c.29-.17.32-.43.07-.57l-4.19-2.38a1.07 1.07 0 00-1 0l-4 2.28c-.19.21-.22.46 0 .61zM110.6 604.78l4.12 2.37a1.09 1.09 0 001 0l3.94-2.28c.29-.16.33-.42.07-.56l-4.12-2.38a1.07 1.07 0 00-1 0l-4 2.28c-.23.17-.26.42-.01.57zM116.18 608l4.12 2.38a1.07 1.07 0 001 0l4-2.28c.29-.17.32-.42.07-.57l-4.12-2.37a1.07 1.07 0 00-1 0l-4 2.28c-.25.15-.32.41-.07.56zM121.75 611.21l4.12 2.38a1.07 1.07 0 001 0l4-2.28c.29-.17.32-.42.07-.57l-4.12-2.38a1.1 1.1 0 00-1 0l-4 2.27c-.29.18-.32.44-.07.58zM127.33 614.43l4.12 2.38a1.1 1.1 0 001 0l3.95-2.28c.29-.17.32-.42.07-.57l-4.12-2.38a1.15 1.15 0 00-1 0l-3.94 2.28c-.3.14-.34.42-.08.57zM132.9 617.65L137 620a1.13 1.13 0 001 0l3.95-2.28c.29-.17.32-.42.07-.57l-4.12-2.38a1.1 1.1 0 00-1 0l-3.9 2.31c-.32.17-.35.42-.1.57zM138.48 620.87l4.11 2.38a1.12 1.12 0 001 0l3.94-2.27c.3-.17.33-.43.08-.57l-4.13-2.41a1.09 1.09 0 00-1 0l-3.94 2.28c-.29.19-.32.44-.06.59zM160 627.52l-10.95-6.32a1.07 1.07 0 00-1 0l-3.95 2.28c-.29.17-.32.42-.07.56l10.97 6.37a1.13 1.13 0 001 0l4-2.28c.22-.21.25-.46 0-.61zM130.91 617.12l-26.42-15.25a1.07 1.07 0 00-1 0l-4 2.28c-.29.17-.32.42-.07.56L125.91 620a1.13 1.13 0 001 0l4-2.28c.22-.2.25-.45 0-.6zM96.25 597.11l-4.12-2.38a1.09 1.09 0 00-1 0l-3.94 2.28c-.3.17-.33.42-.08.57l4.13 2.42a1.09 1.09 0 001 0l3.94-2.28c.29-.21.32-.47.07-.61zM103 601l-5.3-3a1.07 1.07 0 00-1 0l-4 2.28c-.29.16-.32.42-.07.56l5.37 3.08a1.1 1.1 0 001 0l4-2.27c.26-.22.29-.48 0-.65zM143.27 624.26l-4.12-2.38a1.07 1.07 0 00-1 0l-3.95 2.28c-.29.17-.32.42-.07.57l4.12 2.38a1.13 1.13 0 001 0l3.95-2.28c.29-.17.32-.43.07-.57zM137.7 621l-5.34-3a1.07 1.07 0 00-1 0l-3.95 2.28c-.29.17-.32.42-.07.57l5.34 3.08a1.13 1.13 0 001 0l3.95-2.28c.29-.21.37-.46.07-.65zM79.52 587.45l-4.12-2.38a1.13 1.13 0 00-1 0l-4 2.28c-.29.17-.32.43-.07.57l4.12 2.38a1.07 1.07 0 001 0l4-2.28c.29-.17.32-.42.07-.57zM85.1 590.67l-4.1-2.38a1.15 1.15 0 00-1 0l-3.94 2.28c-.29.17-.33.42-.07.57l4.12 2.38a1.1 1.1 0 001 0l4-2.28c.21-.17.24-.42-.01-.57zM90.67 593.89l-4.12-2.38a1.1 1.1 0 00-1 0l-3.95 2.28c-.29.17-.32.42-.07.57l4.12 2.38a1.13 1.13 0 001 0l3.95-2.28c.29-.17.32-.46.07-.57zM154.46 630.72l-9.73-5.62a1.09 1.09 0 00-1 0l-3.94 2.28c-.29.17-.33.42-.07.57l9.73 5.62a1.1 1.1 0 001-.05l3.95-2.27c.28-.13.31-.39.06-.53zM180.22 615.9l-4.12-2.38a1.1 1.1 0 00-1 0l-2 1.13c-.29.17-.32.43-.07.57l4.12 2.38a1.09 1.09 0 001 0l2-1.13c.29-.17.32-.47.07-.57zM167.51 612l4.12 2.38a1.07 1.07 0 001 0l2-1.13c.3-.17.33-.42.07-.57l-4.11-2.38a1.15 1.15 0 00-1 0l-2 1.14c-.3.2-.33.46-.08.56zM161.93 608.83l4.12 2.37a1.09 1.09 0 001 0l2-1.13c.29-.17.32-.42.07-.57l-4.12-2.42a1.1 1.1 0 00-1 0l-2 1.13c-.29.22-.32.47-.07.62zM156.36 605.61l4.12 2.38a1.13 1.13 0 001 0l2-1.14c.29-.17.32-.42.07-.57l-4.12-2.37a1.09 1.09 0 00-1 0l-2 1.13c-.29.17-.32.42-.07.57zM150.79 602.39l4.12 2.38a1.13 1.13 0 001 0l2-1.14c.29-.16.32-.42.07-.56l-4.12-2.38a1.07 1.07 0 00-1 0l-2 1.13c-.29.18-.33.42-.07.57zM145.21 599.17l4.12 2.38a1.1 1.1 0 001 0l2-1.13c.29-.17.32-.43.07-.57l-4.12-2.38a1.07 1.07 0 00-1 0l-2 1.13c-.28.17-.28.4-.07.57zM139.64 596l4.12 2.38a1.07 1.07 0 001 0l2-1.13c.29-.17.33-.42.07-.57l-4.12-2.38a1.1 1.1 0 00-1 0l-2 1.14c-.29.11-.32.37-.07.56zM134.06 592.73l4.12 2.38a1.09 1.09 0 001 0l2-1.13c.29-.17.32-.42.07-.57l-4.17-2.41a1.13 1.13 0 00-1 0l-2 1.14c-.24.19-.27.45-.02.59zM128.49 589.52l4.12 2.37a1.07 1.07 0 001 0l2-1.13c.3-.17.33-.42.08-.57l-4.12-2.38a1.12 1.12 0 00-1 .05l-2 1.13c-.3.13-.33.38-.08.53zM122.92 586.3l4.11 2.38a1.15 1.15 0 001 0l2-1.14c.29-.17.32-.42.07-.57l-4.12-2.37a1.07 1.07 0 00-1 0l-2 1.13c-.29.17-.32.42-.06.57zM117.34 583.08l4.12 2.38a1.13 1.13 0 001 0l2-1.14c.29-.16.32-.42.07-.56l-4.12-2.38a1.09 1.09 0 00-1 0l-2 1.13c-.29.17-.32.42-.07.57zM111.77 579.86l4.12 2.38a1.1 1.1 0 001 0l2-1.13c.29-.17.32-.43.07-.57l-4.12-2.38a1.07 1.07 0 00-1 0l-2 1.13c-.29.17-.33.43-.07.57zM106.19 576.64l4.12 2.38a1.07 1.07 0 001 0l2-1.13c.29-.17.32-.42.07-.57l-4.12-2.38a1.1 1.1 0 00-1 0l-2 1.14c-.26.16-.32.42-.07.56zM98.1 572l6.64 3.83a1.07 1.07 0 001 0l2-1.13c.29-.17.33-.42.07-.57l-6.63-3.83a1.09 1.09 0 00-1 0l-2 1.13c-.3.14-.33.39-.08.57z" class="cls-48"/><path d="M109.41 570.9l69.61 40.19.95-.55-69.61-40.19-.95.55z" class="cls-49"/><path d="M120.62 620.52l-27.54-15.9a2.73 2.73 0 00-2.46 0l-11.37 6.56-.47.27-.26.15-.9.52-5 2.89c-.67.39-.67 1 0 1.42l13.53 7.81.48.27 13.53 7.82a2.73 2.73 0 002.46 0l6.15-3.55.48-.28 11.37-6.56a.75.75 0 000-1.42z" class="cls-48"/><path d="M131.88 649.6l53.92-31.13a3.15 3.15 0 001.79-2.23v3.15a1.14 1.14 0 010 .32 3.19 3.19 0 01-1.79 2.29l-53.92 31.13zM77.28 621.89l13.43 7.75c.36.21.36.54 0 .75L76 621.89a1.42 1.42 0 011.28 0zM72.62 615.69l5-2.89.9-.52.26-.14.47-.27 11.37-6.57a2.73 2.73 0 012.46 0l27.54 15.9a1.05 1.05 0 01.4.38c.23-.36.09-.77-.4-1.06l-27.54-15.9a2.73 2.73 0 00-2.46 0l-11.37 6.56-.47.27-.26.15-.9.52-5 2.89c-.49.28-.62.69-.39 1a1.15 1.15 0 01.39-.32z" class="cls-49"/><g class="cls-9"><path d="M113.71 483.81l2.61-1a1.72 1.72 0 011.5.19l-2.61 1a1.76 1.76 0 00-1.5-.19z" class="cls-50"/><path d="M190.34 613.64l-2.61 1a1.94 1.94 0 001.12-1.65l2.61-1a2 2 0 01-1.12 1.65z" class="cls-49"/><path d="M197.74 537.01l2.61-.98-10.16 69.85-2.61.99 10.16-69.86z" class="cls-51"/><path d="M198.19 531.92l2.61-1a4.29 4.29 0 011.84 4L200 536a4.28 4.28 0 00-1.81-4.08z" class="cls-50"/><path d="M114.42 488.91l2.61-.98 83.32 48.1-2.61.98-83.32-48.1z" class="cls-51"/><path d="M198.19 531.92a4.28 4.28 0 011.84 4l-11.18 77c-.22 1.51-1.39 2.17-2.62 1.46l-83-47.91a4.28 4.28 0 01-1.84-4l11.18-77c.22-1.52 1.39-2.17 2.62-1.46zm-10.61 75L197.74 537l-83.32-48.1-10.16 69.85 83.32 48.11" class="cls-47"/><path fill="#3cb4e5" d="M197.74 537.01l-10.16 69.86-83.32-48.11 10.16-69.85 83.32 48.1z"/><path d="M115.21 484.01l2.61-.99 82.98 47.91-2.61.98-82.98-47.9z" class="cls-48"/><path d="M200.03 535.95l2.6-.99-11.17 77.03-2.61.98 11.18-77.02z" class="cls-49"/></g><path d="M124.51 649.91v3.44h.06a8.19 8.19 0 007.37-.3v-3.45a8.19 8.19 0 01-7.43.31z" class="cls-50"/><path d="M42.18 602.37a2.22 2.22 0 01-1.26-1.73V604a2.2 2.2 0 001.27 1.84l82.27 47.49v-3.44z" class="cls-48"/><path fill="#f7f8f9" d="M42.71 598.12l22-12.7L96.63 567a8.67 8.67 0 016.14-.79 6.85 6.85 0 00-1.32.58l-31.93 18.42-22 12.7c-2.18 1.26-2.42 3.16-.53 4.25l82.33 47.54a5.42 5.42 0 001.23.47 8 8 0 01-6-.26l-82.37-47.54c-1.89-1.09-1.65-2.99.53-4.25z"/><path d="M101.41 562.49l11.18-77c.22-1.52 1.39-2.17 2.62-1.46l83 47.91a4.28 4.28 0 011.84 4l-.13.89-82.53-47.63c-1.23-.71-2.4-.06-2.62 1.46l-11 76.13-.47-.27a4.28 4.28 0 01-1.89-4.03z" class="cls-47"/><path d="M116.48 500.92l-8.15 56.06 77 44.45 8.15-56.06-77-44.45z" class="cls-27"/><path d="M194.44 538.8l-77-44.46-.96 6.58 77 44.45.96-6.57z" class="cls-8"/><g class="cls-54"><path d="M431.78 574.74l-.48.28-6.05 7.35 3.63 2.11 3.72-4.06 17.22 10.01 4.49-2.6-22.53-13.09" class="cls-30"/></g><g class="cls-54"><path d="M292.08 385.64a7.51 7.51 0 00-3 2.83 3.34 3.34 0 00-.13 3.07 6.24 6.24 0 002.68 2.67l4.38-2.53a3.22 3.22 0 01-1.82-2c-.1-.72.34-1.37 1.33-1.94a5.52 5.52 0 012.94-.73 6.42 6.42 0 013 .9 3.56 3.56 0 011.55 1.71 9 9 0 01.61 2.87l.42 8.48 3 1.72 15.03-8.69-3.48-2-9.45 5.45-.24-5.93a9.53 9.53 0 00-1-3.95 6.53 6.53 0 00-2.46-2.4 11.72 11.72 0 00-6.45-1.58 15 15 0 00-6.9 2.12" class="cls-30"/></g><path d="M270.15 334.85c-3-1.77-5.23-4.77-6.29-6l12-3.33c1.73 2.13 8.35 8.45 1.34 10.39a9 9 0 01-7.06-1m16.28-6a19.91 19.91 0 01-5.11-4.88l10.89-3c1.52 1.74 7.16 7 .7 8.79a8.2 8.2 0 01-6.48-.88m18.32-15.33l-8.93 2.39c-.59-.65-1.19-1.33-1.72-2h.06l-3.64-4.31-5.82 1.63s2 2.27 1.89 2.25c1 1.25.14 2-.89 2.44l-10.24 2.85a1 1 0 01.25.35l-.31-.35-14.34 4a3.62 3.62 0 01-2.29-.25 2 2 0 01-.5-.41c-.14-.09-1.88-2.29-1.88-2.29l-7 1.19 3.43 4.06c.62.75 1.25 1.5 1.81 2.22l-9.06 2.5 2.62 3.12 9-2.49c.68.88 1.39 1.69 2 2.51l-8.94 2.48 2.61 3.13 9.06-2.5a25.9 25.9 0 005.53 4.48c3.67 2.12 8 2.94 13.85 1.69 7.26-1.56 8.76-4.29 7.5-7.61a15.29 15.29 0 0011.49.14c6.16-2.15 5.62-5.94 2.86-10.11l8.94-2.48-2.62-3.13-8.72 2.43-2.14-2.46 8.78-2.43-2.62-3.13" class="cls-27"/><path d="M162.79 531.91l-5.04-2.96-.24 1.72 5.04 2.96.24-1.72M169.37 535.78l-5.04-2.97-.24 1.73 5.04 2.96.24-1.72M162.43 534.5l-5.04-2.97-.24 1.73 5.04 2.96.24-1.72M172.3 540.3l-8.33-4.9-.25 1.73 8.34 4.89.24-1.72M162.03 537.37l-5.05-2.96-.24 1.72 5.05 2.97.24-1.73M171.9 543.18l-8.34-4.9-.24 1.72 8.33 4.9.25-1.72M161.63 540.25l-5.05-2.97-.24 1.73 5.04 2.96.25-1.72M166.67 543.21l-3.51-2.06-.24 1.73 3.51 2.06.24-1.73" class="cls-39"/><path d="M176.04 559.31l-52.4-30.81-.65 4.6 52.41 30.81.64-4.6" class="cls-6"/><path d="M125.45 539.21l.24-1.73 2.86 1.68-.25 1.73-2.85-1.68m6.44-.26l-9-5.28-.84 6 9 5.28.85-6M135.65 545.2l.24-1.72 10.4 6.11-.25 1.73-10.39-6.12m21.93 8.85l-25.08-14.74-.85 6 25.08 14.74.85-6M159.91 559.47l.24-1.73 2.86 1.68-.24 1.73-2.86-1.68m5.42-.86l-7.14-4.2-.84 6 7.13 4.2.85-6M167.25 563.79l.24-1.73 5.51 3.24-.24 1.72-5.51-3.23m8.07.7l-9.38-5.49-.84 6 9.38 5.51.84-6" class="cls-39"/><path d="M128.54 539.16l-2.85-1.68-.24 1.73 2.85 1.68.24-1.73M146.28 549.59l-10.39-6.11-.24 1.72 10.39 6.12.24-1.73M163.01 559.42l-2.86-1.67-.24 1.72 2.85 1.68.25-1.73M173 565.3l-5.5-3.24-.25 1.73 5.51 3.23.24-1.72" class="cls-40"/><path d="M124.48 546.11l.24-1.73 2.86 1.68-.24 1.73-2.86-1.68m6.44-.26l-9-5.28-.85 6 9 5.28.85-6M134.68 552.11l.24-1.73 10.4 6.11-.24 1.73-10.4-6.11m21.93 8.89l-25.08-14.74-.84 6L155.77 567l.84-6M159 566.37l.24-1.72 2.85 1.68-.24 1.72-2.85-1.68m5.41-.86l-7.13-4.2-.85 6 7.14 4.2.84-6M166.29 570.69l.24-1.73 5.5 3.24-.24 1.73-5.5-3.24m8.07.7l-9.36-5.52-.85 6 9.38 5.52.85-6" class="cls-39"/><path d="M127.58 546.06l-2.86-1.68-.24 1.73 2.86 1.68.24-1.73M145.32 556.49l-10.4-6.11-.24 1.73 10.4 6.11.24-1.73M162.04 566.33l-2.85-1.68-.24 1.72 2.85 1.68.24-1.72M172.03 572.2l-5.5-3.24-.24 1.73 5.5 3.24.24-1.73" class="cls-40"/><path d="M123.52 553l.24-1.72 2.85 1.68-.24 1.72-2.85-1.68m6.43-.26l-9-5.28-.84 6 9 5.28.84-6M133.71 559l.25-1.73 10.39 6.12-.24 1.72-10.4-6.11m21.94 8.85l-25.08-14.75-.85 6 25.08 14.8.85-6M158 573.27l.24-1.72 2.86 1.68-.25 1.72-2.85-1.68m5.42-.86l-7.14-4.19-.85 6 7.14 4.2.85-6M165.32 577.59l.24-1.72 5.51 3.23-.24 1.73-5.51-3.24m8.07.7l-9.39-5.52-.85 6 9.38 5.52.85-6" class="cls-39"/><path d="M126.61 552.97l-2.85-1.68-.24 1.72 2.85 1.68.24-1.72M144.35 563.4l-10.39-6.12-.25 1.73 10.4 6.11.24-1.72M161.07 573.23l-2.85-1.68-.24 1.72 2.85 1.68.24-1.72M171.07 579.1l-5.51-3.23-.24 1.72 5.51 3.24.24-1.73" class="cls-40"/><path d="M122.55 559.91l.24-1.72 2.86 1.68-.24 1.72-2.86-1.68m6.44-.26l-9-5.27-.84 6 9 5.28.85-6M132.75 565.91l.24-1.73 10.4 6.12-.24 1.72-10.4-6.11m21.93 8.85L129.6 560l-.84 6 25.08 14.75.84-6M157 580.18l.25-1.73 2.85 1.68-.24 1.72-2.86-1.67m5.42-.86l-7.14-4.2-.84 6 7.14 4.19.84-6M164.36 584.49l.24-1.72 5.5 3.23-.24 1.73-5.5-3.24m8.06.7l-9.42-5.51-.84 6 9.38 5.52.84-6" class="cls-39"/><path d="M125.65 559.87l-2.86-1.68-.24 1.72 2.86 1.68.24-1.72M143.39 570.3l-10.4-6.12-.24 1.73 10.4 6.11.24-1.72M160.11 580.13l-2.85-1.68-.25 1.73 2.86 1.67.24-1.72M170.1 586l-5.5-3.23-.24 1.72 5.5 3.24.24-1.73" class="cls-40"/><path d="M142 523.76a.89.89 0 00-.32-.4l-8.87-5.77c-.25-.17-.5-.12-.57.1a.73.73 0 00.35.7l8.27 5.38-2.64 3.56-7.22-4.43.09-7.19a.71.71 0 00-.22-.48l-2-2.07c-.22-.23-.51-.28-.65-.13a.54.54 0 00.14.69l1.77 1.84-.08 7.31a.75.75 0 00.38.61l.22.14-.78 1a.31.31 0 000 .34.71.71 0 00.28.34l.35.21a.79.79 0 00-.53.61 2.21 2.21 0 001.11 2.08c.77.46 1.51.29 1.66-.4a1.65 1.65 0 00-.17-1l3 1.84a.78.78 0 00-.53.61 2.21 2.21 0 001.11 2.08c.77.46 1.51.29 1.66-.4a1.65 1.65 0 00-.17-1l.43.27c.21.13.42.08.46-.11a.62.62 0 00-.31-.58l-7.39-4.49.64-.77 7 4.23c.2.13.4.12.5 0l3.1-4.17a.43.43 0 00-.07-.55zm-10.86 3.7a1 1 0 01-.49-.92c.07-.31.4-.38.74-.18a1 1 0 01.49.93c-.03.3-.36.38-.71.17zm5.09 3.09a1 1 0 01-.49-.92c.06-.31.39-.38.73-.18a1 1 0 01.5.93c-.04.3-.37.38-.71.17zM201.23 334.51a.84.84 0 00-.49.1l-9.17 5.28c-.27.15-.34.4-.17.56a.73.73 0 00.78 0l8.55-4.92 2 4-7.29 4.47-6.37-3.33a.68.68 0 00-.53 0l-2.74.84c-.3.09-.49.32-.41.52s.38.28.68.19l2.44-.75 6.47 3.4a.81.81 0 00.72-.06l.23-.14.48 1.13a.34.34 0 00.3.17.67.67 0 00.43-.1l.35-.22a.81.81 0 00.3.76 2.21 2.21 0 002.36-.05c.76-.47.94-1.22.4-1.66a1.62 1.62 0 00-1-.32l3-1.86a.78.78 0 00.29.76 2.19 2.19 0 002.36-.06c.76-.47.94-1.21.4-1.65a1.62 1.62 0 00-1-.32l.43-.26c.21-.13.26-.34.11-.46a.59.59 0 00-.65 0l-7.35 4.47-.4-.93 6.94-4.29c.2-.12.29-.31.22-.45l-2.32-4.67a.41.41 0 00-.35-.15zm-1.63 11.35a1 1 0 01-1 0c-.24-.19-.16-.52.18-.73a1 1 0 011 0c.22.19.16.52-.18.73zm5.07-3.13a1 1 0 01-1 0c-.24-.19-.16-.52.18-.73a1 1 0 011 0c.24.19.15.52-.18.73zM508.17 613.9a.87.87 0 00-.5.1l-9.17 5.28c-.26.15-.34.4-.17.55a.71.71 0 00.78 0l8.55-4.92 2 4-7.26 4.49-6.4-3.4a.68.68 0 00-.53 0l-2.75.84c-.3.09-.48.32-.41.52a.54.54 0 00.68.18l2.44-.74 6.48 3.4a.81.81 0 00.72-.06l.22-.14.49 1.13a.33.33 0 00.29.17.64.64 0 00.43-.1l.36-.22a.78.78 0 00.29.76 2.21 2.21 0 002.36 0c.76-.48.94-1.22.41-1.66a1.65 1.65 0 00-1-.32l3-1.86a.79.79 0 00.3.76 2.19 2.19 0 002.36-.06c.76-.47.94-1.21.4-1.65a1.62 1.62 0 00-1-.32l.43-.26c.22-.14.27-.34.12-.46a.61.61 0 00-.66 0l-7.35 4.55-.4-.93 6.94-4.29a.37.37 0 00.21-.46l-2.32-4.66a.4.4 0 00-.34-.22zm-1.63 11.35a1 1 0 01-1.05 0c-.24-.19-.16-.52.18-.73a1 1 0 011.05 0c.28.19.16.48-.18.73zm5.06-3.13a1 1 0 01-1.05 0c-.23-.19-.15-.52.18-.73a1 1 0 011 0c.27.19.21.52-.13.73z" class="cls-30"/></g></g></svg>