<?xml version="1.0" encoding="utf-8"?><svg xmlns="http://www.w3.org/2000/svg" xmlns:xlink="http://www.w3.org/1999/xlink" viewBox="0 0 677.32 748.59"><defs><linearGradient id="linear-gradient" x1="166.36" x2="468.37" y1="598.01" y2="598.01" gradientUnits="userSpaceOnUse"><stop offset="0" stop-color="#3cb4e5"/><stop offset="1" stop-color="#425cc7"/></linearGradient><linearGradient id="linear-gradient-2" x1="480.06" x2="648.92" y1="441.98" y2="441.98" xlink:href="#linear-gradient"/><linearGradient id="linear-gradient-3" x1="6.2" x2="175.06" y1="719.68" y2="719.68" xlink:href="#linear-gradient"/><linearGradient id="linear-gradient-5" x1="468.31" x2="468.37" y1="555.56" y2="555.56" xlink:href="#linear-gradient"/><linearGradient id="linear-gradient-6" x1="-584.28" x2="276.34" y1="731.99" y2="615.99" gradientUnits="userSpaceOnUse"><stop offset="0" stop-color="#a1b7ff"/><stop offset=".9" stop-color="#46b4e8"/><stop offset="1" stop-color="#3cb4e5"/></linearGradient><linearGradient id="linear-gradient-7" x1="-72.03" x2="336.29" y1="585.52" y2="601.89" xlink:href="#linear-gradient-6"/><linearGradient id="linear-gradient-9" x1="648.89" x2="648.92" y1="418.25" y2="418.25" xlink:href="#linear-gradient"/><linearGradient id="linear-gradient-10" x1="60.36" x2="541.55" y1="516.89" y2="452.04" xlink:href="#linear-gradient-6"/><linearGradient id="linear-gradient-11" x1="346.77" x2="575.07" y1="435" y2="444.15" xlink:href="#linear-gradient-6"/><linearGradient id="linear-gradient-13" x1="175.03" x2="175.06" y1="695.95" y2="695.95" xlink:href="#linear-gradient"/><linearGradient id="linear-gradient-14" x1="-413.5" x2="67.69" y1="794.59" y2="729.74" xlink:href="#linear-gradient-6"/><linearGradient id="linear-gradient-15" x1="-127.09" x2="101.21" y1="712.7" y2="721.85" xlink:href="#linear-gradient-6"/><clipPath id="clip-path"><path d="M468.37 547.69v14.42c-.06 22.24-14.69 44.45-43.89 61.42-58.77 34.16-154.36 34.18-213.51 0-29.77-17.19-44.64-39.75-44.57-62.28v-14.42c-.07 22.53 14.8 45.09 44.57 62.28 59.15 34.15 154.74 34.13 213.51 0 29.2-16.97 43.83-39.18 43.89-61.42z" class="cls-1"/></clipPath><clipPath id="clip-path-2"><path d="M50.83 330.05l.04-14.74 68.24 39.4-.05 14.74-68.23-39.4z" class="cls-2"/></clipPath><clipPath id="clip-path-3"><path d="M648.92 413.84v8.07c0 12.44-8.21 24.85-24.54 34.34-32.86 19.1-86.31 19.11-119.38 0-16.64-9.61-25-22.23-24.92-34.83v-8.06c0 12.6 8.28 25.21 24.92 34.82 33.08 19.1 86.52 19.09 119.38 0 16.33-9.48 24.51-21.9 24.54-34.34z" class="cls-3"/></clipPath><clipPath id="clip-path-4"><path d="M537.19 58.08l.05-14.74 69.8 40.31-.04 14.74-69.81-40.31z" class="cls-2"/></clipPath><clipPath id="clip-path-5"><path d="M175.06 691.55v8.06c0 12.44-8.21 24.86-24.54 34.34-32.86 19.1-86.31 19.11-119.38 0-16.65-9.61-25-22.23-24.92-34.82v-8.07c0 12.6 8.28 25.21 24.92 34.82 33.07 19.1 86.52 19.09 119.38 0 16.33-9.48 24.48-21.88 24.54-34.33z" class="cls-4"/></clipPath><style>.cls-1{fill:url(#linear-gradient)}.cls-2{fill:none}.cls-3{fill:url(#linear-gradient-2)}.cls-4{fill:url(#linear-gradient-3)}.cls-7{fill:#4d5fab}.cls-40,.cls-6{fill:#fff}.cls-8{fill:#215eac}.cls-9{fill:#40b4e2}.cls-10{fill:#16a0db}.cls-13,.cls-21{opacity:.2}.cls-14,.cls-21{fill:#425cc7}.cls-15{isolation:isolate}.cls-20{fill:#d7eff9}.cls-22{fill:#005cb9}.cls-23{fill:#1d85db}.cls-25{fill:#3cb4e5}.cls-26{fill:#4cc7ed}.cls-27{fill:#046fa5}.cls-29{fill:#b7e0ed}.cls-30{fill:#91bd4c}.cls-31{fill:#7ac2d3}.cls-32{fill:#60b7c6}.cls-33{fill:#95e6f9}.cls-35{fill:#e8a89a}.cls-40{opacity:.42}.cls-42{fill:#025c99}.cls-44{fill:#95e4fc}.cls-46{fill:#d38f84}.cls-47{fill:#fccabe}.cls-64{fill:#e9f6ff}.cls-65{fill:#a1cbe2}.cls-66{fill:#79b2cc}.cls-67{fill:#8ac2d6}.cls-68{fill:#4fc3f7}</style></defs><g id="Layer_2" data-name="Layer 2"><g id="Layer_1-2" data-name="Layer 1"><path fill="#4d5fab" d="M.17 402.55l-.13 31c.2 38.84 17.72 76 50.25 108.32l.14-31C17.89 478.61.37 441.4.17 402.55z" opacity=".35"/><path d="M147.6 248.29l4.08-2.36.15-.09a11.69 11.69 0 013.75-1.45 3.43 3.43 0 012.75.56 5 5 0 011.58 2.79 19.2 19.2 0 01.51 4.93 27.07 27.07 0 01-.47 5.48 17.11 17.11 0 01-1.57 4.59 16.56 16.56 0 01-6.62 6.64l-4.08 2.35-.28.17a11.85 11.85 0 01-3.65 1.43 3.51 3.51 0 01-2.77-.52 4.88 4.88 0 01-1.56-2.75 19.2 19.2 0 01-.51-4.93A22.09 22.09 0 01141 255a15.65 15.65 0 012.74-3.73 19.38 19.38 0 013.75-2.88l.16-.08m-.43-4.63a25.84 25.84 0 00-5.19 4 24.09 24.09 0 00-4.06 5.41 29.4 29.4 0 00-3.31 14.52c0 5.66 1.14 9.19 3.38 10.56a5.72 5.72 0 004.07.68 16.51 16.51 0 005.33-2l.29-.17 4.08-2.35.28-.17a26.86 26.86 0 005.33-4.11 24.35 24.35 0 004-5.36 24.84 24.84 0 002.48-6.56 33.85 33.85 0 00.82-7.86 23.24 23.24 0 00-.86-6.94 6.77 6.77 0 00-2.51-3.73c-2.24-1.43-5.46-.93-9.69 1.51l-4.08 2.36-.41.23m-43.29 25a23.78 23.78 0 00-4.6 3.52 22.58 22.58 0 00-1.81 2.06 17.87 17.87 0 00-2.47 4.33 16 16 0 00-.74 2.32 21.18 21.18 0 00-.55 4.94l.06 21.89 4.23-2.45v-13.59l18-10.4v-4.57l-18 10.4v-3.81a10 10 0 010-1.34 8.89 8.89 0 01.23-1.3 9.46 9.46 0 011.12-2.7 11.06 11.06 0 01.93-1.34 15.32 15.32 0 011.16-1.25 16.11 16.11 0 013-2.22l.16-.09 11.54-6.66v-4.88l-11.9 6.87-.3.17M127.5 255l-4.24 2.45.09 33.24 4.25-2.45-.1-33.24" class="cls-6"/><path d="M54.7 312.6l.06 20c0 1.12.52 1.88 1.34 2l10.07.53a.94.94 0 00.52-.13 2 2 0 00.81-1.79l-.06-20.45-12.27-.1-.47-.09" class="cls-7"/><path d="M76.35 268.05a1.45 1.45 0 00-.41.36l-18.6 21.74c-2.06 2.41-2.54 2.88-2.66 4.25a1.52 1.52 0 01.66-1.12.81.81 0 01.42-.12l14 .16 6.2-7.24a5.06 5.06 0 001.09-2.89v-14.46c0-.69-.29-.92-.69-.68" class="cls-8"/><path d="M69.79 293.32l-14 16.35a1.62 1.62 0 01-.39.34.54.54 0 01-.27.09.39.39 0 01-.39-.32 1.27 1.27 0 001.05 1.06l20.25.25a.8.8 0 00.4-.11 1.71 1.71 0 00.7-1.5v-14.46c0-.91-.44-1.51-1.11-1.63l-6.22-.07" class="cls-9"/><path d="M55.34 293.28a1.52 1.52 0 00-.66 1.12v14.9l.07.48a.39.39 0 00.39.32.54.54 0 00.27-.09 1.62 1.62 0 00.39-.34l14-16.35-14-.16a.81.81 0 00-.42.12" class="cls-10"/><g opacity=".61"><path d="M170.21 233.89v31c110.29-38.27 248.82-35.61 355.66 8l.13-31c-106.88-43.66-245.48-46.31-355.79-8zM.13 412.43l-.13 31c.1-35.91 15.41-71.77 46-103.66v-30.9C15.5 340.76.22 376.58.13 412.43zM593.58 278.1l-.13 31c55.7 39 83.53 87.7 83.4 136.37l.13-31c.13-48.67-27.7-97.4-83.4-136.37z" class="cls-7"/></g><path d="M54.73 543.41h578.81v12.9H54.73z" class="cls-7" opacity=".5" transform="rotate(-30.1 344.063 549.792)"/><g class="cls-13"><path d="M449.17 502.15c59.15 34.15 59.43 89.52.66 123.68s-154.36 34.17-213.52 0-59.46-89.54-.69-123.7S390 468 449.17 502.15z" class="cls-14"/></g><g class="cls-15"><g class="cls-15"><path d="M468.37 547.69v14.42c-.06 22.24-14.69 44.45-43.89 61.42-58.77 34.16-154.36 34.18-213.51 0-29.77-17.19-44.64-39.75-44.57-62.28v-14.42c-.07 22.53 14.8 45.09 44.57 62.28 59.15 34.15 154.74 34.13 213.51 0 29.2-16.97 43.83-39.18 43.89-61.42z" class="cls-1"/><g class="cls-15" clip-path="url(#clip-path)"><path fill="url(#linear-gradient-5)" d="M468.37 547.69v15.74-14.42-1.32"/><path fill="url(#linear-gradient-6)" d="M467.36 557.67a54.28 54.28 0 01-2.44 8.51 61.49 61.49 0 01-4 8.58 71.44 71.44 0 01-6.08 9 88.22 88.22 0 01-9.37 10.07A116.52 116.52 0 01426.32 608c-.6.37-1.22.73-1.84 1.09a170.38 170.38 0 01-33.1 14.56 219.6 219.6 0 01-28.59 7.12q-9.51 1.71-19.27 2.68-8.32.82-16.75 1.12v14.42q8.41-.28 16.75-1.12 9.75-1 19.26-2.68a219.34 219.34 0 0028.6-7.12 170.65 170.65 0 0033.1-14.56l1.84-1.08a117.12 117.12 0 0019.13-14.17 87.39 87.39 0 009.37-10.07 71.8 71.8 0 006.08-9 62.11 62.11 0 004-8.58 54.17 54.17 0 002.44-8.5 51 51 0 001-8.67v-14.42a50.73 50.73 0 01-.98 8.65z"/><path fill="url(#linear-gradient-7)" d="M311.31 634.66q-7.46-.2-14.87-.8c-4.92-.4-9.82-1-14.67-1.64q-7.57-1.07-15-2.6-8-1.67-15.74-3.86c-6.29-1.79-12.42-3.86-18.32-6.19A163.12 163.12 0 01211 609.14c-29.8-17.14-44.67-39.75-44.6-62.28v14.42c-.07 22.53 14.8 45.09 44.57 62.28A164.4 164.4 0 00232.7 634c5.9 2.33 12 4.39 18.32 6.18q7.72 2.21 15.74 3.86 7.39 1.53 15 2.6c4.85.69 9.75 1.24 14.67 1.64s9.9.68 14.87.8q7.73.2 15.46-.07v-14.42c-5.13.17-10.3.2-15.45.07z"/></g></g><path d="M423.82 485.44c-59.15-34.15-154.78-34.15-213.55 0s-58.46 89.54.7 123.7 154.74 34.13 213.51 0 58.52-89.55-.66-123.7z" class="cls-20"/></g><ellipse cx="317.36" cy="542.98" class="cls-21" rx="72.19" ry="38.97"/><circle cx="317.38" cy="378.38" r="152.02" class="cls-22"/><ellipse cx="311.78" cy="369.06" class="cls-23" rx="143.88" ry="139.96"/><ellipse cx="300.94" cy="359.24" fill="#00a0df" rx="124.61" ry="121.22"/><ellipse cx="282.33" cy="331.86" class="cls-25" rx="101.04" ry="84.18" transform="rotate(-21.19 282.259 331.804)"/><ellipse cx="271.57" cy="304.11" class="cls-26" rx="58.15" ry="48.44" transform="rotate(-23.98 271.527 304.087)"/><path d="M435.21 282.33zM437.83 285.64c.6.78 1.19 1.55 1.78 2.34-.61-.79-1.18-1.56-1.78-2.34zM419 265.3c.81.72 1.61 1.46 2.4 2.2-.82-.74-1.62-1.5-2.4-2.2zM442.51 292c.49.72 1 1.43 1.46 2.16-.48-.69-.97-1.4-1.46-2.16zM424.52 270.54A152.84 152.84 0 01435 282c-3.33-4-6.82-7.82-10.48-11.46zM421.78 267.89zM440.24 288.84l1.59 2.22zM454.16 312c.4.82.79 1.65 1.17 2.48-.33-.86-.77-1.69-1.17-2.48zM452.44 308.54zM455.8 315.44zM450.63 305.16c.4.73.8 1.47 1.19 2.21-.39-.74-.82-1.48-1.19-2.21zM446.75 298.53c.44.7.87 1.41 1.3 2.12-.43-.71-.86-1.42-1.3-2.12zM448.74 301.82L450 304zM444.68 295.27c.46.7.92 1.41 1.37 2.12-.45-.71-.91-1.39-1.37-2.12zM416.09 262.77zM397 248.87c1 .64 2.06 1.29 3.08 1.95-1-.66-2.03-1.31-3.08-1.95zM400.48 251.07zM403.79 253.3c.88.61 1.75 1.23 2.62 1.85-.87-.62-1.74-1.24-2.62-1.85zM407 255.58q1.26.91 2.49 1.86-1.24-.94-2.49-1.86zM413.13 260.31c.8.65 1.59 1.3 2.37 2-.79-.7-1.57-1.31-2.37-2zM410.1 257.91c.81.63 1.62 1.26 2.41 1.9-.79-.64-1.6-1.27-2.41-1.9z" class="cls-27"/><path fill="#3090c9" d="M223.6 264.24c-.61.47-1.23.92-1.82 1.4a9.51 9.51 0 001.79-1.3z"/><path d="M362.74 287a2.21 2.21 0 01.95 2.45 10.92 10.92 0 003.32.31 6.25 6.25 0 00-.17 4.82 4.1 4.1 0 01.34 1.06c.12 1.2-1.12 2.47-.46 3.47a1.61 1.61 0 002 .35 9.22 9.22 0 001.73-1.34c1.34-1.08 3.79-1.77 4.1-3.69s-.68-3-2.3-3.64c-1.29-.48-1.84-1.94-2.54-3.12a18 18 0 00-2.91-3.44c-1-1-2.27-2.08-3.64-1.76a3.57 3.57 0 00.69-1.51 1.21 1.21 0 00-.76-1.34c-.75-.19-1.38.64-1.55 1.4a4.93 4.93 0 01-.62 2.21c-.28.34-.7.58-.81 1a1.24 1.24 0 00.36 1.09 14.12 14.12 0 002.27 1.68z" class="cls-20"/><path d="M336.07 253.46a8.35 8.35 0 002.27-1.83 1.76 1.76 0 00.56-1.72c-.33-.8-1.48-.79-2.31-.52s-1.76.68-2.5.22c-.39-.25-.63-.69-1-.94-1-.66-2.26.19-3.44.25a8.15 8.15 0 01-1.47-.15 9.16 9.16 0 00-4.38.64 93.4 93.4 0 0113.48 5.1 5.46 5.46 0 00-1.21-1.05z" class="cls-29"/><path d="M312.9 252.71a2.36 2.36 0 011.79 1.58l-3.73-.21a2.36 2.36 0 00-2 .54 1.51 1.51 0 00.08 1.77 3.4 3.4 0 001.57 1 9.68 9.68 0 004.52.59l-.94 7.79v.41a41.38 41.38 0 019.47 12 88.49 88.49 0 006.76-7.72 5 5 0 013.08-2.33 14.92 14.92 0 004.78-2.56 1.94 1.94 0 00.62-.69 2.09 2.09 0 00-.22-1.57 3.72 3.72 0 00-1.86-2.26l.6-1.68h1.07a5.63 5.63 0 00-1.19-5 93.4 93.4 0 00-13.48-5.1c-2.68 1-5.29 2.63-8.13 3a15 15 0 00-2.79.44z" class="cls-20"/><path d="M314.16 266.22a1.39 1.39 0 00.39 1.21c.25.21.62.26.81.52.38.49-.14 1.14-.53 1.62a5.74 5.74 0 00-1 4.42 13.78 13.78 0 001.64 4.34c.78 1.45 1.9 3 3.54 3.09 1.32.05 2.43-.92 3.37-1.84.43-.43.83-.89 1.26-1.33a41.38 41.38 0 00-9.48-12.03zM304.53 267.74c-.84-.78 0-2.31-.55-3.29a3.1 3.1 0 00-.71-.69 12.56 12.56 0 01-2.83-4c-.47.89-1.28 1.92-2.24 1.63a1.45 1.45 0 00.7-1.28 4.1 4.1 0 00-3.2 1.07c-.53-.27.25-1 .17-1.62a.74.74 0 00-.81-.54 2 2 0 00-1 .45 18.53 18.53 0 00-2.39 2A1.7 1.7 0 00291 263a1.82 1.82 0 00.84 1 8.41 8.41 0 002.41 1.3 2.81 2.81 0 002.59-.45c.45 0 .67.56.58 1s-.31.9-.15 1.32.37.5.52.77c.61 1.17-1.88 3.34-2.79 3.85-.51.29-5.57.37-5.56.88 0 .91 1.2 1.19 2.09 1.39a6.27 6.27 0 013.49 2.24 12.68 12.68 0 001.13 1.49 1.85 1.85 0 001.68.6 1 1 0 00.72-1.43c.85.06 1.42 1.17 2.26 1.06s1-1 .92-1.7a7.77 7.77 0 01-.31-2.12 3.07 3.07 0 011.66-2 8 8 0 002.18-1.52 1.76 1.76 0 000-2.4c-.2-.28-.51-.34-.73-.54z" class="cls-6"/><path d="M227.16 260.93a4.51 4.51 0 00-3.56 3.31c1.5-1.16 3-2.29 4.6-3.38a6 6 0 00-1.04.07z" class="cls-30"/><path d="M215.36 266.7c-.29.26.22.65.61.7a27.86 27.86 0 012.92.66c1-.82 1.91-1.64 2.89-2.42a9.69 9.69 0 01-6.42 1.06z" class="cls-31"/><path d="M220.41 268.74a.77.77 0 00.45.1h3c.36-.26.7-.53 1.06-.8a.78.78 0 010-.21 1 1 0 01.87-.95 1.74 1.74 0 01.72.08A120 120 0 01251 253.74c-4.88.17-9.72.85-13.86 3.31-2.45 1.45-4.71 3.53-7.55 3.77h-1.4c-1.56 1.09-3.1 2.22-4.6 3.38v.1a9.51 9.51 0 01-1.79 1.3c-1 .78-1.93 1.6-2.89 2.42a14.62 14.62 0 001.44.28.28.28 0 00.06.44z" class="cls-29"/><path d="M228.41 267.76c.73.1 1.56-.25 2.17.15a2.15 2.15 0 01.52.6c.5.76.85 1.57 1.31 2.36a15.33 15.33 0 01-6.42 6.24c-.42.21-.89.46-1 .91s.31 1.1.21 1.65a1.72 1.72 0 01-.63.88c-2.1 1.92-4.4 3.9-6.5 5.82-.06-.48-.7-.69-1.14-.5a2.47 2.47 0 00-1 1c-4.16 6.32-7.63 12.85-13.59 17.51a31.41 31.41 0 00-9.29 13 94.82 94.82 0 00-4.4 15.53c-1.12 5.05-2.24 10.17-1.89 15.32 0 .72.4 1.67 1.11 1.56q2.3-10.56 4.58-21.11c.14-.65.88-1.47 1.27-.92a.84.84 0 01.1.5c0 3-1.53 5.67-2.21 8.54a31.13 31.13 0 00-.27 9.64q.65 8.39 1.41 16.75a14 14 0 00.61 3.48 12.53 12.53 0 002.23 3.57 50.57 50.57 0 0010 9.34c2.87 2 6 3.78 8.29 6.43a15.31 15.31 0 013.49 12.08 2.49 2.49 0 000 1c.27 1.14 1.84 1.24 3 1.08-.85.7 0 2.25 1 2.37a3.4 3.4 0 002.77-1.52 44.69 44.69 0 01-4.8-14.51c-.38-2.52-.75-5.44-2.91-6.79a11.65 11.65 0 01-1.71-1 4 4 0 01-.83-3.78 10.64 10.64 0 012.27-4.82 12.18 12.18 0 001.78-2.28 2.36 2.36 0 00-.27-2.7c-1.1-1-2.91-.09-3.88 1.06s-1.84 2.64-3.33 2.88c-1.85.3-3.29-1.52-4.28-3.11l-2.61-4.19a4 4 0 01-.65-1.41 4.14 4.14 0 01.91-2.88A109.46 109.46 0 01218.56 339c1.56.63 1.43 3.22 3 3.93 1.8.84 3.72-1.78 5.64-1.25a3.48 3.48 0 011.93 2.09 23.2 23.2 0 012.12 11.46c1.06 0 1.83-.18 2.88-.21a19.23 19.23 0 012-7.91 42.29 42.29 0 01-17.61-19.35c-10.87-24.45 4.1-54.85 33.45-67.9 1.5-.66 3-1.26 4.52-1.81a1.77 1.77 0 01-.08-.69 9.3 9.3 0 01.35-1.25 3.35 3.35 0 00-.23-2.39h-5.44A120 120 0 00226.44 267a4.11 4.11 0 01.65.28 4.07 4.07 0 001.32.48z" class="cls-20"/><path d="M224.92 268.29a.77.77 0 000-.26c-.36.27-.7.54-1.06.8.45 0 1.02-.11 1.06-.54z" class="cls-30"/><path d="M241.07 340.69c2.32-1.91 5.07-3.25 7.42-5.15s4.34-4.58 4.28-7.6c0-.77.08-1.85.85-1.87.11 1.24.22 2.48.32 3.72a24.26 24.26 0 0112.64-9.39c1.25-.39 2.71-.83 3.19-2a2.06 2.06 0 01-.83-1.43l6.89-3.74c1.16-.63 3-1.05 3.49.19-.77 1.16-2.64 2.05-2.06 3.3s2.18.61 3.21-.05l6.26-4a7.13 7.13 0 002.39-2.1 2.41 2.41 0 00-.19-3c-1.26-.06-2.12 1.76-3.35 1.48a2.14 2.14 0 01-.95-.6l-2.33-2.13c1.81-.07 3.45-1 5.13-1.67 3.23-1.3 6.82-1.78 9.75-3.66s4.94-6 3-8.86c-.94-1.38-2.71-2.5-2.47-4.15a3.94 3.94 0 011.45-2.14 3.76 3.76 0 001.43-2.16c.1-.87-.76-1.86-1.57-1.51-.41.17-.64.59-.91.95a4.07 4.07 0 01-5.55.78 5.7 5.7 0 00-.48-6.9 3 3 0 00-1.1-.81 3.32 3.32 0 00-2.81.5c-4 2.42-5.42 8.16-9.74 10.05-3.05 1.34-6.73-.4-9.63-2-1.34-.75-2.72-2.33-1.88-3.61a3 3 0 01.92-.81l11.27-7.46c1.26-.84 2.69-1.71 4.18-1.45-.34.56-.89 1-1.29 1.49a1.54 1.54 0 00-.19 1.81 2 2 0 001.68.47l3.86-.14a5.3 5.3 0 013.14-6.52 3.79 3.79 0 001.43-.64c.39-.35.49-1.08 0-1.35a1.21 1.21 0 00-.82-.08l-3.74.52c-.73-1.41.17-3.17 1.42-4.15s2.81-1.47 4.11-2.37c-.9-.87-2.37-.57-3.58-.22-1.58.47-3.36 1.12-4 2.65-.17.41-.23.87-.39 1.29-.53 1.43-2 2.22-3.39 2.88-.31-.39 0-1 .38-1.3s.86-.61 1-1.09c.27-1-1.19-1.56-2.26-1.61.55 1-.53 2.15-1.54 2.72-.84.47-2 .85-2.71.23a6.87 6.87 0 01-.75-1 2.33 2.33 0 00-3.58.1c-.38.54-1 1.35-1.44.91.74-.26.4-1.48-.31-1.82s-1.58-.26-2.25-.67a7.42 7.42 0 01-1.42-1.53c-2.2-2.32-6.39-.63-9.07-2.36a2.89 2.89 0 01-1.21-1.55c-1.52.55-3 1.15-4.52 1.81-29.35 13.05-44.32 43.45-33.45 67.9a42.29 42.29 0 0017.61 19.35 19.32 19.32 0 015.06-6.45z" class="cls-6"/><path d="M280.31 518.33c4.28 3.23 10 5.75 14.88 3.45a24.4 24.4 0 01-13.43-13.28 4.56 4.56 0 004.34-1.71 145.26 145.26 0 01-21.43-5.45c4.59 6.26 9.47 12.34 15.64 16.99z" class="cls-32"/><path d="M242.25 467.29a6.31 6.31 0 001.88-.17c-1.59-.8-3.16-1.62-4.7-2.48.57 1.36 1.37 2.48 2.82 2.65zM285.05 500.5c3.31.28 7.51.05 8.77-3a11.74 11.74 0 00.45-3.7c.33-5.06 3.67-9.11 6.74-13.31h-.07a127.36 127.36 0 01-48.08-9.36q.46.45.9.9a4 4 0 011.24 2 4.44 4.44 0 01-.34 2c-2.24 7.43 2.52 15 7 21.3 1 1.37 2 2.73 3 4.09a145.26 145.26 0 0021.43 5.45 4.17 4.17 0 00.58-1 4.56 4.56 0 00-1.62-5.37z" class="cls-31"/><path d="M301 480.46c2.06-2.83 4-5.73 4.82-9 1.18-4.78-.14-9.84.62-14.7s3.59-10 1.66-14.52c-2.79-6.58-13.48-7.13-15.59-14a26 26 0 00-6.19 3.32c-1-3.35-2.87-6.67-3.86-10a27.24 27.24 0 00-1.29-3.65c-19 1.85-37.38-1.14-53-8.29a18.37 18.37 0 01-1.5 5.12c-.8 1.74-1.89 3.39-2.21 5.27-.48 2.75.71 5.46 1.2 8.2 1 5.62-1 11.67 1.14 17 2.41 6 9.45 9.26 11.35 15.41.4 1.28.71 2.81 1.24 4.08 1.54.86 3.11 1.68 4.7 2.48l.51-.08c3.15-.38 5.9 1.77 8.22 4.06a127.36 127.36 0 0048.08 9.36z" class="cls-29"/><path d="M276.56 412.78l-5.56-4.14a5 5 0 01-.42 3.56c-.71 1-2.6 1.11-3-.06-.45-1.46-1.71-3.18-2.17-4.65-.79-2.51-1.68-5.18-3.76-6.79-2.43-1.88-5.82-1.82-8.66-3-3.05-1.28-6-4.09-9.14-3.09 1.07 1.26.41 3.41-1 4.2a4.54 4.54 0 01-4.66-.55c-1.12-.81-1.95-2.54-1-3.51.59-.59 1.66-.65 2.06-1.39a1.53 1.53 0 00-.75-1.93 4.29 4.29 0 00-2.25-.36h-2.14a1.19 1.19 0 00-.77.2 1.18 1.18 0 00-.27.69c-.48 3-.6 5.47-1.08 8.48l-4.66.55a18.59 18.59 0 01.81 8.6c15.59 7.15 34 10.14 53 8.29a10.29 10.29 0 00-1.13-2 17.17 17.17 0 00-3.45-3.1z" class="cls-20"/><path d="M418.44 264.83l.53.47zM403.28 253l.51.35zM421.37 267.5l.41.39zM409.48 257.44l.62.47zM396.86 248.78l.16.09zM400.1 250.82l.38.25zM415.5 262.27l.59.5zM406.41 255.15l.58.43zM424.34 270.36l.18.18zM412.51 259.81l.62.5zM448.05 300.65l.69 1.17zM453.6 310.85c.19.37.38.74.56 1.12-.16-.38-.37-.75-.56-1.12zM444 294.2c.24.35.48.71.71 1.07-.26-.36-.5-.72-.71-1.07zM446.05 297.39l.7 1.14zM450 304l.66 1.18zM455.33 314.45zM457 318.26c.1.23.21.46.31.7-.06-.24-.17-.47-.31-.7zM451.82 307.37c.21.39.42.78.62 1.17-.2-.39-.44-.78-.62-1.17zM441.83 291.06zM437.31 285c.18.22.35.45.52.68a3.9 3.9 0 00-.52-.68zM435 282l.26.33zM439.61 288l.63.86z" class="cls-30"/><path d="M408.61 472.57c-1 3.12-2.06 6.23-3.15 9.32a4.58 4.58 0 00-.39 2.11 1.57 1.57 0 001.37 1.44c.79 0 1.34-.75 1.84-1.36a8.29 8.29 0 014-2.67 2.32 2.32 0 001-.47 2.56 2.56 0 00.47-1.18c.52-2 2.26-3.37 3.85-4.68a73.29 73.29 0 0019.54-24.22c4.5-9.18 6.92-19.57 13.42-27.46 1.5-1.82 2-4.72 3-6.87a23.68 23.68 0 002-7.92c.17-2.32 0-4.64 0-7-.1-8.79 1.86-17.46 3.81-26 .49-2.16-.28-4.47-.16-6.69a14.4 14.4 0 01-3.67 2.72c-.66 39.99-18.63 75.88-46.93 100.93zM455.67 365.85a188.85 188.85 0 002.11-26.66c0-3.07-2.32-6-4.64-8.05l-.61 2.49a3.74 3.74 0 01-1.93-1.46 136.26 136.26 0 015 33.44zM375.16 242.06a1.31 1.31 0 00-.12.75c.08.35.43.57.74.76s.32.23.48.34c34.91 17.06 61.7 47.53 73.22 84.47a1.15 1.15 0 00.76.47c.48 0 .79-.49 1.11-.86a3.42 3.42 0 013.86-.62 8.1 8.1 0 013.08 2.74c.68.89 1.46 1.92 2.58 2a47.3 47.3 0 01-.64-5.82q-1.35-3.69-2.88-7.29c-.1-.24-.21-.47-.31-.7-.41-.95-.82-1.89-1.24-2.82-.15-.33-.31-.66-.47-1-.38-.83-.77-1.66-1.17-2.48-.18-.38-.37-.75-.56-1.12-.38-.77-.76-1.54-1.16-2.31-.2-.39-.41-.78-.62-1.17-.39-.74-.79-1.48-1.19-2.21L450 304l-1.23-2.16-.69-1.17c-.43-.71-.86-1.42-1.3-2.12l-.7-1.14c-.45-.71-.91-1.42-1.37-2.12-.23-.36-.47-.72-.71-1.07-.48-.73-1-1.44-1.46-2.16-.23-.33-.45-.66-.68-1l-1.59-2.22-.63-.86c-.59-.79-1.18-1.56-1.78-2.34-.17-.23-.34-.46-.52-.68-.69-.89-1.39-1.76-2.1-2.63L435 282a152.84 152.84 0 00-10.43-11.46l-.18-.18c-.84-.83-1.7-1.66-2.56-2.47l-.41-.39c-.79-.74-1.59-1.48-2.4-2.2l-.53-.47c-.77-.69-1.56-1.38-2.35-2.06l-.59-.5c-.78-.66-1.57-1.31-2.37-2l-.62-.5c-.79-.64-1.6-1.27-2.41-1.9l-.62-.47q-1.23-.94-2.49-1.86l-.58-.43c-.87-.62-1.74-1.24-2.62-1.85l-.51-.35c-.93-.64-1.86-1.26-2.8-1.88l-.38-.25c-1-.66-2.05-1.31-3.08-1.95l-.16-.09a151.4 151.4 0 00-21-10.75 13.14 13.14 0 01-.75 4.07z" class="cls-32"/><path d="M376.26 243.91a8.59 8.59 0 012.77 3.35c-.82-.25-1.6-.38-2.43-.63-.51.13-.56.92-.2 1.31a2.84 2.84 0 001.44.62 9.43 9.43 0 014.27 2.38l-2.35 1.23a4.44 4.44 0 011.89 5.24l-2.29-.48c-.36.55.09 1.3.65 1.63a14.54 14.54 0 011.77.87c.91.73 1 2.07 1 3.23a17.3 17.3 0 01-4.6-2.42.47.47 0 01-.18-.24c0-.15.08-.28.19-.4l1-1.1a25.47 25.47 0 00-3.85-2.39 1.39 1.39 0 00-.85-.21 1.63 1.63 0 00-.71.49 9.82 9.82 0 01-4.05 1.81A122.29 122.29 0 01417 315.08a14 14 0 00.93 1.11c1.34 1.4 3 2.59 3.68 4.42a2.29 2.29 0 001.24-2 9.84 9.84 0 005.55-3.3 32.36 32.36 0 012.38 6.44c.42 1.88.64 4-.38 5.61a8.42 8.42 0 01-3 2.52 55.13 55.13 0 01-4.91 2.77 118.15 118.15 0 01-9.6 79.8c.65 1.09 1.25 2.22 1.8 3.37 3.85 8.19.13 17.63.37 26.67a49.22 49.22 0 01-.39 9.71 46.71 46.71 0 01-1.3 5.18c-1.5 5.09-3.11 10.14-4.78 15.17 28.3-25.05 46.27-60.94 47-100.92-.19.1-.38.22-.58.31a.75.75 0 01-.66.08.79.79 0 01-.31-.55c-1.71-7.19-5.17-13.86-9.18-20.07s-8.57-12-12.77-18.13a1.42 1.42 0 01-.36-1.07c.09-.38.71-.57.86-.21a6.6 6.6 0 00.91 2.13 2.22 2.22 0 002 1c0-.48.18-1.1.65-1.16s.71.36.92.71q4.56 7.72 9.87 15c3.61 4.93 7.57 10 8.65 16a136.26 136.26 0 00-5-33.44l-.79-1c-1.65-2.05-4.07-3.6-4.91-6.09.87-.45 1.83.33 2.5 1.05l2 2.2C438 291.44 411.17 261 376.26 243.91z" class="cls-31"/><path d="M417.24 335.36c-.3.53-.4 1.23-.93 1.52a1.82 1.82 0 01-1.34 0l-7.45-1.83a7.51 7.51 0 01-2.88-1.16c-2.17-1.71-1.8-5-2.79-7.62a3.73 3.73 0 00-2-2.27c-1.21-.47-2.56.05-3.74.58a155.09 155.09 0 00-15.73 8.53c-2.59 16.4-10.44 32.39-22.46 46.05a16.21 16.21 0 00.1 4.23c.51 3 2 5.78 3.55 8.46a51.25 51.25 0 0015.8 18.94 9.48 9.48 0 003.32 2c3.28.89 6.31-1.87 9.53-3s6.77-.49 10.18-.74c2.6-.2 5.14-.9 7.72-1.25a2.07 2.07 0 012.45 1.09 40.41 40.41 0 012.3 3.49 118.15 118.15 0 009.6-79.8 20.79 20.79 0 01-2.53 1.06c-.94.44-2.16.78-2.7 1.72z" class="cls-29"/><path d="M365.38 262.63a2.41 2.41 0 011.93 1.77 7.53 7.53 0 01.13 2.76q-.22 3-.25 6a8.48 8.48 0 00.55 3.72c.94 2 3.15 2.95 5.18 3.77.67.26 1.66.41 1.92-.27.13-.36 0-.79.15-1.12.34-.61 1.26-.17 1.75.32a34.43 34.43 0 015 6.37 3.19 3.19 0 00.71-3.47 11 11 0 00-2-3.14c-2.75-3.46-5-7.82-4.15-12.17a2.38 2.38 0 012 1.41 13.68 13.68 0 001.21 2.23c1.66 2 5.41 1.47 6.67 3.75a5.43 5.43 0 01.42 2.75c0 .72 0 1.44-.05 2.16a13.6 13.6 0 01-.75 5.08 4.68 4.68 0 01-3.84 3 2.58 2.58 0 01-2.25-1c-.37-.59-.5-1.43-1.15-1.67s-1.52.61-1.51 1.43a7.6 7.6 0 00.74 2.31 5 5 0 01-.79 4.55c-.29.37-.54.75-.79 1.14.14.35.3.68.43 1A71.93 71.93 0 01381 328.5a3.84 3.84 0 002.37-1.83c.65-1.43-.09-3.07-.35-4.61-.56-3.4 1.27-6.69 3-9.64.72-1.22 1.56-2.53 2.92-2.94 1.56-.47 3.17.43 4.56 1.29 3.52 2.2 7.16 4.51 9.4 8a1.53 1.53 0 01.33 1.05c-.1.55-.72.84-1 1.33a1.7 1.7 0 00.81 2c.66.45 1.47.64 2.13 1.08a11.54 11.54 0 00.39-9 .72.72 0 00.49-1 1.77 1.77 0 00-.84-.87c-1.95-1.21-4.29-1.6-6.38-2.53s-4.1-2.8-4-5.09a1 1 0 01.2-.64 1 1 0 01.65-.28c2-.23 3.59 1.47 5 2.92a37 37 0 0014.88 9.49 7.73 7.73 0 00-2.57-3.89c-.52-.42-1.15-.87-1.19-1.54a2 2 0 011-1.5 1.57 1.57 0 01.95-.45c.73 0 1.09.86 1.32 1.55a12.88 12.88 0 001.91 3.63 122.29 122.29 0 00-47.27-56.91c-.38.11-.76.23-1.13.37-1.77.7-3.58 2.29-3.2 4.14z" class="cls-29"/><path d="M371.63 300.69c-.4 1.73.95 3.35 2.25 4.56s2.77 2.65 2.66 4.43a4.46 4.46 0 01-2.41 3.31c-1.23.73-2.62 1.14-3.84 1.88a4.63 4.63 0 00-1.8 1.74 6.09 6.09 0 00-.24 3.85 49.4 49.4 0 001.44 6.09c.58 1.92 1.69 4.14 3.69 4.26 1.34.08 2.5-.86 3.74-1.34a31.44 31.44 0 013.45-.82l.43-.15a71.93 71.93 0 00-4.46-33.15c-.13-.35-.29-.68-.43-1a19.72 19.72 0 01-2.51 3.65 6.19 6.19 0 00-1.97 2.69zM372.14 340.28c-.44 1.32-.41 2.83-1.26 3.93-.5.65-1.25 1.08-1.69 1.78a5.42 5.42 0 00-.55 2.47 22.6 22.6 0 01-3.43 10.25c-1 1.52-3.38 1.94-4.08 3.61a10 10 0 00-.5 3.19c-.34 4.61-2.24 9.13-2.67 13.66 12-13.66 19.87-29.65 22.46-46.05l-2.56 1.53c-2.35 1.41-4.86 3.03-5.72 5.63z" class="cls-20"/><g class="cls-15"><path d="M93.15 382.68l10.51-6.11-8.48 11.85-10.51 6.12 8.48-11.86zM39.15 279.13L49.67 273c2-1.16 4.75-1 7.79.76L47 279.9c-3.1-1.76-5.85-1.9-7.85-.77zM143.25 395.69l-10.52 6.11c2-1.14 3.19-3.57 3.2-7l10.51-6.11c-.01 3.43-1.23 5.86-3.19 7zM136.07 343.96l10.52-6.11-.15 50.81-10.51 6.11.14-50.81z" class="cls-26"/><path d="M46.95 279.89l10.51-6.11 78.21 45.16-10.52 6.11-78.2-45.16zM125.15 325.05l10.52-6.11c6.05 3.49 10.94 12 10.92 18.91L136.07 344c.02-7-4.87-15.46-10.92-18.95z" class="cls-26"/><path d="M125.15 325.05c6 3.49 10.94 12 10.92 18.91l-.14 50.81c0 7-4.94 9.76-11 6.27l-31.78-18.36-8.48 11.85-7.84-21.27-30.1-17.37c-6-3.5-10.94-12-10.92-18.92l.19-50.81c0-7 4.94-9.76 11-6.26z" class="cls-6"/></g><path d="M125.15 325.05c6 3.49 10.94 12 10.92 18.91l-.14 50.81c0 7-4.94 9.76-11 6.27l-31.78-18.36-8.48 11.85-7.84-21.27-30.1-17.37c-6-3.5-10.94-12-10.92-18.92l.19-50.81c0-7 4.94-9.76 11-6.26z" class="cls-6"/><path d="M125.15 325.05c6 3.49 10.94 12 10.92 18.91l-.14 50.81c0 7-4.94 9.76-11 6.27l-31.78-18.36-8.48 11.85-7.84-21.27-30.1-17.37c-6-3.5-10.94-12-10.92-18.92l.19-50.81c0-7 4.94-9.76 11-6.26z" class="cls-6"/><path d="M124.69 325.85L46.48 280.7c-2.63-1.52-5.06-1.79-6.84-.77s-2.74 3.23-2.75 6.23L36.75 337c0 6.64 4.67 14.76 10.45 18.1l30.39 17.54 7.34 19.94 7.95-11.11 32.53 18.78c2.63 1.52 5.06 1.79 6.84.77s2.74-3.22 2.75-6.23l.14-50.81c.02-6.67-4.67-14.79-10.45-18.13z" class="cls-33"/><g clip-path="url(#clip-path-2)"><path d="M53.85 327.11a3.21 3.21 0 01-1.44-1.88v-3.3c.28-.52.76-.59 1.44-.2a2.84 2.84 0 011.15 1.32 5.47 5.47 0 01.39 2.19v.23a2.45 2.45 0 01-.42 1.67c-.27.26-.65.26-1.14 0m-1.41-10.89l-1.57-.91v11.38l1.42.82.08-.82a4.75 4.75 0 001.9 2.12c.85.49 1.52.51 2 0a3.46 3.46 0 00.75-2.54v-.1a8 8 0 00-.72-3.47 5.14 5.14 0 00-2-2.25c-.77-.44-1.38-.48-1.83-.13v-4.13M61.24 331.41A3.1 3.1 0 0160 330a5.12 5.12 0 01-.44-2.2A2.59 2.59 0 0160 326c.3-.3.71-.3 1.22 0a3 3 0 011.23 1.42 5 5 0 01.45 2.19 2.68 2.68 0 01-.45 1.83c-.29.3-.7.31-1.23 0m0-6.89a2.77 2.77 0 00-1.7-.46 1.45 1.45 0 00-1.14.79 3.79 3.79 0 00-.41 1.89v.09a7.31 7.31 0 00.87 3.52 6.22 6.22 0 002.37 2.5 2.88 2.88 0 001.7.47 1.47 1.47 0 001.14-.79 3.79 3.79 0 00.4-1.89v-.42a7.35 7.35 0 00-.94-3.33 6.22 6.22 0 00-2.29-2.37M68.81 335.75a3.19 3.19 0 01-1.44-1.88v-3.31c.27-.52.75-.59 1.43-.2a2.81 2.81 0 011.2 1.33 5.23 5.23 0 01.4 2.19v.23a2.39 2.39 0 01-.42 1.66c-.26.27-.64.26-1.13 0m-1.42-10.9l-1.56-.9v11.37l1.41.82.08-.82a4.66 4.66 0 001.91 2.12c.85.49 1.51.51 2 .05a3.51 3.51 0 00.73-2.56v-.1a7.93 7.93 0 00-.72-3.46 5 5 0 00-2-2.25c-.77-.45-1.38-.49-1.83-.13v-4.14M78.07 341.34a1.73 1.73 0 01-.76-1 3.75 3.75 0 01-.15-1.62 3.54 3.54 0 01.58-2 .84.84 0 011.17-.1 3.32 3.32 0 01.62.5l-.29 3.49a1.3 1.3 0 01-.51.68.65.65 0 01-.66 0m.63-9.13a4.41 4.41 0 00-2.83-.74 2.67 2.67 0 00-2 1.38 6.72 6.72 0 00-.8 3.2 12 12 0 00.52 4.05 10.09 10.09 0 001.76 3.32 9.57 9.57 0 002.8 2.42 6.36 6.36 0 001.35.6 2.41 2.41 0 001.06.13l-.24-1.15a2.8 2.8 0 01-1-.19 5.6 5.6 0 01-1.13-.49 8 8 0 01-2.26-2 8.43 8.43 0 01-1.34-2.69 9.88 9.88 0 01-.36-3.29 6.12 6.12 0 01.64-2.77 2.16 2.16 0 011.55-1.2 3.42 3.42 0 012.25.57 7.57 7.57 0 013.08 3.24 9.32 9.32 0 01.91 4.71 3.38 3.38 0 01-.46 1.84.76.76 0 01-1.09.18 1.79 1.79 0 01-.73-1.89l.35-4a7.58 7.58 0 00-1-1.21 5 5 0 00-1-.71 1.59 1.59 0 00-2.39.65 4.65 4.65 0 00-.44 1.88 5.38 5.38 0 00.36 2.59 3.45 3.45 0 001.42 1.72 1.65 1.65 0 00.92.24 1.14 1.14 0 00.77-.4 3.29 3.29 0 001.55 2c.82.47 1.47.49 1.94 0a3.5 3.5 0 00.81-2.47 11.26 11.26 0 00-.49-3.85 10.24 10.24 0 00-1.72-3.33 9.49 9.49 0 00-2.76-2.41M93.83 343.49l-1.52-.88-1.13 4.89-1.43-6.37-1.18-.68-1.45 4.65-1.11-6.13-1.53-.88 1.89 9.11 1.29.75 1.48-4.66 1.49 6.37 1.29.74 1.91-6.91M97.31 352.23a2.27 2.27 0 01-.8-.77 1.88 1.88 0 01-.3-1q0-.63.45-.72a2 2 0 011.31.4l.84.49v1.51a.71.71 0 01-.61.34 1.53 1.53 0 01-.88-.24m.37-6.67a3.43 3.43 0 00-1.45-.51 1.27 1.27 0 00-1 .3 1.33 1.33 0 00-.39 1l1.57.91c0-.32.11-.52.35-.59a1.11 1.11 0 01.87.2 2.4 2.4 0 01.93.91 2.5 2.5 0 01.29 1.17v.53l-1-.56a3.52 3.52 0 00-2.37-.68c-.55.14-.83.63-.83 1.48a3.91 3.91 0 00.66 2.1A4.8 4.8 0 0097 353.5a1.7 1.7 0 001.83.16 4.3 4.3 0 00.18.86l1.6.92v-.13a5.83 5.83 0 01-.26-1.87v-3.62a4.44 4.44 0 00-.74-2.42 5.68 5.68 0 00-2-1.84M103.71 345.82l-1.57-.91-.03 11.38 1.56.9.04-11.37M107.08 347.76l-1.57-.9-.03 11.38 1.57.9.03-11.38M110.11 356.15a1.66 1.66 0 01.5-1.16.93.93 0 011 .08 2.67 2.67 0 011 1.06 3.78 3.78 0 01.41 1.61v.13l-3-1.72m1.56-2.52a2.59 2.59 0 00-1.63-.41 1.57 1.57 0 00-1.14.82 4 4 0 00-.41 1.91v.22a6.79 6.79 0 00.92 3.41 6.56 6.56 0 002.42 2.48 3.21 3.21 0 001.56.5 1.4 1.4 0 001.13-.46l-.85-1.43a1.39 1.39 0 01-1.75 0 3.44 3.44 0 01-1.27-1.32 4.17 4.17 0 01-.57-1.9l4.55 2.63v-.72a7.38 7.38 0 00-.77-3.41 5.66 5.66 0 00-2.2-2.32M117.83 355.39l-1.57-.91v1.95l-1.15-.66v1.33l1.14.66v4.55a3.55 3.55 0 001.8 3.33 3.72 3.72 0 001 .42v-1.38a3 3 0 01-.55-.25 1.31 1.31 0 01-.56-.53 1.56 1.56 0 01-.16-.76v-4.47l1.24.71v-1.33l-1.23-.71v-1.95" class="cls-7"/></g><path d="M539.06 219.44l-2.48 6.94-.24 11.41a54.44 54.44 0 006.65 1.62c1.48.08 5.26-8.39 5.26-8.39l-1.18-9.48z" class="cls-35"/><path d="M507.68 213a48.11 48.11 0 015.9 4.28c2.1 1.94 4.27 4 4.27 4l20.15 5.48 1.08 9.08-2.72 1.95-17.85-8.51-5.48.51z" class="cls-35"/><path d="M553.47 182.12c0-.12-5-.36-7.6 5.23s-6.29 27.59-7.15 30l-.85 2.41 8.85 6.38z" class="cls-9"/><g class="cls-13"><path d="M640.75 387.41c33.08 19.09 33.23 50 .37 69.15s-86.31 19.11-119.38 0-33.25-50.06-.39-69.16 86.33-19.09 119.4.01z" class="cls-14"/></g><g class="cls-15"><g class="cls-15"><path d="M648.92 413.84v8.07c0 12.44-8.21 24.85-24.54 34.34-32.86 19.1-86.31 19.11-119.38 0-16.64-9.61-25-22.23-24.92-34.83v-8.06c0 12.6 8.28 25.21 24.92 34.82 33.08 19.1 86.52 19.09 119.38 0 16.33-9.48 24.51-21.9 24.54-34.34z" class="cls-3"/><g class="cls-15" clip-path="url(#clip-path-3)"><path fill="url(#linear-gradient-9)" d="M648.92 413.84v8.81-8.06-.75"/><path fill="url(#linear-gradient-10)" d="M648.36 419.43a30.79 30.79 0 01-1.37 4.75 32.51 32.51 0 01-2.25 4.8 39.1 39.1 0 01-3.39 5 48.82 48.82 0 01-5.24 5.63 65.15 65.15 0 01-10.7 7.92l-1 .61a95.6 95.6 0 01-18.5 8.14 122.51 122.51 0 01-16 4c-3.54.64-7.14 1.14-10.77 1.5q-4.67.46-9.37.62v8.07q4.71-.17 9.36-.63 5.46-.54 10.78-1.5a122 122 0 0016-4 94.83 94.83 0 0018.51-8.14l1-.61a65.55 65.55 0 0010.7-7.91 48.71 48.71 0 005.23-5.64 39.11 39.11 0 003.4-5 35.23 35.23 0 002.25-4.8 30.91 30.91 0 001.37-4.76 29.41 29.41 0 00.55-4.84v-8.06a28.48 28.48 0 01-.56 4.85z"/><path fill="url(#linear-gradient-11)" d="M561.11 462.47c-2.78-.07-5.56-.21-8.32-.44s-5.49-.53-8.2-.92-5.62-.88-8.37-1.45c-3-.62-5.92-1.34-8.8-2.16q-5.28-1.5-10.24-3.46A91.24 91.24 0 01505 448.2c-16.64-9.61-24.95-22.22-24.92-34.82v8.06c0 12.6 8.28 25.22 24.92 34.83a91.66 91.66 0 0012.17 5.83 107.21 107.21 0 0010.25 3.46c2.87.82 5.81 1.54 8.8 2.16q4.13.86 8.37 1.45c2.71.39 5.45.69 8.2.92s5.54.38 8.31.45 5.77 0 8.65 0v-8.07q-4.32.11-8.64 0z"/></g></g><path d="M624 379c-33.06-19-86.53-19-119.39 0s-32.68 50.07.39 69.16 86.52 19.09 119.38 0 32.71-50.02-.38-69.16z" class="cls-20"/></g><path d="M624.38 446.1c-32.86 19.09-86.3 19.11-119.38 0-16.14-9.32-24.42-21.46-24.87-33.68-.47 12.91 7.81 25.92 24.87 35.77 33.08 19.1 86.52 19.09 119.38 0 16.83-9.78 25-22.67 24.5-35.49-.44 12.12-8.58 24.15-24.5 33.4z" class="cls-40"/><path fill="#425cc7" d="M597.17 393.55l-4.31-2.49a38.15 38.15 0 00-38.14 0l-24.38 14.08a11.18 11.18 0 000 19.37l4.31 2.49a38.15 38.15 0 0038.14 0l24.38-14.08a11.18 11.18 0 000-19.37z" opacity=".25"/><path d="M582.23 382.69s-2.47 4.64-2.47 8.81-1.15 7.46-3.94 8.78-8.65 1.31-8.65 1.31l-.39-6 1.15-1.81 8.1-24s3.08-1.14 4.72 1.13 4.6 15.92 4.6 15.92l-1.15 1.48z" class="cls-42"/><path d="M572.58 367.73l5.38 3.15s-.78 28-7.62 24.67a6.55 6.55 0 01-2.41-1.81s1.81-3.82 1.15-6.45a68.65 68.65 0 01-1.15-7.05z" class="cls-35"/><path fill="#f9c2b2" d="M556.74 416.65a7.06 7.06 0 01-5.94 2.4 5.26 5.26 0 01-3.46-2.21c3.66-7.27 8.75-16.21 9.25-17.38.82-2 .82-9.9.82-9.9l9.37-3.61v9.6l.39.61-7 14.83a20.67 20.67 0 01-3.43 5.66z"/><path d="M547.34 416.84a5.26 5.26 0 003.46 2.21 7.06 7.06 0 005.94-2.4 20.67 20.67 0 003.44-5.66l7-14.83a26.39 26.39 0 013.06 6.59c.82 3.28-3.12 16.6-3.12 16.6l-1.81.16v-7.23s-1.65 7.23-4.93 10.69-14.8 4.6-16.61 3.44c-.77-.47 1.09-4.64 3.57-9.57z" class="cls-42"/><path d="M568.91 327.11q.95-13 1.88-25.94l1.71-23.48a8.8 8.8 0 00-.56-4.84c-1.46-2.71-4.42-.83-7.48-1.18-8-.93-16.06-5.3-22.82-10.46.6-2.74 1-4.4 1-4.4l41 5.3s3.86 15 2.14 21.66-11.8 46.4-11.8 46.4 3.16 25.39 1.68 31.31-7.66 28.08-7.66 28.08-1.69.59-3.72 1.16q.91-12.8 1.85-25.58z" class="cls-22"/><path d="M534.38 318.79c-.17-5 4.51-45.14 7.26-57.58 6.76 5.16 14.86 9.53 22.82 10.46 3.06.35 6-1.53 7.48 1.18a8.8 8.8 0 01.56 4.84l-1.71 23.48q-.93 13-1.88 25.94l-2.76 38q-.93 12.78-1.85 25.58c-2.63.74-5.82 1.44-6.83.78l-1.79-1.17s-.49-29.09 0-29.83-21.1-35.56-21.3-41.68z" class="cls-23"/><path d="M543.35 222.9c.17-3.29-2.3-12.66-2.3-16s5-12.82 5.67-15.53c.14-.56.32-1.2.53-1.86 10.55 2 24.94 5.71 31.67 10.79-2 1.59-1.91 3.87-2.16 6.43s-1.68 4.88-2.13 7.4-1.73 5.11-4.06 6.2c-2.71 1.27-5.89.17-8.68-.94l-14-5.54c7.59 4.26 15.32 9.77 18.87 17.72a24.22 24.22 0 011.72 12.63 19.43 19.43 0 01-3 8.82c-4.21 6.14-12.57 8-20 6.39-2.66-1.65-4.46-2.86-4.46-2.86s2.17-30.36 2.33-33.65z" class="cls-44"/><path d="M565.46 253.07a19.43 19.43 0 003-8.82 24.22 24.22 0 00-1.72-12.63c-3.55-8-11.28-13.46-18.87-17.72l14 5.54c2.48 1 4.18.73 6.53-.65a11.45 11.45 0 003.54-2.9 13.8 13.8 0 001.95-4.83c.16-.61 3.23-12 5-10.71-6.73-5.08-21.12-8.77-31.67-10.79.81-2.56 2.09-5.53 3.25-6a12.23 12.23 0 014.12-.53l17.79 2.57 14.22 10.83s1.93 3.33 1.93 6 .33 12-4.6 21.37-6.58 16.19-6.58 17.35 6.25 21 6.25 21-11.35 6-18.09 6.24c-4.6.17-14.32-5.36-20-8.89 7.38 1.5 15.74-.29 19.95-6.43z" class="cls-9"/><path fill="#718ce2" d="M579.15 164.72a10.07 10.07 0 01-7.9 2.69 12.67 12.67 0 01-7.62-3.65 32 32 0 01-4.32-5.87 23.09 23.09 0 00-4.58-5.66 10.39 10.39 0 00-2.6-1.51 11.64 11.64 0 014.67-3.72c4.18-1.61 19.35-1.73 22.31 3a27 27 0 013.6 10.76c-1.35 1.09-2.27 2.7-3.56 3.96z"/><path d="M552.13 150.72a10.39 10.39 0 012.6 1.51 23.09 23.09 0 014.58 5.66 32 32 0 004.32 5.87 12.67 12.67 0 007.62 3.65 10.07 10.07 0 007.9-2.69c1.29-1.26 2.21-2.87 3.56-4.05a23.79 23.79 0 01.1 6c-.72 5.14 2.83 9.5 3.7 14.31s1.47 8.7 1.23 11.38a9.79 9.79 0 01-1.11 4S575.54 188 574 186.77l-1.56-1.21-7.95-3-13.81-15.36a9.94 9.94 0 01-2.37-7.52 17.65 17.65 0 013.82-8.96z" class="cls-14"/><path d="M555.68 197.68l-4.53.65s.16-8.46 1-8.77 5.73-1.13 5.73-1.13a10 10 0 00-2 3.93 15.54 15.54 0 00-.2 5.32z" class="cls-9"/><path d="M552.39 178.91s.33 3.54-1.15 5.39-3.7 4.16-4 7.36 0 11.43 0 11.43 4-11.14 6.58-12.09a15.2 15.2 0 004.85-3.53l1.24-5.74z" class="cls-14"/><path d="M561 192a2.36 2.36 0 01-2.24.11 2.24 2.24 0 01-.73-1.88 7.21 7.21 0 00-.12-1.8.48.48 0 00.1-.12c.06-.18-.49-3.76-.49-3.76l13.58-8.3a41.91 41.91 0 00.49 6.74c-3.9 2.48-6.41 7.06-10.59 9.01z" class="cls-46"/><path d="M557.86 188.43a7.21 7.21 0 01.12 1.8 2.24 2.24 0 00.73 1.88A2.36 2.36 0 00561 192c4.23-1.95 6.74-6.53 10.59-9a7.77 7.77 0 00.42 1.56 12.78 12.78 0 001.91 3.45v.31c.18 1.39.43 7.26-7.52 8.68-9 1.62-10.79-.41-10.71.69.13 1.72-.45-4 .68-6.68a8.68 8.68 0 011.49-2.58zM563.19 177.22a10.81 10.81 0 00.1-6.61 26.28 26.28 0 007.57-.09s1-3.84 2.39-4.82 2.71 3.15 1.86 5.83-4 3-4 3a13.66 13.66 0 01-.54 3.89c-.63 2.26-13.67 7.79-15.45 6.73a2 2 0 01-.55-.61 12.47 12.47 0 003.37-1.46 12.16 12.16 0 005.25-5.86z" class="cls-35"/><path d="M550.53 165.73c-.33-1.55-.69-6.88-.69-6.88a4.69 4.69 0 012.4.21c.68.46 5.31 8.69 8.46 10.67a7.4 7.4 0 002.59.88 10.81 10.81 0 01-.1 6.61 12.16 12.16 0 01-5.2 5.87 12.47 12.47 0 01-3.37 1.46c-1.76-2.64-4.08-12.34-4.13-13.3s.37-3.97.04-5.52z" class="cls-47"/><path d="M555.68 360.5s.49-24.42 0-28.36-1.56-7.05-1.89-10.31-.32-36.12-.32-36.12l-8.73-10s3 11.25 3.51 16.11-1.18 23.34-1.18 23.34l-2.33 25.55z" class="cls-22"/><path d="M572.41 185.56s.28 4.81-3 6.8-13.71 5.32-13.71 5.32l6.48 8.33s13.65-8.12 14.3-10.22 0-7.14 0-7.14z" class="cls-9"/><g class="cls-15"><path d="M518.39 234.88l-2 1.76c.14-.12.13-.4 0-.8l2.05-1.76c.09.4.09.68-.05.8z" class="cls-29"/><path d="M496 209.09l2.05-1.76c.12-.1.34-.08.64.08l-2.06 1.76c-.28-.17-.5-.17-.63-.08zM496.64 209.17l2.06-1.76 9.22 4.86-2.05 1.76-9.23-4.86z" class="cls-20"/><path d="M507.68 216.05l2.05-1.76 8.62 19.78-2.05 1.77-8.62-19.79z" class="cls-29"/><path d="M505.87 214l2.05-1.76a4.69 4.69 0 011.81 2l-2.05 1.76a4.76 4.76 0 00-1.81-2z" class="cls-20"/><path d="M505.87 214a4.76 4.76 0 011.81 2l8.62 19.79c.33.74.05 1.07-.61.72l-9.23-4.86a4.76 4.76 0 01-1.78-2l-8.63-19.78c-.33-.77-.06-1.1.59-.75z" class="cls-42"/></g><ellipse cx="502.28" cy="215.19" class="cls-29" rx=".67" ry="1.33" transform="rotate(-38.43 502.34 215.19)"/><path d="M502.89 222.07s2.33 0 1.25-1.24-4.7-3.14-4.7-3.14l-1.25-2.86-1.55 1.73s-2 1.4-1.67 2.41 2.79 1.48 2.79 1.48l5.24 1.75z" class="cls-47"/><path d="M503 222.2l-5.19-1.75s1.32 6.44 3.11 7.45 4.35 2.09 4.35.78-2.05-5.85-2.27-6.48z" class="cls-35"/><path d="M582.33 243.93a19.43 19.43 0 01-7.53-2.17l-.12.91-23.53-3.26s-7.09-7.2-7.61-6.8a12.62 12.62 0 01-3.26.7s-6.71-.05-7.29.77 4.14 1.76 4.14 1.76 2.21 7.85 3.61 8.84 8.69 1.8 8.69 1.8 27.76 9.64 31.33 10c2.35.21 4.53-7.22 5.75-12.32-1.4-.07-2.79-.1-4.18-.23z" class="cls-47"/><path d="M586.51 244.11c.63-2.66 1-4.7 1-4.7h-12.42l-.29 2.35a19.43 19.43 0 007.53 2.17c1.39.13 2.78.16 4.18.18z" class="cls-35"/><path d="M583.17 198c12.59 1.5 8 10.3 6.53 19.77-1.17 7.7.46 21.19.46 21.19s-2.29 2.15-7 2.4a32.18 32.18 0 01-9.2-1s0-22.76 1.42-28.51 3.06-14.42 7.79-13.85z" class="cls-44"/><g class="cls-15"><path d="M578.7 110.4l10.52-6.11-8.48 11.85-10.52 6.11 8.48-11.85zM524.71 6.85L535.22.74c2-1.16 4.76-1 7.8.76L532.5 7.61c-3.04-1.75-5.8-1.92-7.79-.76zM628.8 123.41l-10.51 6.11c2-1.15 3.18-3.57 3.19-7l10.52-6.14c0 3.45-1.23 5.88-3.2 7.03zM621.63 71.68l10.51-6.11-.14 50.81-10.52 6.11.15-50.81z" class="cls-26"/><path d="M532.5 7.61l10.52-6.11 78.2 45.15-10.51 6.12L532.5 7.61z" class="cls-26"/><path d="M610.71 52.76l10.51-6.11c6 3.5 10.94 12 10.92 18.92l-10.51 6.11c.02-6.95-4.87-15.42-10.92-18.92z" class="cls-26"/><path d="M610.71 52.76c6 3.5 10.94 12 10.92 18.92l-.15 50.81c0 7-4.94 9.76-11 6.27L578.7 110.4l-8.48 11.85-7.83-21.25-30.1-17.4c-6-3.49-10.94-12-10.92-18.91l.14-50.81c0-7 4.94-9.76 11-6.27z" class="cls-6"/></g><path d="M610.71 52.76c6 3.5 10.94 12 10.92 18.92l-.15 50.81c0 7-4.94 9.76-11 6.27L578.7 110.4l-8.48 11.85-7.83-21.25-30.1-17.4c-6-3.49-10.94-12-10.92-18.91l.14-50.81c0-7 4.94-9.76 11-6.27z" class="cls-6"/><path d="M610.71 52.76c6 3.5 10.94 12 10.92 18.92l-.15 50.81c0 7-4.94 9.76-11 6.27L578.7 110.4l-8.48 11.85-7.83-21.25-30.1-17.4c-6-3.49-10.94-12-10.92-18.91l.14-50.81c0-7 4.94-9.76 11-6.27z" class="cls-6"/><path d="M610.24 53.57L532 8.42c-2.64-1.52-5.07-1.8-6.85-.77s-2.74 3.23-2.74 6.23l-.15 50.81c0 6.65 4.67 14.77 10.46 18.11l30.39 17.54 7.34 19.94 8-11.11L611 128c2.64 1.52 5.07 1.79 6.84.77s2.74-3.23 2.75-6.23l.15-50.81c-.02-6.73-4.74-14.82-10.5-18.16z" class="cls-33"/><g clip-path="url(#clip-path-4)"><path d="M540.15 48.4l-1.57-.91v8.8c0 .64-.28.81-.8.51a3.15 3.15 0 01-.55-.38v1.42a5.26 5.26 0 00.84.61c.68.39 1.2.47 1.55.24s.54-.75.54-1.57V48.4m-.82-3.53c-.28-.16-.49-.19-.65-.1a.62.62 0 00-.23.56 1.63 1.63 0 00.23.81 1.76 1.76 0 00.65.65c.29.16.5.2.66.11a.58.58 0 00.24-.54 1.65 1.65 0 00-.24-.83 1.74 1.74 0 00-.66-.66M544.25 57.5a2.32 2.32 0 01-.81-.78 1.9 1.9 0 01-.29-1c0-.42.15-.67.44-.73a2.09 2.09 0 011.31.41l.84.48v1.52a.73.73 0 01-.62.34 1.52 1.52 0 01-.87-.24m.38-6.67a3.5 3.5 0 00-1.47-.51 1.26 1.26 0 00-1 .3 1.28 1.28 0 00-.39 1l1.57.91c0-.32.11-.52.34-.59a1.13 1.13 0 01.88.2 2.41 2.41 0 01.92.9 2.46 2.46 0 01.3 1.18v.52l-1-.55a3.53 3.53 0 00-2.37-.68c-.56.14-.84.63-.84 1.48a4 4 0 00.66 2.1 4.94 4.94 0 001.77 1.69 1.72 1.72 0 001.83.15 4 4 0 00.18.85l1.59.93v-.13a5.83 5.83 0 01-.26-1.87v-3.62a4.52 4.52 0 00-.74-2.42 5.74 5.74 0 00-2-1.84M552.5 55.37a1.71 1.71 0 00-2-.09v-1l-1.48-.85v8l1.57.9v-5.7c.3-.48.78-.54 1.41-.17a2.36 2.36 0 01.94.91 2.73 2.73 0 01.28 1.29v5.2l1.56.9v-5.3a4.52 4.52 0 00-2.21-4.15M557.64 61.76a1.63 1.63 0 01.51-1.15.92.92 0 011 .08 2.58 2.58 0 011 1.05 3.94 3.94 0 01.42 1.61v.14l-3-1.73m1.56-2.51a2.5 2.5 0 00-1.62-.41 1.51 1.51 0 00-1.14.82 3.85 3.85 0 00-.4 1.91v.22A6.71 6.71 0 00557 65.2a6.5 6.5 0 002.41 2.47 3.2 3.2 0 001.57.51 1.4 1.4 0 001.13-.47l-.84-1.42a1.4 1.4 0 01-1.76 0 3.61 3.61 0 01-1.33-1.29 4.34 4.34 0 01-.57-1.9l4.56 2.63V65a7.13 7.13 0 00-.77-3.4 5.48 5.48 0 00-2.2-2.32M568.22 71.56a1.76 1.76 0 01-.77-1 3.73 3.73 0 01-.15-1.56 3.58 3.58 0 01.58-2 .83.83 0 011.17-.1 2.92 2.92 0 01.63.5l-.3 3.48a1.21 1.21 0 01-.51.68.61.61 0 01-.65 0m.62-9.14a4.46 4.46 0 00-2.83-.73 2.7 2.7 0 00-2 1.38 6.81 6.81 0 00-.8 3.2 11.81 11.81 0 00.53 4 10.07 10.07 0 001.75 3.32 9.89 9.89 0 002.81 2.42 6.23 6.23 0 001.34.59 2.46 2.46 0 001.06.14l-.24-1.16a3 3 0 01-1-.18 5.71 5.71 0 01-1.13-.5 7.69 7.69 0 01-2.26-2 8.3 8.3 0 01-1.37-2.76 10.18 10.18 0 01-.36-3.29 6.25 6.25 0 01.64-2.77 2.12 2.12 0 011.55-1.2 3.47 3.47 0 012.25.56 7.71 7.71 0 013.09 3.24 9.6 9.6 0 01.91 4.72 3.3 3.3 0 01-.47 1.83.75.75 0 01-1.09.19 1.82 1.82 0 01-.73-1.9l.35-4a8.12 8.12 0 00-1-1.21 4.94 4.94 0 00-1-.7 1.72 1.72 0 00-1.34-.25 1.74 1.74 0 00-1.05.9 4.94 4.94 0 00-.51 1.88 5.49 5.49 0 00.36 2.59 3.43 3.43 0 001.43 1.72 1.54 1.54 0 00.91.24 1.07 1.07 0 00.77-.4 3.3 3.3 0 001.56 2c.81.47 1.46.48 1.94 0a3.52 3.52 0 00.8-2.47 11.32 11.32 0 00-.49-3.86 10.24 10.24 0 00-1.72-3.33 9.49 9.49 0 00-2.76-2.41M577.82 70a2.42 2.42 0 00-1.93-.41 1.19 1.19 0 00-.77 1.29 4 4 0 001.17 2.57 11.78 11.78 0 001.33 1.26 7.31 7.31 0 011.15 1.1 1.55 1.55 0 01.34.94c0 .29-.11.46-.33.52a1.35 1.35 0 01-.94-.27 3.08 3.08 0 01-1-.94 2.27 2.27 0 01-.42-1.23l-1.54-.83a3.91 3.91 0 00.37 1.56 6 6 0 001 1.57 6.31 6.31 0 001.53 1.25 2.79 2.79 0 002 .5c.51-.15.78-.57.78-1.3a3.12 3.12 0 00-.25-1.24 5 5 0 00-.78-1.23 11.64 11.64 0 00-1.45-1.39A8.27 8.27 0 01577 72.5a1.3 1.3 0 01-.3-.81c0-.31.11-.5.33-.55a1.17 1.17 0 01.84.2 2.62 2.62 0 01.89.86 2 2 0 01.33 1.06l1.57.91a4.11 4.11 0 00-.77-2.3 6.09 6.09 0 00-2-1.88M589.62 76.81c-.92-.53-1.64-.54-2.14 0a4.11 4.11 0 00-1.92-2.33c-.85-.5-1.52-.56-2-.18v-.86l-1.56-.86v8l1.57.9v-5.8c.27-.44.72-.48 1.35-.11a2.33 2.33 0 011.24 2.13V83l1.57.91V78.4a.85.85 0 01.47-.6 1.06 1.06 0 01.88.18 2.49 2.49 0 011 .91 2.67 2.67 0 01.29 1.29v5.21l1.57.91v-5.27a5.33 5.33 0 00-.58-2.5 4.35 4.35 0 00-1.71-1.72M595.19 80.18l-1.57-.91v8l1.57.91v-8m-.78-3.51c-.28-.16-.49-.19-.65-.09a.59.59 0 00-.23.55 1.63 1.63 0 00.23.81 1.69 1.69 0 00.65.65c.29.16.5.2.66.11a.56.56 0 00.24-.54 1.65 1.65 0 00-.24-.83 1.74 1.74 0 00-.66-.66M598.86 80.34l-1.56-.9v2l-1.15-.66v1.33l1.15.66v4.55a3.54 3.54 0 001.8 3.33 4.07 4.07 0 001 .42v-1.44a3 3 0 01-.55-.24 1.52 1.52 0 01-.56-.53 1.68 1.68 0 01-.16-.76v-4.48l1.23.71V83l-1.23-.72v-2M602.84 81.22l-1.57-.9V91.7l1.56.9v-5.72c.32-.47.78-.52 1.41-.16a2.44 2.44 0 01.92.88 2.59 2.59 0 01.31 1.35v5.17L607 95v-5.24a4.56 4.56 0 00-2.25-4.23 1.68 1.68 0 00-1.95-.1v-4.21" class="cls-7"/></g><g class="cls-15"><path fill="#333" d="M322.25 125.06l13.15 7.64c-6.15-3.57-14.66-3.07-24.06 2.35l-13.14-7.64c9.39-5.41 17.9-5.92 24.05-2.35z"/><path fill="#1a1a1a" d="M287.48 215.18l-13.14-7.64c-6.07-3.53-9.84-11-9.87-21.7-.06-21.48 15-47.63 33.73-58.43l13.14 7.64c-18.69 10.8-33.79 36.94-33.73 58.42.03 10.68 3.8 18.18 9.87 21.71z"/><path fill="#4d4d4d" d="M311.34 135.05c18.67-10.78 33.87-2.12 33.93 19.36s-15 47.63-33.71 58.41-33.89 2.14-33.95-19.35 15.04-47.62 33.73-58.42z"/></g><g class="cls-15"><path fill="#ee8233" d="M259.65 247.29l13.14 7.64c-6.14-3.58-14.66-3.07-24.05 2.35l-13.14-7.64c9.4-5.42 17.9-5.92 24.05-2.35z"/><path fill="#d07a33" d="M224.88 337.41l-13.14-7.64c-6.08-3.53-9.84-11-9.87-21.71-.06-21.48 15-47.62 33.73-58.42l13.14 7.64C230.05 268.07 215 294.22 215 315.7c0 10.67 3.81 18.18 9.88 21.71z"/><path fill="#f89f33" d="M248.74 257.28c18.67-10.78 33.87-2.12 33.93 19.36s-15 47.63-33.71 58.41-33.89 2.13-34-19.35 15.09-47.63 33.78-58.42z"/></g><g class="cls-15"><path fill="#62688f" d="M437.88 145.32L451 153c-6.15-3.57-14.66-3.07-24 2.35l-13.14-7.64c9.36-5.46 17.87-5.96 24.02-2.39z"/><path fill="#454a75" d="M403.11 235.44L390 227.8c-6.08-3.53-9.84-11-9.87-21.7-.07-21.48 15-47.63 33.73-58.43l13.14 7.64c-18.69 10.8-33.79 36.94-33.73 58.42 0 10.68 3.73 18.18 9.84 21.71z"/><path fill="#8a92b2" d="M427 155.31c18.67-10.78 33.86-2.12 33.93 19.36s-15 47.63-33.71 58.41-33.89 2.14-33.95-19.35 15.01-47.62 33.73-58.42z"/></g><path d="M311.42 204.1L297 202l11.55-6.67 2.9 8.73m1.19-1.41l-2.71-8.12 5.34-3.08-2.63 11.2m1.17.05l2.86-12.06 11.5-6.64-14.39 18.72m-18-1.55l7.8-20.48 4.48 13.39-12.28 7.09m21.24-12.26l4.38-18.51 7.9 11.42-12.28 7.09m-20.81 8l4.3-25.49 2.53 7.58-6.8 18m32.63-18.84l-6.91-10 2.49-10.47 4.42 20.45m-19.4 15.19l-5-14.9 8-20.9 8.06 11.64-4.87 20.58-6.2 3.58M304 176.75l-2.8-8.42 10.61-22.89v10.75L304 176.75m17.12-9.88l-7.93-11.46v-10.75l10.71 10.58-2.75 11.63M312.43 142a1.49 1.49 0 00-.55.63l-12 25.88-.05.12-.06.24-5.74 34v.35l.05.13.22.15 17.95 2.5.35-.09.34-.31 17.86-23.22.22-.4.05-.19v-.35l-5.91-27.24-.05-.14v-.05h-.05L313 142c-.12-.13-.33-.12-.54 0M250.64 306.19a19.69 19.69 0 01-6.55 1.94l2.42-9.47c2.14-.35 9.05-2.43 7.63 3.09a7 7 0 01-3.5 4.44m2.3-13.4a15.59 15.59 0 01-5.31 1.58l2.19-8.59c1.78-.37 7.55-2.16 6.26 2.94a6.37 6.37 0 01-3.14 4.07m-3.3-18.41l-1.79 7c-.68.15-1.38.31-2 .42l-4.37.84-1.15 4.57 2.28-.41c1.25-.22 1.43.69 1.32 1.54l-2.06 8.09.34-.05-.36.08-2.85 11.28a2.85 2.85 0 01-1.07 1.48 1.47 1.47 0 01-.47.17l-2.31.41-1.93 5.26 4.11-.77c.77-.13 1.52-.28 2.23-.38l-1.83 7.15 3.16-.59 1.82-7.1c.86-.12 1.69-.27 2.5-.42l-1.83 7.05 3.15-.58 1.83-7.13a20.07 20.07 0 005.16-2c2.91-1.68 5.19-4.33 6.63-8.83 1.76-5.53.48-7.61-2.28-8a12.14 12.14 0 004.59-7.79c.92-5-1.87-6.11-5.81-5.84l1.8-7.06-3.15.58-1.75 6.89-2.52.5 1.77-6.92-3.16.58M442.53 188c-5.52 12.65-15.07 34.49-15.31 35.06 5.15-11.75 9.77-22.35 15.31-35.06m-31 17.75c4.65 5.17 10.43 11.54 15.66 17.32v-16.78l-15.61-.54m15.57-20.85l-15 17.87 15.05.47 14.8-17.75-14.78 17.76-15.05-.47 15-7.25v-10.61m-.17-19.59l-15.47 35.07 15.56-18.4 15.49.56-15.49-.56-.09-16.67" class="cls-6"/><path d="M442.6 187.83l-15.44 18.47v16.78c.24-.57 9.79-22.41 15.31-35.06l.07-.18m-15.48-2.92v10.61l14.81-10-14.85-.58m-.02-19.62l.11 16.64 15.49.56-15.6-17.2" class="cls-20"/><path d="M442 185.49l-14.78 17.76v-7.72l-15 7.25 15.05.47L442 185.49" class="cls-29"/><path d="M441.97 185.5l-14.81 10.02-.01.01.04 7.72 14.78-17.75" class="cls-29"/><g class="cls-13"><path d="M166.89 665.11c33.07 19.1 33.23 50 .37 69.15s-86.31 19.11-119.38 0-33.25-50.06-.39-69.16 86.32-19.1 119.4.01z" class="cls-14"/></g><g class="cls-15"><g class="cls-15"><path d="M175.06 691.55v8.06c0 12.44-8.21 24.86-24.54 34.34-32.86 19.1-86.31 19.11-119.38 0-16.65-9.61-25-22.23-24.92-34.82v-8.07c0 12.6 8.28 25.21 24.92 34.82 33.07 19.1 86.52 19.09 119.38 0 16.33-9.48 24.48-21.88 24.54-34.33z" class="cls-4"/><g class="cls-15" clip-path="url(#clip-path-5)"><path fill="url(#linear-gradient-13)" d="M175.06 691.55v8.8-8.06-.74"/><path fill="url(#linear-gradient-14)" d="M174.49 697.13a29.67 29.67 0 01-1.36 4.75 34.68 34.68 0 01-2.25 4.8 39.2 39.2 0 01-3.4 5.05 48 48 0 01-5.24 5.63 65.05 65.05 0 01-10.69 7.92l-1 .61A95.43 95.43 0 01132 734a121.72 121.72 0 01-16 4q-5.31 1-10.77 1.5c-3.1.31-6.23.52-9.36.62v8.07c3.13-.11 6.26-.32 9.36-.63 3.63-.36 7.23-.86 10.77-1.5a122.11 122.11 0 0016-4 95.09 95.09 0 0018.5-8.06l1-.6a66.06 66.06 0 0010.69-7.92 48.82 48.82 0 005.24-5.64 40.16 40.16 0 003.4-5 35.23 35.23 0 002.25-4.8 30.86 30.86 0 001.36-4.76 29.3 29.3 0 00.56-4.84v-8.06a28.5 28.5 0 01-.51 4.75z"/><path fill="url(#linear-gradient-15)" d="M87.24 740.17c-2.78-.07-5.55-.21-8.31-.44s-5.49-.53-8.21-.92-5.61-.88-8.36-1.45c-3-.62-5.93-1.34-8.8-2.16-3.52-1-7-2.16-10.25-3.46a91.7 91.7 0 01-12.17-5.84c-16.64-9.61-25-22.22-24.92-34.82v8.07c0 12.59 8.27 25.21 24.92 34.82a90.49 90.49 0 0012.17 5.83 107.21 107.21 0 0010.25 3.46c2.87.82 5.81 1.54 8.8 2.16q4.13.86 8.36 1.46c2.71.38 5.45.69 8.21.91s5.53.38 8.31.45 5.77.06 8.65 0v-8.07c-2.89.06-5.76.08-8.65 0z"/></g></g><path d="M150.15 656.74c-33.07-19.09-86.54-19.09-119.4 0s-32.68 50.07.39 69.16 86.52 19.09 119.38 0 32.7-50.06-.37-69.16z" class="cls-20"/></g><path d="M150.6 724.93c-32.86 19.09-86.3 19.1-119.38 0-16.14-9.31-24.42-21.45-24.87-33.67-.47 12.91 7.81 25.92 24.87 35.77 33.08 19.1 86.52 19.08 119.38 0 16.83-9.78 25-22.67 24.5-35.49-.44 12.11-8.58 24.14-24.5 33.39z" class="cls-40"/><path d="M102.11 668.51l25.38 3.72c11.4 1.67 20.91 10.54 22.06 22 .82 8.11-2.27 16.22-10.1 20.74a61.76 61.76 0 01-61.73 0L46.53 697c-15.78-9.11-15.78-24 0-33.12 23.13-13.4 32.47-8.73 55.58 4.63z" class="cls-21"/><path d="M51 454.93s-3.37-.33-5.74 9.22-6.65 39.82-4.71 43 20.66 10.65 20.66 10.65l2.54-23.21z" class="cls-31"/><path d="M44.23 672.13v16.38a8.24 8.24 0 007.61 5.61c6 .25 8-5 10.14-9.51s10.34-8.39 10.34-14.61-1.19-8.19-3.61-9.75-9.45 2.5-9.45 2.5zM98.46 692.8s-1.4 9.37.17 11.32 4.31 3.12 10 2.34a18.45 18.45 0 009.36-4.29s17.56-.78 21.26-6.63.39-10.93 0-10.93-20.74-.38-22.65-.87l-1.92-.49z" class="cls-42"/><path d="M54.27 684.61s6.34-3.9 7.32-5.85l1-2s3.71-26.92 7-41.35 8.21-29.05 10.93-39.1 5.06-28.2 5.06-28.2l-14.82-12.63L51.84 652l1.95 31.6z" class="cls-22"/><path d="M119.91 584.86c-1.36-17.82-5.07-47.52-5.07-47.52L59.26 533a60.45 60.45 0 010 11.27c5.92 6.38 18.22 10.51 26.32 11.23 9 .8 15.08-1.39 20.9 5.54 4.62 5.5 5.2 13.25 5.39 20.44.5 19.3-.21 38.61-.93 57.91q-.75 20.07-1.49 40.14a125.3 125.3 0 01-1.68 18.86 13.69 13.69 0 008.35-6.65s5.16-89.06 3.79-106.88z" class="cls-22"/><path d="M110.94 639.37c.72-19.3 1.43-38.61.93-57.91-.19-7.19-.77-14.94-5.39-20.44-5.82-6.93-11.88-4.74-20.9-5.54-8.1-.72-20.4-4.85-26.32-11.23v.11c-.59 6.63-3.12 57.35-3.12 57.35s-3.5 10.75-5.66 17.95-7.3 52.34-7.3 52.34l1.82 6c1.82 6 9.26 6.63 9.26 6.63s.88 1.95.1-2.34 3.32-27.31 3.9-34.53 12.88-58.32 12.49-63.59 0-28.67 0-28.67l3.51 4.09c3.51 4.1 12.65 11.71 12.65 11.71l7.44 42.52a239.71 239.71 0 00-2.15 33.55c.38 15.8 3.32 47.21 3.32 47.21a13.43 13.43 0 0011 4.08 8.1 8.1 0 001.26-.27 125.3 125.3 0 001.68-18.86l1.48-40.16z" class="cls-23"/><path d="M107.2 544.71c6.78-2.61 10-9.45 7.31-15.66-1-2.27-1.87-4.41-2.35-5.83-1.5-4.48-1.69-45-3.6-47.41a5.09 5.09 0 00-.48-.53 18 18 0 00-12.58-2A14.83 14.83 0 0084.78 482c-1.62 4.26-.77 9 .1 13.46L92.73 536a10.69 10.69 0 01-.62 6.49 16.59 16.59 0 01-5.48 6.56c.35 0 .69.08 1 .1 5.37.39 13.1-1.96 19.57-4.44z" class="cls-31"/><path d="M92.11 542.51a10.69 10.69 0 00.62-6.49l-7.85-40.57c-.87-4.49-1.72-9.2-.1-13.46a14.83 14.83 0 0110.72-8.73 18 18 0 0112.58 2c-3.17-3.21-16.48-13.2-16.48-13.2s-17-7.19-22.68-9.06-19.1-1.18-22.26 6.8 10.55 44.66 10.61 47.95-1.9 20.06-1.23 23.82 19.3 16 30.59 17.48a16.59 16.59 0 005.48-6.54z" class="cls-20"/><path d="M68.54 448.75l-.7 5.7s10.31 1.24 15.12 2.88l4.81 1.67s2.25-5.62 3-6.35 4.68-1.14 4.68-1.14L81.75 443z" class="cls-46"/><path d="M99.41 422.49a21.89 21.89 0 011.12 6.34c-.16 2.46-.74 6.51-.17 7.27s1.7 2.47 1.42 3.34-1.93 1.65-1.93 1.65-.75 9.38-1.44 10.58-10.31-.57-11.14-1.5l-.83-.92s-2.89 0-3.52-1.75-.26-5.6-.26-5.6z" class="cls-47"/><path fill="#4c5267" d="M74.79 438.18l18.12-13.63c1.61-1.21 3.29-2.52 4-4.4a6.23 6.23 0 00-1.15-6 4.77 4.77 0 00-.64-.32c-2.29-.73-18.48-2.57-23.48 1.7A42.22 42.22 0 0064 424s-3.92 7-3.23 11.71a9.32 9.32 0 00.57 4.38 7.22 7.22 0 004.55 2c3.34.15 6.27-1.93 8.9-3.91z"/><path fill="#373942" d="M95.77 414.19a6.23 6.23 0 011.15 6c-.72 1.88-2.4 3.19-4 4.4l-18.13 13.59c-2.63 2-5.56 4.06-8.86 3.9a7.22 7.22 0 01-4.55-2 10.48 10.48 0 002 3.31c3.32 3.71 5.7 9.22 10 9.66a20.3 20.3 0 006.07-.54 4.8 4.8 0 003.73-5.23c-.18-1.74-.12-3.51.78-4 1.92-1 3.13-2.31 4.38-.58s1.69 3 2.11 3 3.37-8.57 4-10.5a43.73 43.73 0 001-6.67s5.73-4.54 5.45-6.94c-.24-2.23-2.9-6.16-5.13-7.4z"/><path d="M67.55 451.25L87.77 459l1.46 3s-17.5-.82-21.09-3.11-3.36-5.31-3.36-5.31z" class="cls-31"/><path d="M144.15 526.41s6-2.89 6.75-3.22a56.12 56.12 0 004.73-4.13s.66-1.82.93-3 .55-3.69.55-3.69a8.23 8.23 0 001.62-1.4 16 16 0 001.19-1.51 3 3 0 00.26-2.33c-.61-1.25-5.54-.82-5.54-.82l-1.44-.31s-2.93-.52-3.6.24-3.84 2.82-4.54 3.84a67.77 67.77 0 00-2.75 6.2l-2.46 1.82c.89.8 4 3.63 4.39 4.73a8.82 8.82 0 01-.09 3.58z" class="cls-47"/><path d="M159.32 510.6a8.62 8.62 0 00.6-1.13 16 16 0 01-1.19 1.51 8.23 8.23 0 01-1.62 1.4s-.28 2.52-.55 3.69-.93 3-.93 3a56.12 56.12 0 01-4.73 4.13c-.73.33-6.75 3.22-6.75 3.22a8.82 8.82 0 00.09-3.6c-.37-1.1-3.5-3.93-4.39-4.73l-1.5 1.11s4.47 3.82 5.08 5.26a4.59 4.59 0 01-.24 3.24l8.26-4.25s5-4 5.2-5 2.67-7.85 2.67-7.85zM152.87 509.28a2.36 2.36 0 01-1.29-.08 1.41 1.41 0 01-.88-.9 2.43 2.43 0 01.36-1.64c-.19.38 5.58.63 5.81.71a14.43 14.43 0 01-4 1.91z" class="cls-46"/><path d="M112.4 488.11l-8.73 5c-.87.5-1 1.26-.21 1.69l32.7 18.88a3.24 3.24 0 002.93-.12l8.74-5z" class="cls-64"/><path d="M147.83 508.56l12.68-7.32c.86-.5 1-1.26.21-1.69L128 480.67a3.22 3.22 0 00-2.92.12l-12.69 7.32z" class="cls-64"/><path d="M156.88 501l-1.64-.94a.45.45 0 00-.39 0l-1.57.91c-.11.07-.13.17 0 .22l1.64.95a.42.42 0 00.39 0l1.57-.9c.12-.05.12-.15 0-.24zM153.07 500.88l1.56-.9c.12-.07.13-.17 0-.23l-1.63-.94a.42.42 0 00-.39 0l-1.57.9c-.12.07-.13.17 0 .23l1.64.94a.42.42 0 00.39 0zM150.85 499.61l1.57-.91c.12-.07.13-.17 0-.22l-1.64-1a.42.42 0 00-.39 0l-1.57.9c-.11.07-.12.17 0 .23l1.63.94a.45.45 0 00.4.06zM150.23 497.2l-1.63-.95a.42.42 0 00-.39 0l-1.57.9c-.12.07-.13.17 0 .23l1.64.94a.45.45 0 00.39 0l1.57-.91c.08-.05.09-.16-.01-.21zM148 495.92l-1.64-.95a.45.45 0 00-.39 0l-1.56.91c-.12.06-.13.16 0 .22l1.63.95a.45.45 0 00.39 0l1.57-.91c.11-.06.12-.14 0-.22zM145.81 494.64l-1.64-.94a.42.42 0 00-.39 0l-1.57.91c-.11.06-.13.16 0 .22l1.64 1a.45.45 0 00.39 0l1.57-.9c.08-.13.1-.23 0-.29zM143.59 493.36l-1.63-.94a.47.47 0 00-.4 0l-1.56.91c-.12.07-.13.17 0 .22l1.64.95a.42.42 0 00.39 0l1.56-.9c.09-.08.1-.18 0-.24zM141.38 492.08l-1.64-.94a.45.45 0 00-.39 0l-1.57.91c-.11.07-.13.17 0 .23l1.64.94a.42.42 0 00.39 0l1.57-.9c.09-.08.1-.18 0-.24zM139.16 490.81l-1.63-.95a.42.42 0 00-.39 0l-1.57.9c-.12.07-.13.17 0 .23l1.64.94a.45.45 0 00.39 0l1.57-.91c.08-.02.09-.16-.01-.21zM137 489.53l-1.64-.95a.42.42 0 00-.39 0l-1.57.9c-.11.07-.12.17 0 .23l1.63.94a.45.45 0 00.39 0l1.57-.91c.01-.05.06-.16.01-.21zM134.73 488.25l-1.63-.95a.45.45 0 00-.39 0l-1.57.9c-.12.07-.13.17 0 .23l1.64.95a.45.45 0 00.39 0l1.57-.91c.08-.06.09-.16-.01-.22zM132.52 487l-1.64-.94a.42.42 0 00-.39 0l-1.56.91c-.12.06-.13.16 0 .22l1.63.95a.45.45 0 00.39 0l1.57-.9c.09-.11.1-.24 0-.24zM130.31 485.69l-1.64-.94a.45.45 0 00-.39 0l-1.57.91c-.11.06-.13.17 0 .22l1.64.95a.42.42 0 00.39 0l1.57-.9c.08-.08.1-.18 0-.24zM123.47 484l2.64 1.52a.42.42 0 00.39 0l1.56-.9c.12-.07.13-.17 0-.23l-2.63-1.52a.44.44 0 00-.4 0l-1.56.9c-.09.11-.1.23 0 .23zM121.27 485.31l1.64.94a.45.45 0 00.39 0l1.56-.91c.12-.07.13-.17 0-.22l-1.64-.95a.42.42 0 00-.39 0l-1.56.9c-.09.08-.1.18 0 .24zM125.08 485.46l-1.57.9c-.11.07-.13.17 0 .23l1.64.94a.42.42 0 00.39 0l1.57-.9c.11-.07.13-.17 0-.23l-1.64-.94a.42.42 0 00-.39 0zM129.32 487.66l-1.64-.94a.45.45 0 00-.39 0l-1.57.91c-.11.07-.12.17 0 .22l1.63.95a.42.42 0 00.39 0l1.57-.9c.1-.08.11-.18.01-.24zM131.53 488.94l-1.63-.94a.45.45 0 00-.39 0l-1.57.91c-.12.06-.13.17 0 .22l1.64.95a.42.42 0 00.39 0l1.57-.9c.08-.08.09-.18-.01-.24zM133.75 490.22l-1.64-1a.45.45 0 00-.39 0l-1.57.91c-.11.06-.12.16 0 .22l1.63.95a.45.45 0 00.39 0l1.57-.91c.1-.01.11-.11.01-.17zM136 491.5l-1.63-.95a.45.45 0 00-.39 0l-1.57.9c-.12.07-.13.17 0 .23l1.64.94a.42.42 0 00.39 0l1.56-.91c.05-.05.06-.15 0-.21zM138.18 492.78l-1.64-.95a.42.42 0 00-.39 0l-1.57.9c-.11.07-.13.17 0 .23l1.64.94a.45.45 0 00.39 0l1.57-.91c.08-.06.1-.16 0-.21zM140.39 494.05l-1.64-.94a.42.42 0 00-.39 0l-1.56.9c-.12.07-.13.17 0 .23l1.63.94a.45.45 0 00.39 0l1.57-.91c.09-.06.1-.16 0-.22zM142.61 495.33l-1.64-.94a.45.45 0 00-.39 0l-1.57.91c-.12.07-.13.17 0 .22l1.64 1a.42.42 0 00.39 0l1.57-.9c.08-.13.1-.23 0-.29zM144.82 496.61l-1.64-.94a.45.45 0 00-.39 0l-1.57.91c-.11.06-.12.17 0 .22l1.63.95a.42.42 0 00.39 0l1.57-.9c.1-.08.11-.18.01-.24zM143.41 498.09l1.64 1a.45.45 0 00.39 0l1.57-.9c.11-.07.12-.17 0-.23l-1.63-.95a.45.45 0 00-.39 0l-1.57.91c-.1.01-.11.08-.01.17zM147.65 500.3l1.57-.91c.12-.06.13-.16 0-.22l-1.64-.95a.45.45 0 00-.39 0l-1.57.9c-.11.07-.13.17 0 .23l1.64.94a.42.42 0 00.39.01zM149.87 501.58l1.56-.91c.12-.06.13-.17 0-.22l-1.63-.95a.42.42 0 00-.39 0l-1.57.9c-.12.07-.13.17 0 .23l1.64.94a.45.45 0 00.39.01zM154.68 502.3l-2.68-1.52a.42.42 0 00-.39 0l-1.57.9c-.11.07-.13.17 0 .23l2.64 1.52a.42.42 0 00.39 0l1.57-.9c.12-.07.14-.17.04-.23zM119.07 486.58l3.23 1.87a.45.45 0 00.39 0l1.57-.91c.12-.06.13-.16 0-.22l-3.24-1.87a.42.42 0 00-.39 0l-1.56.9c-.07.07-.07.17 0 .23zM152.46 503.56l-3.24-1.87a.45.45 0 00-.39 0l-1.56.91c-.12.06-.13.16 0 .22l3.23 1.87a.42.42 0 00.39 0l1.57-.9c.09-.07.1-.17 0-.23zM122.88 488.78l1.64.94a.45.45 0 00.39 0l1.57-.91c.11-.06.12-.16 0-.22l-1.63-.95a.42.42 0 00-.39 0l-1.57.9c-.1.08-.11.18-.01.24zM125.09 490.06l1.64.94a.45.45 0 00.39 0l1.57-.91c.12-.07.13-.17 0-.22l-1.64-.95a.42.42 0 00-.39 0l-1.57.9c-.09.08-.09.18 0 .24zM127.31 491.34l1.64.94a.42.42 0 00.39 0l1.56-.9c.12-.07.13-.17 0-.23l-1.63-.94a.42.42 0 00-.39 0l-1.57.9c-.09.07-.1.17 0 .23zM129.52 492.61l1.64.95a.42.42 0 00.39 0l1.57-.9c.11-.07.13-.17 0-.23l-1.64-.94a.45.45 0 00-.39 0l-1.57.91c-.08.06-.1.16 0 .21zM131.74 493.89l1.63.95a.42.42 0 00.39 0l1.57-.9c.12-.07.13-.17 0-.23l-1.64-.94a.45.45 0 00-.39 0l-1.56.91c-.09.05-.1.16 0 .21zM134 495.17l1.64.95a.45.45 0 00.39 0l1.57-.91c.11-.06.12-.16 0-.22l-1.63-1a.45.45 0 00-.39 0L134 495c-.14 0-.15.11 0 .17zM136.17 496.45l1.63.94a.42.42 0 00.39 0l1.57-.91c.12-.06.13-.16 0-.22l-1.64-.95a.45.45 0 00-.39 0l-1.57.9c-.08.08-.09.18.01.24zM138.38 497.73l1.64.94a.45.45 0 00.39 0l1.56-.91c.12-.07.13-.17 0-.22l-1.63-.95a.42.42 0 00-.39 0l-1.57.9c-.09.08-.1.18 0 .24zM140.59 499l1.64.94a.45.45 0 00.39 0l1.57-.91c.11-.07.13-.17 0-.23l-1.64-.94a.42.42 0 00-.39 0l-1.57.9c-.08.09-.1.24 0 .24zM142.81 500.28l1.64 1a.42.42 0 00.39 0l1.56-.9c.12-.07.13-.17 0-.23l-1.64-.94a.45.45 0 00-.39 0l-1.56.91c-.09.01-.1.11 0 .16zM147.05 502.49l1.57-.9c.11-.07.13-.17 0-.23l-1.64-.94a.45.45 0 00-.39 0l-1.57.91c-.11.06-.13.17 0 .22l1.64.95a.42.42 0 00.39-.01zM116.87 487.85l4.33 2.5a.42.42 0 00.39 0l1.57-.9c.12-.07.13-.17 0-.23l-4.34-2.5a.42.42 0 00-.39 0l-1.56.9c-.09.07-.1.17 0 .23zM121.78 490.68l1.64.95a.42.42 0 00.39 0l1.56-.9c.12-.07.13-.17 0-.23l-1.63-.94a.45.45 0 00-.39 0l-1.57.91c-.09.06-.1.16 0 .21zM124 492l1.64 1a.42.42 0 00.39 0l1.57-.9c.11-.07.13-.17 0-.23l-1.64-.94a.45.45 0 00-.39 0l-1.57.91c-.09-.04-.11.07 0 .16zM126.21 493.24l1.63.95a.45.45 0 00.39 0l1.57-.91c.12-.06.13-.16 0-.22l-1.64-1a.45.45 0 00-.39 0l-1.56.91c-.09.11-.1.21 0 .27zM128.42 494.52l1.64.94a.45.45 0 00.39 0l1.57-.91c.11-.06.12-.16 0-.22l-1.63-.95a.45.45 0 00-.39 0l-1.57.9c-.1.08-.11.18-.01.24zM130.64 495.8l1.63.94a.45.45 0 00.39 0l1.57-.91c.12-.07.13-.17 0-.22l-1.64-1a.42.42 0 00-.39 0l-1.57.9c-.08.13-.09.23.01.29zM132.85 497.08l1.64.94a.42.42 0 00.39 0l1.57-.9c.11-.07.12-.17 0-.23l-1.63-.94a.42.42 0 00-.39 0l-1.57.9c-.1.07-.11.15-.01.23zM135.06 498.35l1.64.95a.42.42 0 00.39 0l1.57-.9c.12-.07.13-.17 0-.23l-1.64-.94a.45.45 0 00-.39 0l-1.57.91c-.06.06-.06.16 0 .21zM137.28 499.63l1.64.95a.42.42 0 00.39 0l1.56-.9c.12-.07.13-.17 0-.23l-1.63-.94a.47.47 0 00-.4 0l-1.56.91c-.09.05-.1.16 0 .21zM139.49 500.91l1.64.95a.45.45 0 00.39 0l1.57-.91c.11-.06.13-.16 0-.22l-1.64-.95a.45.45 0 00-.39 0l-1.57.91c-.08.06-.1.16 0 .22zM141.71 502.19l1.63.94a.42.42 0 00.39 0l1.57-.91c.12-.06.13-.16 0-.22l-1.64-.95a.45.45 0 00-.39 0l-1.56.9c-.09.05-.1.18 0 .24zM150.26 504.83l-4.35-2.51a.42.42 0 00-.39 0l-1.57.9c-.12.07-.13.17 0 .23l4.35 2.51a.42.42 0 00.39 0l1.57-.9c.09-.06.1-.17 0-.23zM138.7 500.7l-10.49-6.06a.45.45 0 00-.39 0l-1.57.9c-.12.07-.13.17 0 .23l10.5 6.06a.42.42 0 00.39 0l1.56-.9c.09-.07.1-.17 0-.23zM124.93 492.75l-1.63-.94a.45.45 0 00-.39 0l-1.57.91c-.12.07-.13.17 0 .22l1.64.95a.42.42 0 00.39 0l1.56-.9c.07-.08.07-.18 0-.24zM127.63 494.31l-2.12-1.22a.45.45 0 00-.39 0l-1.57.91c-.11.06-.13.16 0 .22l2.12 1.23a.45.45 0 00.39 0l1.57-.91c.09-.07.1-.17 0-.23zM143.61 503.54l-1.63-1a.42.42 0 00-.39 0l-1.57.9c-.12.07-.13.17 0 .23l1.64.94a.45.45 0 00.39 0l1.57-.91c.08 0 .09-.1-.01-.16zM141.4 502.26l-2.12-1.26a.42.42 0 00-.39 0l-1.57.91c-.11.06-.13.16 0 .22l2.12 1.23a.45.45 0 00.39 0l1.57-.91c.09-.03.1-.13 0-.19zM118.29 488.92l-1.64-.95a.42.42 0 00-.39 0l-1.56.9c-.12.07-.13.17 0 .23l1.63.94a.45.45 0 00.39 0l1.57-.91c.09-.05.1-.13 0-.21zM120.5 490.2l-1.63-.95a.42.42 0 00-.39 0l-1.57.9c-.12.07-.13.17 0 .23l1.64.94a.45.45 0 00.39 0l1.57-.91c.08-.06.09-.16-.01-.21zM122.72 491.47l-1.64-.94a.42.42 0 00-.39 0l-1.57.9c-.11.07-.12.17 0 .23l1.63.94a.42.42 0 00.39 0l1.57-.9c.1-.07.11-.17.01-.23zM148.06 506.1l-3.87-2.23a.42.42 0 00-.39 0l-1.57.9c-.11.07-.13.17 0 .23l3.87 2.23a.42.42 0 00.39 0l1.57-.9c.08-.07.1-.17 0-.23zM158.29 500.22l-1.64-1a.42.42 0 00-.39 0l-.78.45c-.11.06-.13.17 0 .22l1.64 1a.42.42 0 00.39 0l.78-.45c.09-.06.1-.17 0-.22zM153.24 498.69l1.64.94a.42.42 0 00.39 0l.78-.45c.11-.06.12-.16 0-.22l-1.63-.95a.45.45 0 00-.39 0l-.78.45c-.1.07-.11.17-.01.23zM151 497.41l1.63.94a.45.45 0 00.39 0l.78-.45c.12-.07.13-.17 0-.23l-1.64-.94a.42.42 0 00-.39 0l-.78.45c-.05.07-.06.17.01.23zM148.81 496.13l1.64.94a.45.45 0 00.39 0l.78-.45c.11-.07.13-.17 0-.23l-1.64-.94a.45.45 0 00-.39 0l-.78.45c-.09.1-.1.17 0 .23zM146.6 494.85l1.63.94a.42.42 0 00.39 0l.78-.45c.12-.07.13-.17 0-.23l-1.63-.94a.45.45 0 00-.39 0l-.78.45c-.09.07-.1.17 0 .23zM144.38 493.57l1.64.95a.45.45 0 00.39 0l.78-.45c.12-.07.13-.17 0-.23l-1.64-.94a.42.42 0 00-.39 0l-.78.45c-.08.06-.1.16 0 .22zM142.17 492.29l1.64.95a.42.42 0 00.39 0l.78-.45c.11-.06.12-.17 0-.22l-1.63-.95a.42.42 0 00-.39 0l-.78.45c-.1.06-.11.17-.01.22zM140 491l1.63.95a.42.42 0 00.39 0l.78-.45c.12-.06.13-.16 0-.22l-1.64-.95a.45.45 0 00-.39 0l-.78.45c-.12.08-.13.22.01.22zM137.74 489.74l1.64.94a.45.45 0 00.39 0l.78-.45c.11-.07.13-.17 0-.23l-1.64-.95a.45.45 0 00-.39 0l-.78.45c-.09.08-.1.18 0 .24zM135.53 488.46l1.63.94a.45.45 0 00.39 0l.78-.45c.12-.07.13-.17 0-.23l-1.64-.94a.45.45 0 00-.39 0l-.78.45c-.08.07-.09.17.01.23zM133.31 487.18l1.64.94a.42.42 0 00.39 0l.78-.45c.11-.07.13-.17 0-.23l-1.64-.94a.45.45 0 00-.39 0l-.78.45c-.09.05-.1.17 0 .23zM131.1 485.9l1.63 1a.47.47 0 00.4 0l.77-.45c.12-.07.13-.17 0-.23l-1.63-.94a.42.42 0 00-.39 0l-.78.45c-.1.01-.1.11 0 .17zM128.88 484.62l1.64.95a.42.42 0 00.39 0l.78-.45c.12-.07.13-.17 0-.22l-1.64-.95a.42.42 0 00-.39 0l-.78.45c-.08.06-.1.17 0 .22zM125.67 482.77l2.64 1.52a.42.42 0 00.39 0l.78-.45c.11-.06.12-.16 0-.22l-2.63-1.52a.42.42 0 00-.39 0l-.78.45c-.1.06-.11.16-.01.22z" class="cls-65"/><path d="M130.16 482.34l27.65 15.97.38-.22-27.65-15.97-.38.22z" class="cls-66"/><path d="M134.61 502.05l-10.93-6.31a1.09 1.09 0 00-1 0l-4.52 2.61-.19.11-.1.06-.35.21-2 1.14a.3.3 0 000 .57l5.38 3.1.19.11 5.37 3.1a1.06 1.06 0 001 0l2.44-1.41.19-.11 4.52-2.6c.28-.17.27-.42 0-.58z" class="cls-65"/><path d="M139.09 513.6l21.42-12.36a1.27 1.27 0 00.71-.89v1.38a1.29 1.29 0 01-.71.88L139.09 515zM117.4 502.6l5.33 3.08c.15.08.15.21 0 .29l-5.86-3.38a.56.56 0 01.53.01zM115.55 500.13l2-1.14.35-.21.1-.06.19-.11 4.52-2.6a1.06 1.06 0 011 0l10.93 6.31a.47.47 0 01.16.15c.09-.14 0-.3-.16-.42l-10.93-6.31a1.09 1.09 0 00-1 0l-4.52 2.61-.19.11-.1.06-.35.21-2 1.14c-.19.11-.25.28-.16.42a.78.78 0 01.16-.16z" class="cls-66"/><g class="cls-15"><path d="M131.87 447.75l1-.39a.65.65 0 01.59.08l-1 .39a.67.67 0 00-.59-.08z" class="cls-67"/><path d="M162.31 499.32l-1 .39a.78.78 0 00.45-.66l1-.39a.79.79 0 01-.45.66z" class="cls-66"/><path d="M165.25 468.88l1.03-.39-4.03 27.75-1.04.39 4.04-27.75z" class="cls-68"/><path d="M165.43 466.86l1-.39a1.68 1.68 0 01.73 1.6l-1 .39a1.7 1.7 0 00-.73-1.6z" class="cls-67"/><path d="M132.15 449.77l1.04-.39 33.09 19.11-1.03.39-33.1-19.11z" class="cls-68"/><path d="M165.43 466.86a1.7 1.7 0 01.73 1.6l-4.44 30.59c-.09.6-.55.87-1 .58l-33-19A1.7 1.7 0 01127 479l4.44-30.59c.08-.6.55-.87 1-.58zm-4.22 29.77l4-27.75-33.1-19.11-4 27.75 33.09 19.11" class="cls-64"/><path d="M165.25 468.88l-4.04 27.75-33.09-19.11 4.03-27.75 33.1 19.11z" class="cls-25"/><path d="M132.47 447.83l1.03-.39 32.96 19.02-1.03.4-32.96-19.03z" class="cls-65"/><path d="M166.16 468.46l1.03-.39-4.44 30.59-1.03.39 4.44-30.59z" class="cls-66"/></g><path d="M136.16 513.72v1.37a3.27 3.27 0 002.93-.13v-1.36a3.24 3.24 0 01-2.93.12z" class="cls-67"/><path d="M103.46 494.84a.9.9 0 01-.51-.68v1.34a.87.87 0 00.51.72l32.68 18.87v-1.37z" class="cls-65"/><path fill="#f7f8f9" d="M103.67 493.15l8.73-5 12.69-7.32a3.41 3.41 0 012.44-.31 2.81 2.81 0 00-.53.22L114.32 488l-8.74 5c-.87.5-1 1.26-.21 1.69l32.7 18.88a2.62 2.62 0 00.49.19 3.13 3.13 0 01-2.4-.11l-32.7-18.88c-.75-.36-.66-1.12.21-1.62z"/><path d="M127 479l4.44-30.59c.08-.6.55-.87 1-.58l33 19a1.7 1.7 0 01.73 1.6v.35l-32.78-18.92c-.49-.28-1 0-1 .58L128 480.68l-.19-.11A1.7 1.7 0 01127 479z" class="cls-64"/><path d="M132.97 454.55l-3.24 22.26 30.59 17.66 3.24-22.27-30.59-17.65z" class="cls-6"/><path d="M163.94 469.59l-30.59-17.66-.38 2.62 30.59 17.65.38-2.61z" class="cls-14"/><path d="M144.69 510.73s1.93-4.41 2.66-6 .08-3.43 1.27-3.79 1.38 1.88 1.31 3.36a14.91 14.91 0 00.77 4c.19.82 1.74 1 1.74 1l-3 5.24h-3.57z" class="cls-47"/><path d="M97.34 473.54c10.89-1.53 11.36 6.33 11.52 9.52S112 516.3 112 516.3l27.13 1.49s3.14 2.87 4.85 4.25 1 7.6 1 7.6-31 4.51-37.18 4.8-12.15-3.16-13-5.93-7.91-32.31-7.65-37c.69-11.66 3.72-17.07 10.19-17.97z" class="cls-20"/><path d="M602.41 537.3l4.08-2.35.16-.09a11.64 11.64 0 013.74-1.45 3.44 3.44 0 012.76.55 5 5 0 011.57 2.79 19.72 19.72 0 01.52 4.94 28.65 28.65 0 01-.47 5.48 17.35 17.35 0 01-1.57 4.59 16.54 16.54 0 01-6.62 6.63l-4.08 2.36-.29.17a12.43 12.43 0 01-3.64 1.43 3.55 3.55 0 01-2.77-.53 4.83 4.83 0 01-1.56-2.74 19.26 19.26 0 01-.52-4.94 21.91 21.91 0 012.06-10.14 15.38 15.38 0 012.74-3.73 19.43 19.43 0 013.76-2.88l.15-.09m-.42-4.63a26.33 26.33 0 00-5.2 4 24.07 24.07 0 00-4 5.4 29.32 29.32 0 00-3.31 14.52q0 8.5 3.38 10.57a5.72 5.72 0 004.07.67 16.47 16.47 0 005.33-2l.28-.17 4.08-2.36.29-.16a26.81 26.81 0 005.32-4.11 24.69 24.69 0 004.06-5.37 25.26 25.26 0 002.48-6.55 34 34 0 00.81-7.87 23.67 23.67 0 00-.85-6.94 6.78 6.78 0 00-2.51-3.72c-2.24-1.43-5.46-.93-9.69 1.51l-4.08 2.35-.41.23m-43.29 25a21.74 21.74 0 00-6.41 5.58 17.73 17.73 0 00-2.49 4.39 16.16 16.16 0 00-.75 2.33 22.25 22.25 0 00-.55 4.94l.06 21.89 4.25-2.46v-13.58l18-10.4v-4.57l-18 10.4v-3.81a8.52 8.52 0 01.08-1.31 8.89 8.89 0 01.23-1.3 9.18 9.18 0 011.11-2.69 11.17 11.17 0 01.93-1.35 12.34 12.34 0 011.16-1.24 16.12 16.12 0 013-2.23l.16-.09 11.54-6.66v-4.88L559 557.49l-.29.16M582.32 544l-4.25 2.45.1 33.23 4.24-2.45-.09-33.23" class="cls-6"/><path d="M509.52 601.61l.05 20c0 1.12.53 1.89 1.34 2l10.08.52a1 1 0 00.52-.13 2 2 0 00.81-1.78l-.06-20.46-12.26-.05-.46-.1" class="cls-7"/><path d="M531.17 557.06a1.62 1.62 0 00-.41.36l-18.6 21.74c-2.07 2.42-2.55 2.89-2.66 4.26a1.53 1.53 0 01.66-1.13.88.88 0 01.42-.11l14 .16 6.2-7.24a5.21 5.21 0 001.09-2.89v-14.47c0-.68-.29-.91-.69-.68" class="cls-8"/><path d="M524.61 582.34l-14 16.35a1.48 1.48 0 01-.4.34.73.73 0 01-.26.09.39.39 0 01-.39-.32 1.28 1.28 0 001.05 1.06l20.25.25a.75.75 0 00.4-.12 1.69 1.69 0 00.69-1.49v-14.47c0-.91-.44-1.51-1.1-1.62l-6.22-.07" class="cls-9"/><path d="M510.16 582.29a1.53 1.53 0 00-.66 1.13v14.9l.07.48a.39.39 0 00.39.32.73.73 0 00.26-.09 1.48 1.48 0 00.4-.34l14-16.35-14-.16a.88.88 0 00-.42.11" class="cls-10"/><g opacity=".35"><path d="M339.91 610.06c-79.11 0-154.17-16.51-214.68-46.87l-.15 31c60.52 30.37 135.58 46.88 214.71 46.88 57.19 0 112.16-8.66 161-24.91v-31c-48.79 16.26-103.74 24.9-160.88 24.9zM677.32 449.71l-1-48.12c0 37.26-18.3 78.6-53.48 113.46v34.78c35.67-28.83 54.69-59.19 54.48-100.12z" class="cls-7"/></g></g></g></svg>