<?xml version="1.0" encoding="utf-8"?><svg xmlns="http://www.w3.org/2000/svg" xmlns:xlink="http://www.w3.org/1999/xlink" viewBox="0 0 309.64 465.65"><defs><linearGradient id="linear-gradient" x1="126.1" x2="293.09" y1="437.07" y2="437.07" gradientUnits="userSpaceOnUse"><stop offset="0" stop-color="#3cb4e5"/><stop offset="1" stop-color="#425cc7"/></linearGradient><linearGradient id="linear-gradient-3" x1="293.05" x2="293.09" y1="413.6" y2="413.6" xlink:href="#linear-gradient"/><linearGradient id="linear-gradient-4" x1="-288.93" x2="186.91" y1="511.15" y2="447.01" gradientUnits="userSpaceOnUse"><stop offset="0" stop-color="#a1b7ff"/><stop offset=".9" stop-color="#46b4e8"/><stop offset="1" stop-color="#3cb4e5"/></linearGradient><linearGradient id="linear-gradient-5" x1="-5.71" x2="220.06" y1="430.17" y2="439.22" xlink:href="#linear-gradient-4"/><clipPath id="clip-path"><path d="M293.09 409.25v8c0 12.3-8.12 24.58-24.26 34-32.5 18.89-85.35 18.9-118.06 0-16.46-9.51-24.68-22-24.64-34.44v-8c0 12.45 8.19 24.93 24.65 34.43 32.7 18.89 85.56 18.87 118 0 16.22-9.41 24.27-21.7 24.31-33.99z" class="cls-1"/></clipPath><clipPath id="clip-path-2"><path fill="none" d="M183.54 58.45l.05-14.58 69.03 39.86-.04 14.58-69.04-39.86z"/></clipPath><style>.cls-1{fill:url(#linear-gradient)}.cls-3{fill:#e8a89a}.cls-4{fill:#40b4e2}.cls-6{fill:#425cc7}.cls-7{isolation:isolate}.cls-12{fill:#d7eff9}.cls-25{fill:#fff}.cls-15{fill:#025c99}.cls-17{fill:#005cb9}.cls-19{fill:#95e4fc}.cls-22{fill:#fccabe}.cls-23{fill:#b7e0ed}.cls-24{fill:#4cc7ed}.cls-28{fill:#4d5fab}.cls-45{fill:#7ac2d3}</style></defs><g id="Layer_2" data-name="Layer 2"><g id="Layer_1-2" data-name="Layer 1"><path d="M184.45 217l-2.45 6.87-.24 11.28a54.11 54.11 0 006.59 1.6c1.46.08 5.19-8.3 5.19-8.3l-1.17-9.37z" class="cls-3"/><path d="M153.41 210.64a46.31 46.31 0 015.83 4.22c2.08 1.92 4.23 4 4.23 4l19.9 5.38 1.08 9-2.7 1.94-17.65-8.41-5.41.5z" class="cls-3"/><path d="M198.7 180.09c0-.11-4.91-.35-7.52 5.18s-6.23 27.28-7.07 29.66l-.85 2.38 8.76 6.3z" class="cls-4"/><path d="M285 383.1c32.7 18.89 32.85 49.5.36 68.39s-85.35 18.89-118 0-32.88-49.51-.39-68.39 85.33-18.88 118.03 0z" class="cls-6" opacity=".2"/><g class="cls-7"><g class="cls-7"><path d="M293.09 409.25v8c0 12.3-8.12 24.58-24.26 34-32.5 18.89-85.35 18.9-118.06 0-16.46-9.51-24.68-22-24.64-34.44v-8c0 12.45 8.19 24.93 24.65 34.43 32.7 18.89 85.56 18.87 118 0 16.22-9.41 24.27-21.7 24.31-33.99z" class="cls-1"/><g class="cls-7" clip-path="url(#clip-path)"><path fill="url(#linear-gradient-3)" d="M293.09 409.25v8.73-8-.73"/><path fill="url(#linear-gradient-4)" d="M292.53 414.77a31.25 31.25 0 01-1.35 4.7 34.45 34.45 0 01-2.22 4.75 40.13 40.13 0 01-3.37 5 48.49 48.49 0 01-5.18 5.57 65 65 0 01-10.57 7.83l-1 .6a94.42 94.42 0 01-18.3 8.05 121.35 121.35 0 01-15.81 3.93c-3.5.64-7.06 1.13-10.65 1.49-3.07.3-6.16.51-9.26.61v8c3.1-.11 6.2-.31 9.26-.62q5.4-.54 10.65-1.48a120.57 120.57 0 0015.81-3.94 94.24 94.24 0 0018.31-8.05l1-.6a64.44 64.44 0 0010.57-7.83 47.74 47.74 0 005.18-5.57 38.28 38.28 0 003.36-5 32.89 32.89 0 002.23-4.75 30.92 30.92 0 001.35-4.7 28.8 28.8 0 00.54-4.79v-8a28.82 28.82 0 01-.55 4.8z"/><path fill="url(#linear-gradient-5)" d="M206.25 457.33c-2.75-.06-5.5-.21-8.22-.44s-5.44-.52-8.12-.9-5.55-.88-8.27-1.44c-2.95-.61-5.86-1.32-8.7-2.13-3.48-1-6.87-2.14-10.14-3.43a89 89 0 01-12-5.77c-16.46-9.5-24.68-22-24.65-34.43v8c0 12.46 8.18 24.93 24.64 34.44a92.23 92.23 0 0012 5.77q4.91 1.93 10.13 3.42 4.28 1.22 8.71 2.13 4.08.86 8.27 1.44c2.68.38 5.39.68 8.11.91s5.48.37 8.22.44 5.71.06 8.55 0v-8q-4.26.1-8.53-.01z"/></g></g><path d="M268.45 374.83c-32.7-18.88-85.58-18.88-118.07 0s-32.32 49.51.39 68.39 85.56 18.87 118 0 32.39-49.51-.32-68.39z" class="cls-12"/></g><path fill="#fff" d="M268.82 441.14c-32.49 18.88-85.35 18.9-118 0-16-9.21-24.15-21.22-24.61-33.3-.46 12.77 7.73 25.63 24.61 35.37 32.7 18.89 85.56 18.87 118 0 16.64-9.67 24.7-22.42 24.23-35.09-.44 11.98-8.49 23.88-24.23 33.02z" opacity=".42"/><path fill="#425cc7" d="M241.91 389.18l-4.26-2.47a37.76 37.76 0 00-37.72 0l-24.11 13.93a11 11 0 000 19.15l4.26 2.46a37.71 37.71 0 0037.72 0l24.11-13.92a11.06 11.06 0 000-19.15z" opacity=".25"/><path d="M227.14 378.44s-2.44 4.59-2.44 8.71-1.14 7.38-3.9 8.68-8.56 1.3-8.56 1.3l-.39-6 1.14-1.8 8-23.72s3.05-1.12 4.67 1.12 4.55 15.74 4.55 15.74l-1.12 1.53z" class="cls-15"/><path d="M217.59 363.64l5.32 3.12s-.77 27.73-7.53 24.4a6.5 6.5 0 01-2.39-1.8s1.79-3.77 1.14-6.37a69 69 0 01-1.14-7z" class="cls-3"/><path fill="#f9c2b2" d="M201.93 412a7 7 0 01-5.87 2.37 5.23 5.23 0 01-3.43-2.18c3.62-7.19 8.66-16 9.14-17.19.82-1.95.82-9.79.82-9.79l9.26-3.57v9.5s.16.23.39.6q-3.45 7.33-6.91 14.66a20.47 20.47 0 01-3.4 5.6z"/><path d="M192.63 412.21a5.23 5.23 0 003.43 2.18 7 7 0 005.87-2.37 20.47 20.47 0 003.4-5.6q3.46-7.32 6.91-14.66a25.9 25.9 0 013 6.51c.81 3.25-3.09 16.42-3.09 16.42l-1.79.16v-7.15s-1.62 7.15-4.88 10.57-14.63 4.55-16.42 3.4c-.69-.46 1.12-4.59 3.57-9.46z" class="cls-15"/><path d="M214 323.48q.94-12.83 1.87-25.66l1.68-23.22a8.73 8.73 0 00-.55-4.79c-1.44-2.68-4.37-.81-7.4-1.16-7.87-.92-15.88-5.24-22.57-10.35l1-4.35 40.56 5.24s3.82 14.81 2.11 21.43S219 326.5 219 326.5s3.13 25.11 1.66 31-7.55 27.76-7.55 27.76-1.67.59-3.68 1.15q.91-12.64 1.84-25.3 1.34-18.84 2.73-37.63z" class="cls-17"/><path fill="#1d85db" d="M179.82 315.24c-.17-5 4.46-44.64 7.17-56.94 6.69 5.11 14.7 9.43 22.57 10.35 3 .35 6-1.52 7.4 1.16a8.73 8.73 0 01.55 4.79l-1.68 23.22q-.93 12.84-1.87 25.66-1.35 18.79-2.72 37.6-.93 12.65-1.84 25.3c-2.59.73-5.76 1.43-6.75.77l-1.77-1.15s-.49-28.78 0-29.51-20.88-35.19-21.06-41.25z"/><path d="M188.69 220.42c.16-3.25-2.28-12.52-2.28-15.77s5-12.68 5.61-15.36c.13-.55.32-1.19.52-1.84 10.43 2 24.67 5.65 31.32 10.68-2 1.57-1.88 3.82-2.14 6.35s-1.65 4.83-2.1 7.32-1.72 5-4 6.13c-2.69 1.25-5.83.16-8.59-.93l-13.82-5.48c7.5 4.22 15.14 9.66 18.65 17.52a23.92 23.92 0 011.71 12.49 19.38 19.38 0 01-3 8.73c-4.17 6.07-12.44 7.88-19.74 6.31-2.63-1.62-4.41-2.82-4.41-2.82s2.11-30.08 2.27-33.33z" class="cls-19"/><path d="M210.56 250.26a19.38 19.38 0 003-8.73 23.92 23.92 0 00-1.71-12.53c-3.51-7.86-11.15-13.3-18.65-17.52L207 217c2.46 1 4.13.72 6.46-.64a11.32 11.32 0 003.5-2.87 13.71 13.71 0 001.93-4.78c.16-.6 3.19-11.88 5-10.58-6.65-5-20.89-8.68-31.32-10.68.8-2.53 2.07-5.46 3.22-6a12 12 0 014.08-.53l17.58 2.54 14.06 10.71s1.91 3.29 1.91 6 .33 11.87-4.55 21.13-6.5 16-6.5 17.16 6.18 20.72 6.18 20.72-11.22 5.94-17.89 6.18c-4.54.17-14.16-5.3-19.81-8.8 7.27 1.58 15.54-.23 19.71-6.3z" class="cls-4"/><path fill="#718ce2" d="M224.09 162.89a9.94 9.94 0 01-7.81 2.66 12.5 12.5 0 01-7.53-3.61 31 31 0 01-4.28-5.81 23 23 0 00-4.53-5.59 10.18 10.18 0 00-2.57-1.5 11.81 11.81 0 014.62-3.73c4.13-1.58 19.13-1.7 22.06 2.93a26.66 26.66 0 013.56 10.65c-1.33 1.16-2.25 2.75-3.52 4z"/><path d="M197.37 149a10.18 10.18 0 012.57 1.5 23 23 0 014.53 5.59 31 31 0 004.28 5.81 12.5 12.5 0 007.53 3.61 9.94 9.94 0 007.81-2.66c1.27-1.25 2.19-2.84 3.52-4a23.21 23.21 0 01.09 5.93c-.7 5.08 2.81 9.39 3.66 14.15s1.47 8.6 1.22 11.25a9.49 9.49 0 01-1.1 4s-11-8.32-12.51-9.51l-1.55-1.2-7.86-3-13.65-15.19a9.79 9.79 0 01-2.34-7.44 17.37 17.37 0 013.8-8.84z" class="cls-6"/><path d="M200.88 195.49l-4.48.64s.15-8.37 1-8.68 5.67-1.11 5.67-1.11a9.78 9.78 0 00-1.94 3.88 15.25 15.25 0 00-.25 5.27z" class="cls-4"/><path d="M197.63 176.92s.32 3.5-1.14 5.33-3.66 4.11-4 7.28 0 11.3 0 11.3 4-11 6.5-12a15.11 15.11 0 004.8-3.49l1.22-5.68z" class="cls-6"/><path fill="#d38f84" d="M206.09 189.86a2.27 2.27 0 01-2.21.11 2.17 2.17 0 01-.72-1.85 7.51 7.51 0 00-.12-1.78l.1-.12c.06-.18-.49-3.72-.49-3.72l13.43-8.21a41.78 41.78 0 00.48 6.67c-3.8 2.45-6.29 6.98-10.47 8.9z"/><path d="M203 186.34a7.51 7.51 0 01.12 1.78 2.17 2.17 0 00.72 1.85 2.27 2.27 0 002.21-.11c4.18-1.92 6.67-6.45 10.47-8.9a7.55 7.55 0 00.42 1.54 13.09 13.09 0 001.88 3.42 1.76 1.76 0 010 .29c.18 1.39.42 7.19-7.44 8.59-8.94 1.6-10.67-.4-10.59.69.13 1.7-.45-4 .67-6.61a8.15 8.15 0 011.54-2.54zM208.31 175.25a10.85 10.85 0 00.1-6.53 26.39 26.39 0 007.49-.1s.94-3.79 2.35-4.76 2.69 3.12 1.85 5.77-3.92 3-3.92 3a13.14 13.14 0 01-.53 3.85c-.62 2.23-13.52 7.7-15.28 6.65a1.9 1.9 0 01-.53-.6 12.92 12.92 0 003.33-1.44 12 12 0 005.14-5.84z" class="cls-3"/><path d="M195.79 163.89c-.32-1.53-.68-6.8-.68-6.8a4.65 4.65 0 012.37.2c.68.45 5.25 8.6 8.36 10.55a7.29 7.29 0 002.57.88 10.85 10.85 0 01-.1 6.53 12 12 0 01-5.14 5.81 12.92 12.92 0 01-3.33 1.44c-1.75-2.61-4-12.2-4.1-13.15s.37-3.93.05-5.46z" class="cls-22"/><path d="M200.88 356.49s.49-24.14 0-28-1.54-7-1.87-10.19-.31-35.72-.31-35.72l-8.64-9.93s2.95 11.12 3.47 15.92-1.17 23.09-1.17 23.09l-2.3 25.27z" class="cls-17"/><path d="M217.42 183.5s.28 4.76-3 6.72-13.56 5.27-13.56 5.27l6.41 8.23s13.49-8 14.14-10.11 0-7.05 0-7.05z" class="cls-4"/><g class="cls-7"><path d="M164 232.27l-2 1.73c.14-.12.14-.4 0-.8l2-1.74c.14.41.14.69 0 .81z" class="cls-23"/><path d="M141.87 206.77l2-1.74c.12-.1.34-.08.63.07l-2 1.74c-.29-.15-.5-.17-.63-.07zM142.5 206.84l2.03-1.74 9.12 4.81-2.03 1.74-9.12-4.81z" class="cls-12"/><path d="M153.41 213.65l2.03-1.74 8.53 19.56-2.03 1.75-8.53-19.57z" class="cls-23"/><path d="M151.62 211.65l2-1.74a4.72 4.72 0 011.79 2l-2 1.74a4.72 4.72 0 00-1.79-2z" class="cls-12"/><path d="M151.62 211.65a4.72 4.72 0 011.79 2l8.53 19.56c.32.74.05 1.07-.61.72l-9.12-4.81a4.65 4.65 0 01-1.77-2l-8.52-19.56c-.33-.76-.07-1.09.58-.75z" class="cls-15"/></g><ellipse cx="148.08" cy="212.8" class="cls-23" rx=".66" ry="1.32" transform="rotate(-38.43 148.109 212.812)"/><path d="M148.68 219.61s2.3 0 1.23-1.23-4.64-3.11-4.64-3.11l-1.27-2.83-1.53 1.71s-2 1.38-1.66 2.38 2.77 1.47 2.77 1.47l5.12 1.73z" class="cls-22"/><path d="M148.73 219.73l-5.12-1.73s1.3 6.37 3.07 7.37 4.3 2.07 4.3.76-1.98-5.78-2.25-6.4z" class="cls-3"/><path d="M227.23 241.22a19.12 19.12 0 01-7.45-2.15l-.11.91-23.27-3.23s-7-7.12-7.53-6.72a12.63 12.63 0 01-3.22.69s-6.63-.05-7.21.75 4.09 1.74 4.09 1.74 2.19 7.77 3.58 8.75 8.58 1.79 8.58 1.79 27.46 9.52 31 9.83c2.33.2 4.48-7.13 5.69-12.19-1.38-.01-2.77-.04-4.15-.17z" class="cls-22"/><path d="M231.37 241.39c.62-2.62 1-4.64 1-4.64h-12.3l-.29 2.32a19.12 19.12 0 007.45 2.15c1.38.13 2.77.16 4.14.17z" class="cls-3"/><path d="M228.06 195.8c12.45 1.48 7.88 10.18 6.46 19.55-1.15 7.61.46 21 .46 21s-2.27 2.12-6.92 2.37a32.07 32.07 0 01-9.09-1s0-22.51 1.4-28.19 3.01-14.29 7.69-13.73z" class="cls-19"/><g class="cls-7"><path d="M223.65 109.17l10.39-6.04-8.38 11.72-10.4 6.04 8.39-11.72zM170.25 6.77l10.4-6c2-1.14 4.7-1 7.71.76l-10.4 6c-2.96-1.74-5.74-1.9-7.71-.76zM273.19 122l-10.4 6c1.95-1.13 3.15-3.53 3.16-7l10.4-6c-.01 3.5-1.21 5.91-3.16 7z" class="cls-24"/><path d="M266.1 70.88l10.39-6.04-.14 50.25-10.4 6.04.15-50.25zM177.96 7.53l10.4-6.04 77.34 44.65-10.4 6.04-77.34-44.65z" class="cls-24"/><path d="M255.3 52.18l10.4-6c6 3.45 10.81 11.82 10.79 18.7l-10.4 6c.02-6.88-4.81-15.25-10.79-18.7z" class="cls-24"/><path d="M255.3 52.18c6 3.45 10.81 11.83 10.79 18.7l-.09 50.25c0 6.87-4.88 9.65-10.87 6.19l-31.43-18.15-8.39 11.72-7.75-21-29.81-17.22c-6-3.45-10.82-11.82-10.8-18.7l.14-50.25c0-6.87 4.89-9.65 10.87-6.19z" class="cls-25"/></g><path d="M255.3 52.18c6 3.45 10.81 11.83 10.79 18.7l-.09 50.25c0 6.87-4.88 9.65-10.87 6.19l-31.43-18.15-8.39 11.72-7.75-21-29.81-17.22c-6-3.45-10.82-11.82-10.8-18.7l.14-50.25c0-6.87 4.89-9.65 10.87-6.19z" class="cls-25"/><path d="M255.3 52.18c6 3.45 10.81 11.83 10.79 18.7l-.09 50.25c0 6.87-4.88 9.65-10.87 6.19l-31.43-18.15-8.39 11.72-7.75-21-29.81-17.22c-6-3.45-10.82-11.82-10.8-18.7l.14-50.25c0-6.87 4.89-9.65 10.87-6.19z" class="cls-25"/><path fill="#95e6f9" d="M254.84 53L177.5 8.33c-2.61-1.51-5-1.78-6.77-.77S168 10.75 168 13.72L167.87 64c0 6.58 4.62 14.61 10.34 17.91l30 17.35 7.26 19.71 7.86-11 32.17 18.57c2.6 1.5 5 1.77 6.76.76s2.71-3.19 2.72-6.16l.14-50.25c.07-6.58-4.57-14.61-10.28-17.89z"/><g clip-path="url(#clip-path-2)"><path d="M186.47 48.86l-1.55-.86v8.7c0 .64-.28.81-.79.51a4.07 4.07 0 01-.55-.38v1.41a5.8 5.8 0 00.83.6c.67.39 1.19.46 1.54.24s.53-.74.53-1.55v-8.64m-.8-3.47c-.29-.16-.5-.2-.66-.11a.63.63 0 00-.22.56 1.58 1.58 0 00.22.79 1.69 1.69 0 00.65.65.69.69 0 00.65.11.57.57 0 00.23-.54 1.5 1.5 0 00-.22-.81 1.69 1.69 0 00-.65-.65M190.52 57.86a2.14 2.14 0 01-.79-.76 1.81 1.81 0 01-.3-1c0-.43.15-.67.44-.73a2 2 0 011.3.41l.83.48v1.49a.73.73 0 01-.61.33 1.44 1.44 0 01-.87-.24m.37-6.59a3.69 3.69 0 00-1.44-.51 1.32 1.32 0 00-1 .3 1.3 1.3 0 00-.38 1l1.55.9c0-.32.12-.51.34-.58a1.12 1.12 0 01.87.2 2.25 2.25 0 01.91.9 2.33 2.33 0 01.3 1.16v.52l-.95-.55a3.47 3.47 0 00-2.35-.68c-.55.14-.83.62-.83 1.48a3.87 3.87 0 00.66 2.05 4.74 4.74 0 001.69 1.67 1.73 1.73 0 001.82.16 4.34 4.34 0 00.17.84l1.58.91v-.12a6.05 6.05 0 01-.26-1.86v-3.56a4.41 4.41 0 00-.73-2.39 5.53 5.53 0 00-1.93-1.82M198.68 55.77a1.69 1.69 0 00-2-.1v-.94l-1.47-.85v7.94l1.55.89v-5.64c.31-.48.77-.53 1.4-.17a2.34 2.34 0 01.92.9 2.63 2.63 0 01.28 1.28v5.14l1.55.89v-5.24a4.42 4.42 0 00-2.18-4.1M203.76 62.08a1.69 1.69 0 01.51-1.14.92.92 0 011 .08 2.62 2.62 0 011 1 3.66 3.66 0 01.41 1.59v.13l-3-1.71m1.55-2.48a2.51 2.51 0 00-1.6-.41 1.51 1.51 0 00-1.13.81 3.79 3.79 0 00-.4 1.89v.22a6.63 6.63 0 00.9 3.37 6.3 6.3 0 002.39 2.44 3.31 3.31 0 001.55.51 1.4 1.4 0 001.11-.47l-.83-1.4a1.37 1.37 0 01-1.74 0 3.36 3.36 0 01-1.26-1.3 4.3 4.3 0 01-.57-1.88l4.6 2.67v-.72a7.12 7.12 0 00-.77-3.37 5.39 5.39 0 00-2.17-2.29M214.22 71.76a1.67 1.67 0 01-.75-.94 3.67 3.67 0 01-.15-1.6 3.38 3.38 0 01.58-1.94.82.82 0 011.15-.1 3 3 0 01.62.5l-.3 3.44a1.22 1.22 0 01-.5.67.61.61 0 01-.65 0m.62-9A4.43 4.43 0 00212 62a2.6 2.6 0 00-1.94 1.37 6.52 6.52 0 00-.8 3.16 12 12 0 00.52 4 10.09 10.09 0 001.74 3.29 9.73 9.73 0 002.78 2.4 6.71 6.71 0 001.33.58 2.36 2.36 0 001 .14l-.24-1.15a3.42 3.42 0 01-1-.17 5.94 5.94 0 01-1.12-.51 7.46 7.46 0 01-2.23-2 8.11 8.11 0 01-1.35-2.73 9.7 9.7 0 01-.36-3.26 6 6 0 01.63-2.73 2.12 2.12 0 011.54-1.2 3.39 3.39 0 012.22.57 7.5 7.5 0 013.14 3.24 9.31 9.31 0 01.9 4.67 3.24 3.24 0 01-.46 1.81.73.73 0 01-1.07.19 1.77 1.77 0 01-.73-1.87l.35-3.94a8.36 8.36 0 00-1-1.19 5.18 5.18 0 00-.95-.7 1.73 1.73 0 00-1.33-.24 1.75 1.75 0 00-1 .89 4.71 4.71 0 00-.51 1.87 5.36 5.36 0 00.36 2.55 3.35 3.35 0 001.41 1.7 1.59 1.59 0 00.9.24 1 1 0 00.76-.4 3.24 3.24 0 001.54 2c.81.47 1.45.49 1.93.06a3.5 3.5 0 00.78-2.44 11.27 11.27 0 00-.47-3.81 10.31 10.31 0 00-1.71-3.31 9.39 9.39 0 00-2.73-2.37M223.72 70.23a2.42 2.42 0 00-1.91-.42 1.19 1.19 0 00-.76 1.28 3.92 3.92 0 001.15 2.54 11.6 11.6 0 001.32 1.25 7 7 0 011.13 1.12 1.51 1.51 0 01.35.92c0 .3-.11.47-.33.52a1.45 1.45 0 01-.93-.27 3 3 0 01-1-.93 2.14 2.14 0 01-.41-1.2l-1.51-.87a3.71 3.71 0 00.37 1.53 5.91 5.91 0 001 1.57 6.13 6.13 0 001.51 1.22 2.79 2.79 0 002 .51c.52-.15.77-.58.78-1.3a3.06 3.06 0 00-.25-1.22 5.22 5.22 0 00-.77-1.22 10.65 10.65 0 00-1.43-1.37 8.14 8.14 0 01-1.21-1.16 1.33 1.33 0 01-.3-.81c0-.3.11-.48.32-.54a1.24 1.24 0 01.84.21 2.5 2.5 0 01.88.86 1.93 1.93 0 01.33 1l1.54.89a4 4 0 00-.75-2.27 5.83 5.83 0 00-2-1.85M235.39 77c-.92-.53-1.62-.52-2.13 0a4.06 4.06 0 00-1.89-2.32c-.83-.48-1.5-.53-2-.17v-.85l-1.46-.85v7.93l1.55.9v-5.79c.26-.43.7-.47 1.33-.11a2.35 2.35 0 011.21 2.12v5.22l1.55.89v-5.44A.81.81 0 01234 78a1 1 0 01.87.17 2.51 2.51 0 01.95.9 2.63 2.63 0 01.28 1.28v5.16l1.54.89v-5.21a5.33 5.33 0 00-.57-2.47 4.21 4.21 0 00-1.68-1.72M240.9 80.29l-1.55-.9v7.93l1.55.9v-7.93m-.77-3.45c-.28-.17-.49-.2-.65-.11a.6.6 0 00-.22.55 1.58 1.58 0 00.22.8 1.76 1.76 0 00.65.65c.28.16.5.19.65.1a.57.57 0 00.23-.53 1.57 1.57 0 00-.23-.82 1.67 1.67 0 00-.65-.64M244.53 80.46l-1.55-.9v1.93l-1.13-.66v1.33l1.13.65v4.49a3.49 3.49 0 001.78 3.3 4.56 4.56 0 001 .42v-1.38a3.19 3.19 0 01-.54-.24 1.39 1.39 0 01-.55-.52 1.52 1.52 0 01-.16-.75V83.7l1.22.71v-1.32l-1.22-.71v-1.92M248.46 81.33l-1.55-.9v11.26l1.55.89v-5.66c.31-.46.78-.51 1.4-.15a2.41 2.41 0 01.9.86 2.46 2.46 0 01.31 1.34v5.12l1.55.89V89.8a4.53 4.53 0 00-2.24-4.19 1.66 1.66 0 00-1.92-.09v-4.19" class="cls-28"/></g><path fill="#4d5fab" d="M136.44 198.09v-3.26l-.18-.11h.12L103 111.05a2.33 2.33 0 001.32-2.41 7.8 7.8 0 00-3.54-6.13c-2-1.13-3.55-.22-3.56 2a7.8 7.8 0 003.54 6.13 3.8 3.8 0 001 .41l33.1 83a6.07 6.07 0 00-5.71.25l-59.63-74.1a3.63 3.63 0 00.12-1 7.8 7.8 0 00-3.54-6.13c-2-1.13-3.55-.22-3.56 2a7.8 7.8 0 003.54 6.13 2.32 2.32 0 002.81 0l59.35 73.77a7.47 7.47 0 00-1.72 4.63l-66.07-38.04a7.9 7.9 0 00-3.45-5.27c-2-1.14-3.55-.23-3.56 2a7.78 7.78 0 003.56 6.15c1.71 1 3.15.42 3.49-1.25l66.06 38.14a19.58 19.58 0 001.71 6.64l-59.6 5.1a7.47 7.47 0 00-2.79-3.19c-2-1.13-3.56-.22-3.57 2a7.84 7.84 0 003.5 6.12c2 1.13 3.56.22 3.56-2a4.75 4.75 0 00-.11-1.11l59.86-5.13a21.79 21.79 0 005.69 6.82l-33.48 44.56a5.54 5.54 0 00-1-.73c-2-1.13-3.55-.22-3.56 2a7.82 7.82 0 003.54 6.13c2 1.13 3.56.22 3.56-2a7.39 7.39 0 00-1.3-3.93l33.74-44.9-.15-.2.22.13v-3.26a15.59 15.59 0 01-7.07-12.25c.04-4.48 3.23-6.3 7.14-4.04z" opacity=".61"/><g class="cls-7"><path fill="#62688f" d="M75.51 43.49l-6.75 3.92c3.16-1.83 7.53-1.57 12.36 1.21l6.75-3.92c-4.87-2.79-9.2-3.05-12.36-1.21z"/><path fill="#454a75" d="M93.37 89.78l6.75-3.92c3.12-1.82 5.06-5.67 5.07-11.15 0-11-7.72-24.47-17.32-30l-6.75 3.92c9.6 5.55 17.35 19 17.32 30-.01 5.48-1.95 9.37-5.07 11.15z"/><path fill="#8a92b2" d="M81.12 48.62c-9.59-5.53-17.4-1.09-17.43 10S71.41 83 81 88.57s17.41 1.09 17.44-9.94-7.72-24.46-17.32-30.01z"/></g><g class="cls-7"><path fill="#333" d="M11.82 127.07L5.07 131c3.16-1.84 7.53-1.58 12.36 1.21l6.75-3.92c-4.83-2.8-9.18-3.06-12.36-1.22z"/><path fill="#1a1a1a" d="M29.68 173.36l6.75-3.93c3.12-1.81 5.06-5.67 5.07-11.15 0-11-7.72-24.46-17.32-30l-6.75 3.92c9.6 5.54 17.35 19 17.32 30-.02 5.49-1.95 9.34-5.07 11.16z"/><path fill="#4d4d4d" d="M17.43 132.2C7.84 126.66 0 131.11 0 142.14s7.72 24.47 17.31 30 17.41 1.1 17.44-9.93S27 137.74 17.43 132.2z"/></g><g class="cls-7"><path fill="#ee8233" d="M27.5 67.81l-6.75 3.92c3.16-1.84 7.53-1.58 12.35 1.21L39.86 69c-4.86-2.77-9.2-3-12.36-1.19z"/><path fill="#d07a33" d="M45.36 114.1l6.75-3.93c3.12-1.81 5-5.67 5.07-11.15 0-11-7.72-24.46-17.32-30l-6.76 3.92c9.61 5.54 17.36 19 17.33 30-.02 5.49-1.95 9.34-5.07 11.16z"/><path fill="#f89f33" d="M33.1 72.94c-9.58-5.54-17.39-1.09-17.42 9.94s7.72 24.47 17.31 30S50.4 114 50.43 103 42.71 78.48 33.1 72.94z"/></g><g class="cls-7"><path fill="#4a9e84" d="M29.15 198.34l-6.75 3.93c3.15-1.84 7.53-1.58 12.35 1.21l6.75-3.93c-4.82-2.78-9.2-3.04-12.35-1.21z"/><path fill="#428e74" d="M47 244.63l6.76-3.92c3.12-1.81 5.05-5.67 5.07-11.15 0-11-7.73-24.46-17.33-30l-6.75 3.93c9.6 5.54 17.36 19 17.32 30-.01 5.51-1.95 9.33-5.07 11.14z"/><path fill="#53ae94" d="M34.75 203.48c-9.59-5.54-17.39-1.09-17.43 9.94s7.73 24.46 17.32 30 17.4 1.1 17.43-9.94-7.72-24.48-17.32-30z"/></g><g class="cls-7"><path fill="#e69e2c" d="M66.8 257.17l-6.75 3.93c3.16-1.84 7.53-1.58 12.35 1.21l6.75-3.93c-4.82-2.78-9.15-3.04-12.35-1.21z"/><path fill="#f08000" d="M84.66 303.46l6.75-3.92c3.12-1.81 5-5.67 5.07-11.15 0-11-7.72-24.46-17.33-30l-6.75 3.93c9.61 5.54 17.36 19 17.33 30-.02 5.47-1.95 9.33-5.07 11.14z"/><path fill="#f0b90b" d="M72.4 262.31c-9.59-5.54-17.4-1.09-17.4 9.94s7.72 24.46 17.31 30 17.41 1.1 17.44-9.94-7.75-24.46-17.35-30z"/></g><path d="M33.88 100.09a25.79 25.79 0 01-4.58-4.21l1.95-4.14c1.39 1.49 5.92 5.73 4.78 8.15-.4.84-1.21.74-2.15.2m2-6.8a20.32 20.32 0 01-3.72-3.41l1.76-3.76c1.16 1.21 5 4.71 3.92 6.94-.38.8-1.12.72-2 .23m-1.56-14.65l-1.45 3.09-1.31-1.36-2.84-3-.94 2L29.23 81a2.29 2.29 0 01.77 2l-1.66 3.53a2.75 2.75 0 01.22.26l-.24-.24L26 91.49a.49.49 0 01-.7.11 1.5 1.5 0 01-.36-.3l-1.5-1.59L22 91.53l2.68 2.82c.49.53 1 1.05 1.45 1.56L24.64 99l2.06 2.17 1.46-3.1c.56.62 1.1 1.18 1.63 1.76l-1.45 3.08 2.06 2.18 1.47-3.09a21.74 21.74 0 003.85 3.15c1.74 1 3.16 1 4.18-.61 1.37-2.14.64-4.5-1.13-7 1.48.72 2.68.51 3.28-1.3.81-2.48-.95-5.44-3.49-8.44L40 84.71l-2-2.18-1.41 3-1.64-1.7 1.43-3-2-2.18M89.53 75c-3 3.43-8.42 9.43-8.42 9.43v-9.1c-2.38-2.85-5.48-6.53-8.44-10.06C75.19 71 78.29 78 81.11 84.4c2.83-3.14 5.38-6 8.42-9.43m-8.36-11.26L73 64l8.13 9.67 8-.36-8 .36L73 64l8.14 5.47v-5.76m0-10.67l-8.46 9.3 8.47-.23 8.37 10-8.37-10V53" class="cls-25"/><path d="M89.53 75l-8.4.33v9.1s5.38-6 8.42-9.43m-8.38-11.29v5.76l8 3.84-8-9.6m0-10.67v9.07l8.37 10L81.16 53" class="cls-12"/><path d="M89.2 73.31l-8 .36v-4.2L73 64l8.13 9.67 8-.36" class="cls-45"/><path d="M89.19 73.31l-8.03-3.84-.01 4.2 8.04-.36" class="cls-45"/><path d="M16.56 165.1l-6.41-8.33 5.14 3 1.27 5.37m.8 0l-1.13-4.78 2.28 1.32-1.15 3.46m.81 1l1.29-3.89 5.14 3-6.43.92m-8.81-10.89L13 150l2 8.5-5.64-3.26m10.39 6l2.05-6.15 3.59 9.41-5.64-3.26m-10.08-8.5l1.9-8.74 1.06 4.48-3 4.26m15.43 8.91L22.17 154l1.09-3.24 1.84 10.9m-9.1-2.58l-2.35-9.92 3.82-5.51 3.78 9.9-2.4 7.18-2.85-1.65m-2.71-11.47L12 142.35l5-4.94v4.8l-3.73 5.4m8.33 4.81l-3.69-9.68v-4.8l4.95 10.67-1.27 3.81m-4.12-16.84c-.14-.06-.29-.09-.37 0l-5.95 5.87a.4.4 0 00-.08.16L8.15 155a1.41 1.41 0 000 .2v.13a.89.89 0 00.15.29L17.11 167a1 1 0 00.24.22.32.32 0 00.24.06l8.8-1.25a.21.21 0 00.15-.11v-.09a.59.59 0 000-.19L23.78 149a1 1 0 00-.08-.26L17.81 136a1.06 1.06 0 00-.36-.42M35.27 225.42c1.45.83 2.17 1.18 2.31 1.25V223c4.64 2.92 8.1 5.85 8.1 7s-3.47 0-8.12-2.4c-.13-.07-.81-.41-2.32-1.28-1.21-.7-2.06-1.23-2.36-1.42-4.65-2.92-8.12-5.86-8.12-7s3.48 0 8.13 2.41V224c.31.2 1.18.76 2.38 1.46m8.82-7.24L26.45 208v5l6.48 3.74V220c-5.27-2.77-9.23-3.85-9.23-2.42s3.95 4.92 9.22 8.24v10.43l4.68 2.71v-10.43c5.26 2.75 9.21 3.84 9.22 2.4s-3.95-4.91-9.2-8.23v-3.3l6.47 3.74v-5M77.46 287.64l-5.13 2.93-5.1-8.83-3 1.7 8.06 14 8.12-4.63-3-5.14M62.17 273l-3 1.7 3 5.14 3-1.71-3-5.13m20.39 11.76l-3 1.71 3 5.13 3-1.7-3-5.14M72.4 267.15l-8.12 4.63 3 5.13 5.1-2.91 5.1 8.83 3-1.7-8.06-14" class="cls-25"/><path d="M72.36 278.81l-2.23 1.27-.26.15-.53.3-.01.01h.01l3 5.21 3.03-1.73h.01-.01l-3.01-5.21" class="cls-25"/></g></g></svg>