<?xml version="1.0" encoding="utf-8"?><svg xmlns="http://www.w3.org/2000/svg" xmlns:xlink="http://www.w3.org/1999/xlink" data-name="Layer 1" viewBox="0 0 500 500"><defs><linearGradient id="a" x1="120.81" x2="510.43" y1="10.95" y2="361.46" gradientUnits="userSpaceOnUse"><stop offset="0" stop-color="#a1b7ff"/><stop offset=".9" stop-color="#46b4e8"/><stop offset="1" stop-color="#3cb4e5"/></linearGradient><linearGradient id="b" x1="81.39" x2="471.01" y1="54.77" y2="405.28" xlink:href="#a"/></defs><g style="isolation:isolate"><path fill="url(#a)" d="M177.21 61.32l-55 32c25.75-15 61.39-12.86 100.72 9.85l55-32C238.6 48.46 203 46.36 177.21 61.32z"/><path fill="url(#b)" d="M322.8 438.68l55-32c25.43-14.78 41.2-46.21 41.33-90.9.25-89.95-63-199.44-141.24-244.63l-55 32c78.28 45.19 141.49 154.68 141.24 244.63-.13 44.69-15.9 76.12-41.33 90.9z"/><path fill="#d7eff9" d="M222.89 103.15C144.72 58 81.09 94.28 80.83 184.22s63 199.44 141.14 244.57 141.9 8.93 142.16-81-62.96-199.44-141.24-244.64z"/></g><path fill="#425cc7" d="M172.66 245.23l-.25 89.55c.08 5.13 2.29 11.1 5.94 16l45 54.47a9 9 0 002.29 2.08c2.14 1.24 3.66-.12 3.67-3.78l.26-91.66L174.74 248a34.53 34.53 0 01-2.09-2.82"/><path fill="#005cb9" d="M172.87 167.5v3.38l-.17 60.11a9.42 9.42 0 00.64 3.45 18.13 18.13 0 01-.64-4.29l.18-62.61m97.64-9.18a3.67 3.67 0 00-1.88-.51l-83.59 1c-5.29.21-8.83.36-10.68 3.09a2.62 2.62 0 011.75.4 6 6 0 011.75 1.62l62.89 73.49 27.64-.45c3-.45 4.91-3.17 5-7.23l.18-64.86c0-3-1.27-5.58-3.08-6.63"/><path fill="#3cb4e5" d="M177.9 163.88l62.88 73.48-63.09.75h-.2a2.57 2.57 0 01-1.5-.4 6.48 6.48 0 01-2.57-3.19 17.35 17.35 0 01-.73-4.45l.18-62.85a10.55 10.55 0 011.51-5.37c-.9.26-1.47 1.41-1.47 3.38v2.23l-.18 62.61a18.13 18.13 0 00.64 4.29 25.32 25.32 0 004.35 8.73l90.41 105.66a7.56 7.56 0 001.86 1.64c1.82 1 3.12 0 3.12-3.07l.18-64.83a23.25 23.25 0 00-4.95-13l-27.52-32.16-62.92-73.45"/><path fill="#00a0df" d="M176.15 162.26a2.62 2.62 0 00-1.75-.4 10.55 10.55 0 00-1.51 5.37l-.18 62.85a17.35 17.35 0 00.73 4.45 6.48 6.48 0 002.57 3.19 2.57 2.57 0 001.5.4h.2l63.09-.75-62.9-73.49a6 6 0 00-1.75-1.62"/><path fill="#fff" d="M364.13 347.78c.25-89.95-63-199.44-141.24-244.63-49.1-28.35-92.45-24.57-118 4.43 25.94-24.78 67.22-26.66 113.63.13C296.82 152.9 360 262.39 359.78 352.34c-.09 33.45-9 59.46-24.08 76.63 17.76-16.97 28.3-44.64 28.43-81.19z" opacity=".22"/></svg>