<?xml version="1.0" encoding="utf-8"?><svg xmlns="http://www.w3.org/2000/svg" xmlns:xlink="http://www.w3.org/1999/xlink" viewBox="0 0 677.32 748.59"><defs><linearGradient id="linear-gradient" x1="480.06" x2="648.92" y1="441.98" y2="441.98" gradientUnits="userSpaceOnUse"><stop offset="0" stop-color="#3cb4e5"/><stop offset="1" stop-color="#425cc7"/></linearGradient><linearGradient id="linear-gradient-2" x1="6.2" x2="175.06" y1="719.68" y2="719.68" xlink:href="#linear-gradient"/><linearGradient id="linear-gradient-4" x1="648.89" x2="648.92" y1="418.25" y2="418.25" xlink:href="#linear-gradient"/><linearGradient id="linear-gradient-5" x1="60.36" x2="541.55" y1="516.89" y2="452.04" gradientUnits="userSpaceOnUse"><stop offset="0" stop-color="#a1b7ff"/><stop offset=".9" stop-color="#46b4e8"/><stop offset="1" stop-color="#3cb4e5"/></linearGradient><linearGradient id="linear-gradient-6" x1="346.77" x2="575.07" y1="435" y2="444.15" xlink:href="#linear-gradient-5"/><linearGradient id="linear-gradient-8" x1="175.03" x2="175.06" y1="695.95" y2="695.95" xlink:href="#linear-gradient"/><linearGradient id="linear-gradient-9" x1="-413.5" x2="67.69" y1="794.59" y2="729.74" xlink:href="#linear-gradient-5"/><linearGradient id="linear-gradient-10" x1="-127.09" x2="101.21" y1="712.7" y2="721.85" xlink:href="#linear-gradient-5"/><clipPath id="clip-path"><path d="M50.83 330.05l.04-14.74 68.24 39.4-.05 14.74-68.23-39.4z" class="cls-1"/></clipPath><clipPath id="clip-path-2"><path d="M648.92 413.84v8.07c0 12.44-8.21 24.85-24.54 34.34-32.86 19.1-86.31 19.11-119.38 0-16.64-9.61-25-22.23-24.92-34.83v-8.06c0 12.6 8.28 25.21 24.92 34.82 33.08 19.1 86.52 19.09 119.38 0 16.33-9.48 24.51-21.9 24.54-34.34z" class="cls-2"/></clipPath><clipPath id="clip-path-3"><path d="M537.19 58.08l.05-14.74 69.8 40.31-.04 14.74-69.81-40.31z" class="cls-1"/></clipPath><clipPath id="clip-path-4"><path d="M175.06 691.55v8.06c0 12.44-8.21 24.86-24.54 34.34-32.86 19.1-86.31 19.11-119.38 0-16.65-9.61-25-22.23-24.92-34.82v-8.07c0 12.6 8.28 25.21 24.92 34.82 33.07 19.1 86.52 19.09 119.38 0 16.33-9.48 24.48-21.88 24.54-34.33z" class="cls-3"/></clipPath><style>.cls-1{fill:none}.cls-2{fill:url(#linear-gradient)}.cls-3{fill:url(#linear-gradient-2)}.cls-6{fill:#4d5fab}.cls-5{fill:#373942}.cls-7{fill:#215eac}.cls-8{fill:#40b4e2}.cls-9{fill:#16a0db}.cls-11{isolation:isolate}.cls-12{fill:#4cc7ed}.cls-13,.cls-24{fill:#fff}.cls-14{fill:#95e6f9}.cls-16{fill:#e8a89a}.cls-17{opacity:.2}.cls-18{fill:#425cc7}.cls-23{fill:#d7eff9}.cls-24{opacity:.42}.cls-26{fill:#025c99}.cls-28{fill:#005cb9}.cls-29{fill:#1d85db}.cls-30{fill:#95e4fc}.cls-32{fill:#d38f84}.cls-33{fill:#fccabe}.cls-34{fill:#b7e0ed}.cls-41{fill:#7ac2d3}.cls-43{fill:#e9f6ff}.cls-44{fill:#a1cbe2}.cls-45{fill:#79b2cc}.cls-46{fill:#8ac2d6}.cls-47{fill:#4fc3f7}</style></defs><g id="Layer_2" data-name="Layer 2"><g id="Layer_1-2" data-name="Layer 1"><path fill="#4d5fab" d="M.17 402.55l-.13 31c.2 38.84 17.72 76 50.25 108.32l.14-31C17.89 478.61.37 441.4.17 402.55z" opacity=".35"/><path d="M147.6 248.29l4.08-2.36.15-.09a11.69 11.69 0 013.75-1.45 3.43 3.43 0 012.75.56 5 5 0 011.58 2.79 19.2 19.2 0 01.51 4.93 27.07 27.07 0 01-.47 5.48 17.11 17.11 0 01-1.57 4.59 16.56 16.56 0 01-6.62 6.64l-4.08 2.35-.28.17a11.85 11.85 0 01-3.65 1.43 3.51 3.51 0 01-2.77-.52 4.88 4.88 0 01-1.56-2.75 19.2 19.2 0 01-.51-4.93A22.09 22.09 0 01141 255a15.65 15.65 0 012.74-3.73 19.38 19.38 0 013.75-2.88l.16-.08m-.43-4.63a25.84 25.84 0 00-5.19 4 24.09 24.09 0 00-4.06 5.41 29.4 29.4 0 00-3.31 14.52c0 5.66 1.14 9.19 3.38 10.56a5.72 5.72 0 004.07.68 16.51 16.51 0 005.33-2l.29-.17 4.08-2.35.28-.17a26.86 26.86 0 005.33-4.11 24.35 24.35 0 004-5.36 24.84 24.84 0 002.48-6.56 33.85 33.85 0 00.82-7.86 23.24 23.24 0 00-.86-6.94 6.77 6.77 0 00-2.51-3.73c-2.24-1.43-5.46-.93-9.69 1.51l-4.08 2.36-.41.23m-43.29 25a23.78 23.78 0 00-4.6 3.52 22.58 22.58 0 00-1.81 2.06 17.87 17.87 0 00-2.47 4.33 16 16 0 00-.74 2.32 21.18 21.18 0 00-.55 4.94l.06 21.89 4.23-2.45v-13.59l18-10.4v-4.57l-18 10.4v-3.81a10 10 0 010-1.34 8.89 8.89 0 01.23-1.3 9.46 9.46 0 011.12-2.7 11.06 11.06 0 01.93-1.34 15.32 15.32 0 011.16-1.25 16.11 16.11 0 013-2.22l.16-.09 11.54-6.66v-4.88l-11.9 6.87-.3.17M127.5 255l-4.24 2.45.09 33.24 4.25-2.45-.1-33.24" class="cls-5"/><path d="M54.7 312.6l.06 20c0 1.12.52 1.88 1.34 2l10.07.53a.94.94 0 00.52-.13 2 2 0 00.81-1.79l-.06-20.45-12.27-.1-.47-.09" class="cls-6"/><path d="M76.35 268.05a1.45 1.45 0 00-.41.36l-18.6 21.74c-2.06 2.41-2.54 2.88-2.66 4.25a1.52 1.52 0 01.66-1.12.81.81 0 01.42-.12l14 .16 6.2-7.24a5.06 5.06 0 001.09-2.89v-14.46c0-.69-.29-.92-.69-.68" class="cls-7"/><path d="M69.79 293.32l-14 16.35a1.62 1.62 0 01-.39.34.54.54 0 01-.27.09.39.39 0 01-.39-.32 1.27 1.27 0 001.05 1.06l20.25.25a.8.8 0 00.4-.11 1.71 1.71 0 00.7-1.5v-14.46c0-.91-.44-1.51-1.11-1.63l-6.22-.07" class="cls-8"/><path d="M55.34 293.28a1.52 1.52 0 00-.66 1.12v14.9l.07.48a.39.39 0 00.39.32.54.54 0 00.27-.09 1.62 1.62 0 00.39-.34l14-16.35-14-.16a.81.81 0 00-.42.12" class="cls-9"/><g opacity=".61"><path d="M170.21 233.89v31c110.29-38.27 248.82-35.61 355.66 8l.13-31c-106.88-43.66-245.48-46.31-355.79-8zM.13 412.43l-.13 31c.1-35.91 15.41-71.77 46-103.66v-30.9C15.5 340.76.22 376.58.13 412.43zM593.58 278.1l-.13 31c55.7 39 83.53 87.7 83.4 136.37l.13-31c.13-48.67-27.7-97.4-83.4-136.37z" class="cls-6"/></g><g class="cls-11"><path d="M93.15 382.68l10.51-6.11-8.48 11.85-10.51 6.12 8.48-11.86zM39.15 279.13L49.67 273c2-1.16 4.75-1 7.79.76L47 279.9c-3.1-1.76-5.85-1.9-7.85-.77zM143.25 395.69l-10.52 6.11c2-1.14 3.19-3.57 3.2-7l10.51-6.11c-.01 3.43-1.23 5.86-3.19 7zM136.07 343.96l10.52-6.11-.15 50.81-10.51 6.11.14-50.81z" class="cls-12"/><path d="M46.95 279.89l10.51-6.11 78.21 45.16-10.52 6.11-78.2-45.16zM125.15 325.05l10.52-6.11c6.05 3.49 10.94 12 10.92 18.91L136.07 344c.02-7-4.87-15.46-10.92-18.95z" class="cls-12"/><path d="M125.15 325.05c6 3.49 10.94 12 10.92 18.91l-.14 50.81c0 7-4.94 9.76-11 6.27l-31.78-18.36-8.48 11.85-7.84-21.27-30.1-17.37c-6-3.5-10.94-12-10.92-18.92l.19-50.81c0-7 4.94-9.76 11-6.26z" class="cls-13"/></g><path d="M125.15 325.05c6 3.49 10.94 12 10.92 18.91l-.14 50.81c0 7-4.94 9.76-11 6.27l-31.78-18.36-8.48 11.85-7.84-21.27-30.1-17.37c-6-3.5-10.94-12-10.92-18.92l.19-50.81c0-7 4.94-9.76 11-6.26z" class="cls-13"/><path d="M125.15 325.05c6 3.49 10.94 12 10.92 18.91l-.14 50.81c0 7-4.94 9.76-11 6.27l-31.78-18.36-8.48 11.85-7.84-21.27-30.1-17.37c-6-3.5-10.94-12-10.92-18.92l.19-50.81c0-7 4.94-9.76 11-6.26z" class="cls-13"/><path d="M124.69 325.85L46.48 280.7c-2.63-1.52-5.06-1.79-6.84-.77s-2.74 3.23-2.75 6.23L36.75 337c0 6.64 4.67 14.76 10.45 18.1l30.39 17.54 7.34 19.94 7.95-11.11 32.53 18.78c2.63 1.52 5.06 1.79 6.84.77s2.74-3.22 2.75-6.23l.14-50.81c.02-6.67-4.67-14.79-10.45-18.13z" class="cls-14"/><g clip-path="url(#clip-path)"><path d="M53.85 327.11a3.21 3.21 0 01-1.44-1.88v-3.3c.28-.52.76-.59 1.44-.2a2.84 2.84 0 011.15 1.32 5.47 5.47 0 01.39 2.19v.23a2.45 2.45 0 01-.42 1.67c-.27.26-.65.26-1.14 0m-1.41-10.89l-1.57-.91v11.38l1.42.82.08-.82a4.75 4.75 0 001.9 2.12c.85.49 1.52.51 2 0a3.46 3.46 0 00.75-2.54v-.1a8 8 0 00-.72-3.47 5.14 5.14 0 00-2-2.25c-.77-.44-1.38-.48-1.83-.13v-4.13M61.24 331.41A3.1 3.1 0 0160 330a5.12 5.12 0 01-.44-2.2A2.59 2.59 0 0160 326c.3-.3.71-.3 1.22 0a3 3 0 011.23 1.42 5 5 0 01.45 2.19 2.68 2.68 0 01-.45 1.83c-.29.3-.7.31-1.23 0m0-6.89a2.77 2.77 0 00-1.7-.46 1.45 1.45 0 00-1.14.79 3.79 3.79 0 00-.41 1.89v.09a7.31 7.31 0 00.87 3.52 6.22 6.22 0 002.37 2.5 2.88 2.88 0 001.7.47 1.47 1.47 0 001.14-.79 3.79 3.79 0 00.4-1.89v-.42a7.35 7.35 0 00-.94-3.33 6.22 6.22 0 00-2.29-2.37M68.81 335.75a3.19 3.19 0 01-1.44-1.88v-3.31c.27-.52.75-.59 1.43-.2a2.81 2.81 0 011.2 1.33 5.23 5.23 0 01.4 2.19v.23a2.39 2.39 0 01-.42 1.66c-.26.27-.64.26-1.13 0m-1.42-10.9l-1.56-.9v11.37l1.41.82.08-.82a4.66 4.66 0 001.91 2.12c.85.49 1.51.51 2 .05a3.51 3.51 0 00.73-2.56v-.1a7.93 7.93 0 00-.72-3.46 5 5 0 00-2-2.25c-.77-.45-1.38-.49-1.83-.13v-4.14M78.07 341.34a1.73 1.73 0 01-.76-1 3.75 3.75 0 01-.15-1.62 3.54 3.54 0 01.58-2 .84.84 0 011.17-.1 3.32 3.32 0 01.62.5l-.29 3.49a1.3 1.3 0 01-.51.68.65.65 0 01-.66 0m.63-9.13a4.41 4.41 0 00-2.83-.74 2.67 2.67 0 00-2 1.38 6.72 6.72 0 00-.8 3.2 12 12 0 00.52 4.05 10.09 10.09 0 001.76 3.32 9.57 9.57 0 002.8 2.42 6.36 6.36 0 001.35.6 2.41 2.41 0 001.06.13l-.24-1.15a2.8 2.8 0 01-1-.19 5.6 5.6 0 01-1.13-.49 8 8 0 01-2.26-2 8.43 8.43 0 01-1.34-2.69 9.88 9.88 0 01-.36-3.29 6.12 6.12 0 01.64-2.77 2.16 2.16 0 011.55-1.2 3.42 3.42 0 012.25.57 7.57 7.57 0 013.08 3.24 9.32 9.32 0 01.91 4.71 3.38 3.38 0 01-.46 1.84.76.76 0 01-1.09.18 1.79 1.79 0 01-.73-1.89l.35-4a7.58 7.58 0 00-1-1.21 5 5 0 00-1-.71 1.59 1.59 0 00-2.39.65 4.65 4.65 0 00-.44 1.88 5.38 5.38 0 00.36 2.59 3.45 3.45 0 001.42 1.72 1.65 1.65 0 00.92.24 1.14 1.14 0 00.77-.4 3.29 3.29 0 001.55 2c.82.47 1.47.49 1.94 0a3.5 3.5 0 00.81-2.47 11.26 11.26 0 00-.49-3.85 10.24 10.24 0 00-1.72-3.33 9.49 9.49 0 00-2.76-2.41M93.83 343.49l-1.52-.88-1.13 4.89-1.43-6.37-1.18-.68-1.45 4.65-1.11-6.13-1.53-.88 1.89 9.11 1.29.75 1.48-4.66 1.49 6.37 1.29.74 1.91-6.91M97.31 352.23a2.27 2.27 0 01-.8-.77 1.88 1.88 0 01-.3-1q0-.63.45-.72a2 2 0 011.31.4l.84.49v1.51a.71.71 0 01-.61.34 1.53 1.53 0 01-.88-.24m.37-6.67a3.43 3.43 0 00-1.45-.51 1.27 1.27 0 00-1 .3 1.33 1.33 0 00-.39 1l1.57.91c0-.32.11-.52.35-.59a1.11 1.11 0 01.87.2 2.4 2.4 0 01.93.91 2.5 2.5 0 01.29 1.17v.53l-1-.56a3.52 3.52 0 00-2.37-.68c-.55.14-.83.63-.83 1.48a3.91 3.91 0 00.66 2.1A4.8 4.8 0 0097 353.5a1.7 1.7 0 001.83.16 4.3 4.3 0 00.18.86l1.6.92v-.13a5.83 5.83 0 01-.26-1.87v-3.62a4.44 4.44 0 00-.74-2.42 5.68 5.68 0 00-2-1.84M103.71 345.82l-1.57-.91-.03 11.38 1.56.9.04-11.37M107.08 347.76l-1.57-.9-.03 11.38 1.57.9.03-11.38M110.11 356.15a1.66 1.66 0 01.5-1.16.93.93 0 011 .08 2.67 2.67 0 011 1.06 3.78 3.78 0 01.41 1.61v.13l-3-1.72m1.56-2.52a2.59 2.59 0 00-1.63-.41 1.57 1.57 0 00-1.14.82 4 4 0 00-.41 1.91v.22a6.79 6.79 0 00.92 3.41 6.56 6.56 0 002.42 2.48 3.21 3.21 0 001.56.5 1.4 1.4 0 001.13-.46l-.85-1.43a1.39 1.39 0 01-1.75 0 3.44 3.44 0 01-1.27-1.32 4.17 4.17 0 01-.57-1.9l4.55 2.63v-.72a7.38 7.38 0 00-.77-3.41 5.66 5.66 0 00-2.2-2.32M117.83 355.39l-1.57-.91v1.95l-1.15-.66v1.33l1.14.66v4.55a3.55 3.55 0 001.8 3.33 3.72 3.72 0 001 .42v-1.38a3 3 0 01-.55-.25 1.31 1.31 0 01-.56-.53 1.56 1.56 0 01-.16-.76v-4.47l1.24.71v-1.33l-1.23-.71v-1.95" class="cls-6"/></g><path d="M539.06 219.44l-2.48 6.94-.24 11.41a54.44 54.44 0 006.65 1.62c1.48.08 5.26-8.39 5.26-8.39l-1.18-9.48z" class="cls-16"/><path d="M507.68 213a48.11 48.11 0 015.9 4.28c2.1 1.94 4.27 4 4.27 4l20.15 5.48 1.08 9.08-2.72 1.95-17.85-8.51-5.48.51z" class="cls-16"/><path d="M553.47 182.12c0-.12-5-.36-7.6 5.23s-6.29 27.59-7.15 30l-.85 2.41 8.85 6.38z" class="cls-8"/><g class="cls-17"><path d="M640.75 387.41c33.08 19.09 33.23 50 .37 69.15s-86.31 19.11-119.38 0-33.25-50.06-.39-69.16 86.33-19.09 119.4.01z" class="cls-18"/></g><g class="cls-11"><g class="cls-11"><path d="M648.92 413.84v8.07c0 12.44-8.21 24.85-24.54 34.34-32.86 19.1-86.31 19.11-119.38 0-16.64-9.61-25-22.23-24.92-34.83v-8.06c0 12.6 8.28 25.21 24.92 34.82 33.08 19.1 86.52 19.09 119.38 0 16.33-9.48 24.51-21.9 24.54-34.34z" class="cls-2"/><g class="cls-11" clip-path="url(#clip-path-2)"><path fill="url(#linear-gradient-4)" d="M648.92 413.84v8.81-8.06-.75"/><path fill="url(#linear-gradient-5)" d="M648.36 419.43a30.79 30.79 0 01-1.37 4.75 32.51 32.51 0 01-2.25 4.8 39.1 39.1 0 01-3.39 5 48.82 48.82 0 01-5.24 5.63 65.15 65.15 0 01-10.7 7.92l-1 .61a95.6 95.6 0 01-18.5 8.14 122.51 122.51 0 01-16 4c-3.54.64-7.14 1.14-10.77 1.5q-4.67.46-9.37.62v8.07q4.71-.17 9.36-.63 5.46-.54 10.78-1.5a122 122 0 0016-4 94.83 94.83 0 0018.51-8.14l1-.61a65.55 65.55 0 0010.7-7.91 48.71 48.71 0 005.23-5.64 39.11 39.11 0 003.4-5 35.23 35.23 0 002.25-4.8 30.91 30.91 0 001.37-4.76 29.41 29.41 0 00.55-4.84v-8.06a28.48 28.48 0 01-.56 4.85z"/><path fill="url(#linear-gradient-6)" d="M561.11 462.47c-2.78-.07-5.56-.21-8.32-.44s-5.49-.53-8.2-.92-5.62-.88-8.37-1.45c-3-.62-5.92-1.34-8.8-2.16q-5.28-1.5-10.24-3.46A91.24 91.24 0 01505 448.2c-16.64-9.61-24.95-22.22-24.92-34.82v8.06c0 12.6 8.28 25.22 24.92 34.83a91.66 91.66 0 0012.17 5.83 107.21 107.21 0 0010.25 3.46c2.87.82 5.81 1.54 8.8 2.16q4.13.86 8.37 1.45c2.71.39 5.45.69 8.2.92s5.54.38 8.31.45 5.77 0 8.65 0v-8.07q-4.32.11-8.64 0z"/></g></g><path d="M624 379c-33.06-19-86.53-19-119.39 0s-32.68 50.07.39 69.16 86.52 19.09 119.38 0 32.71-50.02-.38-69.16z" class="cls-23"/></g><path d="M624.38 446.1c-32.86 19.09-86.3 19.11-119.38 0-16.14-9.32-24.42-21.46-24.87-33.68-.47 12.91 7.81 25.92 24.87 35.77 33.08 19.1 86.52 19.09 119.38 0 16.83-9.78 25-22.67 24.5-35.49-.44 12.12-8.58 24.15-24.5 33.4z" class="cls-24"/><path fill="#425cc7" d="M597.17 393.55l-4.31-2.49a38.15 38.15 0 00-38.14 0l-24.38 14.08a11.18 11.18 0 000 19.37l4.31 2.49a38.15 38.15 0 0038.14 0l24.38-14.08a11.18 11.18 0 000-19.37z" opacity=".25"/><path d="M582.23 382.69s-2.47 4.64-2.47 8.81-1.15 7.46-3.94 8.78-8.65 1.31-8.65 1.31l-.39-6 1.15-1.81 8.1-24s3.08-1.14 4.72 1.13 4.6 15.92 4.6 15.92l-1.15 1.48z" class="cls-26"/><path d="M572.58 367.73l5.38 3.15s-.78 28-7.62 24.67a6.55 6.55 0 01-2.41-1.81s1.81-3.82 1.15-6.45a68.65 68.65 0 01-1.15-7.05z" class="cls-16"/><path fill="#f9c2b2" d="M556.74 416.65a7.06 7.06 0 01-5.94 2.4 5.26 5.26 0 01-3.46-2.21c3.66-7.27 8.75-16.21 9.25-17.38.82-2 .82-9.9.82-9.9l9.37-3.61v9.6l.39.61-7 14.83a20.67 20.67 0 01-3.43 5.66z"/><path d="M547.34 416.84a5.26 5.26 0 003.46 2.21 7.06 7.06 0 005.94-2.4 20.67 20.67 0 003.44-5.66l7-14.83a26.39 26.39 0 013.06 6.59c.82 3.28-3.12 16.6-3.12 16.6l-1.81.16v-7.23s-1.65 7.23-4.93 10.69-14.8 4.6-16.61 3.44c-.77-.47 1.09-4.64 3.57-9.57z" class="cls-26"/><path d="M568.91 327.11q.95-13 1.88-25.94l1.71-23.48a8.8 8.8 0 00-.56-4.84c-1.46-2.71-4.42-.83-7.48-1.18-8-.93-16.06-5.3-22.82-10.46.6-2.74 1-4.4 1-4.4l41 5.3s3.86 15 2.14 21.66-11.8 46.4-11.8 46.4 3.16 25.39 1.68 31.31-7.66 28.08-7.66 28.08-1.69.59-3.72 1.16q.91-12.8 1.85-25.58z" class="cls-28"/><path d="M534.38 318.79c-.17-5 4.51-45.14 7.26-57.58 6.76 5.16 14.86 9.53 22.82 10.46 3.06.35 6-1.53 7.48 1.18a8.8 8.8 0 01.56 4.84l-1.71 23.48q-.93 13-1.88 25.94l-2.76 38q-.93 12.78-1.85 25.58c-2.63.74-5.82 1.44-6.83.78l-1.79-1.17s-.49-29.09 0-29.83-21.1-35.56-21.3-41.68z" class="cls-29"/><path d="M543.35 222.9c.17-3.29-2.3-12.66-2.3-16s5-12.82 5.67-15.53c.14-.56.32-1.2.53-1.86 10.55 2 24.94 5.71 31.67 10.79-2 1.59-1.91 3.87-2.16 6.43s-1.68 4.88-2.13 7.4-1.73 5.11-4.06 6.2c-2.71 1.27-5.89.17-8.68-.94l-14-5.54c7.59 4.26 15.32 9.77 18.87 17.72a24.22 24.22 0 011.72 12.63 19.43 19.43 0 01-3 8.82c-4.21 6.14-12.57 8-20 6.39-2.66-1.65-4.46-2.86-4.46-2.86s2.17-30.36 2.33-33.65z" class="cls-30"/><path d="M565.46 253.07a19.43 19.43 0 003-8.82 24.22 24.22 0 00-1.72-12.63c-3.55-8-11.28-13.46-18.87-17.72l14 5.54c2.48 1 4.18.73 6.53-.65a11.45 11.45 0 003.54-2.9 13.8 13.8 0 001.95-4.83c.16-.61 3.23-12 5-10.71-6.73-5.08-21.12-8.77-31.67-10.79.81-2.56 2.09-5.53 3.25-6a12.23 12.23 0 014.12-.53l17.79 2.57 14.22 10.83s1.93 3.33 1.93 6 .33 12-4.6 21.37-6.58 16.19-6.58 17.35 6.25 21 6.25 21-11.35 6-18.09 6.24c-4.6.17-14.32-5.36-20-8.89 7.38 1.5 15.74-.29 19.95-6.43z" class="cls-8"/><path fill="#718ce2" d="M579.15 164.72a10.07 10.07 0 01-7.9 2.69 12.67 12.67 0 01-7.62-3.65 32 32 0 01-4.32-5.87 23.09 23.09 0 00-4.58-5.66 10.39 10.39 0 00-2.6-1.51 11.64 11.64 0 014.67-3.72c4.18-1.61 19.35-1.73 22.31 3a27 27 0 013.6 10.76c-1.35 1.09-2.27 2.7-3.56 3.96z"/><path d="M552.13 150.72a10.39 10.39 0 012.6 1.51 23.09 23.09 0 014.58 5.66 32 32 0 004.32 5.87 12.67 12.67 0 007.62 3.65 10.07 10.07 0 007.9-2.69c1.29-1.26 2.21-2.87 3.56-4.05a23.79 23.79 0 01.1 6c-.72 5.14 2.83 9.5 3.7 14.31s1.47 8.7 1.23 11.38a9.79 9.79 0 01-1.11 4S575.54 188 574 186.77l-1.56-1.21-7.95-3-13.81-15.36a9.94 9.94 0 01-2.37-7.52 17.65 17.65 0 013.82-8.96z" class="cls-18"/><path d="M555.68 197.68l-4.53.65s.16-8.46 1-8.77 5.73-1.13 5.73-1.13a10 10 0 00-2 3.93 15.54 15.54 0 00-.2 5.32z" class="cls-8"/><path d="M552.39 178.91s.33 3.54-1.15 5.39-3.7 4.16-4 7.36 0 11.43 0 11.43 4-11.14 6.58-12.09a15.2 15.2 0 004.85-3.53l1.24-5.74z" class="cls-18"/><path d="M561 192a2.36 2.36 0 01-2.24.11 2.24 2.24 0 01-.73-1.88 7.21 7.21 0 00-.12-1.8.48.48 0 00.1-.12c.06-.18-.49-3.76-.49-3.76l13.58-8.3a41.91 41.91 0 00.49 6.74c-3.9 2.48-6.41 7.06-10.59 9.01z" class="cls-32"/><path d="M557.86 188.43a7.21 7.21 0 01.12 1.8 2.24 2.24 0 00.73 1.88A2.36 2.36 0 00561 192c4.23-1.95 6.74-6.53 10.59-9a7.77 7.77 0 00.42 1.56 12.78 12.78 0 001.91 3.45v.31c.18 1.39.43 7.26-7.52 8.68-9 1.62-10.79-.41-10.71.69.13 1.72-.45-4 .68-6.68a8.68 8.68 0 011.49-2.58zM563.19 177.22a10.81 10.81 0 00.1-6.61 26.28 26.28 0 007.57-.09s1-3.84 2.39-4.82 2.71 3.15 1.86 5.83-4 3-4 3a13.66 13.66 0 01-.54 3.89c-.63 2.26-13.67 7.79-15.45 6.73a2 2 0 01-.55-.61 12.47 12.47 0 003.37-1.46 12.16 12.16 0 005.25-5.86z" class="cls-16"/><path d="M550.53 165.73c-.33-1.55-.69-6.88-.69-6.88a4.69 4.69 0 012.4.21c.68.46 5.31 8.69 8.46 10.67a7.4 7.4 0 002.59.88 10.81 10.81 0 01-.1 6.61 12.16 12.16 0 01-5.2 5.87 12.47 12.47 0 01-3.37 1.46c-1.76-2.64-4.08-12.34-4.13-13.3s.37-3.97.04-5.52z" class="cls-33"/><path d="M555.68 360.5s.49-24.42 0-28.36-1.56-7.05-1.89-10.31-.32-36.12-.32-36.12l-8.73-10s3 11.25 3.51 16.11-1.18 23.34-1.18 23.34l-2.33 25.55z" class="cls-28"/><path d="M572.41 185.56s.28 4.81-3 6.8-13.71 5.32-13.71 5.32l6.48 8.33s13.65-8.12 14.3-10.22 0-7.14 0-7.14z" class="cls-8"/><g class="cls-11"><path d="M518.39 234.88l-2 1.76c.14-.12.13-.4 0-.8l2.05-1.76c.09.4.09.68-.05.8z" class="cls-34"/><path d="M496 209.09l2.05-1.76c.12-.1.34-.08.64.08l-2.06 1.76c-.28-.17-.5-.17-.63-.08zM496.64 209.17l2.06-1.76 9.22 4.86-2.05 1.76-9.23-4.86z" class="cls-23"/><path d="M507.68 216.05l2.05-1.76 8.62 19.78-2.05 1.77-8.62-19.79z" class="cls-34"/><path d="M505.87 214l2.05-1.76a4.69 4.69 0 011.81 2l-2.05 1.76a4.76 4.76 0 00-1.81-2z" class="cls-23"/><path d="M505.87 214a4.76 4.76 0 011.81 2l8.62 19.79c.33.74.05 1.07-.61.72l-9.23-4.86a4.76 4.76 0 01-1.78-2l-8.63-19.78c-.33-.77-.06-1.1.59-.75z" class="cls-26"/></g><ellipse cx="502.28" cy="215.19" class="cls-34" rx=".67" ry="1.33" transform="rotate(-38.43 502.34 215.19)"/><path d="M502.89 222.07s2.33 0 1.25-1.24-4.7-3.14-4.7-3.14l-1.25-2.86-1.55 1.73s-2 1.4-1.67 2.41 2.79 1.48 2.79 1.48l5.24 1.75z" class="cls-33"/><path d="M503 222.2l-5.19-1.75s1.32 6.44 3.11 7.45 4.35 2.09 4.35.78-2.05-5.85-2.27-6.48z" class="cls-16"/><path d="M582.33 243.93a19.43 19.43 0 01-7.53-2.17l-.12.91-23.53-3.26s-7.09-7.2-7.61-6.8a12.62 12.62 0 01-3.26.7s-6.71-.05-7.29.77 4.14 1.76 4.14 1.76 2.21 7.85 3.61 8.84 8.69 1.8 8.69 1.8 27.76 9.64 31.33 10c2.35.21 4.53-7.22 5.75-12.32-1.4-.07-2.79-.1-4.18-.23z" class="cls-33"/><path d="M586.51 244.11c.63-2.66 1-4.7 1-4.7h-12.42l-.29 2.35a19.43 19.43 0 007.53 2.17c1.39.13 2.78.16 4.18.18z" class="cls-16"/><path d="M583.17 198c12.59 1.5 8 10.3 6.53 19.77-1.17 7.7.46 21.19.46 21.19s-2.29 2.15-7 2.4a32.18 32.18 0 01-9.2-1s0-22.76 1.42-28.51 3.06-14.42 7.79-13.85z" class="cls-30"/><g class="cls-11"><path d="M578.7 110.4l10.52-6.11-8.48 11.85-10.52 6.11 8.48-11.85zM524.71 6.85L535.22.74c2-1.16 4.76-1 7.8.76L532.5 7.61c-3.04-1.75-5.8-1.92-7.79-.76zM628.8 123.41l-10.51 6.11c2-1.15 3.18-3.57 3.19-7l10.52-6.14c0 3.45-1.23 5.88-3.2 7.03zM621.63 71.68l10.51-6.11-.14 50.81-10.52 6.11.15-50.81z" class="cls-12"/><path d="M532.5 7.61l10.52-6.11 78.2 45.15-10.51 6.12L532.5 7.61z" class="cls-12"/><path d="M610.71 52.76l10.51-6.11c6 3.5 10.94 12 10.92 18.92l-10.51 6.11c.02-6.95-4.87-15.42-10.92-18.92z" class="cls-12"/><path d="M610.71 52.76c6 3.5 10.94 12 10.92 18.92l-.15 50.81c0 7-4.94 9.76-11 6.27L578.7 110.4l-8.48 11.85-7.83-21.25-30.1-17.4c-6-3.49-10.94-12-10.92-18.91l.14-50.81c0-7 4.94-9.76 11-6.27z" class="cls-13"/></g><path d="M610.71 52.76c6 3.5 10.94 12 10.92 18.92l-.15 50.81c0 7-4.94 9.76-11 6.27L578.7 110.4l-8.48 11.85-7.83-21.25-30.1-17.4c-6-3.49-10.94-12-10.92-18.91l.14-50.81c0-7 4.94-9.76 11-6.27z" class="cls-13"/><path d="M610.71 52.76c6 3.5 10.94 12 10.92 18.92l-.15 50.81c0 7-4.94 9.76-11 6.27L578.7 110.4l-8.48 11.85-7.83-21.25-30.1-17.4c-6-3.49-10.94-12-10.92-18.91l.14-50.81c0-7 4.94-9.76 11-6.27z" class="cls-13"/><path d="M610.24 53.57L532 8.42c-2.64-1.52-5.07-1.8-6.85-.77s-2.74 3.23-2.74 6.23l-.15 50.81c0 6.65 4.67 14.77 10.46 18.11l30.39 17.54 7.34 19.94 8-11.11L611 128c2.64 1.52 5.07 1.79 6.84.77s2.74-3.23 2.75-6.23l.15-50.81c-.02-6.73-4.74-14.82-10.5-18.16z" class="cls-14"/><g clip-path="url(#clip-path-3)"><path d="M540.15 48.4l-1.57-.91v8.8c0 .64-.28.81-.8.51a3.15 3.15 0 01-.55-.38v1.42a5.26 5.26 0 00.84.61c.68.39 1.2.47 1.55.24s.54-.75.54-1.57V48.4m-.82-3.53c-.28-.16-.49-.19-.65-.1a.62.62 0 00-.23.56 1.63 1.63 0 00.23.81 1.76 1.76 0 00.65.65c.29.16.5.2.66.11a.58.58 0 00.24-.54 1.65 1.65 0 00-.24-.83 1.74 1.74 0 00-.66-.66M544.25 57.5a2.32 2.32 0 01-.81-.78 1.9 1.9 0 01-.29-1c0-.42.15-.67.44-.73a2.09 2.09 0 011.31.41l.84.48v1.52a.73.73 0 01-.62.34 1.52 1.52 0 01-.87-.24m.38-6.67a3.5 3.5 0 00-1.47-.51 1.26 1.26 0 00-1 .3 1.28 1.28 0 00-.39 1l1.57.91c0-.32.11-.52.34-.59a1.13 1.13 0 01.88.2 2.41 2.41 0 01.92.9 2.46 2.46 0 01.3 1.18v.52l-1-.55a3.53 3.53 0 00-2.37-.68c-.56.14-.84.63-.84 1.48a4 4 0 00.66 2.1 4.94 4.94 0 001.77 1.69 1.72 1.72 0 001.83.15 4 4 0 00.18.85l1.59.93v-.13a5.83 5.83 0 01-.26-1.87v-3.62a4.52 4.52 0 00-.74-2.42 5.74 5.74 0 00-2-1.84M552.5 55.37a1.71 1.71 0 00-2-.09v-1l-1.48-.85v8l1.57.9v-5.7c.3-.48.78-.54 1.41-.17a2.36 2.36 0 01.94.91 2.73 2.73 0 01.28 1.29v5.2l1.56.9v-5.3a4.52 4.52 0 00-2.21-4.15M557.64 61.76a1.63 1.63 0 01.51-1.15.92.92 0 011 .08 2.58 2.58 0 011 1.05 3.94 3.94 0 01.42 1.61v.14l-3-1.73m1.56-2.51a2.5 2.5 0 00-1.62-.41 1.51 1.51 0 00-1.14.82 3.85 3.85 0 00-.4 1.91v.22A6.71 6.71 0 00557 65.2a6.5 6.5 0 002.41 2.47 3.2 3.2 0 001.57.51 1.4 1.4 0 001.13-.47l-.84-1.42a1.4 1.4 0 01-1.76 0 3.61 3.61 0 01-1.33-1.29 4.34 4.34 0 01-.57-1.9l4.56 2.63V65a7.13 7.13 0 00-.77-3.4 5.48 5.48 0 00-2.2-2.32M568.22 71.56a1.76 1.76 0 01-.77-1 3.73 3.73 0 01-.15-1.56 3.58 3.58 0 01.58-2 .83.83 0 011.17-.1 2.92 2.92 0 01.63.5l-.3 3.48a1.21 1.21 0 01-.51.68.61.61 0 01-.65 0m.62-9.14a4.46 4.46 0 00-2.83-.73 2.7 2.7 0 00-2 1.38 6.81 6.81 0 00-.8 3.2 11.81 11.81 0 00.53 4 10.07 10.07 0 001.75 3.32 9.89 9.89 0 002.81 2.42 6.23 6.23 0 001.34.59 2.46 2.46 0 001.06.14l-.24-1.16a3 3 0 01-1-.18 5.71 5.71 0 01-1.13-.5 7.69 7.69 0 01-2.26-2 8.3 8.3 0 01-1.37-2.76 10.18 10.18 0 01-.36-3.29 6.25 6.25 0 01.64-2.77 2.12 2.12 0 011.55-1.2 3.47 3.47 0 012.25.56 7.71 7.71 0 013.09 3.24 9.6 9.6 0 01.91 4.72 3.3 3.3 0 01-.47 1.83.75.75 0 01-1.09.19 1.82 1.82 0 01-.73-1.9l.35-4a8.12 8.12 0 00-1-1.21 4.94 4.94 0 00-1-.7 1.72 1.72 0 00-1.34-.25 1.74 1.74 0 00-1.05.9 4.94 4.94 0 00-.51 1.88 5.49 5.49 0 00.36 2.59 3.43 3.43 0 001.43 1.72 1.54 1.54 0 00.91.24 1.07 1.07 0 00.77-.4 3.3 3.3 0 001.56 2c.81.47 1.46.48 1.94 0a3.52 3.52 0 00.8-2.47 11.32 11.32 0 00-.49-3.86 10.24 10.24 0 00-1.72-3.33 9.49 9.49 0 00-2.76-2.41M577.82 70a2.42 2.42 0 00-1.93-.41 1.19 1.19 0 00-.77 1.29 4 4 0 001.17 2.57 11.78 11.78 0 001.33 1.26 7.31 7.31 0 011.15 1.1 1.55 1.55 0 01.34.94c0 .29-.11.46-.33.52a1.35 1.35 0 01-.94-.27 3.08 3.08 0 01-1-.94 2.27 2.27 0 01-.42-1.23l-1.54-.83a3.91 3.91 0 00.37 1.56 6 6 0 001 1.57 6.31 6.31 0 001.53 1.25 2.79 2.79 0 002 .5c.51-.15.78-.57.78-1.3a3.12 3.12 0 00-.25-1.24 5 5 0 00-.78-1.23 11.64 11.64 0 00-1.45-1.39A8.27 8.27 0 01577 72.5a1.3 1.3 0 01-.3-.81c0-.31.11-.5.33-.55a1.17 1.17 0 01.84.2 2.62 2.62 0 01.89.86 2 2 0 01.33 1.06l1.57.91a4.11 4.11 0 00-.77-2.3 6.09 6.09 0 00-2-1.88M589.62 76.81c-.92-.53-1.64-.54-2.14 0a4.11 4.11 0 00-1.92-2.33c-.85-.5-1.52-.56-2-.18v-.86l-1.56-.86v8l1.57.9v-5.8c.27-.44.72-.48 1.35-.11a2.33 2.33 0 011.24 2.13V83l1.57.91V78.4a.85.85 0 01.47-.6 1.06 1.06 0 01.88.18 2.49 2.49 0 011 .91 2.67 2.67 0 01.29 1.29v5.21l1.57.91v-5.27a5.33 5.33 0 00-.58-2.5 4.35 4.35 0 00-1.71-1.72M595.19 80.18l-1.57-.91v8l1.57.91v-8m-.78-3.51c-.28-.16-.49-.19-.65-.09a.59.59 0 00-.23.55 1.63 1.63 0 00.23.81 1.69 1.69 0 00.65.65c.29.16.5.2.66.11a.56.56 0 00.24-.54 1.65 1.65 0 00-.24-.83 1.74 1.74 0 00-.66-.66M598.86 80.34l-1.56-.9v2l-1.15-.66v1.33l1.15.66v4.55a3.54 3.54 0 001.8 3.33 4.07 4.07 0 001 .42v-1.44a3 3 0 01-.55-.24 1.52 1.52 0 01-.56-.53 1.68 1.68 0 01-.16-.76v-4.48l1.23.71V83l-1.23-.72v-2M602.84 81.22l-1.57-.9V91.7l1.56.9v-5.72c.32-.47.78-.52 1.41-.16a2.44 2.44 0 01.92.88 2.59 2.59 0 01.31 1.35v5.17L607 95v-5.24a4.56 4.56 0 00-2.25-4.23 1.68 1.68 0 00-1.95-.1v-4.21" class="cls-6"/></g><g class="cls-17"><path d="M166.89 665.11c33.07 19.1 33.23 50 .37 69.15s-86.31 19.11-119.38 0-33.25-50.06-.39-69.16 86.32-19.1 119.4.01z" class="cls-18"/></g><g class="cls-11"><g class="cls-11"><path d="M175.06 691.55v8.06c0 12.44-8.21 24.86-24.54 34.34-32.86 19.1-86.31 19.11-119.38 0-16.65-9.61-25-22.23-24.92-34.82v-8.07c0 12.6 8.28 25.21 24.92 34.82 33.07 19.1 86.52 19.09 119.38 0 16.33-9.48 24.48-21.88 24.54-34.33z" class="cls-3"/><g class="cls-11" clip-path="url(#clip-path-4)"><path fill="url(#linear-gradient-8)" d="M175.06 691.55v8.8-8.06-.74"/><path fill="url(#linear-gradient-9)" d="M174.49 697.13a29.67 29.67 0 01-1.36 4.75 34.68 34.68 0 01-2.25 4.8 39.2 39.2 0 01-3.4 5.05 48 48 0 01-5.24 5.63 65.05 65.05 0 01-10.69 7.92l-1 .61A95.43 95.43 0 01132 734a121.72 121.72 0 01-16 4q-5.31 1-10.77 1.5c-3.1.31-6.23.52-9.36.62v8.07c3.13-.11 6.26-.32 9.36-.63 3.63-.36 7.23-.86 10.77-1.5a122.11 122.11 0 0016-4 95.09 95.09 0 0018.5-8.06l1-.6a66.06 66.06 0 0010.69-7.92 48.82 48.82 0 005.24-5.64 40.16 40.16 0 003.4-5 35.23 35.23 0 002.25-4.8 30.86 30.86 0 001.36-4.76 29.3 29.3 0 00.56-4.84v-8.06a28.5 28.5 0 01-.51 4.75z"/><path fill="url(#linear-gradient-10)" d="M87.24 740.17c-2.78-.07-5.55-.21-8.31-.44s-5.49-.53-8.21-.92-5.61-.88-8.36-1.45c-3-.62-5.93-1.34-8.8-2.16-3.52-1-7-2.16-10.25-3.46a91.7 91.7 0 01-12.17-5.84c-16.64-9.61-25-22.22-24.92-34.82v8.07c0 12.59 8.27 25.21 24.92 34.82a90.49 90.49 0 0012.17 5.83 107.21 107.21 0 0010.25 3.46c2.87.82 5.81 1.54 8.8 2.16q4.13.86 8.36 1.46c2.71.38 5.45.69 8.21.91s5.53.38 8.31.45 5.77.06 8.65 0v-8.07c-2.89.06-5.76.08-8.65 0z"/></g></g><path d="M150.15 656.74c-33.07-19.09-86.54-19.09-119.4 0s-32.68 50.07.39 69.16 86.52 19.09 119.38 0 32.7-50.06-.37-69.16z" class="cls-23"/></g><path d="M150.6 724.93c-32.86 19.09-86.3 19.1-119.38 0-16.14-9.31-24.42-21.45-24.87-33.67-.47 12.91 7.81 25.92 24.87 35.77 33.08 19.1 86.52 19.08 119.38 0 16.83-9.78 25-22.67 24.5-35.49-.44 12.11-8.58 24.14-24.5 33.39z" class="cls-24"/><path fill="#425cc7" d="M102.11 668.51l25.38 3.72c11.4 1.67 20.91 10.54 22.06 22 .82 8.11-2.27 16.22-10.1 20.74a61.76 61.76 0 01-61.73 0L46.53 697c-15.78-9.11-15.78-24 0-33.12 23.13-13.4 32.47-8.73 55.58 4.63z" opacity=".2"/><path d="M51 454.93s-3.37-.33-5.74 9.22-6.65 39.82-4.71 43 20.66 10.65 20.66 10.65l2.54-23.21z" class="cls-41"/><path d="M44.23 672.13v16.38a8.24 8.24 0 007.61 5.61c6 .25 8-5 10.14-9.51s10.34-8.39 10.34-14.61-1.19-8.19-3.61-9.75-9.45 2.5-9.45 2.5zM98.46 692.8s-1.4 9.37.17 11.32 4.31 3.12 10 2.34a18.45 18.45 0 009.36-4.29s17.56-.78 21.26-6.63.39-10.93 0-10.93-20.74-.38-22.65-.87l-1.92-.49z" class="cls-26"/><path d="M54.27 684.61s6.34-3.9 7.32-5.85l1-2s3.71-26.92 7-41.35 8.21-29.05 10.93-39.1 5.06-28.2 5.06-28.2l-14.82-12.63L51.84 652l1.95 31.6z" class="cls-28"/><path d="M119.91 584.86c-1.36-17.82-5.07-47.52-5.07-47.52L59.26 533a60.45 60.45 0 010 11.27c5.92 6.38 18.22 10.51 26.32 11.23 9 .8 15.08-1.39 20.9 5.54 4.62 5.5 5.2 13.25 5.39 20.44.5 19.3-.21 38.61-.93 57.91q-.75 20.07-1.49 40.14a125.3 125.3 0 01-1.68 18.86 13.69 13.69 0 008.35-6.65s5.16-89.06 3.79-106.88z" class="cls-28"/><path d="M110.94 639.37c.72-19.3 1.43-38.61.93-57.91-.19-7.19-.77-14.94-5.39-20.44-5.82-6.93-11.88-4.74-20.9-5.54-8.1-.72-20.4-4.85-26.32-11.23v.11c-.59 6.63-3.12 57.35-3.12 57.35s-3.5 10.75-5.66 17.95-7.3 52.34-7.3 52.34l1.82 6c1.82 6 9.26 6.63 9.26 6.63s.88 1.95.1-2.34 3.32-27.31 3.9-34.53 12.88-58.32 12.49-63.59 0-28.67 0-28.67l3.51 4.09c3.51 4.1 12.65 11.71 12.65 11.71l7.44 42.52a239.71 239.71 0 00-2.15 33.55c.38 15.8 3.32 47.21 3.32 47.21a13.43 13.43 0 0011 4.08 8.1 8.1 0 001.26-.27 125.3 125.3 0 001.68-18.86l1.48-40.16z" class="cls-29"/><path d="M107.2 544.71c6.78-2.61 10-9.45 7.31-15.66-1-2.27-1.87-4.41-2.35-5.83-1.5-4.48-1.69-45-3.6-47.41a5.09 5.09 0 00-.48-.53 18 18 0 00-12.58-2A14.83 14.83 0 0084.78 482c-1.62 4.26-.77 9 .1 13.46L92.73 536a10.69 10.69 0 01-.62 6.49 16.59 16.59 0 01-5.48 6.56c.35 0 .69.08 1 .1 5.37.39 13.1-1.96 19.57-4.44z" class="cls-41"/><path d="M92.11 542.51a10.69 10.69 0 00.62-6.49l-7.85-40.57c-.87-4.49-1.72-9.2-.1-13.46a14.83 14.83 0 0110.72-8.73 18 18 0 0112.58 2c-3.17-3.21-16.48-13.2-16.48-13.2s-17-7.19-22.68-9.06-19.1-1.18-22.26 6.8 10.55 44.66 10.61 47.95-1.9 20.06-1.23 23.82 19.3 16 30.59 17.48a16.59 16.59 0 005.48-6.54z" class="cls-23"/><path d="M68.54 448.75l-.7 5.7s10.31 1.24 15.12 2.88l4.81 1.67s2.25-5.62 3-6.35 4.68-1.14 4.68-1.14L81.75 443z" class="cls-32"/><path d="M99.41 422.49a21.89 21.89 0 011.12 6.34c-.16 2.46-.74 6.51-.17 7.27s1.7 2.47 1.42 3.34-1.93 1.65-1.93 1.65-.75 9.38-1.44 10.58-10.31-.57-11.14-1.5l-.83-.92s-2.89 0-3.52-1.75-.26-5.6-.26-5.6z" class="cls-33"/><path fill="#4c5267" d="M74.79 438.18l18.12-13.63c1.61-1.21 3.29-2.52 4-4.4a6.23 6.23 0 00-1.15-6 4.77 4.77 0 00-.64-.32c-2.29-.73-18.48-2.57-23.48 1.7A42.22 42.22 0 0064 424s-3.92 7-3.23 11.71a9.32 9.32 0 00.57 4.38 7.22 7.22 0 004.55 2c3.34.15 6.27-1.93 8.9-3.91z"/><path d="M95.77 414.19a6.23 6.23 0 011.15 6c-.72 1.88-2.4 3.19-4 4.4l-18.13 13.59c-2.63 2-5.56 4.06-8.86 3.9a7.22 7.22 0 01-4.55-2 10.48 10.48 0 002 3.31c3.32 3.71 5.7 9.22 10 9.66a20.3 20.3 0 006.07-.54 4.8 4.8 0 003.73-5.23c-.18-1.74-.12-3.51.78-4 1.92-1 3.13-2.31 4.38-.58s1.69 3 2.11 3 3.37-8.57 4-10.5a43.73 43.73 0 001-6.67s5.73-4.54 5.45-6.94c-.24-2.23-2.9-6.16-5.13-7.4z" class="cls-5"/><path d="M67.55 451.25L87.77 459l1.46 3s-17.5-.82-21.09-3.11-3.36-5.31-3.36-5.31z" class="cls-41"/><path d="M144.15 526.41s6-2.89 6.75-3.22a56.12 56.12 0 004.73-4.13s.66-1.82.93-3 .55-3.69.55-3.69a8.23 8.23 0 001.62-1.4 16 16 0 001.19-1.51 3 3 0 00.26-2.33c-.61-1.25-5.54-.82-5.54-.82l-1.44-.31s-2.93-.52-3.6.24-3.84 2.82-4.54 3.84a67.77 67.77 0 00-2.75 6.2l-2.46 1.82c.89.8 4 3.63 4.39 4.73a8.82 8.82 0 01-.09 3.58z" class="cls-33"/><path d="M159.32 510.6a8.62 8.62 0 00.6-1.13 16 16 0 01-1.19 1.51 8.23 8.23 0 01-1.62 1.4s-.28 2.52-.55 3.69-.93 3-.93 3a56.12 56.12 0 01-4.73 4.13c-.73.33-6.75 3.22-6.75 3.22a8.82 8.82 0 00.09-3.6c-.37-1.1-3.5-3.93-4.39-4.73l-1.5 1.11s4.47 3.82 5.08 5.26a4.59 4.59 0 01-.24 3.24l8.26-4.25s5-4 5.2-5 2.67-7.85 2.67-7.85zM152.87 509.28a2.36 2.36 0 01-1.29-.08 1.41 1.41 0 01-.88-.9 2.43 2.43 0 01.36-1.64c-.19.38 5.58.63 5.81.71a14.43 14.43 0 01-4 1.91z" class="cls-32"/><path d="M112.4 488.11l-8.73 5c-.87.5-1 1.26-.21 1.69l32.7 18.88a3.24 3.24 0 002.93-.12l8.74-5z" class="cls-43"/><path d="M147.83 508.56l12.68-7.32c.86-.5 1-1.26.21-1.69L128 480.67a3.22 3.22 0 00-2.92.12l-12.69 7.32z" class="cls-43"/><path d="M156.88 501l-1.64-.94a.45.45 0 00-.39 0l-1.57.91c-.11.07-.13.17 0 .22l1.64.95a.42.42 0 00.39 0l1.57-.9c.12-.05.12-.15 0-.24zM153.07 500.88l1.56-.9c.12-.07.13-.17 0-.23l-1.63-.94a.42.42 0 00-.39 0l-1.57.9c-.12.07-.13.17 0 .23l1.64.94a.42.42 0 00.39 0zM150.85 499.61l1.57-.91c.12-.07.13-.17 0-.22l-1.64-1a.42.42 0 00-.39 0l-1.57.9c-.11.07-.12.17 0 .23l1.63.94a.45.45 0 00.4.06zM150.23 497.2l-1.63-.95a.42.42 0 00-.39 0l-1.57.9c-.12.07-.13.17 0 .23l1.64.94a.45.45 0 00.39 0l1.57-.91c.08-.05.09-.16-.01-.21zM148 495.92l-1.64-.95a.45.45 0 00-.39 0l-1.56.91c-.12.06-.13.16 0 .22l1.63.95a.45.45 0 00.39 0l1.57-.91c.11-.06.12-.14 0-.22zM145.81 494.64l-1.64-.94a.42.42 0 00-.39 0l-1.57.91c-.11.06-.13.16 0 .22l1.64 1a.45.45 0 00.39 0l1.57-.9c.08-.13.1-.23 0-.29zM143.59 493.36l-1.63-.94a.47.47 0 00-.4 0l-1.56.91c-.12.07-.13.17 0 .22l1.64.95a.42.42 0 00.39 0l1.56-.9c.09-.08.1-.18 0-.24zM141.38 492.08l-1.64-.94a.45.45 0 00-.39 0l-1.57.91c-.11.07-.13.17 0 .23l1.64.94a.42.42 0 00.39 0l1.57-.9c.09-.08.1-.18 0-.24zM139.16 490.81l-1.63-.95a.42.42 0 00-.39 0l-1.57.9c-.12.07-.13.17 0 .23l1.64.94a.45.45 0 00.39 0l1.57-.91c.08-.02.09-.16-.01-.21zM137 489.53l-1.64-.95a.42.42 0 00-.39 0l-1.57.9c-.11.07-.12.17 0 .23l1.63.94a.45.45 0 00.39 0l1.57-.91c.01-.05.06-.16.01-.21zM134.73 488.25l-1.63-.95a.45.45 0 00-.39 0l-1.57.9c-.12.07-.13.17 0 .23l1.64.95a.45.45 0 00.39 0l1.57-.91c.08-.06.09-.16-.01-.22zM132.52 487l-1.64-.94a.42.42 0 00-.39 0l-1.56.91c-.12.06-.13.16 0 .22l1.63.95a.45.45 0 00.39 0l1.57-.9c.09-.11.1-.24 0-.24zM130.31 485.69l-1.64-.94a.45.45 0 00-.39 0l-1.57.91c-.11.06-.13.17 0 .22l1.64.95a.42.42 0 00.39 0l1.57-.9c.08-.08.1-.18 0-.24zM123.47 484l2.64 1.52a.42.42 0 00.39 0l1.56-.9c.12-.07.13-.17 0-.23l-2.63-1.52a.44.44 0 00-.4 0l-1.56.9c-.09.11-.1.23 0 .23zM121.27 485.31l1.64.94a.45.45 0 00.39 0l1.56-.91c.12-.07.13-.17 0-.22l-1.64-.95a.42.42 0 00-.39 0l-1.56.9c-.09.08-.1.18 0 .24zM125.08 485.46l-1.57.9c-.11.07-.13.17 0 .23l1.64.94a.42.42 0 00.39 0l1.57-.9c.11-.07.13-.17 0-.23l-1.64-.94a.42.42 0 00-.39 0zM129.32 487.66l-1.64-.94a.45.45 0 00-.39 0l-1.57.91c-.11.07-.12.17 0 .22l1.63.95a.42.42 0 00.39 0l1.57-.9c.1-.08.11-.18.01-.24zM131.53 488.94l-1.63-.94a.45.45 0 00-.39 0l-1.57.91c-.12.06-.13.17 0 .22l1.64.95a.42.42 0 00.39 0l1.57-.9c.08-.08.09-.18-.01-.24zM133.75 490.22l-1.64-1a.45.45 0 00-.39 0l-1.57.91c-.11.06-.12.16 0 .22l1.63.95a.45.45 0 00.39 0l1.57-.91c.1-.01.11-.11.01-.17zM136 491.5l-1.63-.95a.45.45 0 00-.39 0l-1.57.9c-.12.07-.13.17 0 .23l1.64.94a.42.42 0 00.39 0l1.56-.91c.05-.05.06-.15 0-.21zM138.18 492.78l-1.64-.95a.42.42 0 00-.39 0l-1.57.9c-.11.07-.13.17 0 .23l1.64.94a.45.45 0 00.39 0l1.57-.91c.08-.06.1-.16 0-.21zM140.39 494.05l-1.64-.94a.42.42 0 00-.39 0l-1.56.9c-.12.07-.13.17 0 .23l1.63.94a.45.45 0 00.39 0l1.57-.91c.09-.06.1-.16 0-.22zM142.61 495.33l-1.64-.94a.45.45 0 00-.39 0l-1.57.91c-.12.07-.13.17 0 .22l1.64 1a.42.42 0 00.39 0l1.57-.9c.08-.13.1-.23 0-.29zM144.82 496.61l-1.64-.94a.45.45 0 00-.39 0l-1.57.91c-.11.06-.12.17 0 .22l1.63.95a.42.42 0 00.39 0l1.57-.9c.1-.08.11-.18.01-.24zM143.41 498.09l1.64 1a.45.45 0 00.39 0l1.57-.9c.11-.07.12-.17 0-.23l-1.63-.95a.45.45 0 00-.39 0l-1.57.91c-.1.01-.11.08-.01.17zM147.65 500.3l1.57-.91c.12-.06.13-.16 0-.22l-1.64-.95a.45.45 0 00-.39 0l-1.57.9c-.11.07-.13.17 0 .23l1.64.94a.42.42 0 00.39.01zM149.87 501.58l1.56-.91c.12-.06.13-.17 0-.22l-1.63-.95a.42.42 0 00-.39 0l-1.57.9c-.12.07-.13.17 0 .23l1.64.94a.45.45 0 00.39.01zM154.68 502.3l-2.68-1.52a.42.42 0 00-.39 0l-1.57.9c-.11.07-.13.17 0 .23l2.64 1.52a.42.42 0 00.39 0l1.57-.9c.12-.07.14-.17.04-.23zM119.07 486.58l3.23 1.87a.45.45 0 00.39 0l1.57-.91c.12-.06.13-.16 0-.22l-3.24-1.87a.42.42 0 00-.39 0l-1.56.9c-.07.07-.07.17 0 .23zM152.46 503.56l-3.24-1.87a.45.45 0 00-.39 0l-1.56.91c-.12.06-.13.16 0 .22l3.23 1.87a.42.42 0 00.39 0l1.57-.9c.09-.07.1-.17 0-.23zM122.88 488.78l1.64.94a.45.45 0 00.39 0l1.57-.91c.11-.06.12-.16 0-.22l-1.63-.95a.42.42 0 00-.39 0l-1.57.9c-.1.08-.11.18-.01.24zM125.09 490.06l1.64.94a.45.45 0 00.39 0l1.57-.91c.12-.07.13-.17 0-.22l-1.64-.95a.42.42 0 00-.39 0l-1.57.9c-.09.08-.09.18 0 .24zM127.31 491.34l1.64.94a.42.42 0 00.39 0l1.56-.9c.12-.07.13-.17 0-.23l-1.63-.94a.42.42 0 00-.39 0l-1.57.9c-.09.07-.1.17 0 .23zM129.52 492.61l1.64.95a.42.42 0 00.39 0l1.57-.9c.11-.07.13-.17 0-.23l-1.64-.94a.45.45 0 00-.39 0l-1.57.91c-.08.06-.1.16 0 .21zM131.74 493.89l1.63.95a.42.42 0 00.39 0l1.57-.9c.12-.07.13-.17 0-.23l-1.64-.94a.45.45 0 00-.39 0l-1.56.91c-.09.05-.1.16 0 .21zM134 495.17l1.64.95a.45.45 0 00.39 0l1.57-.91c.11-.06.12-.16 0-.22l-1.63-1a.45.45 0 00-.39 0L134 495c-.14 0-.15.11 0 .17zM136.17 496.45l1.63.94a.42.42 0 00.39 0l1.57-.91c.12-.06.13-.16 0-.22l-1.64-.95a.45.45 0 00-.39 0l-1.57.9c-.08.08-.09.18.01.24zM138.38 497.73l1.64.94a.45.45 0 00.39 0l1.56-.91c.12-.07.13-.17 0-.22l-1.63-.95a.42.42 0 00-.39 0l-1.57.9c-.09.08-.1.18 0 .24zM140.59 499l1.64.94a.45.45 0 00.39 0l1.57-.91c.11-.07.13-.17 0-.23l-1.64-.94a.42.42 0 00-.39 0l-1.57.9c-.08.09-.1.24 0 .24zM142.81 500.28l1.64 1a.42.42 0 00.39 0l1.56-.9c.12-.07.13-.17 0-.23l-1.64-.94a.45.45 0 00-.39 0l-1.56.91c-.09.01-.1.11 0 .16zM147.05 502.49l1.57-.9c.11-.07.13-.17 0-.23l-1.64-.94a.45.45 0 00-.39 0l-1.57.91c-.11.06-.13.17 0 .22l1.64.95a.42.42 0 00.39-.01zM116.87 487.85l4.33 2.5a.42.42 0 00.39 0l1.57-.9c.12-.07.13-.17 0-.23l-4.34-2.5a.42.42 0 00-.39 0l-1.56.9c-.09.07-.1.17 0 .23zM121.78 490.68l1.64.95a.42.42 0 00.39 0l1.56-.9c.12-.07.13-.17 0-.23l-1.63-.94a.45.45 0 00-.39 0l-1.57.91c-.09.06-.1.16 0 .21zM124 492l1.64 1a.42.42 0 00.39 0l1.57-.9c.11-.07.13-.17 0-.23l-1.64-.94a.45.45 0 00-.39 0l-1.57.91c-.09-.04-.11.07 0 .16zM126.21 493.24l1.63.95a.45.45 0 00.39 0l1.57-.91c.12-.06.13-.16 0-.22l-1.64-1a.45.45 0 00-.39 0l-1.56.91c-.09.11-.1.21 0 .27zM128.42 494.52l1.64.94a.45.45 0 00.39 0l1.57-.91c.11-.06.12-.16 0-.22l-1.63-.95a.45.45 0 00-.39 0l-1.57.9c-.1.08-.11.18-.01.24zM130.64 495.8l1.63.94a.45.45 0 00.39 0l1.57-.91c.12-.07.13-.17 0-.22l-1.64-1a.42.42 0 00-.39 0l-1.57.9c-.08.13-.09.23.01.29zM132.85 497.08l1.64.94a.42.42 0 00.39 0l1.57-.9c.11-.07.12-.17 0-.23l-1.63-.94a.42.42 0 00-.39 0l-1.57.9c-.1.07-.11.15-.01.23zM135.06 498.35l1.64.95a.42.42 0 00.39 0l1.57-.9c.12-.07.13-.17 0-.23l-1.64-.94a.45.45 0 00-.39 0l-1.57.91c-.06.06-.06.16 0 .21zM137.28 499.63l1.64.95a.42.42 0 00.39 0l1.56-.9c.12-.07.13-.17 0-.23l-1.63-.94a.47.47 0 00-.4 0l-1.56.91c-.09.05-.1.16 0 .21zM139.49 500.91l1.64.95a.45.45 0 00.39 0l1.57-.91c.11-.06.13-.16 0-.22l-1.64-.95a.45.45 0 00-.39 0l-1.57.91c-.08.06-.1.16 0 .22zM141.71 502.19l1.63.94a.42.42 0 00.39 0l1.57-.91c.12-.06.13-.16 0-.22l-1.64-.95a.45.45 0 00-.39 0l-1.56.9c-.09.05-.1.18 0 .24zM150.26 504.83l-4.35-2.51a.42.42 0 00-.39 0l-1.57.9c-.12.07-.13.17 0 .23l4.35 2.51a.42.42 0 00.39 0l1.57-.9c.09-.06.1-.17 0-.23zM138.7 500.7l-10.49-6.06a.45.45 0 00-.39 0l-1.57.9c-.12.07-.13.17 0 .23l10.5 6.06a.42.42 0 00.39 0l1.56-.9c.09-.07.1-.17 0-.23zM124.93 492.75l-1.63-.94a.45.45 0 00-.39 0l-1.57.91c-.12.07-.13.17 0 .22l1.64.95a.42.42 0 00.39 0l1.56-.9c.07-.08.07-.18 0-.24zM127.63 494.31l-2.12-1.22a.45.45 0 00-.39 0l-1.57.91c-.11.06-.13.16 0 .22l2.12 1.23a.45.45 0 00.39 0l1.57-.91c.09-.07.1-.17 0-.23zM143.61 503.54l-1.63-1a.42.42 0 00-.39 0l-1.57.9c-.12.07-.13.17 0 .23l1.64.94a.45.45 0 00.39 0l1.57-.91c.08 0 .09-.1-.01-.16zM141.4 502.26l-2.12-1.26a.42.42 0 00-.39 0l-1.57.91c-.11.06-.13.16 0 .22l2.12 1.23a.45.45 0 00.39 0l1.57-.91c.09-.03.1-.13 0-.19zM118.29 488.92l-1.64-.95a.42.42 0 00-.39 0l-1.56.9c-.12.07-.13.17 0 .23l1.63.94a.45.45 0 00.39 0l1.57-.91c.09-.05.1-.13 0-.21zM120.5 490.2l-1.63-.95a.42.42 0 00-.39 0l-1.57.9c-.12.07-.13.17 0 .23l1.64.94a.45.45 0 00.39 0l1.57-.91c.08-.06.09-.16-.01-.21zM122.72 491.47l-1.64-.94a.42.42 0 00-.39 0l-1.57.9c-.11.07-.12.17 0 .23l1.63.94a.42.42 0 00.39 0l1.57-.9c.1-.07.11-.17.01-.23zM148.06 506.1l-3.87-2.23a.42.42 0 00-.39 0l-1.57.9c-.11.07-.13.17 0 .23l3.87 2.23a.42.42 0 00.39 0l1.57-.9c.08-.07.1-.17 0-.23zM158.29 500.22l-1.64-1a.42.42 0 00-.39 0l-.78.45c-.11.06-.13.17 0 .22l1.64 1a.42.42 0 00.39 0l.78-.45c.09-.06.1-.17 0-.22zM153.24 498.69l1.64.94a.42.42 0 00.39 0l.78-.45c.11-.06.12-.16 0-.22l-1.63-.95a.45.45 0 00-.39 0l-.78.45c-.1.07-.11.17-.01.23zM151 497.41l1.63.94a.45.45 0 00.39 0l.78-.45c.12-.07.13-.17 0-.23l-1.64-.94a.42.42 0 00-.39 0l-.78.45c-.05.07-.06.17.01.23zM148.81 496.13l1.64.94a.45.45 0 00.39 0l.78-.45c.11-.07.13-.17 0-.23l-1.64-.94a.45.45 0 00-.39 0l-.78.45c-.09.1-.1.17 0 .23zM146.6 494.85l1.63.94a.42.42 0 00.39 0l.78-.45c.12-.07.13-.17 0-.23l-1.63-.94a.45.45 0 00-.39 0l-.78.45c-.09.07-.1.17 0 .23zM144.38 493.57l1.64.95a.45.45 0 00.39 0l.78-.45c.12-.07.13-.17 0-.23l-1.64-.94a.42.42 0 00-.39 0l-.78.45c-.08.06-.1.16 0 .22zM142.17 492.29l1.64.95a.42.42 0 00.39 0l.78-.45c.11-.06.12-.17 0-.22l-1.63-.95a.42.42 0 00-.39 0l-.78.45c-.1.06-.11.17-.01.22zM140 491l1.63.95a.42.42 0 00.39 0l.78-.45c.12-.06.13-.16 0-.22l-1.64-.95a.45.45 0 00-.39 0l-.78.45c-.12.08-.13.22.01.22zM137.74 489.74l1.64.94a.45.45 0 00.39 0l.78-.45c.11-.07.13-.17 0-.23l-1.64-.95a.45.45 0 00-.39 0l-.78.45c-.09.08-.1.18 0 .24zM135.53 488.46l1.63.94a.45.45 0 00.39 0l.78-.45c.12-.07.13-.17 0-.23l-1.64-.94a.45.45 0 00-.39 0l-.78.45c-.08.07-.09.17.01.23zM133.31 487.18l1.64.94a.42.42 0 00.39 0l.78-.45c.11-.07.13-.17 0-.23l-1.64-.94a.45.45 0 00-.39 0l-.78.45c-.09.05-.1.17 0 .23zM131.1 485.9l1.63 1a.47.47 0 00.4 0l.77-.45c.12-.07.13-.17 0-.23l-1.63-.94a.42.42 0 00-.39 0l-.78.45c-.1.01-.1.11 0 .17zM128.88 484.62l1.64.95a.42.42 0 00.39 0l.78-.45c.12-.07.13-.17 0-.22l-1.64-.95a.42.42 0 00-.39 0l-.78.45c-.08.06-.1.17 0 .22zM125.67 482.77l2.64 1.52a.42.42 0 00.39 0l.78-.45c.11-.06.12-.16 0-.22l-2.63-1.52a.42.42 0 00-.39 0l-.78.45c-.1.06-.11.16-.01.22z" class="cls-44"/><path d="M130.16 482.34l27.65 15.97.38-.22-27.65-15.97-.38.22z" class="cls-45"/><path d="M134.61 502.05l-10.93-6.31a1.09 1.09 0 00-1 0l-4.52 2.61-.19.11-.1.06-.35.21-2 1.14a.3.3 0 000 .57l5.38 3.1.19.11 5.37 3.1a1.06 1.06 0 001 0l2.44-1.41.19-.11 4.52-2.6c.28-.17.27-.42 0-.58z" class="cls-44"/><path d="M139.09 513.6l21.42-12.36a1.27 1.27 0 00.71-.89v1.38a1.29 1.29 0 01-.71.88L139.09 515zM117.4 502.6l5.33 3.08c.15.08.15.21 0 .29l-5.86-3.38a.56.56 0 01.53.01zM115.55 500.13l2-1.14.35-.21.1-.06.19-.11 4.52-2.6a1.06 1.06 0 011 0l10.93 6.31a.47.47 0 01.16.15c.09-.14 0-.3-.16-.42l-10.93-6.31a1.09 1.09 0 00-1 0l-4.52 2.61-.19.11-.1.06-.35.21-2 1.14c-.19.11-.25.28-.16.42a.78.78 0 01.16-.16z" class="cls-45"/><g class="cls-11"><path d="M131.87 447.75l1-.39a.65.65 0 01.59.08l-1 .39a.67.67 0 00-.59-.08z" class="cls-46"/><path d="M162.31 499.32l-1 .39a.78.78 0 00.45-.66l1-.39a.79.79 0 01-.45.66z" class="cls-45"/><path d="M165.25 468.88l1.03-.39-4.03 27.75-1.04.39 4.04-27.75z" class="cls-47"/><path d="M165.43 466.86l1-.39a1.68 1.68 0 01.73 1.6l-1 .39a1.7 1.7 0 00-.73-1.6z" class="cls-46"/><path d="M132.15 449.77l1.04-.39 33.09 19.11-1.03.39-33.1-19.11z" class="cls-47"/><path d="M165.43 466.86a1.7 1.7 0 01.73 1.6l-4.44 30.59c-.09.6-.55.87-1 .58l-33-19A1.7 1.7 0 01127 479l4.44-30.59c.08-.6.55-.87 1-.58zm-4.22 29.77l4-27.75-33.1-19.11-4 27.75 33.09 19.11" class="cls-43"/><path fill="#3cb4e5" d="M165.25 468.88l-4.04 27.75-33.09-19.11 4.03-27.75 33.1 19.11z"/><path d="M132.47 447.83l1.03-.39 32.96 19.02-1.03.4-32.96-19.03z" class="cls-44"/><path d="M166.16 468.46l1.03-.39-4.44 30.59-1.03.39 4.44-30.59z" class="cls-45"/></g><path d="M136.16 513.72v1.37a3.27 3.27 0 002.93-.13v-1.36a3.24 3.24 0 01-2.93.12z" class="cls-46"/><path d="M103.46 494.84a.9.9 0 01-.51-.68v1.34a.87.87 0 00.51.72l32.68 18.87v-1.37z" class="cls-44"/><path fill="#f7f8f9" d="M103.67 493.15l8.73-5 12.69-7.32a3.41 3.41 0 012.44-.31 2.81 2.81 0 00-.53.22L114.32 488l-8.74 5c-.87.5-1 1.26-.21 1.69l32.7 18.88a2.62 2.62 0 00.49.19 3.13 3.13 0 01-2.4-.11l-32.7-18.88c-.75-.36-.66-1.12.21-1.62z"/><path d="M127 479l4.44-30.59c.08-.6.55-.87 1-.58l33 19a1.7 1.7 0 01.73 1.6v.35l-32.78-18.92c-.49-.28-1 0-1 .58L128 480.68l-.19-.11A1.7 1.7 0 01127 479z" class="cls-43"/><path d="M132.97 454.55l-3.24 22.26 30.59 17.66 3.24-22.27-30.59-17.65z" class="cls-13"/><path d="M163.94 469.59l-30.59-17.66-.38 2.62 30.59 17.65.38-2.61z" class="cls-18"/><path d="M144.69 510.73s1.93-4.41 2.66-6 .08-3.43 1.27-3.79 1.38 1.88 1.31 3.36a14.91 14.91 0 00.77 4c.19.82 1.74 1 1.74 1l-3 5.24h-3.57z" class="cls-33"/><path d="M97.34 473.54c10.89-1.53 11.36 6.33 11.52 9.52S112 516.3 112 516.3l27.13 1.49s3.14 2.87 4.85 4.25 1 7.6 1 7.6-31 4.51-37.18 4.8-12.15-3.16-13-5.93-7.91-32.31-7.65-37c.69-11.66 3.72-17.07 10.19-17.97z" class="cls-23"/><path d="M602.41 537.3l4.08-2.35.16-.09a11.64 11.64 0 013.74-1.45 3.44 3.44 0 012.76.55 5 5 0 011.57 2.79 19.72 19.72 0 01.52 4.94 28.65 28.65 0 01-.47 5.48 17.35 17.35 0 01-1.57 4.59 16.54 16.54 0 01-6.62 6.63l-4.08 2.36-.29.17a12.43 12.43 0 01-3.64 1.43 3.55 3.55 0 01-2.77-.53 4.83 4.83 0 01-1.56-2.74 19.26 19.26 0 01-.52-4.94 21.91 21.91 0 012.06-10.14 15.38 15.38 0 012.74-3.73 19.43 19.43 0 013.76-2.88l.15-.09m-.42-4.63a26.33 26.33 0 00-5.2 4 24.07 24.07 0 00-4 5.4 29.32 29.32 0 00-3.31 14.52q0 8.5 3.38 10.57a5.72 5.72 0 004.07.67 16.47 16.47 0 005.33-2l.28-.17 4.08-2.36.29-.16a26.81 26.81 0 005.32-4.11 24.69 24.69 0 004.06-5.37 25.26 25.26 0 002.48-6.55 34 34 0 00.81-7.87 23.67 23.67 0 00-.85-6.94 6.78 6.78 0 00-2.51-3.72c-2.24-1.43-5.46-.93-9.69 1.51l-4.08 2.35-.41.23m-43.29 25a21.74 21.74 0 00-6.41 5.58 17.73 17.73 0 00-2.49 4.39 16.16 16.16 0 00-.75 2.33 22.25 22.25 0 00-.55 4.94l.06 21.89 4.25-2.46v-13.58l18-10.4v-4.57l-18 10.4v-3.81a8.52 8.52 0 01.08-1.31 8.89 8.89 0 01.23-1.3 9.18 9.18 0 011.11-2.69 11.17 11.17 0 01.93-1.35 12.34 12.34 0 011.16-1.24 16.12 16.12 0 013-2.23l.16-.09 11.54-6.66v-4.88L559 557.49l-.29.16M582.32 544l-4.25 2.45.1 33.23 4.24-2.45-.09-33.23" class="cls-5"/><path d="M509.52 601.61l.05 20c0 1.12.53 1.89 1.34 2l10.08.52a1 1 0 00.52-.13 2 2 0 00.81-1.78l-.06-20.46-12.26-.05-.46-.1" class="cls-6"/><path d="M531.17 557.06a1.62 1.62 0 00-.41.36l-18.6 21.74c-2.07 2.42-2.55 2.89-2.66 4.26a1.53 1.53 0 01.66-1.13.88.88 0 01.42-.11l14 .16 6.2-7.24a5.21 5.21 0 001.09-2.89v-14.47c0-.68-.29-.91-.69-.68" class="cls-7"/><path d="M524.61 582.34l-14 16.35a1.48 1.48 0 01-.4.34.73.73 0 01-.26.09.39.39 0 01-.39-.32 1.28 1.28 0 001.05 1.06l20.25.25a.75.75 0 00.4-.12 1.69 1.69 0 00.69-1.49v-14.47c0-.91-.44-1.51-1.1-1.62l-6.22-.07" class="cls-8"/><path d="M510.16 582.29a1.53 1.53 0 00-.66 1.13v14.9l.07.48a.39.39 0 00.39.32.73.73 0 00.26-.09 1.48 1.48 0 00.4-.34l14-16.35-14-.16a.88.88 0 00-.42.11" class="cls-9"/><g opacity=".35"><path d="M339.91 610.06c-79.11 0-154.17-16.51-214.68-46.87l-.15 31c60.52 30.37 135.58 46.88 214.71 46.88 57.19 0 112.16-8.66 161-24.91v-31c-48.79 16.26-103.74 24.9-160.88 24.9zM677.32 449.71l-1-48.12c0 37.26-18.3 78.6-53.48 113.46v34.78c35.67-28.83 54.69-59.19 54.48-100.12z" class="cls-6"/></g></g></g></svg>