<?xml version="1.0" encoding="utf-8"?><svg xmlns="http://www.w3.org/2000/svg" xmlns:xlink="http://www.w3.org/1999/xlink" id="Layer_1" data-name="Layer 1" viewBox="0 0 697 551"><defs><linearGradient id="linear-gradient" x1="-267.59" x2="668.12" y1="230.5" y2="195.13" gradientUnits="userSpaceOnUse"><stop offset="0" stop-color="#142954"/><stop offset=".66" stop-color="#142954" stop-opacity=".3"/><stop offset="1" stop-color="#142954" stop-opacity="0"/></linearGradient><linearGradient id="linear-gradient-2" x1="-69.94" x2="536.64" y1="276.45" y2="253.52" xlink:href="#linear-gradient"/><linearGradient id="linear-gradient-3" x1="-241.65" x2="449.03" y1="326.08" y2="299.98" xlink:href="#linear-gradient"/><linearGradient id="linear-gradient-4" x1="-106.44" x2="317.23" y1="317.88" y2="358.82" xlink:href="#linear-gradient"/><linearGradient id="linear-gradient-5" x1="-109.82" x2="313.85" y1="352.84" y2="393.78" xlink:href="#linear-gradient"/><linearGradient id="linear-gradient-6" x1="-114.16" x2="309.51" y1="397.72" y2="438.66" xlink:href="#linear-gradient"/><linearGradient id="linear-gradient-7" x1="573.78" x2="439.09" y1="161.82" y2="165.97" gradientUnits="userSpaceOnUse"><stop offset="0" stop-color="#ccccea"/><stop offset=".44" stop-color="#bbbbe3"/><stop offset=".45" stop-color="#b9b9e2"/><stop offset=".54" stop-color="#aeaede"/><stop offset=".66" stop-color="#a7a7dc"/><stop offset="1" stop-color="#a5a5db"/></linearGradient><linearGradient id="linear-gradient-8" x1="412.13" x2="549.85" y1="209.18" y2="209.18" gradientUnits="userSpaceOnUse"><stop offset="0" stop-color="#ccccea"/><stop offset=".65" stop-color="#bbbbe3"/><stop offset=".65" stop-color="#b9b9e2"/><stop offset=".71" stop-color="#aeaede"/><stop offset=".78" stop-color="#a7a7dc"/><stop offset="1" stop-color="#a5a5db"/></linearGradient><linearGradient id="linear-gradient-9" x1="237.18" x2="583.31" y1="237.98" y2="248.66" xlink:href="#linear-gradient-8"/><linearGradient id="linear-gradient-10" x1="169.24" x2="515.37" y1="261.98" y2="272.66" xlink:href="#linear-gradient-8"/><linearGradient id="linear-gradient-11" x1="19" x2="360" y1="223.55" y2="254.01" xlink:href="#linear-gradient-8"/><linearGradient id="linear-gradient-12" x1="-.78" x2="340.21" y1="245.65" y2="276.11" xlink:href="#linear-gradient-8"/><linearGradient id="linear-gradient-13" x1="210.11" x2="210.5" y1="153.44" y2="153.84" xlink:href="#linear-gradient-8"/><linearGradient id="linear-gradient-14" x1="145.6" x2="486.59" y1="297.78" y2="328.24" xlink:href="#linear-gradient-8"/><linearGradient id="linear-gradient-15" x1="50.73" x2="391.72" y1="312.18" y2="342.64" xlink:href="#linear-gradient-8"/><style>.cls-7{isolation:isolate}.cls-10{fill:#a5a5db}.cls-11{fill:#eeedfd}.cls-21{fill:#005cb9}.cls-22{fill:#3cb4e5}.cls-23{fill:#00a0df}.cls-24{fill:#0293bf}</style></defs><path fill="url(#linear-gradient)" d="M630 183.89a90.89 90.89 0 00-21.81-16.57 137.25 137.25 0 00-28.63-12.81 99.15 99.15 0 00-27.5-4.51 95.58 95.58 0 00-20.39 1.79l-19.39-4.22-46.68 13.81s-26.11 21.79-26.11 23.76c0 1.59 14.68 14.78 20.4 19.86 1.42 10 11.19 20.29 29.52 30.94q29 16.85 55.79 17.15a95.1 95.1 0 0026.36-3.25 108 108 0 0024.61-10.15l1-.61 16.09-9.29 1.06-.6A66.53 66.53 0 00632 215c3.92-4.74 5.89-10 5.67-15.24-.39-5.58-2.99-11.02-7.67-15.87zm-142.55 9.29c3.19-3.84 7.57-6.9 11.78-9.49l-5.47 3.37c5.73-3.83 11.76-7.41 18.41-9.21a26.16 26.16 0 0118.59 1.79c4.81 2.27 9.18 5.38 13.94 7.74 2.77 1.37 10.8 4.67 7.9 7.66-1 1-5.32 1.34-6.72 1.69l-22.85 5.75-34.92 8.78.21 1.06c-2.5-3-4-5.89-4.36-8.69a13.68 13.68 0 013.51-10.45z"/><path fill="url(#linear-gradient-2)" d="M404.52 218.88l-16.79 9.7 72.64 42.21-6.57 24.43 47.36-.72 16.79-9.7-113.43-65.92z"/><path fill="url(#linear-gradient-3)" d="M425.82 284.31l-15.63-9.08h-31.73L322.11 306l6.23 4-2.26-1.31a30.46 30.46 0 01-4-2.7 21.55 21.55 0 01-3.1-2.85 9.12 9.12 0 01-2.53-6.6 8.17 8.17 0 011-3.69 14.82 14.82 0 012.59-3.8 40.64 40.64 0 019.74-7.65l.82-.47 45.58-26.32-16.66-9.61h-30.71s-48.68 26.65-49.23 28.48 10.79 14.24 10.79 14.24l5.88-2.92-.15.16a26.28 26.28 0 00-3.69 6.18 14.36 14.36 0 00.18 11.55 20.25 20.25 0 003.56 5.44 55.2 55.2 0 0013.41 10.43l36.07 21-8.7 23.19 47.36-.72 16.79-9.69-46.34-26.93z"/><path fill="url(#linear-gradient-4)" d="M194.34 360.94l11.91-21.21c1-2.5-.24-5.13-3.28-7L153.58 304a6.79 6.79 0 00-6.17-.69l-.47.27a3.29 3.29 0 00-1 1.07l-36 64.2c-2.17 4.11-3.62 6.88-2.35 9.45a2.26 2.26 0 011.07-1.17 5.06 5.06 0 012-.6z"/><path fill="url(#linear-gradient-5)" d="M291.37 389.2a6.72 6.72 0 002.06-.7c1.61-.93 1.37-2.4-.95-3.75l-49.38-28.7a20.64 20.64 0 00-12.1-1.94L194.34 361l-27.24 48.62v-.16l27.21-48.47-83.73 15.62a5.06 5.06 0 00-2 .6 2.19 2.19 0 00-1.06 1.18 9.06 9.06 0 003.42 3.52l47.88 27.82.45.24c.35.18.8.28 1.18.43-.38-.15-.83-.25-1.18-.43a16.65 16.65 0 003.15 1.18 22.41 22.41 0 008.5.53z"/><path fill="url(#linear-gradient-6)" d="M316.11 442.87l-69.8-40.56L173.43 416a28.87 28.87 0 01-3.08.35l31.79 18.48v23.68h45.47a28.43 28.43 0 005.79 0l61.38-10.36a7.86 7.86 0 002.58-.83c1.9-1.07 1.54-2.83-1.25-4.45z"/><g class="cls-7"><path fill="#010101" d="M565.87 162.67l.11 38.7a11.41 11.41 0 00-.08-1.29l-.11-38.7a11.42 11.42 0 01.08 1.29z"/><path fill="url(#linear-gradient-7)" d="M565.79 161.38a19.56 19.56 0 00-6.25-10.87 78.19 78.19 0 00-15.92-11.46 107.6 107.6 0 00-19.83-9.2 66.69 66.69 0 00-18.71-3.74 57 57 0 00-18.17 2 73.69 73.69 0 00-17 7l-.8.47L453 144.9l-.79.45A46.54 46.54 0 00440 155.2a14.1 14.1 0 00-3.56 9.06l.11 38.7a14.1 14.1 0 013.56-9.06 46.54 46.54 0 0112.23-9.9l.79-.45 16.09-9.29.8-.47a73.69 73.69 0 0117-7 57 57 0 0118.17-2 66.7 66.7 0 0118.71 3.74 107.59 107.59 0 0119.83 9.2 78.19 78.19 0 0115.92 11.46 19.56 19.56 0 016.25 10.87z"/><path d="M590.18 162.46l.11 38.7c0 5-1.94 10-5.69 14.53a66.53 66.53 0 01-17.6 14.22l-1.06.6-.11-38.7 1.06-.6a66.53 66.53 0 0017.6-14.21c3.75-4.54 5.71-9.53 5.69-14.54z" class="cls-10"/><path d="M565.83 191.81l.11 38.7-16.09 9.29-.11-38.7 16.09-9.29z" class="cls-10"/><path d="M532.12 116.53a137.26 137.26 0 0128.63 12.81 90.88 90.88 0 0121.81 16.57c4.66 4.85 7.25 10.29 7.61 15.84.21 5.25-1.75 10.5-5.67 15.24a66.53 66.53 0 01-17.6 14.22l-1.06.6-16.09 9.29-1 .61a108 108 0 01-24.61 10.15 95.09 95.09 0 01-26.36 3.25q-26.88-.31-55.84-17.11t-29.78-32.58c-.24-5.3 1.66-10.55 5.55-15.35a65.7 65.7 0 0117.39-14.1l1.27-.72 16.09-9.29q25-14.44 52.13-13.91a99.15 99.15 0 0127.53 4.48zm27.42 34a78.19 78.19 0 00-15.92-11.46 107.61 107.61 0 00-19.83-9.2 66.7 66.7 0 00-18.71-3.74 57.05 57.05 0 00-18.17 2 73.69 73.69 0 00-17 7l-.8.47-16.11 9.3-.79.45A46.53 46.53 0 00440 155.2a13.68 13.68 0 00-3.47 10.45q1.39 10.39 22.32 22.56a109.61 109.61 0 0019.8 9.19 66.88 66.88 0 0018.56 3.69 58.73 58.73 0 0018.1-2.09 75.73 75.73 0 0016.79-7l1-.62 16.06-9.27q17.78-10.32 16.58-20.7a19.56 19.56 0 00-6.25-10.87" class="cls-11"/><path fill="url(#linear-gradient-8)" d="M549.74 201.1l-1 .61a108 108 0 01-24.61 10.15 95.1 95.1 0 01-26.36 3.25q-26.87-.31-55.83-17.11t-29.78-32.58v-.84l.11 38.7v.84q.73 15.69 29.73 32.55t55.79 17.15a95.08 95.08 0 0026.36-3.25 108 108 0 0024.61-10.15l1-.61z"/></g><g class="cls-7"><path fill="url(#linear-gradient-9)" d="M453.69 256.52l.11 38.7-113.43-65.92-.11-38.7 113.43 65.92z"/><path fill="url(#linear-gradient-10)" d="M470.48 246.83l-16.79 9.69.11 38.7 16.79-9.7-.11-38.69z"/><path d="M453.69 256.52L340.26 190.6l16.79-9.69 113.43 65.92-16.79 9.69z" class="cls-11"/></g><g class="cls-7"><path fill="url(#linear-gradient-11)" d="M328.7 216.68l-45.58 26.31.1 38.7 45.59-26.32-.11-38.69z"/><path fill="url(#linear-gradient-12)" d="M283.11 243l-.82.47a40.64 40.64 0 00-9.74 7.65 14.82 14.82 0 00-2.59 3.8 8.17 8.17 0 00-1 3.69v.48l.11 38.7v-.48a8.17 8.17 0 011-3.69 14.83 14.83 0 012.59-3.8 40.64 40.64 0 019.74-7.65l.82-.47z"/><path fill="url(#linear-gradient-13)" d="M378.35 246.34l-71.08 41.03.11 38.69 71.08-41.03-.11-38.69z"/><path fill="url(#linear-gradient-14)" d="M336.82 324l-74.74-43.43a55.2 55.2 0 01-13.41-10.43 20.25 20.25 0 01-3.56-5.44 14.74 14.74 0 01-1.3-5.95l.11 38.7a14.74 14.74 0 001.3 5.95 20.25 20.25 0 003.56 5.44 55.19 55.19 0 0013.41 10.43l74.74 43.43z"/><path d="M263.7 234.9l1.34-.76L312 207l16.65 9.68L283.11 243l-.82.47a40.64 40.64 0 00-9.74 7.65 14.82 14.82 0 00-2.59 3.8 8.16 8.16 0 00-1 3.69 9.12 9.12 0 002.53 6.6 21.54 21.54 0 003.1 2.85 30.46 30.46 0 004 2.69l13 7.56 71.1-41.05 15.63 9.08-71.07 41 46.34 26.93-16.77 9.73-74.74-43.43a55.19 55.19 0 01-13.41-10.43 20.25 20.25 0 01-3.56-5.44 14.36 14.36 0 01-.18-11.55 26.28 26.28 0 013.69-6.18 58.26 58.26 0 0115.08-12.07z" class="cls-11"/><path fill="url(#linear-gradient-15)" d="M353.62 314.3l-16.8 9.69.11 38.7 16.8-9.69-.11-38.7z"/></g><g class="cls-7"><path fill="#034f8c" d="M158.64 299.3a4.58 4.58 0 01-.34 1.74l-11.91 21.21.11 38.7 11.91-21.21a4.57 4.57 0 00.34-1.74z"/><path d="M146.39 322.24l.11 38.7-83.73 15.62-.11-38.69 83.73-15.63zm-83.73 15.63l.11 38.7a5.05 5.05 0 00-2 .6 2.26 2.26 0 00-1.07 1.17l-.11-38.7a2.26 2.26 0 011.07-1.17 5.05 5.05 0 012-.6z" class="cls-21"/><path d="M99.46 264.65a6.79 6.79 0 016.17.69L155 294c3 1.87 4.29 4.5 3.28 7l-11.91 21.21-83.71 15.66a5.05 5.05 0 00-2 .6 2.26 2.26 0 00-1.07 1.17c-1.27-2.57.18-5.33 2.35-9.45L98 266a3.29 3.29 0 011-1.07z" class="cls-21"/><path d="M59.23 376.3l-.11-38.7a4.52 4.52 0 00.47 2l.11 38.7a4.52 4.52 0 01-.47-2z" class="cls-21"/><path d="M59.59 339.68a9.06 9.06 0 003.41 3.49l-1.51-.88c-1.49-.87-2.1-1.8-1.9-2.61z" class="cls-22"/><path d="M119.17 370.71l.11 38.7-.03.16-.11-38.7.03-.16z" class="cls-23"/><path d="M119.14 370.87l.11 38.7a2.33 2.33 0 01-1 1 5.79 5.79 0 01-3.57.57l-.11-38.7a5.79 5.79 0 003.57-.57 2.33 2.33 0 001-1z" class="cls-23"/><path d="M114.54 411l.18.06-.11-38.7a16.1 16.1 0 01-3.26-1.18l-.45-.24L63 343.17a9.06 9.06 0 01-3.42-3.52v.33l.11 38.7c0 .73.64 1.55 2 2.31l1.51.87 47.8 27.83.63.37V410a16.73 16.73 0 002.9 1.08z" class="cls-24"/><path d="M111.28 371.2h.06a16.64 16.64 0 003.15 1.18 8.33 8.33 0 01-3-1l-.63-.37z" class="cls-21"/><path d="M60.66 338.47a5.05 5.05 0 012-.6l83.73-15.62-27.21 48.47v.16a2.33 2.33 0 01-1 1 5.79 5.79 0 01-3.57.57 16.08 16.08 0 01-3.26-1.18l-.45-.24L63 343.17a9.06 9.06 0 01-3.42-3.52 2.18 2.18 0 011.08-1.18z" class="cls-23"/><path d="M246.51 348.38a1.71 1.71 0 01-1 1.43 6.72 6.72 0 01-2.06.7L123 372.94a22.41 22.41 0 01-8.4-.51l-.07 38.65h.07a22.4 22.4 0 008.5.53l120.43-22.41a6.72 6.72 0 002.06-.7 1.71 1.71 0 001-1.43z" class="cls-24"/><path d="M183 315.42a20.64 20.64 0 0112.1 1.94l49.38 28.7c2.32 1.35 2.56 2.81.95 3.75a6.72 6.72 0 01-2.06.7L123 372.94a22.4 22.4 0 01-8.5-.53 16.65 16.65 0 01-3.15-1.18 16.08 16.08 0 003.26 1.18 5.79 5.79 0 003.57-.57 2.33 2.33 0 001-1l27.24-48.62z" class="cls-22"/><path fill="#2c4699" d="M270.59 407a2 2 0 01-1.18 1.64 7.86 7.86 0 01-2.58.83l-61.38 10.36.11 38.7 61.38-10.36a7.86 7.86 0 002.58-.83 2 2 0 001.18-1.64z"/><path fill="#425cc7" d="M122.4 377.68a28.93 28.93 0 003.08-.35l72.88-13.72 69.8 40.56c2.79 1.62 3.14 3.38 1.25 4.47a7.86 7.86 0 01-2.58.83l-61.38 10.36a25.75 25.75 0 01-14.85-2.52z"/><path fill="#284ab5" d="M205.45 419.83a25.75 25.75 0 01-14.85-2.52l-68.2-39.63.11 38.7 68.2 39.62a25.75 25.75 0 0014.85 2.52z"/></g><g class="cls-7"><path d="M63.22 343.29l2.54 1.47-1-.52-.79-.46z" class="cls-21"/></g></svg>